<?xml version="1.0" encoding="UTF-8" standalone="no"?>
<!DOCTYPE svg PUBLIC "-//W3C//DTD SVG 20010904//EN" "http://www.w3.org/TR/2001/REC-SVG-20010904/DTD/svg10.dtd">
<svg version="1.0" xmlns="http://www.w3.org/2000/svg" width="800.000000pt" height="800.000000pt" viewBox="0 0 800.000000 800.000000" preserveAspectRatio="xMidYMid meet">
<metadata>
Created by potrace 1.11, written by Peter Selinger 2001-2013
</metadata>
<g transform="translate(0.000000,800.000000) scale(0.100000,-0.100000)" fill="#000000" stroke="none">
<path d="M3055 7901 c-22 -10 -48 -27 -57 -38 -43 -48 -44 -46 237 -642 151 -323 276 -577 292 -593 34 -35 68 -36 133 -3 54 28 70 49 70 94 0 45 -520 1143 -557 1175 -33 30 -64 32 -118 7z"/>
<path d="M4821 7903 c-25 -21 -551 -1155 -551 -1188 0 -49 85 -115 149 -115 17 0 41 10 55 23 35 30 549 1140 550 1184 1 78 -143 146 -203 96z"/>
<path d="M2035 7691 c-44 -11 -73 -32 -85 -62 -18 -42 100 -1335 126 -1377 23 -40 55 -51 121 -42 l52 6 -61 -55 c-85 -78 -93 -83 -180 -112 -242 -82 -411 -278 -463 -538 -23 -112 -17 -184 19 -219 25 -26 32 -27 146 -30 l119 -4 25 -54 c34 -73 105 -146 182 -186 l64 -33 0 -675 c0 -371 5 -704 10 -739 l9 -65 381 -381 380 -380 0 -1373 0 -1372 125 0 125 0 0 327 0 328 328 -328 327 -327 215 0 215 0 327 327 328 328 0 -328 0 -327 125 0 125 0 0 1353 0 1353 370 393 c204 216 377 405 385 421 13 25 15 131 15 748 l0 719 45 18 c91 34 201 148 220 226 l7 27 124 3 c118 4 125 5 150 30 34 35 40 90 21 199 -26 152 -90 280 -192 384 -100 102 -219 168 -356 197 -44 10 -70 29 -232 172 -248 221 -244 217 -280 217 -18 -1 -198 -59 -402 -129 -291 -101 -372 -126 -380 -116 -5 7 -30 41 -55 76 -83 116 -253 230 -387 261 l-53 13 0 57 c0 31 -5 68 -11 82 -10 20 -9 29 2 42 12 14 13 85 11 413 -4 441 -3 432 -72 451 -54 15 -109 3 -142 -31 l-28 -27 0 -387 c0 -235 4 -394 10 -405 7 -13 5 -26 -5 -47 -8 -15 -15 -55 -15 -88 l0 -60 -90 -28 c-153 -49 -315 -178 -381 -302 -13 -25 -28 -44 -34 -41 -133 49 -779 266 -793 266 -41 0 -78 -23 -166 -104 -113 -102 -113 -102 -108 -63 3 29 -101 1252 -113 1323 -10 60 -77 94 -150 75z m2058 -1376 c86 -18 157 -57 222 -120 45 -45 115 -156 115 -184 0 -8 -122 -11 -431 -11 l-431 0 7 28 c21 89 127 205 232 254 99 47 179 56 286 33z m-1138 -243 l340 -117 6 -70 c4 -38 9 -79 13 -90 6 -18 -14 -30 -200 -113 -113 -51 -208 -92 -209 -90 -2 2 -14 31 -28 65 -60 149 -189 285 -336 355 -50 24 -89 46 -88 49 4 13 142 129 152 128 5 0 163 -53 350 -117z m2489 48 c41 -36 75 -67 75 -70 1 -3 -33 -22 -74 -44 -137 -70 -274 -220 -328 -358 -12 -32 -25 -58 -28 -58 -6 0 -366 163 -400 181 -18 9 -18 11 -3 34 11 17 15 43 13 91 -1 37 2 70 7 72 70 29 633 220 646 218 9 0 50 -30 92 -66z m-3128 -291 c148 -27 308 -165 339 -291 l7 -28 -431 0 c-289 0 -431 3 -431 10 0 6 14 38 31 72 71 141 230 242 390 247 19 1 62 -4 95 -10z m3535 1 c149 -28 302 -160 344 -297 l6 -23 -430 0 c-490 0 -453 -9 -399 92 90 169 288 264 479 228z m-1741 -85 c0 -14 -66 -35 -110 -35 -44 0 -110 21 -110 35 0 3 50 5 110 5 61 0 110 -2 110 -5z m-292 -246 l52 -24 0 -125 -1 -125 -741 -335 c-407 -184 -749 -338 -759 -342 -18 -7 -19 2 -19 215 l0 222 58 24 c41 18 77 46 129 98 60 61 86 79 160 111 48 22 110 42 137 46 34 5 56 16 73 34 16 18 150 84 380 188 l355 161 61 -62 c36 -35 84 -72 115 -86z m1027 -74 c121 -54 229 -109 240 -121 27 -30 57 -44 94 -44 16 0 72 -19 123 -43 79 -35 104 -53 156 -108 42 -45 82 -76 122 -95 l60 -29 0 -222 0 -222 -97 45 c-54 24 -395 179 -758 343 l-660 298 -2 124 -2 124 69 33 c49 23 84 49 117 86 l46 53 136 -62 c75 -34 235 -106 356 -160z m-2505 -170 c0 -2 -14 -12 -32 -21 -39 -20 -133 -15 -168 9 -24 16 -21 17 88 17 61 0 112 -2 112 -5z m3530 0 c0 -13 -65 -35 -105 -35 -40 0 -105 22 -105 35 0 3 47 5 105 5 58 0 105 -2 105 -5z m-2000 -537 l-1 -233 -741 -335 c-407 -184 -749 -338 -759 -342 -18 -7 -19 3 -19 225 l0 232 753 342 c413 188 755 342 760 342 4 1 7 -104 7 -231z m1015 -109 c402 -181 736 -333 743 -338 9 -6 12 -60 10 -237 l-3 -230 -755 341 -755 342 -3 233 c-2 219 -1 232 15 226 10 -4 347 -155 748 -337z m-1015 -692 l0 -293 -422 -338 -422 -337 -303 303 -303 303 37 18 c98 46 1399 636 1406 636 4 1 7 -131 7 -292z m983 -33 c397 -179 723 -327 725 -329 5 -4 -580 -615 -589 -615 -5 0 -203 155 -439 345 l-430 346 0 289 c0 160 3 290 6 290 3 0 330 -147 727 -326z m-986 -981 c-2 -2 -115 -2 -251 -1 l-248 3 249 198 248 199 3 -197 c1 -109 1 -200 -1 -202z m515 197 l251 -200 -257 0 -256 0 0 200 c0 110 3 200 6 200 4 0 119 -90 256 -200z m-512 -705 c0 -140 -1 -255 -3 -255 -1 0 -117 115 -257 255 l-255 255 258 0 257 0 0 -255z m520 0 c-140 -140 -258 -255 -262 -255 -5 0 -8 115 -8 255 l0 255 262 0 263 0 -255 -255z m-600 -540 c0 -6 -148 -159 -330 -340 l-330 -330 0 670 0 670 330 -330 c182 -181 330 -334 330 -340z m1080 -2 l0 -668 -335 335 -335 335 332 332 c183 183 334 333 335 333 2 0 3 -300 3 -667z m-418 -1265 l-332 -333 0 665 0 665 332 -333 333 -332 -333 -332z m-582 330 l0 -653 -327 327 -328 328 325 325 c179 179 326 325 327 325 2 0 3 -294 3 -652z"/>
<path d="M5878 7686 c-61 -20 -61 -20 -122 -739 -50 -588 -54 -662 -41 -686 37 -73 196 -71 224 2 16 41 122 1342 112 1368 -5 14 -16 31 -26 39 -23 19 -108 28 -147 16z"/>
<path d="M5207 7036 c-15 -6 -151 -117 -303 -246 -302 -257 -326 -284 -300 -342 8 -18 28 -48 44 -65 24 -26 39 -33 69 -33 21 0 50 8 64 18 14 9 150 122 302 251 191 162 279 243 286 263 27 77 -88 185 -162 154z"/>
<path d="M2690 7014 c-53 -45 -74 -109 -50 -153 13 -26 574 -494 607 -507 45 -18 87 0 128 53 34 44 43 81 29 117 -9 22 -576 493 -609 506 -43 16 -71 12 -105 -16z"/>
<path d="M6472 6948 c-35 -38 -399 -683 -406 -720 -8 -43 17 -79 75 -108 50 -26 92 -25 123 3 34 30 404 679 412 723 8 44 -13 77 -66 104 -54 27 -111 26 -138 -2z"/>
<path d="M1456 6933 c-38 -10 -97 -54 -107 -81 -6 -15 -8 -38 -5 -52 7 -37 363 -651 392 -677 33 -30 75 -29 134 3 49 27 70 56 70 100 0 32 -353 640 -396 682 -33 31 -47 35 -88 25z"/>
<path d="M7449 6797 c-15 -7 -256 -174 -537 -372 -433 -305 -513 -366 -527 -397 -21 -43 -15 -76 21 -123 33 -43 77 -62 114 -48 31 12 1031 712 1067 747 34 33 37 65 11 116 -15 30 -37 53 -63 67 -46 26 -51 26 -86 10z"/>
<path d="M458 6784 c-15 -8 -39 -34 -53 -59 -32 -53 -28 -89 13 -127 46 -43 1033 -729 1064 -740 43 -15 91 10 128 69 32 51 36 76 17 110 -7 12 -252 189 -544 393 -568 395 -559 390 -625 354z"/>
<path d="M7005 5806 c-435 -81 -445 -85 -445 -163 0 -82 43 -143 101 -143 26 0 787 135 821 146 71 22 79 143 16 212 -17 17 -32 22 -67 21 -25 -1 -217 -33 -426 -73z"/>
<path d="M601 5844 c-31 -22 -51 -73 -51 -128 0 -81 6 -83 411 -154 195 -34 367 -62 381 -62 66 0 123 114 94 185 -8 18 -24 39 -37 45 -26 14 -685 130 -739 130 -19 0 -46 -7 -59 -16z"/>
<path d="M709 5176 c-305 -84 -562 -156 -570 -161 -64 -37 -75 -88 -37 -165 44 -86 12 -90 606 70 686 184 657 175 682 208 31 38 24 117 -14 166 -24 32 -32 36 -69 35 -23 -1 -292 -70 -598 -153z"/>
<path d="M6628 5305 c-47 -44 -50 -148 -6 -191 18 -17 157 -58 610 -179 537 -143 589 -156 614 -143 43 21 65 59 71 124 5 54 3 61 -20 82 -20 19 -146 55 -607 178 -321 85 -595 154 -609 154 -14 0 -38 -11 -53 -25z"/>
<path d="M1617 5081 c-36 -19 -735 -604 -752 -630 -31 -49 -12 -116 47 -166 47 -39 86 -34 155 22 176 143 694 586 707 605 25 35 19 72 -16 119 -44 57 -93 74 -141 50z"/>
<path d="M6283 5075 c-28 -20 -73 -95 -73 -121 1 -10 6 -29 13 -41 19 -34 809 -692 839 -698 38 -9 76 12 115 63 42 56 44 100 6 141 -16 15 -200 171 -410 345 -343 284 -387 317 -425 322 -31 4 -49 1 -65 -11z"/>
<path d="M1863 4870 c-12 -5 -29 -19 -37 -32 -8 -13 -146 -306 -307 -653 -204 -441 -292 -640 -292 -663 1 -18 9 -43 20 -54 22 -25 95 -58 129 -58 55 0 74 35 374 685 306 663 313 682 271 724 -42 42 -119 67 -158 51z"/>
<path d="M6075 4870 c-71 -16 -125 -65 -125 -115 0 -9 133 -303 296 -653 321 -691 325 -699 394 -689 49 6 118 51 131 84 6 15 7 38 4 51 -7 27 -579 1247 -599 1277 -22 32 -67 53 -101 45z"/>
</g>
</svg>