<svg id="Layer_1" data-name="Layer 1" xmlns="http://www.w3.org/2000/svg" viewBox="0 0 952.92 69.4">
  <defs>
    <style>
      .cls-1 {
        fill: #ea5956;
      }

      .cls-2 {
        fill: none;
        stroke: #ea5956;
        stroke-miterlimit: 10;
        stroke-width: 2px;
      }
    </style>
  </defs>
  <title>about-founder-1280</title>
  <g id="Layer_2" data-name="Layer 2">
    <g id="ART">
      <g>
        <path class="cls-1" d="M120.21,21.33h1.28v2.59h4.39V21.33h1.28v6.54h-1.28V25.06h-4.39v2.82h-1.28Z"/>
        <path class="cls-1" d="M132.31,21.33h5.87v1.1h-4.59V24h4v1h-4v1.73h4.7v1.1h-6Z"/>
        <path class="cls-1" d="M145.43,21.33h1.46l3.18,6.54h-1.35l-.68-1.5h-3.77l-.69,1.5h-1.36Zm2.1,3.94-1.37-2.92-1.37,2.92Z"/>
        <path class="cls-1" d="M154.51,21.33h3.15c2.07,0,3.73.87,3.73,3.23s-1.51,3.31-3.67,3.31h-3.2Zm2.57,5.45c2.18,0,3-.67,3-2.2s-.88-2.15-3-2.15h-1.3v4.35Z"/>
        <path class="cls-1" d="M179.84,25.54c-.13.73-.65,2.49-3.66,2.49-2.07,0-3.7-1.15-3.7-3.54,0-1.91,1.2-3.33,3.8-3.33,2.93,0,3.36,1.9,3.46,2.25h-1.28a2.07,2.07,0,0,0-2.11-1.15,2.34,2.34,0,1,0-.37,4.67h.3a2.18,2.18,0,0,0,2.28-1.4Z"/>
        <path class="cls-1" d="M184.64,21.33h1.28v6.54h-1.28Z"/>
        <path class="cls-1" d="M191.15,21.33h3.15c2.07,0,3.73.87,3.73,3.23s-1.51,3.31-3.67,3.31h-3.21Zm2.57,5.45c2.18,0,3-.67,3-2.2s-.88-2.15-3-2.15h-1.3v4.35Z"/>
        <path class="cls-1" d="M202.75,21.33h5.87v1.1H204V24h4v1h-4v1.73h4.7v1.1h-6Z"/>
        <path class="cls-1" d="M213.35,21.33h3.93c1.55,0,2.67.35,2.67,2a1.85,1.85,0,0,1-1.77,1.93h-.06l2,2.67h-1.58l-1.9-2.58h-2v2.58h-1.28Zm3.75,2.91c1,0,1.58-.15,1.58-.93s-.53-.92-1.58-.92h-2.47v1.85Z"/>
        <path class="cls-1" d="M226.07,22.91h0v5h-1.13V21.33h1.72l2,4.85,2.08-4.85h1.68v6.54h-1.13v-5h0l-2.1,5h-1Z"/>
        <path class="cls-1" d="M240.07,21.33h1.46l3.18,6.54h-1.35l-.68-1.5H238.9l-.69,1.5h-1.36Zm2.1,3.94-1.37-2.92-1.37,2.92Z"/>
        <path class="cls-1" d="M249.15,21.33h1.28v3l3.63-3h1.82l-3.12,2.59,3.44,4h-1.67l-2.69-3.2-1.4,1.16v2h-1.28Z"/>
        <path class="cls-1" d="M260.75,21.33h5.87v1.1H262V24h4v1h-4v1.73h4.7v1.1h-6Z"/>
        <path class="cls-1" d="M271.36,21.33h3.93c1.55,0,2.67.35,2.67,2a1.85,1.85,0,0,1-1.77,1.93h-.06l2,2.67h-1.58l-1.9-2.58h-2v2.58h-1.28Zm3.75,2.91c1,0,1.58-.15,1.58-.93s-.53-.92-1.58-.92h-2.47v1.85Z"/>
      </g>
      <g>
        <path class="cls-1" d="M119.84,35.1h4.83c2.59,0,4.27.86,4.41,3.19a2.9,2.9,0,0,1-2,3c1.69.68,2.27,1.46,2.27,3.44s-1.42,3.42-4.74,3.42h-4.79Zm2.49,5.19h2.48a1.6,1.6,0,1,0,0-3.17h-2.48Zm0,5.8h2.48c1.44,0,2.07-.65,2.07-1.89s-.63-1.89-2.07-1.89h-2.48Z"/>
        <path class="cls-1" d="M133,48.1v-13h8.61v2.09h-6.12v3.1H140v2.09h-4.45V46h6.32v2.1Z"/>
        <path class="cls-1" d="M145.06,48.1v-13h2.59l5.12,8.9h0V35.1h2.34v13h-2.39l-5.31-9.25h0V48.1Z"/>
        <path class="cls-1" d="M159.3,45.26c.43.72.79.94,1.35.94s1-.4,1-1.55V35.1h2.48v9.49c0,2.43-1.21,3.69-3.51,3.69a3.48,3.48,0,0,1-3.06-1.75Z"/>
        <path class="cls-1" d="M170.73,35.08h3.1l3.69,13H175l-.72-2.81h-4.11l-.77,2.81H167Zm0,8.16h3l-1.46-5.65h0Z"/>
        <path class="cls-1" d="M180.29,48.1v-13h3.49l2.5,9.08h0l2.52-9.08h3.53v13h-2.16V37.87h0L187.25,48.1h-1.89l-2.88-10.23h0V48.1Z"/>
        <path class="cls-1" d="M196.63,48.1v-13h2.49v13Z"/>
        <path class="cls-1" d="M203.4,48.1v-13H206l5.1,8.9h0V35.1h2.34v13h-2.39l-5.31-9.25h0V48.1Z"/>
        <path class="cls-1" d="M222.94,35.1h2.32l1.64,8.77h0l1.85-8.77h2.56L233,43.87h0l1.78-8.77h2.32l-2.7,13H232l-1.89-9.25h0l-1.87,9.25h-2.52Z"/>
        <path class="cls-1" d="M240.17,48.1v-13h8.61v2.09h-6.12v3.1h4.45v2.09h-4.45V46H249v2.1Z"/>
        <path class="cls-1" d="M254.72,35.08h3.1l3.69,13H259l-.72-2.81h-4.11l-.77,2.81H251Zm0,8.16h3l-1.46-5.65h0Z"/>
        <path class="cls-1" d="M262.33,35.1h2.45l2.3,9.58h0l2.41-9.58H272l-3.44,13h-2.77Z"/>
        <path class="cls-1" d="M274.75,48.1v-13h8.61v2.09h-6.12v3.1h4.45v2.09h-4.45V46h6.32v2.1Z"/>
        <path class="cls-1" d="M286.72,48.1v-13h5.19c3,0,4.14,1.71,4.16,3.85a3.22,3.22,0,0,1-2.38,3.35l2.86,5.8H293.8l-2.45-5.29H289.2V48.1Zm2.49-7.31H291c1.94,0,2.54-.61,2.54-1.84s-.74-1.84-2.11-1.84H289.2Z"/>
      </g>
      <g>
        <path class="cls-1" d="M28.74,46.22a2.32,2.32,0,0,0,2.46-1.14.52.52,0,0,1,.7.23l0,.07a10,10,0,0,1-1.66,3.06c-.84,0-1.72-.06-3.15-.06H23.54c-1.08,0-2,0-2.63.06a.42.42,0,0,1-.09-.5A46.89,46.89,0,0,0,25,44.75c1.81-1.42,5-4.07,5-6.18a2,2,0,0,0-2.26-2.33,3.92,3.92,0,0,0-2.91,2c-.28.06-.69-.15-.67-.43a5.73,5.73,0,0,1,5.08-3.21c2.2,0,3.9,1.25,3.9,3.51,0,2.56-2.65,4.2-4.76,5.67l-1.29.91c-1.21.84-1.57,1.16-1.57,1.31s.11.24.67.24Z"/>
        <path class="cls-1" d="M46,39a13.31,13.31,0,0,1-2.91,7.56,5.76,5.76,0,0,1-4.31,2.15c-2.89,0-3.6-2.11-3.6-4.24A12.4,12.4,0,0,1,38,36.91a5.9,5.9,0,0,1,4.33-2.33C45.22,34.59,46,36.81,46,39Zm-7.13,2a16.73,16.73,0,0,0-1.1,5c0,1.19.47,1.7,1.08,1.7s1.44-.8,2.11-2.15c1.21-2.46,2.46-6.21,2.46-8.21,0-.71,0-1.75-1-1.75-1.54,0-2.75,3-3.59,5.41Z"/>
        <path class="cls-1" d="M51.48,36.59a.51.51,0,0,1,0-.72l0,0c1-.17,2-.39,3-.62a13,13,0,0,0,2-.67.35.35,0,0,1,.34.3c-.26.63-.62,1.64-.91,2.5L53.3,45.58c-.52,1.64-.37,1.85.71,2l.8.11c.22.11.15.67-.11.75q-1.62-.06-3.62-.06c-1.16,0-2.22,0-3.21.06a.49.49,0,0,1,0-.69l.07-.06.75-.11c1.16-.17,1.31-.37,1.83-2l2.15-6.79a5.6,5.6,0,0,0,.39-1.55c0-.32-.24-.5-.69-.54Z"/>
        <path class="cls-1" d="M64.52,48.68c-3,0-4.44-1.83-4.44-4.44a10.65,10.65,0,0,1,4.8-8.19,15.94,15.94,0,0,1,7.78-2.61c.26.06.3.58.13.73a11.71,11.71,0,0,0-6.08,2.89,11.39,11.39,0,0,0-3.75,8c0,1.12.13,2.63,1.49,2.63,1.87,0,2.63-2.91,2.63-4.18,0-.82-.13-2-1.18-2.24a2.55,2.55,0,0,0-.93,0,.39.39,0,0,1-.09-.54l0,0a3.62,3.62,0,0,1,2.15-.82,3,3,0,0,1,3.06,3.3,5.52,5.52,0,0,1-5.53,5.51Z"/>
      </g>
      <line class="cls-2" x1="98.46" y1="1" x2="98.46" y2="68.4"/>
      <line class="cls-2" x1="369.46" y1="1" x2="369.46" y2="68.4"/>
      <line class="cls-2" x1="660.46" y1="1" x2="660.46" y2="67.92"/>
      <g>
        <path class="cls-1" d="M391.83,22.91h0v5H390.7V21.33h1.72l2,4.85,2.08-4.85h1.68v6.54H397v-5h0l-2.1,5h-1Z"/>
        <path class="cls-1" d="M405.83,21.33h1.46l3.18,6.54h-1.35l-.68-1.5h-3.77l-.69,1.5h-1.36Zm2.1,3.94-1.37-2.92-1.37,2.92Z"/>
        <path class="cls-1" d="M414.91,21.33h3.15c2.07,0,3.73.87,3.73,3.23s-1.51,3.31-3.67,3.31h-3.2Zm2.58,5.45c2.18,0,3-.67,3-2.2s-.88-2.15-3-2.15h-1.3v4.35Z"/>
        <path class="cls-1" d="M426.51,21.33h5.87v1.1h-4.59V24h4v1h-4v1.73h4.7v1.1h-6Z"/>
        <path class="cls-1" d="M444,21.33h1.28v6.54H444Z"/>
        <path class="cls-1" d="M450.55,21.33h1.35l4.38,4.73V21.33h1.22v6.54h-1.17L451.78,23v4.9h-1.22Z"/>
        <path class="cls-1" d="M462.9,23.88h1.2v1.28h-1.2Zm0,2.72h1.2v1.28h-1.2Z"/>
      </g>
      <g>
        <path class="cls-1" d="M682.33,22.91h0v5H681.2V21.33h1.72l2,4.85L687,21.33h1.68v6.54h-1.13v-5h0l-2.1,5h-1Z"/>
        <path class="cls-1" d="M696.33,21.33h1.46L701,27.87h-1.35l-.68-1.5H695.2l-.69,1.5h-1.36Zm2.1,3.94-1.37-2.92-1.37,2.92Z"/>
        <path class="cls-1" d="M705.41,21.33h3.15c2.07,0,3.73.87,3.73,3.23s-1.51,3.31-3.67,3.31h-3.21ZM708,26.78c2.18,0,3-.67,3-2.2s-.88-2.15-3-2.15h-1.3v4.35Z"/>
        <path class="cls-1" d="M717,21.33h5.87v1.1h-4.59V24h4v1h-4v1.73H723v1.1h-6Z"/>
        <path class="cls-1" d="M734.46,21.33h6v1.1h-4.74V24h4.08v1h-4.08v2.83h-1.28Z"/>
        <path class="cls-1" d="M748.54,21.17c2.88,0,3.9,1.69,3.9,3.48,0,1.36-.8,3.38-3.9,3.38s-3.9-2-3.9-3.38C744.64,22.86,745.66,21.17,748.54,21.17Zm2.62,3.41c0-1.58-1.12-2.31-2.62-2.31s-2.62.74-2.62,2.31c0,1.85,1.4,2.36,2.62,2.36S751.16,26.43,751.16,24.58Z"/>
        <path class="cls-1" d="M757.16,21.33h3.93c1.55,0,2.67.35,2.67,2A1.85,1.85,0,0,1,762,25.26h-.06l2,2.67h-1.58l-1.9-2.58h-2v2.58h-1.28Zm3.75,2.91c1,0,1.58-.15,1.58-.93s-.53-.92-1.58-.92h-2.47v1.85Z"/>
        <path class="cls-1" d="M769,23.88h1.2v1.28H769Zm0,2.72h1.2v1.28H769Z"/>
      </g>
      <g>
        <path class="cls-1" d="M395.43,36.21h2.66l5.78,11.91h-2.46l-1.25-2.74H393.3L392,48.12h-2.47Zm3.82,7.18-2.49-5.31-2.49,5.31Z"/>
        <path class="cls-1" d="M424.63,43c0,3.83-2.44,5.41-6.33,5.41S412,46.85,412,43V36.2h2.33v6.64c0,2,.71,3.57,4,3.57s4-1.61,4-3.57V36.21h2.33Z"/>
        <path class="cls-1" d="M443.29,39.83c-.38-1.06-1.34-2-4.18-2-1.57,0-3.16.39-3.16,1.49,0,.51.29,1,2.67,1.34l2.82.43c2.67.41,4.24,1.44,4.24,3.44,0,2.82-2.69,3.87-5.87,3.87-5.11,0-6.36-2.52-6.64-3.42l2.25-.71c.43.87,1.31,2.13,4.46,2.13,1.9,0,3.47-.62,3.47-1.65,0-.77-.88-1.28-2.59-1.49l-2.85-.39c-2.75-.38-4.29-1.57-4.29-3.39,0-3.57,4.64-3.57,5.56-3.57,5.13,0,6,2.38,6.31,3.2Z"/>
        <path class="cls-1" d="M458.47,38.21h-5.33v-2h13v2H460.8v9.91h-2.33Z"/>
        <path class="cls-1" d="M474.57,36.21h2.33V48.12h-2.33Z"/>
        <path class="cls-1" d="M486.42,36.21h2.46l8,8.6v-8.6h2.23V48.12H497l-8.29-8.92v8.92h-2.23Z"/>
        <path class="cls-1" d="M508.91,45.8h2.18v2.41l-1,2.44H509l.88-2.52h-1Z"/>
        <path class="cls-1" d="M525.17,38.21h-5.33v-2h13v2H527.5v9.91h-2.33Z"/>
        <path class="cls-1" d="M541.13,36.21h10.69v2h-8.36V41h7.19v2h-7.19v3.15H552v2H541.13Z"/>
        <path class="cls-1" d="M565.9,43.63l-3.8,4.49h-3L564.45,42l-5-5.75h3l3.46,4.08,3.44-4.08h3l-5,5.75,5.36,6.16h-3Z"/>
        <path class="cls-1" d="M585.24,36.21h2.66l5.78,11.91h-2.46L590,45.39h-6.87l-1.26,2.74H579.4Zm3.82,7.18-2.49-5.31-2.49,5.31Z"/>
        <path class="cls-1" d="M611.06,39.83c-.38-1.06-1.34-2-4.18-2-1.57,0-3.16.39-3.16,1.49,0,.51.29,1,2.67,1.34l2.82.43c2.67.41,4.24,1.44,4.24,3.44,0,2.82-2.69,3.87-5.87,3.87-5.11,0-6.36-2.52-6.64-3.42l2.25-.71c.43.87,1.31,2.13,4.46,2.13,1.9,0,3.47-.62,3.47-1.65,0-.77-.89-1.28-2.59-1.49l-2.85-.39c-2.75-.38-4.29-1.57-4.29-3.39,0-3.57,4.64-3.57,5.56-3.57,5.13,0,6,2.38,6.31,3.2Z"/>
      </g>
      <g>
        <path class="cls-1" d="M684.42,35.08h3.1l3.69,13h-2.47L688,45.29h-4.11l-.77,2.81h-2.47Zm0,8.16h3L686,37.59h0Z"/>
        <path class="cls-1" d="M693.9,48.1v-13h2.49V46H702v2.1Z"/>
        <path class="cls-1" d="M705,48.1v-13h2.49V46h5.65v2.1Z"/>
        <path class="cls-1" d="M726.2,40.25l2.23-5.15H731l-3.58,7.81V48.1H725V42.92l-3.58-7.81H724Z"/>
        <path class="cls-1" d="M734.6,37.66h-1.08V35.1H736v2.56l-1.15,2.7h-1.17Z"/>
        <path class="cls-1" d="M742.31,35.08h3.1l3.69,13h-2.47l-.72-2.81H741.8L741,48.1h-2.47Zm0,8.16h3l-1.46-5.65h0Z"/>
        <path class="cls-1" d="M751.79,48.1v-13h2.48V46h5.65v2.1Z"/>
        <path class="cls-1" d="M762.86,48.1v-13h2.48V46H771v2.1Z"/>
        <path class="cls-1" d="M784.61,34.92a11.64,11.64,0,0,0,0,14.69h-2.18a12.25,12.25,0,0,1,0-14.69Z"/>
        <path class="cls-1" d="M787.65,48.1v-13h8.61v2.09h-6.12v3.1h4.45v2.09h-4.45V46h6.32v2.1Z"/>
        <path class="cls-1" d="M798.37,35.1h2.45l2.3,9.58h0l2.41-9.58H808l-3.44,13h-2.77Z"/>
        <path class="cls-1" d="M810.78,48.1v-13h8.61v2.09h-6.12v3.1h4.45v2.09h-4.45V46h6.32v2.1Z"/>
        <path class="cls-1" d="M822.73,48.1v-13h5.19c3,0,4.14,1.71,4.16,3.85a3.22,3.22,0,0,1-2.38,3.35l2.86,5.8H829.8l-2.45-5.29h-2.14V48.1Zm2.49-7.31H827c1.94,0,2.54-.61,2.54-1.84s-.74-1.84-2.11-1.84h-2.27Z"/>
        <path class="cls-1" d="M839.4,40.25l2.23-5.15h2.59l-3.58,7.81V48.1h-2.49V42.92l-3.58-7.81h2.59Z"/>
        <path class="cls-1" d="M846.87,35.1h4.83c2.59,0,4.27.86,4.41,3.19a2.9,2.9,0,0,1-2,3c1.69.68,2.27,1.46,2.27,3.44S855,48.1,851.66,48.1h-4.79Zm2.48,5.19h2.49a1.6,1.6,0,1,0,0-3.17h-2.49Zm0,5.8h2.49c1.44,0,2.07-.65,2.07-1.89s-.63-1.89-2.07-1.89h-2.49Z"/>
        <path class="cls-1" d="M864.53,48.28c-3.55,0-5.46-2.43-5.46-6.68s1.91-6.68,5.46-6.68S870,37.35,870,41.6,868.07,48.28,864.53,48.28Zm0-11.27c-2,0-3,1.55-3,4.59s.92,4.59,3,4.59,3-1.55,3-4.59-1-4.6-3-4.6Z"/>
        <path class="cls-1" d="M873,35.1h4.3c3.44,0,5.82,1.91,5.83,6.5s-2.39,6.5-5.83,6.5H873ZM875.49,46h1.66c2.84,0,3.51-2.09,3.51-4.41s-.67-4.41-3.51-4.41h-1.66Z"/>
        <path class="cls-1" d="M889.67,40.25l2.23-5.15h2.59l-3.58,7.81V48.1h-2.49V42.92l-3.58-7.81h2.59Z"/>
        <path class="cls-1" d="M896.2,49.61a11.64,11.64,0,0,0,0-14.69h2.18a12.24,12.24,0,0,1,0,14.69Z"/>
      </g>
      <rect id="_Path_" data-name=" Path " class="cls-2" x="1" y="1" width="950.92" height="67.4"/>
      <g>
        <path class="cls-1" d="M22,21.6h5.9v1.1H23.31v1.52h4v1.1h-4V27H28v1.1H22Z"/>
        <path class="cls-1" d="M37.73,23.59c-.21-.59-.74-1.09-2.3-1.09-.86,0-1.74.22-1.74.82,0,.28.16.58,1.47.74l1.55.23c1.47.23,2.33.79,2.33,1.89,0,1.55-1.48,2.12-3.22,2.12-2.81,0-3.49-1.39-3.65-1.88L33.41,26c.23.48.72,1.17,2.45,1.17,1,0,1.91-.34,1.91-.91s-.49-.7-1.42-.82l-1.57-.22c-1.51-.21-2.36-.86-2.36-1.86,0-2,2.55-2,3-2,2.82,0,3.3,1.31,3.47,1.76Z"/>
        <path class="cls-1" d="M46.06,22.69H43.14V21.6h7.13v1.1H47.34v5.45H46.06Z"/>
        <path class="cls-1" d="M55.07,26.86h1.2v1.28h-1.2Z"/>
      </g>
    </g>
  </g>
</svg>
