<svg id="Layer_1" data-name="Layer 1" xmlns="http://www.w3.org/2000/svg" viewBox="0 0 595.75 93.69">
  <defs>
    <style>
      .cls-1 {
        fill: #ea5956;
      }

      .cls-2 {
        fill: none;
        stroke: #ea5956;
        stroke-miterlimit: 10;
        stroke-width: 2px;
      }
    </style>
  </defs>
  <title>about-founder-800</title>
  <g id="Layer_2" data-name="Layer 2">
    <g id="ART">
      <g>
        <g>
          <path class="cls-1" d="M129,22.06h1.14v2.3H134v-2.3h1.14v5.81H134v-2.5h-3.9v2.5H129Z"/>
          <path class="cls-1" d="M139.8,22.06H145v1h-4.08v1.35h3.51v1h-3.51V26.9h4.17v1H139.8Z"/>
          <path class="cls-1" d="M151.46,22.06h1.3l2.82,5.81h-1.2l-.61-1.33h-3.35l-.62,1.33h-1.2Zm1.86,3.5L152.11,23l-1.22,2.59Z"/>
          <path class="cls-1" d="M159.53,22.06h2.8c1.84,0,3.31.78,3.31,2.87s-1.34,2.94-3.26,2.94h-2.85Zm2.29,4.84c1.94,0,2.69-.59,2.69-2s-.79-1.9-2.69-1.9h-1.15v3.9Z"/>
          <path class="cls-1" d="M182,25.8c-.11.65-.58,2.21-3.25,2.21a3,3,0,0,1-3.29-3.14c0-1.7,1.06-3,3.37-3,2.6,0,3,1.69,3.07,2h-1.14a1.84,1.84,0,0,0-1.87-1,2.08,2.08,0,0,0-.34,4.15h.28a1.94,1.94,0,0,0,2-1.24Z"/>
          <path class="cls-1" d="M186.32,22.06h1.14v5.81h-1.14Z"/>
          <path class="cls-1" d="M192.1,22.06h2.8c1.84,0,3.31.78,3.31,2.87s-1.34,2.94-3.26,2.94H192.1Zm2.29,4.84c1.94,0,2.69-.59,2.69-2s-.79-1.9-2.69-1.9h-1.15v3.9Z"/>
          <path class="cls-1" d="M202.41,22.06h5.21v1h-4.08v1.35h3.51v1h-3.51V26.9h4.17v1H202.4Z"/>
          <path class="cls-1" d="M211.84,22.06h3.49c1.38,0,2.37.31,2.37,1.73a1.65,1.65,0,0,1-1.59,1.71h0l1.78,2.37h-1.4l-1.69-2.29H213v2.29h-1.14Zm3.33,2.58c.93,0,1.4-.14,1.4-.82s-.47-.82-1.4-.82H213v1.64Z"/>
          <path class="cls-1" d="M223.14,23.47h0v4.41h-1V22.06h1.53l1.82,4.31,1.85-4.31h1.5v5.81h-1v-4.4h0L226,27.88h-1Z"/>
          <path class="cls-1" d="M235.59,22.06h1.29l2.82,5.81h-1.2l-.61-1.33h-3.35l-.62,1.33h-1.21Zm1.86,3.5L236.24,23,235,25.56Z"/>
          <path class="cls-1" d="M243.66,22.06h1.14v2.71l3.2-2.71h1.62l-2.77,2.3,3.05,3.51h-1.49L246,25l-1.24,1v1.81h-1.14Z"/>
          <path class="cls-1" d="M254,22.06h5.21v1h-4.08v1.35h3.51v1h-3.51V26.9h4.17v1H254Z"/>
          <path class="cls-1" d="M263.4,22.06h3.49c1.38,0,2.37.31,2.37,1.73a1.65,1.65,0,0,1-1.59,1.71h0l1.78,2.37H268l-1.69-2.29h-1.8v2.29H263.4Zm3.33,2.58c.93,0,1.4-.14,1.4-.82s-.47-.82-1.4-.82h-2.19v1.64Z"/>
        </g>
        <g>
          <path class="cls-1" d="M128.76,35.1h4.83c2.59,0,4.27.86,4.41,3.19a2.9,2.9,0,0,1-2,3c1.69.68,2.27,1.46,2.27,3.44s-1.42,3.42-4.74,3.42h-4.79Zm2.48,5.19h2.48a1.6,1.6,0,1,0,0-3.17h-2.48Zm0,5.8h2.48c1.44,0,2.07-.65,2.07-1.89s-.63-1.89-2.07-1.89h-2.48Z"/>
          <path class="cls-1" d="M142,48.1v-13h8.61v2.09h-6.12v3.1h4.45v2.09h-4.45V46h6.32v2.1Z"/>
          <path class="cls-1" d="M154,48.1v-13h2.59l5.1,8.9h0V35.1H164v13h-2.39l-5.31-9.25h0V48.1Z"/>
          <path class="cls-1" d="M168.22,45.26c.43.72.79.94,1.35.94s1-.4,1-1.55V35.1h2.48v9.49c0,2.43-1.21,3.69-3.51,3.69a3.48,3.48,0,0,1-3.06-1.75Z"/>
          <path class="cls-1" d="M179.65,35.08h3.1l3.69,13H184l-.72-2.81h-4.1l-.77,2.81H175.9Zm0,8.16h3l-1.46-5.65h0Z"/>
          <path class="cls-1" d="M189.21,48.1v-13h3.49l2.5,9.08h0l2.52-9.08h3.53v13h-2.16V37.87h0L196.18,48.1h-1.89L191.4,37.87h0V48.1Z"/>
          <path class="cls-1" d="M205.55,48.1v-13H208v13Z"/>
          <path class="cls-1" d="M212.32,48.1v-13h2.59L220,44h0V35.1h2.34v13H220l-5.31-9.25h0V48.1Z"/>
          <path class="cls-1" d="M127.72,56.7H130l1.64,8.77h0l1.85-8.77h2.56l1.71,8.77h0l1.78-8.77H142l-2.7,13h-2.52l-1.89-9.25h0L133,69.7h-2.52Z"/>
          <path class="cls-1" d="M144.95,69.7v-13h8.61v2.09h-6.12v3.1h4.45V64h-4.45v3.64h6.32V69.7Z"/>
          <path class="cls-1" d="M159.49,56.68h3.1l3.69,13h-2.47l-.72-2.81H159l-.77,2.81h-2.47Zm0,8.16h3L161,59.19h0Z"/>
          <path class="cls-1" d="M167.1,56.7h2.45l2.3,9.58h0l2.41-9.58h2.45l-3.44,13H170.5Z"/>
          <path class="cls-1" d="M179.52,69.7v-13h8.61v2.09H182v3.1h4.45V64H182v3.64h6.32V69.7Z"/>
          <path class="cls-1" d="M191.49,69.7v-13h5.19c3,0,4.14,1.71,4.16,3.85a3.22,3.22,0,0,1-2.38,3.35l2.86,5.8h-2.75l-2.45-5.29H194V69.7ZM194,62.39h1.84c1.94,0,2.54-.61,2.54-1.84s-.74-1.84-2.11-1.84H194Z"/>
        </g>
        <line class="cls-2" x1="351.57" y1="1" x2="351.57" y2="92.69"/>
        <g>
          <g>
            <path class="cls-1" d="M372.12,23.47h0v4.41h-1V22.06h1.53l1.82,4.31,1.85-4.31h1.5v5.81h-1v-4.4h0L375,27.88h-1Z"/>
            <path class="cls-1" d="M384.56,22.06h1.3l2.82,5.81h-1.2l-.61-1.33h-3.35l-.62,1.33h-1.2Zm1.86,3.5L385.21,23,384,25.56Z"/>
            <path class="cls-1" d="M392.64,22.06h2.8c1.84,0,3.31.78,3.31,2.87s-1.34,2.94-3.26,2.94h-2.85Zm2.29,4.84c1.93,0,2.69-.59,2.69-2s-.79-1.9-2.7-1.9h-1.15v3.9Z"/>
            <path class="cls-1" d="M403,22.06h5.21v1h-4.08v1.35h3.51v1h-3.51V26.9h4.17v1h-5.31Z"/>
            <path class="cls-1" d="M418.53,22.06h1.14v5.81h-1.14Z"/>
            <path class="cls-1" d="M424.32,22.06h1.2l3.89,4.2v-4.2h1.09v5.81h-1l-4-4.35v4.35h-1.09Z"/>
            <path class="cls-1" d="M435.29,24.32h1.06v1.13h-1.06Zm0,2.41h1.06v1.14h-1.06Z"/>
          </g>
          <g>
            <path class="cls-1" d="M375.21,37.65h2.33l5.08,10.47h-2.16l-1.09-2.41h-6l-1.11,2.41h-2.17ZM378.57,44l-2.19-4.67L374.19,44Z"/>
            <path class="cls-1" d="M400.86,43.63c0,3.37-2.15,4.75-5.56,4.75s-5.56-1.38-5.56-4.75v-6h2v5.83c0,1.73.62,3.14,3.51,3.14s3.51-1.41,3.51-3.14V37.65h2Z"/>
            <path class="cls-1" d="M417.25,40.84c-.33-.94-1.18-1.74-3.67-1.74-1.38,0-2.78.35-2.78,1.31,0,.45.26.92,2.35,1.18l2.48.38c2.35.36,3.73,1.27,3.73,3,0,2.48-2.36,3.4-5.16,3.4-4.49,0-5.59-2.22-5.83-3l2-.62c.37.76,1.15,1.87,3.92,1.87,1.67,0,3-.55,3-1.45,0-.68-.78-1.12-2.28-1.31l-2.51-.35c-2.42-.33-3.77-1.38-3.77-3,0-3.14,4.08-3.14,4.88-3.14,4.51,0,5.29,2.09,5.55,2.81Z"/>
            <path class="cls-1" d="M430.58,39.41H425.9V37.65h11.4v1.76h-4.68v8.71h-2Z"/>
            <path class="cls-1" d="M444.72,37.65h2V48.12h-2Z"/>
            <path class="cls-1" d="M455.13,37.65h2.16l7,7.56V37.65h2V48.12h-1.87l-7.29-7.84v7.84h-2Z"/>
            <path class="cls-1" d="M474.88,46.08h1.92V48.2l-.91,2.15h-1l.78-2.22h-.84Z"/>
            <path class="cls-1" d="M489.17,39.41h-4.68V37.65H495.9v1.76h-4.68v8.71h-2Z"/>
            <path class="cls-1" d="M503.18,37.65h9.39v1.76h-7.35v2.43h6.32V43.6h-6.32v2.77h7.52v1.76h-9.56Z"/>
            <path class="cls-1" d="M524.94,44.18l-3.34,4h-2.67l4.74-5.42-4.38-5.06h2.61l3,3.59,3-3.59h2.59l-4.39,5.06,4.71,5.42h-2.62Z"/>
            <path class="cls-1" d="M541.93,37.65h2.33l5.08,10.47h-2.16l-1.09-2.41h-6L539,48.12h-2.17ZM545.29,44l-2.19-4.67L540.91,44Z"/>
            <path class="cls-1" d="M564.61,40.84c-.33-.94-1.18-1.74-3.67-1.74-1.38,0-2.78.35-2.78,1.31,0,.45.26.92,2.35,1.18L563,42c2.35.36,3.73,1.27,3.73,3,0,2.48-2.36,3.4-5.16,3.4-4.49,0-5.59-2.22-5.83-3l2-.62c.38.76,1.15,1.87,3.92,1.87,1.67,0,3-.55,3-1.45,0-.68-.78-1.12-2.28-1.31l-2.51-.35c-2.42-.33-3.77-1.38-3.77-3,0-3.14,4.08-3.14,4.88-3.14,4.51,0,5.29,2.09,5.54,2.81Z"/>
          </g>
        </g>
        <rect class="cls-2" x="1" y="1" width="593.75" height="91.69"/>
        <g>
          <g>
            <path class="cls-1" d="M27.66,46.22a2.32,2.32,0,0,0,2.46-1.14.52.52,0,0,1,.7.23l0,.07a10,10,0,0,1-1.66,3.06c-.84,0-1.72-.06-3.15-.06H22.47c-1.08,0-2,0-2.63.06a.42.42,0,0,1-.09-.5A46.89,46.89,0,0,0,24,44.75c1.81-1.42,5-4.07,5-6.18a2,2,0,0,0-2.26-2.33,3.92,3.92,0,0,0-2.91,2c-.28.06-.69-.15-.67-.43a5.73,5.73,0,0,1,5.08-3.21c2.2,0,3.9,1.25,3.9,3.51,0,2.56-2.65,4.2-4.76,5.67l-1.29.91c-1.21.84-1.57,1.16-1.57,1.31s.11.24.67.24Z"/>
            <path class="cls-1" d="M44.94,39A13.31,13.31,0,0,1,42,46.52a5.76,5.76,0,0,1-4.31,2.16c-2.89,0-3.6-2.11-3.6-4.25A12.4,12.4,0,0,1,37,36.91a5.9,5.9,0,0,1,4.33-2.33C44.14,34.59,44.94,36.81,44.94,39Zm-7.13,2a16.73,16.73,0,0,0-1.1,5c0,1.18.47,1.7,1.08,1.7s1.44-.8,2.11-2.15c1.21-2.46,2.46-6.21,2.46-8.21,0-.71,0-1.74-1-1.74C39.85,35.58,38.65,38.64,37.81,41Z"/>
            <path class="cls-1" d="M50.41,36.59a.51.51,0,0,1,0-.72l0,0c1-.17,2-.39,3-.62a13,13,0,0,0,2-.67.35.35,0,0,1,.34.3c-.26.63-.62,1.64-.91,2.5l-2.61,8.23c-.52,1.64-.37,1.85.71,2l.8.11c.22.11.15.67-.11.75Q52,48.38,50,48.38c-1.16,0-2.22,0-3.21.06a.49.49,0,0,1,0-.69l.07-.06.75-.11c1.16-.17,1.31-.37,1.83-2l2.15-6.79A5.6,5.6,0,0,0,52,37.24c0-.32-.24-.5-.69-.54Z"/>
            <path class="cls-1" d="M63.44,48.68c-3,0-4.44-1.83-4.44-4.44a10.65,10.65,0,0,1,4.8-8.19,15.94,15.94,0,0,1,7.78-2.61c.26.07.3.58.13.73a11.7,11.7,0,0,0-6.08,2.89,11.38,11.38,0,0,0-3.75,8c0,1.12.13,2.63,1.49,2.63,1.87,0,2.63-2.91,2.63-4.18,0-.82-.13-2-1.18-2.24a2.57,2.57,0,0,0-.93,0,.39.39,0,0,1-.09-.54l0,0A3.62,3.62,0,0,1,66,39.84a3,3,0,0,1,3,3.3,5.52,5.52,0,0,1-5.5,5.54Z"/>
          </g>
          <line class="cls-2" x1="98.38" y1="1" x2="98.38" y2="92.69"/>
          <g>
            <path class="cls-1" d="M20.87,22.33h5.21v1H22v1.35h3.51v1H22v1.54h4.17v1h-5.3Z"/>
            <path class="cls-1" d="M34.82,24.09c-.18-.52-.66-1-2-1-.77,0-1.54.19-1.54.73,0,.25.14.51,1.3.66l1.38.21c1.3.2,2.07.7,2.07,1.68,0,1.38-1.31,1.89-2.86,1.89-2.49,0-3.1-1.23-3.24-1.67L31,26.27c.21.42.64,1,2.17,1,.93,0,1.7-.3,1.7-.81s-.43-.62-1.26-.73l-1.39-.19c-1.34-.18-2.09-.77-2.09-1.66,0-1.74,2.26-1.74,2.71-1.74,2.5,0,2.93,1.16,3.08,1.56Z"/>
            <path class="cls-1" d="M42.23,23.3h-2.6v-1H46v1H43.4v4.84H42.23Z"/>
            <path class="cls-1" d="M50.24,27H51.3v1.14H50.24Z"/>
          </g>
        </g>
      </g>
    </g>
  </g>
</svg>
