<svg id="Layer_1" data-name="Layer 1" xmlns="http://www.w3.org/2000/svg" viewBox="0 0 497.3 152.6">
  <defs>
    <style>
      .cls-1 {
        fill: none;
        stroke: #e3e5e0;
        stroke-miterlimit: 10;
        stroke-width: 2px;
      }

      .cls-2 {
        isolation: isolate;
      }

      .cls-3 {
        fill: #ebece8;
      }
    </style>
  </defs>
  <title>about-quote-640</title>
  <g id="Layer_2" data-name="Layer 2">
    <g id="Layer_1-2" data-name="Layer 1-2">
      <rect class="cls-1" x="1" y="1" width="495.3" height="150.6"/>
      <g id="We_respect_the_inherited_tradtions_of_the_long-established_cidermaking_techniques_without_being_weighed_down_by_convention." data-name="We respect the inherited tradtions of the long-established cidermaking techniques without being weighed down by convention.">
        <g class="cls-2">
          <path class="cls-3" d="M108.2,26.6,110.1,39h0l2.4-12.4h1.4L116.4,39h0l1.8-12.4h1.6l-2.6,15.9h-1.5L113.3,30h0l-2.5,12.5h-1.5l-2.6-15.9Z"/>
          <path class="cls-3" d="M129.9,26.6v1.5h-5.5v5.4h4.1V35h-4.1v6.1h5.8v1.5h-7.5v-16Z"/>
          <path class="cls-3" d="M139.9,26.6h3.8c2.6,0,4.4,1.5,4.4,4.1a3.79,3.79,0,0,1-2.6,3.9l2.7,7.9h-1.8L143.8,35l-2.2.1v7.4h-1.7V26.6Zm1.7,7h1.5c2.5,0,3.3-1,3.3-2.8s-.8-2.8-3.3-2.8h-1.5Z"/>
          <path class="cls-3" d="M159.5,26.6v1.5H154v5.4h4.1V35H154v6.1h5.8v1.5h-7.5v-16Z"/>
          <path class="cls-3" d="M169,30.7c-.1-1.6-.8-2.9-2.4-2.9a2.08,2.08,0,0,0-2.2,2.1c0,3.6,6.4,3.6,6.4,8.7,0,2.5-1.5,4-4.1,4s-4-1.8-4-4.5h1.6c0,1.9.9,3,2.6,3a2.32,2.32,0,0,0,2.4-2.6c0-3.6-6.4-4-6.4-8.6a3.54,3.54,0,0,1,3.8-3.7c2.3,0,3.8,1.5,3.9,4.3H169Z"/>
          <path class="cls-3" d="M174.1,26.6h3.7c2.6,0,4.2,1.7,4.2,4.4a4.1,4.1,0,0,1-4.2,4.4h-2v7.2h-1.7Zm1.8,7.3h1.8c1.7,0,2.7-.9,2.7-2.9s-1-2.9-2.7-2.9h-1.8Z"/>
          <path class="cls-3" d="M192.7,26.6v1.5h-5.5v5.4h4.1V35h-4.1v6.1H193v1.5h-7.5v-16Z"/>
          <path class="cls-3" d="M203,31.4c-.2-2.5-1-3.6-2.4-3.6-2,0-2.9,1.8-2.9,6.7s.9,6.7,2.9,6.7c1.6,0,2.5-1.1,2.6-4h1.7c0,3.5-1.6,5.5-4.3,5.5s-4.6-2.2-4.6-8.2,1.8-8.2,4.6-8.2c2.4,0,3.8,1.6,4.1,5H203Z"/>
          <path class="cls-3" d="M215.7,26.6v1.5h-3.3V42.5h-1.7V28.1h-3.3V26.6Z"/>
          <path class="cls-3" d="M231.8,26.6v1.5h-3.3V42.5h-1.7V28.1h-3.3V26.6Z"/>
          <path class="cls-3" d="M236.4,26.6v6.9h4.7V26.6h1.7V42.5h-1.7V35h-4.7v7.6h-1.7v-16Z"/>
          <path class="cls-3" d="M254.2,26.6v1.5h-5.5v5.4h4.1V35h-4.1v6.1h5.8v1.5H247v-16Z"/>
          <path class="cls-3" d="M266.1,26.6V42.5h-1.7V26.6Z"/>
          <path class="cls-3" d="M272.9,26.6,277,38.3h0V26.6h1.7V42.5h-1.8L272,28.7h0V42.5h-1.7V26.6Z"/>
          <path class="cls-3" d="M284.4,26.6v6.9h4.7V26.6h1.7V42.5h-1.7V35h-4.7v7.6h-1.7v-16Z"/>
          <path class="cls-3" d="M302.3,26.6v1.5h-5.5v5.4h4.1V35h-4.1v6.1h5.8v1.5H295v-16Z"/>
          <path class="cls-3" d="M306.1,26.6h3.8c2.6,0,4.4,1.5,4.4,4.1a3.79,3.79,0,0,1-2.6,3.9l2.7,7.9h-1.8L310,35l-2.2.1v7.4h-1.7V26.6Zm1.7,7h1.5c2.5,0,3.3-1,3.3-2.8s-.8-2.8-3.3-2.8h-1.5Z"/>
          <path class="cls-3" d="M320.2,26.6V42.5h-1.7V26.6Z"/>
          <path class="cls-3" d="M331.5,26.6v1.5h-3.3V42.5h-1.7V28.1h-3.3V26.6Z"/>
          <path class="cls-3" d="M341.7,26.6v1.5h-5.5v5.4h4.1V35h-4.1v6.1H342v1.5h-7.5v-16Z"/>
          <path class="cls-3" d="M345.5,26.6h2.9c3.3,0,5.4,1.8,5.4,7.9s-2,7.9-5.4,7.9h-2.9Zm1.7,14.5h.9c2.5,0,4-1.1,4-6.5s-1.5-6.5-4-6.5h-.9Z"/>
          <path class="cls-3" d="M370.9,26.6v1.5h-3.3V42.5h-1.7V28.1h-3.3V26.6Z"/>
          <path class="cls-3" d="M373.8,26.6h3.8c2.6,0,4.4,1.5,4.4,4.1a3.79,3.79,0,0,1-2.6,3.9l2.7,7.9h-1.8L377.7,35l-2.2.1v7.4h-1.7V26.6Zm1.7,7H377c2.5,0,3.3-1,3.3-2.8S379.5,28,377,28h-1.5Z"/>
          <path class="cls-3" d="M390.7,26.6l3.5,15.9h-1.7l-.9-4.7h-4l-.9,4.7H385l3.5-15.9Zm-2.9,9.8h3.6l-1.8-8.5h0Z"/>
          <path class="cls-3" d="M397.2,26.6h2.9c3.3,0,5.4,1.8,5.4,7.9s-2,7.9-5.4,7.9h-2.9Zm1.7,14.5h.9c2.5,0,4-1.1,4-6.5s-1.5-6.5-4-6.5h-.9Z"/>
          <path class="cls-3" d="M411.3,26.6V42.5h-1.7V26.6Z"/>
          <path class="cls-3" d="M422.6,26.6v1.5h-3.3V42.5h-1.7V28.1h-3.3V26.6Z"/>
          <path class="cls-3" d="M427.4,26.6V42.5h-1.7V26.6Z"/>
          <path class="cls-3" d="M435.7,42.7c-2.7,0-4.5-2.2-4.5-8.2s1.8-8.2,4.5-8.2,4.5,2.2,4.5,8.2S438.4,42.7,435.7,42.7Zm0-14.8c-1.5,0-2.8,1.3-2.8,6.7s1.2,6.7,2.8,6.7,2.8-1.3,2.8-6.7S437.3,27.9,435.7,27.9Z"/>
          <path class="cls-3" d="M446.5,26.6l4.1,11.7h0V26.6h1.7V42.5h-1.8l-4.9-13.8h0V42.5h-1.7V26.6Z"/>
          <path class="cls-3" d="M462,30.7c-.1-1.6-.8-2.9-2.4-2.9a2.08,2.08,0,0,0-2.2,2.1c0,3.6,6.4,3.6,6.4,8.7,0,2.5-1.5,4-4.1,4s-4-1.8-4-4.5h1.6c0,1.9.9,3,2.6,3a2.32,2.32,0,0,0,2.4-2.6c0-3.6-6.4-4-6.4-8.6a3.54,3.54,0,0,1,3.8-3.7c2.3,0,3.8,1.5,3.9,4.3H462Z"/>
        </g>
        <g class="cls-2">
          <path class="cls-3" d="M112,70.2c-2.7,0-4.5-2.2-4.5-8.2s1.8-8.2,4.5-8.2,4.5,2.2,4.5,8.2S114.7,70.2,112,70.2Zm0-14.8c-1.5,0-2.8,1.3-2.8,6.7s1.2,6.7,2.8,6.7,2.8-1.3,2.8-6.7S113.5,55.4,112,55.4Z"/>
          <path class="cls-3" d="M120.2,54.1H127v1.5h-5V61h3.8v1.5H122V70h-1.7V54.1Z"/>
          <path class="cls-3" d="M138,54.1V68.5h5.1V70h-6.9V54.1Z"/>
          <path class="cls-3" d="M150.2,70.2c-2.7,0-4.5-2.2-4.5-8.2s1.8-8.2,4.5-8.2,4.5,2.2,4.5,8.2S152.9,70.2,150.2,70.2Zm0-14.8c-1.5,0-2.8,1.3-2.8,6.7s1.2,6.7,2.8,6.7,2.8-1.3,2.8-6.7S151.7,55.4,150.2,55.4Z"/>
          <path class="cls-3" d="M160.9,54.1,165,65.8h0V54.1h1.7V70h-1.8L160,56.2h0V70h-1.7V54.1Z"/>
          <path class="cls-3" d="M177.3,59c-.1-2.1-.7-3.7-2.5-3.7S172,57,172,62s.9,6.7,2.8,6.7a2.27,2.27,0,0,0,2.5-2.5V64h-2.2V62.5H179V70h-1.1l-.2-1.2a3.42,3.42,0,0,1-2.9,1.4c-2.8,0-4.6-2.2-4.6-8.2s1.8-8.2,4.6-8.2,4,2.6,4.2,5.1h-1.7Z"/>
          <path class="cls-3" d="M182.5,65V63.5h5.4V65Z"/>
          <path class="cls-3" d="M198.9,54.1v1.5h-5.5V61h4.1v1.5h-4.1v6.1h5.8V70h-7.5V54.1Z"/>
          <path class="cls-3" d="M208.4,58.2c-.1-1.6-.8-2.9-2.4-2.9a2.08,2.08,0,0,0-2.2,2.1c0,3.6,6.4,3.6,6.4,8.7,0,2.5-1.5,4-4.1,4s-4-1.8-4-4.5h1.6c0,1.9.9,3,2.6,3a2.32,2.32,0,0,0,2.4-2.6c0-3.6-6.4-4-6.4-8.6a3.54,3.54,0,0,1,3.8-3.7c2.3,0,3.8,1.5,3.9,4.3h-1.6Z"/>
        </g>
        <g class="cls-2">
          <path class="cls-3" d="M221.1,54.1v1.5h-3.3V70h-1.7V55.6h-3.3V54.1Z"/>
        </g>
        <g class="cls-2">
          <path class="cls-3" d="M227.8,54.1,231.3,70h-1.7l-.9-4.7h-4l-.9,4.7H222l3.5-15.9Zm-2.9,9.8h3.6l-1.8-8.5h0Z"/>
          <path class="cls-3" d="M234.3,54.1h4.2c2.4,0,3.7,1.6,3.7,3.9a3.35,3.35,0,0,1-2.4,3.5h0a3.74,3.74,0,0,1,2.8,4c0,2.9-1.6,4.4-5.1,4.4h-3.2ZM236,61h1c2.5,0,3.6-.7,3.6-2.9,0-1.8-.8-2.5-2.8-2.5H236Zm0,7.6h1.7c2.1,0,3.2-.9,3.2-2.9s-.9-3.2-3.2-3.2H236Z"/>
          <path class="cls-3" d="M248.3,54.1V68.5h5.1V70h-6.9V54.1Z"/>
          <path class="cls-3" d="M258.3,54.1V70h-1.7V54.1Z"/>
          <path class="cls-3" d="M268.3,58.2c-.1-1.6-.8-2.9-2.4-2.9a2.08,2.08,0,0,0-2.2,2.1c0,3.6,6.4,3.6,6.4,8.7,0,2.5-1.5,4-4.1,4s-4-1.8-4-4.5h1.6c0,1.9.9,3,2.6,3a2.32,2.32,0,0,0,2.4-2.6c0-3.6-6.4-4-6.4-8.6a3.54,3.54,0,0,1,3.8-3.7c2.3,0,3.8,1.5,3.9,4.3h-1.6Z"/>
          <path class="cls-3" d="M275.4,54.1V61h4.7V54.1h1.7V70h-1.7V62.4h-4.7V70h-1.7V54.1Z"/>
          <path class="cls-3" d="M293.2,54.1v1.5h-5.5V61h4.1v1.5h-4.1v6.1h5.8V70H286V54.1Z"/>
          <path class="cls-3" d="M297.1,54.1H300c3.3,0,5.4,1.8,5.4,7.9s-2,7.9-5.4,7.9h-2.9Zm1.7,14.5h.9c2.5,0,4-1.1,4-6.5s-1.5-6.5-4-6.5h-.9Z"/>
          <path class="cls-3" d="M322,58.9c-.2-2.5-1-3.6-2.4-3.6-2,0-2.9,1.8-2.9,6.7s.9,6.7,2.9,6.7c1.6,0,2.5-1.1,2.6-4h1.7c0,3.5-1.6,5.5-4.3,5.5S315,68,315,62s1.8-8.2,4.6-8.2c2.4,0,3.8,1.6,4.1,5H322Z"/>
          <path class="cls-3" d="M329.7,54.1V70H328V54.1Z"/>
          <path class="cls-3" d="M334,54.1h2.9c3.3,0,5.4,1.8,5.4,7.9s-2,7.9-5.4,7.9H334Zm1.7,14.5h.9c2.5,0,4-1.1,4-6.5s-1.5-6.5-4-6.5h-.9Z"/>
          <path class="cls-3" d="M353.6,54.1v1.5H348V61h4.1v1.5H348v6.1h5.8V70h-7.5V54.1Z"/>
          <path class="cls-3" d="M357.4,54.1h3.8c2.6,0,4.4,1.5,4.4,4.1a3.79,3.79,0,0,1-2.6,3.9l2.7,7.9h-1.8l-2.6-7.5-2.2.1V70h-1.7V54.1Zm1.7,7h1.5c2.5,0,3.3-1,3.3-2.8s-.8-2.8-3.3-2.8h-1.5Z"/>
          <path class="cls-3" d="M372.2,54.1l2.8,12h0l2.7-12h2.7V70h-1.6V55.5h0L375.5,70h-1.1l-3.3-14.6h0V70h-1.6V54.1Z"/>
          <path class="cls-3" d="M389,54.1,392.5,70h-1.7l-.9-4.7h-4L385,70h-1.7l3.5-15.9Zm-2.9,9.8h3.6l-1.8-8.5h0Z"/>
          <path class="cls-3" d="M397,54.1v8.1h0l4.4-8.1h1.8l-3.1,5.5,3.7,10.3H402l-2.9-8.6h0L397,65v5h-1.7V54.1Z"/>
          <path class="cls-3" d="M408.4,54.1V70h-1.7V54.1Z"/>
          <path class="cls-3" d="M415.2,54.1l4.1,11.7h0V54.1H421V70h-1.8l-4.9-13.8h0V70h-1.7V54.1Z"/>
          <path class="cls-3" d="M431.6,59c-.1-2.1-.7-3.7-2.5-3.7s-2.8,1.7-2.8,6.7.9,6.7,2.8,6.7a2.27,2.27,0,0,0,2.5-2.5V64h-2.2V62.5h3.9V70h-1.1l-.2-1.2a3.42,3.42,0,0,1-2.9,1.4c-2.8,0-4.6-2.2-4.6-8.2s1.8-8.2,4.6-8.2,4,2.6,4.2,5.1h-1.7Z"/>
        </g>
        <g class="cls-2">
          <path class="cls-3" d="M114.9,81.6v1.5h-3.3V97.5h-1.7V83.1h-3.3V81.6Z"/>
          <path class="cls-3" d="M125.1,81.6v1.5h-5.5v5.4h4.1V90h-4.1v6.1h5.8v1.5h-7.5v-16Z"/>
          <path class="cls-3" d="M135.4,86.4c-.2-2.5-1-3.6-2.4-3.6-2,0-2.9,1.8-2.9,6.7s.9,6.7,2.9,6.7c1.6,0,2.5-1.1,2.6-4h1.7c0,3.5-1.6,5.5-4.3,5.5s-4.6-2.2-4.6-8.2,1.8-8.2,4.6-8.2c2.4,0,3.8,1.6,4.1,5h-1.7Z"/>
          <path class="cls-3" d="M142.9,81.6v6.9h4.7V81.6h1.7V97.5h-1.7V90h-4.7v7.6h-1.7v-16Z"/>
          <path class="cls-3" d="M155.9,81.6,160,93.3h0V81.6h1.7V97.5h-1.8L155,83.7h0V97.5h-1.7V81.6Z"/>
          <path class="cls-3" d="M167.6,81.6V97.5h-1.7V81.6Z"/>
          <path class="cls-3" d="M180.9,98.8a3.14,3.14,0,0,1-2.6-1.8,4,4,0,0,1-2.3.8c-2.7,0-4.5-2.2-4.5-8.2s1.8-8.2,4.5-8.2,4.5,2.2,4.5,8.2q0,4.35-1.2,6.3a2.65,2.65,0,0,0,1.7,1.4v1.5ZM176.3,93a3,3,0,0,1,1.8,1.3,13.57,13.57,0,0,0,.6-4.8c0-5.4-1.2-6.7-2.8-6.7s-2.8,1.3-2.8,6.7,1.2,6.7,2.8,6.7a1.8,1.8,0,0,0,1.5-.7,3.18,3.18,0,0,0-1.2-1.1V93Z"/>
          <path class="cls-3" d="M186,81.6V93.3c0,1.6.5,3,2.3,3s2.3-1.4,2.3-3V81.6h1.7V93.3c0,2.6-1.2,4.4-4,4.4s-4-1.8-4-4.4V81.6Z"/>
          <path class="cls-3" d="M203.8,81.6v1.5h-5.5v5.4h4.1V90h-4.1v6.1h5.8v1.5h-7.5v-16Z"/>
          <path class="cls-3" d="M213.3,85.7c-.1-1.6-.8-2.9-2.4-2.9a2.08,2.08,0,0,0-2.2,2.1c0,3.6,6.4,3.6,6.4,8.7,0,2.5-1.5,4-4.1,4s-4-1.8-4-4.5h1.6c0,1.9.9,3,2.6,3a2.32,2.32,0,0,0,2.4-2.6c0-3.6-6.4-4-6.4-8.6a3.54,3.54,0,0,1,3.8-3.7c2.3,0,3.8,1.5,3.9,4.3h-1.6Z"/>
          <path class="cls-3" d="M225.1,81.6,227,94h0l2.4-12.4h1.4L233.3,94h0l1.8-12.4h1.6l-2.6,15.9h-1.5L230.2,85h0l-2.5,12.5h-1.5l-2.6-15.9Z"/>
          <path class="cls-3" d="M241.4,81.6V97.5h-1.7V81.6Z"/>
          <path class="cls-3" d="M252.7,81.6v1.5h-3.3V97.5h-1.7V83.1h-3.3V81.6Z"/>
          <path class="cls-3" d="M257.3,81.6v6.9H262V81.6h1.7V97.5H262V90h-4.7v7.6h-1.7v-16Z"/>
          <path class="cls-3" d="M272,97.7c-2.7,0-4.5-2.2-4.5-8.2s1.8-8.2,4.5-8.2,4.5,2.2,4.5,8.2S274.7,97.7,272,97.7Zm0-14.8c-1.5,0-2.8,1.3-2.8,6.7s1.2,6.7,2.8,6.7,2.8-1.3,2.8-6.7S273.5,82.9,272,82.9Z"/>
          <path class="cls-3" d="M281.9,81.6V93.3c0,1.6.5,3,2.3,3s2.3-1.4,2.3-3V81.6h1.7V93.3c0,2.6-1.2,4.4-4,4.4s-4-1.8-4-4.4V81.6Z"/>
          <path class="cls-3" d="M299.5,81.6v1.5h-3.3V97.5h-1.7V83.1h-3.3V81.6Z"/>
          <path class="cls-3" d="M308.6,81.6h4.2c2.4,0,3.7,1.6,3.7,3.9a3.35,3.35,0,0,1-2.4,3.5h0a3.74,3.74,0,0,1,2.8,4c0,2.9-1.6,4.4-5.1,4.4h-3.2Zm1.7,6.9h1c2.5,0,3.6-.7,3.6-2.9,0-1.8-.8-2.5-2.8-2.5h-1.7v5.4Zm0,7.6H312c2.1,0,3.2-.9,3.2-2.9S314.3,90,312,90h-1.7Z"/>
          <path class="cls-3" d="M328.1,81.6v1.5h-5.5v5.4h4.1V90h-4.1v6.1h5.8v1.5h-7.5v-16Z"/>
          <path class="cls-3" d="M333.8,81.6V97.5h-1.7V81.6Z"/>
          <path class="cls-3" d="M340.6,81.6l4.1,11.7h0V81.6h1.7V97.5h-1.8l-4.9-13.8h0V97.5H338V81.6Z"/>
          <path class="cls-3" d="M357,86.5c-.1-2.1-.7-3.7-2.5-3.7s-2.8,1.7-2.8,6.7.9,6.7,2.8,6.7a2.27,2.27,0,0,0,2.5-2.5V91.5h-2.2V90h3.9v7.4h-1.1l-.2-1.2a3.42,3.42,0,0,1-2.9,1.4c-2.8,0-4.6-2.2-4.6-8.2s1.8-8.2,4.6-8.2,4,2.6,4.2,5.1H357Z"/>
          <path class="cls-3" d="M369.1,81.6,371,94h0l2.4-12.4h1.4L377.3,94h0l1.8-12.4h1.6l-2.6,15.9h-1.5L374.2,85h0l-2.5,12.5h-1.5l-2.6-15.9Z"/>
          <path class="cls-3" d="M390.9,81.6v1.5h-5.5v5.4h4.1V90h-4.1v6.1h5.8v1.5h-7.5v-16Z"/>
          <path class="cls-3" d="M396.5,81.6V97.5h-1.7V81.6Z"/>
          <path class="cls-3" d="M407.5,86.5c-.1-2.1-.7-3.7-2.5-3.7s-2.8,1.7-2.8,6.7.9,6.7,2.8,6.7a2.27,2.27,0,0,0,2.5-2.5V91.5h-2.2V90h3.9v7.4h-1.1l-.2-1.2a3.42,3.42,0,0,1-2.9,1.4c-2.8,0-4.6-2.2-4.6-8.2s1.8-8.2,4.6-8.2,4,2.6,4.2,5.1h-1.7Z"/>
          <path class="cls-3" d="M414.9,81.6v6.9h4.7V81.6h1.7V97.5h-1.7V90h-4.7v7.6h-1.7v-16Z"/>
          <path class="cls-3" d="M432.7,81.6v1.5h-5.5v5.4h4.1V90h-4.1v6.1H433v1.5h-7.5v-16Z"/>
          <path class="cls-3" d="M436.5,81.6h2.9c3.3,0,5.4,1.8,5.4,7.9s-2,7.9-5.4,7.9h-2.9Zm1.7,14.5h.9c2.5,0,4-1.1,4-6.5s-1.5-6.5-4-6.5h-.9Z"/>
        </g>
        <g class="cls-2">
          <path class="cls-3" d="M107.9,109.1h2.9c3.3,0,5.4,1.8,5.4,7.9s-2,7.9-5.4,7.9h-2.9Zm1.8,14.5h.9c2.5,0,4-1.1,4-6.5s-1.5-6.5-4-6.5h-.9Z"/>
          <path class="cls-3" d="M124.3,125.2c-2.7,0-4.5-2.2-4.5-8.2s1.8-8.2,4.5-8.2,4.5,2.2,4.5,8.2S127,125.2,124.3,125.2Zm0-14.8c-1.5,0-2.8,1.3-2.8,6.7s1.2,6.7,2.8,6.7,2.8-1.3,2.8-6.7S125.8,110.4,124.3,110.4Z"/>
          <path class="cls-3" d="M132.8,109.1l1.9,12.4h0l2.4-12.4h1.4l2.5,12.4h0l1.8-12.4h1.6L141.8,125h-1.5l-2.5-12.5h0L135.3,125h-1.5l-2.6-15.9Z"/>
          <path class="cls-3" d="M149.7,109.1l4.1,11.7h0V109.1h1.7V125h-1.8l-4.9-13.8h0V125h-1.7V109.1Z"/>
          <path class="cls-3" d="M165.8,109.1H170c2.4,0,3.7,1.6,3.7,3.9a3.35,3.35,0,0,1-2.4,3.5h0a3.74,3.74,0,0,1,2.8,4c0,2.9-1.6,4.4-5.1,4.4h-3.2Zm1.7,6.9h1c2.5,0,3.6-.7,3.6-2.9,0-1.8-.8-2.5-2.8-2.5h-1.7V116Zm0,7.6h1.7c2.1,0,3.2-.9,3.2-2.9s-.9-3.2-3.2-3.2h-1.7Z"/>
          <path class="cls-3" d="M178.8,109.1l2.7,7,2.6-7h1.8l-3.7,9.2V125h-1.7v-6.7l-3.7-9.2Z"/>
          <path class="cls-3" d="M201.8,113.9c-.2-2.5-1-3.6-2.4-3.6-2,0-2.9,1.8-2.9,6.7s.9,6.7,2.9,6.7c1.6,0,2.5-1.1,2.6-4h1.7c0,3.5-1.6,5.5-4.3,5.5s-4.6-2.2-4.6-8.2,1.8-8.2,4.6-8.2c2.4,0,3.8,1.6,4.1,5h-1.7Z"/>
          <path class="cls-3" d="M211.6,125.2c-2.7,0-4.5-2.2-4.5-8.2s1.8-8.2,4.5-8.2,4.5,2.2,4.5,8.2S214.3,125.2,211.6,125.2Zm0-14.8c-1.5,0-2.8,1.3-2.8,6.7s1.2,6.7,2.8,6.7,2.8-1.3,2.8-6.7S213.2,110.4,211.6,110.4Z"/>
          <path class="cls-3" d="M222.4,109.1l4.1,11.7h0V109.1h1.7V125h-1.8l-4.9-13.8h0V125h-1.7V109.1Z"/>
          <path class="cls-3" d="M232.8,109.1l2.8,12.6h0l2.8-12.6h1.7L236.4,125h-1.6l-3.7-15.9Z"/>
          <path class="cls-3" d="M250.5,109.1v1.5H245V116h4.1v1.5H245v6.1h5.8v1.5h-7.5V109.2h7.2Z"/>
          <path class="cls-3" d="M256.8,109.1l4.1,11.7h0V109.1h1.7V125h-1.8l-4.9-13.8h0V125h-1.7V109.1Z"/>
          <path class="cls-3" d="M273.6,109.1v1.5h-3.3V125h-1.7V110.6h-3.3v-1.5Z"/>
          <path class="cls-3" d="M278.3,109.1V125h-1.7V109.1Z"/>
          <path class="cls-3" d="M286.7,125.2c-2.7,0-4.5-2.2-4.5-8.2s1.8-8.2,4.5-8.2,4.5,2.2,4.5,8.2S289.4,125.2,286.7,125.2Zm0-14.8c-1.5,0-2.8,1.3-2.8,6.7s1.2,6.7,2.8,6.7,2.8-1.3,2.8-6.7S288.3,110.4,286.7,110.4Z"/>
          <path class="cls-3" d="M297.4,109.1l4.1,11.7h0V109.1h1.7V125h-1.8l-4.9-13.8h0V125h-1.7V109.1Z"/>
          <path class="cls-3" d="M309.2,123v2.1h-1.8V123Z"/>
        </g>
      </g>
      <g class="cls-2">
        <path class="cls-3" d="M33.6,70.5h4.8V81.9h-11V70.5l5.1-12h5.2Zm17.8,0h4.8V81.9h-11V70.5l5.1-12h5.2Z"/>
      </g>
      <line class="cls-1" x1="81.3" y1="1" x2="81.3" y2="151.6"/>
    </g>
  </g>
</svg>
