<svg id="Layer_1" data-name="Layer 1" xmlns="http://www.w3.org/2000/svg" viewBox="0 0 409.7 94">
  <defs>
    <style>
      .cls-1 {
        fill: none;
        stroke: #ebece8;
        stroke-miterlimit: 10;
        stroke-width: 2px;
      }

      .cls-2 {
        isolation: isolate;
      }

      .cls-3 {
        fill: #ebece8;
      }
    </style>
  </defs>
  <title>about-quote-800</title>
  <g id="Layer_2" data-name="Layer 2">
    <g id="ART">
      <g>
        <rect class="cls-1" x="1" y="1" width="407.7" height="92"/>
        <g class="cls-2">
          <g class="cls-2">
            <path class="cls-3" d="M78,22.81l1.38,9h0l1.73-9h1l1.79,9h0l1.28-9h1.15L84.52,34.37H83.46l-1.82-9.08h0l-1.82,9.08H78.73L76.81,22.81Z"/>
            <path class="cls-3" d="M93.78,22.81v1.06h-4v3.94h3v1.06h-3v4.45H94v1.06H88.5V22.81Z"/>
            <path class="cls-3" d="M101.08,22.81h2.79a2.88,2.88,0,0,1,3.17,3,2.78,2.78,0,0,1-1.86,2.83l2,5.73h-1.31L104,28.9l-1.63.06v5.41h-1.25Zm1.25,5.06h1.09c1.79,0,2.37-.7,2.37-2s-.58-2-2.37-2h-1.09Z"/>
            <path class="cls-3" d="M115.32,22.81v1.06h-4v3.94h3v1.06h-3v4.45h4.23v1.06H110V22.81Z"/>
            <path class="cls-3" d="M122.23,25.79c-.1-1.18-.58-2.08-1.78-2.08a1.48,1.48,0,0,0-1.58,1.52c0,2.61,4.64,2.64,4.64,6.35a2.69,2.69,0,0,1-3,2.95c-1.81,0-2.9-1.33-2.93-3.27h1.15c0,1.36.67,2.21,1.9,2.21a1.66,1.66,0,0,0,1.71-1.9c0-2.62-4.64-2.93-4.64-6.23a2.58,2.58,0,0,1,2.79-2.69c1.67,0,2.75,1.12,2.85,3.14Z"/>
            <path class="cls-3" d="M126,22.81h2.72A2.93,2.93,0,0,1,131.8,26a2.93,2.93,0,0,1-3.07,3.17h-1.47v5.22H126Zm1.25,5.28h1.31c1.25,0,2-.67,2-2.11s-.74-2.11-2-2.11h-1.31Z"/>
            <path class="cls-3" d="M139.51,22.81v1.06h-4v3.94h3v1.06h-3v4.45h4.23v1.06h-5.47V22.81Z"/>
            <path class="cls-3" d="M147,26.3c-.16-1.82-.74-2.59-1.71-2.59-1.46,0-2.1,1.28-2.1,4.88s.64,4.88,2.1,4.88c1.17,0,1.84-.8,1.87-2.95h1.25c0,2.56-1.15,4-3.12,4S142,33,142,28.59s1.28-5.94,3.35-5.94c1.71,0,2.77,1.18,3,3.65Z"/>
            <path class="cls-3" d="M156.29,22.81v1.06h-2.37v10.5h-1.25V23.87h-2.37V22.81Z"/>
            <path class="cls-3" d="M168,22.81v1.06h-2.37v10.5h-1.25V23.87H162V22.81Z"/>
            <path class="cls-3" d="M171.38,22.81v5h3.39v-5H176V34.37h-1.25V28.86h-3.39v5.51h-1.25V22.81Z"/>
            <path class="cls-3" d="M184.37,22.81v1.06h-4v3.94h3v1.06h-3v4.45h4.23v1.06h-5.47V22.81Z"/>
            <path class="cls-3" d="M193,22.81V34.37h-1.25V22.81Z"/>
            <path class="cls-3" d="M198,22.81l3,8.52h0V22.81h1.25V34.37h-1.34L197.3,24.32h0V34.37H196V22.81Z"/>
            <path class="cls-3" d="M206.39,22.81v5h3.39v-5H211V34.37h-1.25V28.86h-3.39v5.51h-1.25V22.81Z"/>
            <path class="cls-3" d="M219.38,22.81v1.06h-4v3.94h3v1.06h-3v4.45h4.23v1.06H214.1V22.81Z"/>
            <path class="cls-3" d="M222.16,22.81h2.78a2.88,2.88,0,0,1,3.17,3,2.78,2.78,0,0,1-1.86,2.83l2,5.73H226.9L225,28.9l-1.63.06v5.41h-1.25Zm1.25,5.06h1.09c1.79,0,2.37-.7,2.37-2s-.58-2-2.37-2h-1.09Z"/>
            <path class="cls-3" d="M232.47,22.81V34.37h-1.25V22.81Z"/>
            <path class="cls-3" d="M240.68,22.81v1.06h-2.37v10.5h-1.25V23.87h-2.37V22.81Z"/>
            <path class="cls-3" d="M248.1,22.81v1.06h-4v3.94h3v1.06h-3v4.45h4.23v1.06h-5.47V22.81Z"/>
            <path class="cls-3" d="M250.88,22.81H253c2.43,0,3.91,1.34,3.91,5.78s-1.47,5.78-3.91,5.78h-2.14Zm1.25,10.5h.67c1.82,0,2.88-.77,2.88-4.72s-1.06-4.72-2.88-4.72h-.67Z"/>
            <path class="cls-3" d="M269.4,22.81v1.06H267v10.5h-1.25V23.87h-2.37V22.81Z"/>
            <path class="cls-3" d="M271.54,22.81h2.78a2.88,2.88,0,0,1,3.17,3,2.78,2.78,0,0,1-1.86,2.83l2,5.73h-1.31l-1.86-5.47-1.63.06v5.41h-1.25Zm1.25,5.06h1.09c1.79,0,2.37-.7,2.37-2s-.58-2-2.37-2h-1.09Z"/>
            <path class="cls-3" d="M283.86,22.81l2.54,11.56h-1.25l-.69-3.43h-2.94l-.69,3.43h-1.25l2.54-11.56Zm-2.16,7.08h2.59L283,23.68h0Z"/>
            <path class="cls-3" d="M288.56,22.81h2.14c2.43,0,3.91,1.34,3.91,5.78s-1.47,5.78-3.91,5.78h-2.14Zm1.25,10.5h.67c1.82,0,2.88-.77,2.88-4.72s-1.06-4.72-2.88-4.72h-.67Z"/>
            <path class="cls-3" d="M298.87,22.81V34.37h-1.25V22.81Z"/>
            <path class="cls-3" d="M307.08,22.81v1.06h-2.37v10.5h-1.25V23.87h-2.37V22.81Z"/>
            <path class="cls-3" d="M310.56,22.81V34.37h-1.25V22.81Z"/>
            <path class="cls-3" d="M316.67,34.53c-2,0-3.26-1.63-3.26-5.94s1.31-5.94,3.26-5.94,3.27,1.63,3.27,5.94S318.63,34.53,316.67,34.53Zm0-10.82c-1.12,0-2,1-2,4.88s.9,4.88,2,4.88,2-1,2-4.88S317.8,23.71,316.67,23.71Z"/>
            <path class="cls-3" d="M324.48,22.81l3,8.52h0V22.81h1.25V34.37H327.4l-3.59-10.05h0V34.37h-1.25V22.81Z"/>
            <path class="cls-3" d="M335.78,25.79c-.1-1.18-.58-2.08-1.78-2.08a1.48,1.48,0,0,0-1.58,1.52c0,2.61,4.64,2.64,4.64,6.35a2.69,2.69,0,0,1-3,2.95c-1.81,0-2.9-1.33-2.93-3.27h1.15c0,1.36.67,2.21,1.91,2.21a1.66,1.66,0,0,0,1.71-1.9c0-2.62-4.64-2.93-4.64-6.23a2.58,2.58,0,0,1,2.79-2.69c1.67,0,2.75,1.12,2.85,3.14Z"/>
            <path class="cls-3" d="M347.17,34.53c-2,0-3.27-1.63-3.27-5.94s1.31-5.94,3.27-5.94,3.26,1.63,3.26,5.94S349.12,34.53,347.17,34.53Zm0-10.82c-1.12,0-2,1-2,4.88s.9,4.88,2,4.88,2-1,2-4.88S348.29,23.71,347.17,23.71Z"/>
            <path class="cls-3" d="M353.19,22.81h5v1.06h-3.71v3.94h2.79v1.06h-2.79v5.51h-1.25Z"/>
            <path class="cls-3" d="M369.92,22.81v1.06h-2.37v10.5h-1.25V23.87h-2.37V22.81Z"/>
            <path class="cls-3" d="M373.31,22.81v5h3.39v-5H378V34.37h-1.25V28.86h-3.39v5.51h-1.25V22.81Z"/>
            <path class="cls-3" d="M386.31,22.81v1.06h-4v3.94h3v1.06h-3v4.45h4.23v1.06H381V22.81Z"/>
          </g>
          <g class="cls-2">
            <path class="cls-3" d="M79,42v10.5h3.75v1.06h-5V42Z"/>
            <path class="cls-3" d="M87.9,53.73c-2,0-3.27-1.63-3.27-5.94s1.31-5.94,3.27-5.94,3.27,1.63,3.27,5.94S89.85,53.73,87.9,53.73Zm0-10.82c-1.12,0-2,1-2,4.88s.9,4.88,2,4.88,2-1,2-4.88S89,42.91,87.9,42.91Z"/>
            <path class="cls-3" d="M95.7,42l3,8.52h0V42H100V53.57H98.62L95,43.52h0V53.57H93.75V42Z"/>
            <path class="cls-3" d="M107.67,45.57c-.1-1.5-.54-2.66-1.81-2.66s-2.06,1.25-2.06,4.88.67,4.88,2.06,4.88a1.63,1.63,0,0,0,1.81-1.82V49.22H106.1V48.16h2.82v5.41h-.8l-.16-.86a2.47,2.47,0,0,1-2.1,1c-2,0-3.31-1.57-3.31-5.94s1.28-5.94,3.31-5.94,2.9,1.86,3.06,3.71Z"/>
            <path class="cls-3" d="M111.46,49.94V48.88h3.94v1.06Z"/>
            <path class="cls-3" d="M123.4,42v1.06h-4V47h3v1.06h-3v4.45h4.23v1.06h-5.47V42Z"/>
            <path class="cls-3" d="M130.31,45c-.1-1.18-.58-2.08-1.78-2.08A1.48,1.48,0,0,0,127,44.43c0,2.61,4.64,2.64,4.64,6.35a2.69,2.69,0,0,1-3,2.95c-1.81,0-2.9-1.33-2.93-3.27h1.15c0,1.36.67,2.21,1.9,2.21a1.66,1.66,0,0,0,1.71-1.9c0-2.62-4.64-2.93-4.64-6.23a2.58,2.58,0,0,1,2.79-2.69c1.67,0,2.75,1.12,2.85,3.14Z"/>
            <path class="cls-3" d="M139.29,42v1.06h-2.37v10.5h-1.25V43.07H133.3V42Z"/>
            <path class="cls-3" d="M144.2,42l2.54,11.56H145.5l-.69-3.43h-2.94l-.69,3.43h-1.25L142.47,42ZM142,49.09h2.59l-1.28-6.21h0Z"/>
            <path class="cls-3" d="M148.9,42H152a2.59,2.59,0,0,1,2.72,2.85,2.46,2.46,0,0,1-1.76,2.56v0a2.71,2.71,0,0,1,2,2.91c0,2.14-1.18,3.2-3.71,3.2H148.9Zm1.25,5h.7c1.79,0,2.59-.54,2.59-2.11,0-1.31-.58-1.79-2-1.79h-1.25Zm0,5.54h1.25c1.5,0,2.31-.66,2.31-2.14S153,48,151.4,48h-1.25Z"/>
            <path class="cls-3" d="M159.11,42v10.5h3.75v1.06h-5V42Z"/>
            <path class="cls-3" d="M166.39,42V53.57h-1.25V42Z"/>
            <path class="cls-3" d="M173.69,45c-.1-1.18-.58-2.08-1.78-2.08a1.48,1.48,0,0,0-1.58,1.52c0,2.61,4.64,2.64,4.64,6.35a2.69,2.69,0,0,1-3,2.95c-1.81,0-2.9-1.33-2.93-3.27h1.15c0,1.36.67,2.21,1.9,2.21a1.66,1.66,0,0,0,1.71-1.9c0-2.62-4.64-2.93-4.64-6.23A2.58,2.58,0,0,1,172,41.85c1.67,0,2.75,1.12,2.85,3.14Z"/>
            <path class="cls-3" d="M178.87,42v5h3.39V42h1.25V53.57h-1.25V48.06h-3.39v5.51h-1.25V42Z"/>
            <path class="cls-3" d="M191.86,42v1.06h-4V47h3v1.06h-3v4.45h4.23v1.06h-5.47V42Z"/>
            <path class="cls-3" d="M194.65,42h2.14c2.43,0,3.91,1.34,3.91,5.78s-1.47,5.78-3.91,5.78h-2.14Zm1.25,10.5h.67c1.82,0,2.88-.77,2.88-4.72s-1.06-4.72-2.88-4.72h-.67Z"/>
            <path class="cls-3" d="M212.85,45.5c-.16-1.82-.74-2.59-1.71-2.59-1.46,0-2.1,1.28-2.1,4.88s.64,4.88,2.1,4.88c1.17,0,1.84-.8,1.87-2.95h1.25c0,2.56-1.15,4-3.12,4s-3.34-1.57-3.34-5.94,1.28-5.94,3.34-5.94c1.71,0,2.77,1.18,3,3.65Z"/>
            <path class="cls-3" d="M218.42,42V53.57h-1.25V42Z"/>
            <path class="cls-3" d="M221.59,42h2.14c2.43,0,3.91,1.34,3.91,5.78s-1.47,5.78-3.91,5.78h-2.14Zm1.25,10.5h.67c1.83,0,2.88-.77,2.88-4.72s-1.06-4.72-2.88-4.72h-.67Z"/>
            <path class="cls-3" d="M235.83,42v1.06h-4V47h3v1.06h-3v4.45H236v1.06h-5.47V42Z"/>
            <path class="cls-3" d="M238.61,42h2.79a2.88,2.88,0,0,1,3.17,3,2.78,2.78,0,0,1-1.86,2.83l2,5.73h-1.31l-1.86-5.47-1.63.06v5.41h-1.25Zm1.25,5.06h1.09c1.79,0,2.37-.7,2.37-2s-.58-2-2.37-2h-1.09Z"/>
            <path class="cls-3" d="M249.4,42l2,8.74h0l2-8.74h2V53.57h-1.15V43h0l-2.4,10.6H251L248.6,43h0v10.6h-1.15V42Z"/>
            <path class="cls-3" d="M261.67,42l2.54,11.56H263l-.69-3.43h-2.94l-.69,3.43H257.4L259.94,42Zm-2.16,7.08h2.59l-1.28-6.21h0Z"/>
            <path class="cls-3" d="M267.46,42V47.9h0L270.73,42h1.34l-2.24,4,2.66,7.52h-1.34L269,47.33h0L267.46,50v3.55h-1.25V42Z"/>
            <path class="cls-3" d="M275.78,42V53.57h-1.25V42Z"/>
            <path class="cls-3" d="M280.74,42l3,8.52h0V42H285V53.57h-1.34l-3.59-10.05h0V53.57h-1.25V42Z"/>
            <path class="cls-3" d="M292.71,45.57c-.1-1.5-.54-2.66-1.81-2.66s-2.06,1.25-2.06,4.88.67,4.88,2.06,4.88a1.63,1.63,0,0,0,1.81-1.82V49.22h-1.57V48.16H294v5.41h-.8l-.16-.86a2.47,2.47,0,0,1-2.1,1c-2,0-3.31-1.57-3.31-5.94s1.28-5.94,3.31-5.94,2.9,1.86,3.06,3.71Z"/>
            <path class="cls-3" d="M306.42,42v1.06h-2.37v10.5H302.8V43.07h-2.37V42Z"/>
            <path class="cls-3" d="M313.84,42v1.06h-4V47h3v1.06h-3v4.45H314v1.06h-5.47V42Z"/>
            <path class="cls-3" d="M321.36,45.5c-.16-1.82-.74-2.59-1.71-2.59-1.46,0-2.1,1.28-2.1,4.88s.64,4.88,2.1,4.88c1.17,0,1.84-.8,1.87-2.95h1.25c0,2.56-1.15,4-3.12,4s-3.35-1.57-3.35-5.94,1.28-5.94,3.35-5.94c1.71,0,2.77,1.18,3,3.65Z"/>
            <path class="cls-3" d="M326.83,42v5h3.39V42h1.25V53.57h-1.25V48.06h-3.39v5.51h-1.25V42Z"/>
            <path class="cls-3" d="M336.34,42l3,8.52h0V42h1.25V53.57h-1.34l-3.59-10.05h0V53.57h-1.25V42Z"/>
            <path class="cls-3" d="M344.85,42V53.57H343.6V42Z"/>
            <path class="cls-3" d="M354.55,54.47a2.29,2.29,0,0,1-1.89-1.31,2.57,2.57,0,0,1-1.7.58c-2,0-3.27-1.63-3.27-5.94S349,41.85,351,41.85s3.26,1.63,3.26,5.94a9,9,0,0,1-.9,4.58c.29.46.66,1,1.22,1Zm-3.33-4.16a2.7,2.7,0,0,1,1.34.94,10.51,10.51,0,0,0,.42-3.46c0-3.92-.9-4.88-2-4.88s-2,1-2,4.88.9,4.88,2,4.88a1.37,1.37,0,0,0,1.12-.51,3.07,3.07,0,0,0-.86-.83Z"/>
            <path class="cls-3" d="M358.23,42V50.5c0,1.17.34,2.18,1.7,2.18s1.7-1,1.7-2.18V42h1.25v8.52c0,1.86-.87,3.2-2.95,3.2S357,52.39,357,50.53V42Z"/>
            <path class="cls-3" d="M371.22,42v1.06h-4V47h3v1.06h-3v4.45h4.23v1.06h-5.47V42Z"/>
            <path class="cls-3" d="M378.13,45c-.1-1.18-.58-2.08-1.78-2.08a1.48,1.48,0,0,0-1.58,1.52c0,2.61,4.64,2.64,4.64,6.35a2.69,2.69,0,0,1-3,2.95c-1.81,0-2.9-1.33-2.93-3.27h1.15c0,1.36.67,2.21,1.91,2.21a1.66,1.66,0,0,0,1.71-1.9c0-2.62-4.64-2.93-4.64-6.23a2.58,2.58,0,0,1,2.79-2.69c1.67,0,2.75,1.12,2.85,3.14Z"/>
          </g>
          <g class="cls-2">
            <path class="cls-3" d="M78,61.21l1.38,9h0l1.73-9h1l1.79,9h0l1.28-9h1.15L84.52,72.77H83.46l-1.82-9.08h0l-1.82,9.08H78.73L76.81,61.21Z"/>
            <path class="cls-3" d="M89.85,61.21V72.77H88.6V61.21Z"/>
            <path class="cls-3" d="M98.06,61.21v1.06H95.69v10.5H94.44V62.27H92.07V61.21Z"/>
            <path class="cls-3" d="M101.45,61.21v5h3.39v-5h1.25V72.77h-1.25V67.26h-3.39v5.51H100.2V61.21Z"/>
            <path class="cls-3" d="M112.1,72.93c-2,0-3.27-1.63-3.27-5.94s1.31-5.94,3.27-5.94,3.27,1.63,3.27,5.94S114.06,72.93,112.1,72.93Zm0-10.82c-1.12,0-2,1-2,4.88s.9,4.88,2,4.88,2-1,2-4.88S113.22,62.11,112.1,62.11Z"/>
            <path class="cls-3" d="M119.37,61.21V69.7c0,1.17.34,2.18,1.7,2.18s1.7-1,1.7-2.18V61.21H124v8.52c0,1.86-.86,3.2-2.95,3.2s-2.94-1.34-2.94-3.2V61.21Z"/>
            <path class="cls-3" d="M132.12,61.21v1.06h-2.37v10.5H128.5V62.27h-2.37V61.21Z"/>
            <path class="cls-3" d="M138.77,61.21h3.07a2.59,2.59,0,0,1,2.72,2.85,2.46,2.46,0,0,1-1.76,2.56v0a2.71,2.71,0,0,1,2,2.91c0,2.14-1.18,3.2-3.71,3.2h-2.34Zm1.25,5h.7c1.79,0,2.59-.54,2.59-2.11,0-1.31-.58-1.79-2-1.79H140Zm0,5.54h1.25c1.5,0,2.31-.66,2.31-2.14s-.67-2.34-2.31-2.34H140Z"/>
            <path class="cls-3" d="M153,61.21v1.06h-4v3.94h3v1.06h-3v4.45h4.23v1.06h-5.47V61.21Z"/>
            <path class="cls-3" d="M157.14,61.21V72.77h-1.25V61.21Z"/>
            <path class="cls-3" d="M162.1,61.21l3,8.52h0V61.21h1.25V72.77H165l-3.59-10.05h0V72.77h-1.25V61.21Z"/>
            <path class="cls-3" d="M174.07,64.77c-.1-1.5-.54-2.66-1.81-2.66S170.2,63.36,170.2,67s.67,4.88,2.06,4.88A1.63,1.63,0,0,0,174.07,70V68.42H172.5V67.36h2.82v5.41h-.8l-.16-.86a2.47,2.47,0,0,1-2.1,1c-2,0-3.31-1.57-3.31-5.94s1.28-5.94,3.31-5.94,2.9,1.86,3.06,3.71Z"/>
            <path class="cls-3" d="M182.93,61.21l1.38,9h0l1.73-9h1l1.79,9h0l1.28-9h1.15L189.5,72.77h-1.06l-1.82-9.08h0l-1.82,9.08H183.7l-1.92-11.56Z"/>
            <path class="cls-3" d="M198.76,61.21v1.06h-4v3.94h3v1.06h-3v4.45H199v1.06h-5.47V61.21Z"/>
            <path class="cls-3" d="M202.88,61.21V72.77h-1.25V61.21Z"/>
            <path class="cls-3" d="M210.85,64.77c-.1-1.5-.54-2.66-1.81-2.66S207,63.36,207,67s.67,4.88,2.07,4.88A1.63,1.63,0,0,0,210.85,70V68.42h-1.57V67.36h2.82v5.41h-.8l-.16-.86a2.47,2.47,0,0,1-2.1,1c-2,0-3.31-1.57-3.31-5.94S207,61.05,209,61.05s2.9,1.86,3.06,3.71Z"/>
            <path class="cls-3" d="M216.26,61.21v5h3.39v-5h1.25V72.77h-1.25V67.26h-3.39v5.51H215V61.21Z"/>
            <path class="cls-3" d="M229.25,61.21v1.06h-4v3.94h3v1.06h-3v4.45h4.23v1.06H224V61.21Z"/>
            <path class="cls-3" d="M232,61.21h2.14c2.43,0,3.91,1.34,3.91,5.78s-1.47,5.78-3.91,5.78H232Zm1.25,10.5H234c1.82,0,2.88-.77,2.88-4.72s-1.06-4.72-2.88-4.72h-.67Z"/>
            <path class="cls-3" d="M245.51,61.21h2.14c2.43,0,3.91,1.34,3.91,5.78s-1.47,5.78-3.91,5.78h-2.14Zm1.25,10.5h.67c1.82,0,2.88-.77,2.88-4.72s-1.06-4.72-2.88-4.72h-.67Z"/>
            <path class="cls-3" d="M257.41,72.93c-2,0-3.27-1.63-3.27-5.94s1.31-5.94,3.27-5.94,3.27,1.63,3.27,5.94S259.37,72.93,257.41,72.93Zm0-10.82c-1.12,0-2,1-2,4.88s.9,4.88,2,4.88,2-1,2-4.88S258.53,62.11,257.41,62.11Z"/>
            <path class="cls-3" d="M263.62,61.21l1.38,9h0l1.73-9h1l1.79,9h0l1.28-9H272l-1.86,11.56h-1.06l-1.82-9.08h0l-1.83,9.08h-1.06l-1.92-11.56Z"/>
            <path class="cls-3" d="M276,61.21l3,8.52h0V61.21h1.25V72.77h-1.34l-3.59-10.05h0V72.77H274V61.21Z"/>
            <path class="cls-3" d="M287.64,61.21h3.07a2.59,2.59,0,0,1,2.72,2.85,2.46,2.46,0,0,1-1.76,2.56v0a2.71,2.71,0,0,1,2,2.91c0,2.14-1.18,3.2-3.71,3.2h-2.34Zm1.25,5h.71c1.79,0,2.59-.54,2.59-2.11,0-1.31-.58-1.79-2-1.79h-1.25Zm0,5.54h1.25c1.5,0,2.3-.66,2.3-2.14s-.67-2.34-2.3-2.34h-1.25Z"/>
            <path class="cls-3" d="M297.14,61.21l2,5.06L301,61.21h1.34l-2.66,6.66v4.9h-1.25v-4.9l-2.69-6.66Z"/>
            <path class="cls-3" d="M313.91,64.7c-.16-1.82-.74-2.59-1.71-2.59-1.46,0-2.1,1.28-2.1,4.88s.64,4.88,2.1,4.88c1.17,0,1.84-.8,1.87-2.95h1.25c0,2.56-1.15,4-3.12,4s-3.35-1.57-3.35-5.94,1.28-5.94,3.35-5.94c1.71,0,2.77,1.18,3,3.65Z"/>
            <path class="cls-3" d="M321.08,72.93c-2,0-3.27-1.63-3.27-5.94s1.31-5.94,3.27-5.94,3.26,1.63,3.26,5.94S323,72.93,321.08,72.93Zm0-10.82c-1.12,0-2,1-2,4.88s.9,4.88,2,4.88,2-1,2-4.88S322.2,62.11,321.08,62.11Z"/>
            <path class="cls-3" d="M328.88,61.21l3,8.52h0V61.21h1.25V72.77H331.8l-3.59-10.05h0V72.77h-1.25V61.21Z"/>
            <path class="cls-3" d="M336.5,61.21l2,9.16h0l2-9.16h1.25l-2.72,11.56H338l-2.72-11.56Z"/>
            <path class="cls-3" d="M349.4,61.21v1.06h-4v3.94h3v1.06h-3v4.45h4.23v1.06h-5.47V61.21Z"/>
            <path class="cls-3" d="M354,61.21l3,8.52h0V61.21h1.25V72.77h-1.34L353.3,62.72h0V72.77H352V61.21Z"/>
            <path class="cls-3" d="M366.18,61.21v1.06h-2.37v10.5h-1.25V62.27h-2.37V61.21Z"/>
            <path class="cls-3" d="M369.67,61.21V72.77h-1.25V61.21Z"/>
            <path class="cls-3" d="M375.78,72.93c-2,0-3.27-1.63-3.27-5.94s1.31-5.94,3.27-5.94S379,62.69,379,67,377.73,72.93,375.78,72.93Zm0-10.82c-1.12,0-2,1-2,4.88s.9,4.88,2,4.88,2-1,2-4.88S376.9,62.11,375.78,62.11Z"/>
            <path class="cls-3" d="M383.59,61.21l3,8.52h0V61.21h1.25V72.77H386.5l-3.59-10.05h0V72.77h-1.25V61.21Z"/>
            <path class="cls-3" d="M392.15,71.26v1.5H390.8v-1.5Z"/>
          </g>
        </g>
        <g class="cls-2">
          <path class="cls-3" d="M24.79,46.77h2.4v5.68H21.67V46.77l2.56-6h2.6Zm8.92,0h2.4v5.68H30.59V46.77l2.56-6h2.6Z"/>
        </g>
        <line class="cls-1" x1="56.97" y1="1" x2="56.97" y2="92.16"/>
      </g>
    </g>
  </g>
</svg>
