<svg xmlns="http://www.w3.org/2000/svg" viewBox="0 0 776.1 93.69"><defs><style>.cls-1{fill:#ea5956;}.cls-2{fill:none;stroke:#ea5956;stroke-miterlimit:10;stroke-width:2px;}</style></defs><title>about 1024</title><g id="Layer_2" data-name="Layer 2"><g id="Layer_1-2" data-name="Layer 1"><path class="cls-1" d="M125.23,25.8c-.11.65-.58,2.21-3.25,2.21a3,3,0,0,1-3.29-3.14c0-1.7,1.06-3,3.38-3,2.6,0,3,1.69,3.07,2H124a1.84,1.84,0,0,0-1.87-1,2.08,2.08,0,1,0-.06,4.15,1.94,1.94,0,0,0,2-1.24Z"/><path class="cls-1" d="M129.51,22.06h1.13v5.81h-1.13Z"/><path class="cls-1" d="M135.29,22.06h2.8c1.84,0,3.31.78,3.31,2.87s-1.34,2.94-3.26,2.94h-2.85Zm2.29,4.84c1.94,0,2.69-.59,2.69-2S139.48,23,137.58,23h-1.15V26.9Z"/><path class="cls-1" d="M145.6,22.06h5.21v1h-4.08v1.35h3.51v1h-3.51V26.9h4.17v1H145.6Z"/><path class="cls-1" d="M155,22.06h3.49c1.38,0,2.37.31,2.37,1.73a1.65,1.65,0,0,1-1.62,1.71L161,27.87h-1.4L158,25.59h-1.8v2.29H155Zm3.33,2.58c.93,0,1.4-.14,1.4-.82s-.47-.82-1.4-.82h-2.19v1.64Z"/><path class="cls-1" d="M166.33,23.47h0v4.41h-1V22.06h1.53l1.81,4.31,1.85-4.31H172v5.81h-1V23.47h0l-1.86,4.41h-.9Z"/><path class="cls-1" d="M178.78,22.06h1.3l2.82,5.81h-1.2l-.61-1.33h-3.35l-.62,1.33h-1.21Zm1.86,3.5L179.43,23l-1.22,2.59Z"/><path class="cls-1" d="M186.85,22.06H188v2.71l3.22-2.71h1.62l-2.77,2.3,3.05,3.51h-1.49L189.23,25l-1.24,1v1.81h-1.14Z"/><path class="cls-1" d="M197.16,22.06h5.21v1H198.3v1.35h3.51v1H198.3V26.9h4.17v1h-5.31Z"/><path class="cls-1" d="M206.59,22.06h3.49c1.38,0,2.37.31,2.37,1.73a1.65,1.65,0,0,1-1.62,1.71l1.78,2.37h-1.4l-1.69-2.29h-1.8v2.29h-1.14Zm3.33,2.58c.93,0,1.4-.14,1.4-.82s-.47-.82-1.4-.82h-2.19v1.64Z"/><path class="cls-1" d="M118.84,35.1h4.83c2.59,0,4.27.86,4.41,3.19a2.9,2.9,0,0,1-2,3c1.69.68,2.27,1.46,2.27,3.44s-1.42,3.42-4.74,3.42h-4.79Zm2.48,5.19h2.49a1.6,1.6,0,1,0,0-3.17h-2.49Zm0,5.8h2.49c1.44,0,2.07-.65,2.07-1.89s-.63-1.89-2.07-1.89h-2.49Z"/><path class="cls-1" d="M132,48.1v-13h8.61v2.09h-6.12v3.1H139v2.09h-4.45V46h6.32V48.1Z"/><path class="cls-1" d="M144.06,48.1v-13h2.59L151.77,44h0V35.1h2.34v13h-2.39l-5.31-9.25h0V48.1Z"/><path class="cls-1" d="M158.3,45.26c.43.72.79.94,1.35.94s1-.4,1-1.55V35.1h2.49v9.49c0,2.43-1.21,3.69-3.51,3.69a3.48,3.48,0,0,1-3.06-1.75Z"/><path class="cls-1" d="M169.73,35.08h3.1l3.69,13H174l-.72-2.81h-4.1l-.77,2.81H166Zm0,8.16h3l-1.46-5.65h0Z"/><path class="cls-1" d="M179.29,48.1v-13h3.49l2.5,9.08h0l2.52-9.08h3.53v13h-2.16V37.87h0L186.25,48.1h-1.89l-2.88-10.23h0V48.1Z"/><path class="cls-1" d="M195.63,48.1v-13h2.48v13Z"/><path class="cls-1" d="M202.4,48.1v-13H205L210.1,44h0V35.1h2.34v13h-2.39l-5.31-9.25h0V48.1Z"/><path class="cls-1" d="M117.8,56.7h2.32l1.64,8.77h0l1.85-8.77h2.56l1.71,8.77h0l1.78-8.77h2.32l-2.7,13h-2.52l-1.89-9.25h0L123,69.7h-2.52Z"/><path class="cls-1" d="M135,69.7v-13h8.61v2.09h-6.12v3.1H142V64h-4.45v3.64h6.32V69.7Z"/><path class="cls-1" d="M149.57,56.68h3.1l3.69,13h-2.47l-.72-2.81h-4.1l-.77,2.81h-2.47Zm0,8.16h3l-1.46-5.65h0Z"/><path class="cls-1" d="M157.18,56.7h2.45l2.3,9.58h0l2.41-9.58h2.45l-3.44,13h-2.77Z"/><path class="cls-1" d="M169.6,69.7v-13h8.61v2.09h-6.12v3.1h4.45V64h-4.45v3.64h6.32V69.7Z"/><path class="cls-1" d="M181.57,69.7v-13h5.19c3,0,4.14,1.71,4.16,3.85a3.22,3.22,0,0,1-2.38,3.35l2.86,5.8h-2.75l-2.45-5.29h-2.14V69.7Zm2.48-7.31h1.84c1.94,0,2.54-.61,2.54-1.84s-.74-1.84-2.11-1.84h-2.27Z"/><path class="cls-1" d="M27.74,46.22a2.32,2.32,0,0,0,2.46-1.14.52.52,0,0,1,.73.3,10,10,0,0,1-1.66,3.06c-.84,0-1.72-.06-3.15-.06H22.55c-1.08,0-2,0-2.63.06a.42.42,0,0,1-.09-.5c1.16-.73,2-1.42,4.22-3.19,1.81-1.42,5-4.07,5-6.18a2,2,0,0,0-2.26-2.33,3.92,3.92,0,0,0-2.91,2c-.28.06-.69-.15-.67-.43a5.73,5.73,0,0,1,5.08-3.21c2.2,0,3.9,1.25,3.9,3.51,0,2.56-2.65,4.2-4.76,5.67l-1.29.91c-1.21.84-1.57,1.16-1.57,1.31s.11.24.67.24Z"/><path class="cls-1" d="M45,39a13.31,13.31,0,0,1-2.91,7.56,5.76,5.76,0,0,1-4.31,2.15c-2.89,0-3.6-2.11-3.6-4.24A12.4,12.4,0,0,1,37,36.91a5.9,5.9,0,0,1,4.33-2.33C44.22,34.59,45,36.81,45,39Zm-7.13,2a16.73,16.73,0,0,0-1.1,5c0,1.19.47,1.7,1.08,1.7.75,0,1.44-.8,2.11-2.16,1.21-2.46,2.46-6.21,2.46-8.21,0-.71,0-1.75-.95-1.75C39.93,35.58,38.72,38.64,37.88,41Z"/><path class="cls-1" d="M50.49,36.59a.51.51,0,0,1,0-.75c1-.17,2-.39,3-.62s2-.67,2-.67a.35.35,0,0,1,.34.3c-.26.63-.62,1.64-.91,2.5l-2.61,8.23c-.52,1.64-.37,1.85.71,2l.8.11c.22.11.15.67-.11.75q-1.62-.06-3.62-.06c-1.16,0-2.22,0-3.21.06a.49.49,0,0,1,.06-.75l.75-.11c1.16-.17,1.31-.37,1.83-2l2.15-6.79a5.61,5.61,0,0,0,.39-1.55c0-.32-.24-.5-.69-.54Z"/><path class="cls-1" d="M69.1,34.89c1.44,0,2.24,0,2.56-.06a.26.26,0,0,1,.15.34c-.71.8-1.64,2-2.87,3.56l-8.51,11a.75.75,0,0,1-.88-.75l7.89-10.17c.67-.88.91-1.25.91-1.46s-.24-.22-.6-.22h-4c-1.14,0-1.9.09-2.54,1.16a.52.52,0,0,1-.71-.28,22.17,22.17,0,0,0,1.4-3.17c.41,0,1.55.06,2.65.06Z"/><line class="cls-2" x1="98.46" y1="1" x2="98.46" y2="92.69"/><line class="cls-2" x1="310.04" y1="1" x2="310.04" y2="92.69"/><line class="cls-2" x1="543.15" y1="1" x2="543.15" y2="92.04"/><path class="cls-1" d="M332.2,23.47h0v4.41h-1V22.06h1.53l1.82,4.31,1.85-4.31h1.5v5.81h-1V23.47h0L335,27.87h-.9Z"/><path class="cls-1" d="M344.65,22.06h1.29l2.82,5.81h-1.2L347,26.54h-3.35L343,27.87h-1.21Zm1.86,3.5L345.29,23l-1.21,2.59Z"/><path class="cls-1" d="M352.72,22.06h2.8c1.84,0,3.31.78,3.31,2.87s-1.34,2.94-3.26,2.94h-2.85ZM355,26.9c1.93,0,2.69-.59,2.69-2S356.91,23,355,23h-1.15V26.9Z"/><path class="cls-1" d="M363,22.06h5.21v1h-4.08v1.35h3.51v1h-3.51V26.9h4.17v1H363Z"/><path class="cls-1" d="M378.61,22.06h1.14v5.81h-1.14Z"/><path class="cls-1" d="M384.4,22.06h1.2l3.89,4.2v-4.2h1.09v5.81h-1l-4-4.35v4.35H384.4Z"/><path class="cls-1" d="M395.37,24.33h1.06v1.13h-1.06Zm0,2.41h1.06v1.14h-1.06Z"/><path class="cls-1" d="M560.81,23.47h0v4.41h-1V22.06h1.53l1.82,4.31L565,22.06h1.5v5.81h-1V23.47h0l-1.86,4.41h-.9Z"/><path class="cls-1" d="M573.25,22.06h1.3l2.82,5.81h-1.2l-.61-1.33h-3.35l-.62,1.33h-1.21Zm1.86,3.5L573.9,23l-1.22,2.59Z"/><path class="cls-1" d="M581.33,22.06h2.8c1.84,0,3.31.78,3.31,2.87s-1.34,2.94-3.26,2.94h-2.85Zm2.29,4.84c1.93,0,2.69-.59,2.69-2S585.52,23,583.61,23h-1.15V26.9Z"/><path class="cls-1" d="M591.64,22.06h5.21v1h-4.08v1.35h3.51v1h-3.51V26.9h4.17v1h-5.31Z"/><path class="cls-1" d="M607.15,22.06h5.35v1h-4.21v1.35h3.62v1h-3.62v2.51h-1.14Z"/><path class="cls-1" d="M619.66,21.92c2.56,0,3.46,1.5,3.46,3.09,0,1.21-.71,3-3.46,3s-3.46-1.8-3.46-3C616.2,23.42,617.1,21.92,619.66,21.92Zm2.33,3c0-1.4-1-2.05-2.33-2.05s-2.33.66-2.33,2.05c0,1.65,1.24,2.1,2.33,2.1S622,26.6,622,24.95Z"/><path class="cls-1" d="M627.33,22.06h3.49c1.38,0,2.37.31,2.37,1.73a1.65,1.65,0,0,1-1.62,1.71l1.78,2.37h-1.4l-1.69-2.29h-1.8v2.29h-1.14Zm3.33,2.58c.93,0,1.4-.14,1.4-.82s-.47-.82-1.4-.82h-2.19v1.64Z"/><path class="cls-1" d="M637.86,24.33h1.06v1.13h-1.06Zm0,2.41h1.06v1.14h-1.06Z"/><path class="cls-1" d="M336,36.21h2.66l5.78,11.91H342l-1.25-2.74h-6.87l-1.26,2.74h-2.47Zm3.82,7.18-2.49-5.31-2.49,5.31Z"/><path class="cls-1" d="M365.21,43c0,3.83-2.44,5.41-6.33,5.41s-6.33-1.57-6.33-5.41v-6.8h2.33v6.64c0,2,.71,3.57,4,3.57s4-1.61,4-3.57V36.21h2.33Z"/><path class="cls-1" d="M383.87,39.83c-.38-1.06-1.34-2-4.18-2-1.57,0-3.16.39-3.16,1.49,0,.51.29,1,2.67,1.34l2.82.43c2.67.41,4.24,1.44,4.24,3.44,0,2.82-2.69,3.87-5.87,3.87-5.11,0-6.36-2.52-6.64-3.43l2.25-.71c.43.87,1.31,2.13,4.46,2.13,1.9,0,3.47-.62,3.47-1.65,0-.77-.88-1.28-2.59-1.49l-2.85-.39c-2.75-.38-4.29-1.57-4.29-3.39,0-3.57,4.64-3.57,5.56-3.57,5.13,0,6,2.38,6.31,3.2Z"/><path class="cls-1" d="M399.05,38.21h-5.33v-2h13v2h-5.33v9.92h-2.33Z"/><path class="cls-1" d="M415.15,36.21h2.33V48.12h-2.33Z"/><path class="cls-1" d="M427,36.21h2.46l8,8.6v-8.6h2.23V48.12h-2.13l-8.29-8.92v8.92H427Z"/><path class="cls-1" d="M335.67,57.88h-5.33v-2h13v2H338V67.8h-2.33Z"/><path class="cls-1" d="M351.63,55.88h10.69v2H354v2.77h7.19v2H354V65.8h8.55v2H351.63Z"/><path class="cls-1" d="M376.4,63.31l-3.8,4.49h-3L375,61.63l-5-5.75h3L376.4,60l3.44-4.08h3l-5,5.75,5.36,6.16h-3Z"/><path class="cls-1" d="M395.74,55.88h2.66l5.78,11.91h-2.46l-1.25-2.74h-6.87l-1.26,2.74h-2.47Zm3.82,7.18-2.49-5.31-2.49,5.31Z"/><path class="cls-1" d="M421.56,59.5c-.38-1.06-1.34-2-4.18-2-1.57,0-3.16.39-3.16,1.49,0,.51.29,1,2.67,1.34l2.82.43c2.67.41,4.24,1.44,4.24,3.44,0,2.82-2.69,3.87-5.87,3.87-5.11,0-6.36-2.52-6.64-3.42l2.25-.71c.43.87,1.31,2.13,4.46,2.13,1.9,0,3.47-.62,3.47-1.66,0-.77-.89-1.28-2.59-1.49l-2.85-.39c-2.75-.38-4.29-1.57-4.29-3.39,0-3.57,4.64-3.57,5.56-3.57,5.13,0,6,2.38,6.31,3.2Z"/><path class="cls-1" d="M563.11,35.08h3.1l3.69,13h-2.47l-.72-2.81H562.6l-.77,2.81h-2.47Zm0,8.16h3l-1.46-5.65h0Z"/><path class="cls-1" d="M572.59,48.1v-13h2.49V46h5.65V48.1Z"/><path class="cls-1" d="M583.66,48.1v-13h2.49V46h5.65V48.1Z"/><path class="cls-1" d="M604.89,40.25l2.23-5.15h2.59l-3.58,7.81V48.1h-2.49V42.92l-3.58-7.81h2.59Z"/><path class="cls-1" d="M613.29,37.66h-1.08V35.1h2.48v2.56l-1.15,2.7h-1.17Z"/><path class="cls-1" d="M621,35.08h3.1l3.69,13h-2.47l-.72-2.81h-4.11l-.77,2.81h-2.47Zm0,8.16h3l-1.46-5.65h0Z"/><path class="cls-1" d="M630.48,48.1v-13H633V46h5.65V48.1Z"/><path class="cls-1" d="M641.55,48.1v-13H644V46h5.65V48.1Z"/><path class="cls-1" d="M564.66,56.52a11.64,11.64,0,0,0,0,14.69h-2.18a12.24,12.24,0,0,1,0-14.69Z"/><path class="cls-1" d="M567.7,69.7v-13h8.61v2.09h-6.12v3.1h4.45V64h-4.45v3.64h6.32V69.7Z"/><path class="cls-1" d="M578.43,56.7h2.45l2.3,9.58h0l2.41-9.58h2.45l-3.44,13h-2.77Z"/><path class="cls-1" d="M590.83,69.7v-13h8.61v2.09h-6.12v3.1h4.45V64h-4.45v3.64h6.32V69.7Z"/><path class="cls-1" d="M602.78,69.7v-13H608c3,0,4.14,1.71,4.16,3.85a3.22,3.22,0,0,1-2.38,3.35l2.86,5.8h-2.75l-2.45-5.29h-2.14V69.7Zm2.48-7.31h1.84c1.94,0,2.54-.61,2.54-1.84s-.74-1.84-2.11-1.84h-2.27Z"/><path class="cls-1" d="M619.45,61.85l2.23-5.15h2.59l-3.58,7.81V69.7h-2.49V64.52l-3.58-7.81h2.59Z"/><path class="cls-1" d="M626.92,56.7h4.83c2.59,0,4.27.86,4.41,3.19a2.9,2.9,0,0,1-2,3c1.69.68,2.27,1.46,2.27,3.44S635,69.7,631.71,69.7h-4.79Zm2.49,5.19h2.48a1.6,1.6,0,1,0,0-3.17H629.4Zm0,5.8h2.48c1.44,0,2.07-.65,2.07-1.89s-.63-1.89-2.07-1.89H629.4Z"/><path class="cls-1" d="M644.58,69.88c-3.55,0-5.46-2.43-5.46-6.68s1.91-6.68,5.46-6.68S650,59,650,63.2,648.12,69.88,644.58,69.88Zm0-11.27c-2,0-3,1.55-3,4.59s.92,4.59,3,4.59,3-1.55,3-4.59S646.61,58.61,644.58,58.61Z"/><path class="cls-1" d="M653.05,56.7h4.3c3.44,0,5.82,1.91,5.83,6.5s-2.39,6.5-5.83,6.5h-4.3Zm2.48,10.91h1.66c2.84,0,3.51-2.09,3.51-4.41s-.67-4.41-3.51-4.41h-1.66Z"/><path class="cls-1" d="M669.72,61.85,672,56.7h2.59L671,64.52V69.7h-2.49V64.52L664.9,56.7h2.59Z"/><path class="cls-1" d="M676.25,71.21a11.64,11.64,0,0,0,0-14.69h2.18a12.24,12.24,0,0,1,0,14.69Z"/><rect class="cls-2" x="1" y="1" width="774.1" height="91.69"/><path class="cls-1" d="M20.95,22.33h5.21v1H22.08v1.35h3.51v1H22.08v1.54h4.17v1H20.95Z"/><path class="cls-1" d="M34.9,24.1c-.18-.52-.66-1-2-1-.77,0-1.54.19-1.54.73,0,.25.14.51,1.3.66l1.38.21c1.3.2,2.07.7,2.07,1.68,0,1.38-1.31,1.89-2.86,1.89-2.49,0-3.1-1.23-3.24-1.67l1.09-.34c.21.42.64,1,2.17,1,.93,0,1.7-.3,1.7-.81s-.43-.62-1.26-.73l-1.39-.19c-1.34-.18-2.09-.77-2.09-1.65,0-1.74,2.26-1.74,2.71-1.74,2.5,0,2.93,1.16,3.08,1.56Z"/><path class="cls-1" d="M42.31,23.3h-2.6v-1H46v1h-2.6v4.84H42.31Z"/><path class="cls-1" d="M50.32,27h1.06v1.13H50.32Z"/></g></g></svg>