<?xml version="1.0" encoding="UTF-8" standalone="no"?>
<svg
   xmlns:dc="http://purl.org/dc/elements/1.1/"
   xmlns:cc="http://creativecommons.org/ns#"
   xmlns:rdf="http://www.w3.org/1999/02/22-rdf-syntax-ns#"
   xmlns:svg="http://www.w3.org/2000/svg"
   xmlns="http://www.w3.org/2000/svg"
   xmlns:sodipodi="http://sodipodi.sourceforge.net/DTD/sodipodi-0.dtd"
   xmlns:inkscape="http://www.inkscape.org/namespaces/inkscape"
   viewBox="0 0 511.8 28.38"
   version="1.1"
   id="svg4972"
   sodipodi:docname="contact_2.svg"
   inkscape:version="0.92.3 (2405546, 2018-03-11)">
  <metadata
     id="metadata4976">
    <rdf:RDF>
      <cc:Work
         rdf:about="">
        <dc:format>image/svg+xml</dc:format>
        <dc:type
           rdf:resource="http://purl.org/dc/dcmitype/StillImage" />
        <dc:title>contact</dc:title>
      </cc:Work>
    </rdf:RDF>
  </metadata>
  <sodipodi:namedview
     pagecolor="#ffffff"
     bordercolor="#666666"
     borderopacity="1"
     objecttolerance="10"
     gridtolerance="10"
     guidetolerance="10"
     inkscape:pageopacity="0"
     inkscape:pageshadow="2"
     inkscape:window-width="1920"
     inkscape:window-height="1017"
     id="namedview4974"
     showgrid="false"
     inkscape:zoom="2.8135991"
     inkscape:cx="255.89999"
     inkscape:cy="14.19"
     inkscape:window-x="-8"
     inkscape:window-y="-8"
     inkscape:window-maximized="1"
     inkscape:current-layer="svg4972" />
  <defs
     id="defs4750">
    <style
       id="style4748">.cls-1{fill:#ebece8;}.cls-2{fill:none;stroke:#e8e8e8;stroke-miterlimit:10;stroke-width:2px;}</style>
  </defs>
  <title
     id="title4752">contact</title>
  <g
     id="Layer_2"
     data-name="Layer 2">
    <g
       id="Layer_1-2"
       data-name="Layer 1">
      <path
         class="cls-1"
         d="M0,6.88V.09H1.87c1.6,0,2.38.75,2.38,2s-.78,2-2.38,2H1.3V6.88Zm1.3-3.8H2a.85.85,0,0,0,1-1,.85.85,0,0,0-1-1H1.3Z"
         id="path4754" />
      <path
         class="cls-1"
         d="M10.32,6.88,9.19,4.12H8.57V6.88H7.27V.09H9.15c1.56,0,2.3.75,2.3,2a1.64,1.64,0,0,1-1,1.73l1.28,3ZM8.57,3h.67a.83.83,0,0,0,.92-.94.83.83,0,0,0-.92-.94H8.57Z"
         id="path4756" />
      <path
         class="cls-1"
         d="M14.5,2.28C14.5.6,15.38,0,16.64,0s2.14.6,2.14,2.28V4.7C18.78,6.37,17.9,7,16.64,7S14.5,6.37,14.5,4.7Zm1.3,2.59c0,.75.33,1,.85,1s.85-.21.85-1V2.11c0-.75-.33-1-.85-1s-.85.21-.85,1Z"
         id="path4758" />
      <path
         class="cls-1"
         d="M22,.09h1.8c1.49,0,2.31.64,2.37,2.35V4.53c-.06,1.71-.88,2.35-2.37,2.35H22Zm1.3,5.64h.45c.71,0,1.13-.34,1.13-1.35V2.59c0-1-.32-1.35-1.13-1.35h-.45Z"
         id="path4760" />
      <path
         class="cls-1"
         d="M30.67.09V4.84c0,.65.28,1,.91,1s.92-.34.92-1V.09h1.3V4.85A2,2,0,0,1,31.59,7a1.94,1.94,0,0,1-2.21-2.12V.09Z"
         id="path4762" />
      <path
         class="cls-1"
         d="M38.34,4.87c0,.75.33,1,.85,1s.85-.21.85-1V4.42h1.3V4.7c0,1.67-.88,2.27-2.14,2.27S37,6.37,37,4.7V2.28C37,.6,37.93,0,39.19,0s2.14.6,2.14,2.28v0H40V2.11c0-.75-.33-1-.85-1s-.85.21-.85,1Z"
         id="path4764" />
      <path
         class="cls-1"
         d="M44.5,6.88V.09h3.55V1.24H45.8V2.8h1.72V3.95H45.8V5.73h2.35V6.88Z"
         id="path4766" />
      <path
         class="cls-1"
         d="M51.31.09h1.8c1.48,0,2.31.64,2.37,2.35V4.53c-.06,1.71-.88,2.35-2.37,2.35h-1.8Zm1.3,5.64h.45c.71,0,1.13-.34,1.13-1.35V2.59c0-1-.32-1.35-1.13-1.35h-.45Z"
         id="path4768" />
      <path
         class="cls-1"
         d="M68.61,3.76a9.53,9.53,0,0,1-.81,1.69,2.06,2.06,0,0,0,.94.38V7A2.32,2.32,0,0,1,67,6.28a2.41,2.41,0,0,1-1.7.7C64,7,63.12,6.34,63.12,5.09a2.09,2.09,0,0,1,1.15-1.88,2.6,2.6,0,0,1-.55-1.52A1.6,1.6,0,0,1,65.45,0,1.54,1.54,0,0,1,67,1.53c0,.87-.68,1.38-1.31,1.88A10.63,10.63,0,0,0,67,4.79a6.21,6.21,0,0,0,.61-1.33ZM65.38,5.9a1.2,1.2,0,0,0,.87-.38A10.26,10.26,0,0,1,64.9,4.08a1,1,0,0,0-.49.85A.92.92,0,0,0,65.38,5.9Zm-.6-4.38a2,2,0,0,0,.38,1.07c.36-.32.81-.63.81-1.17a.61.61,0,0,0-.6-.63C65,.79,64.78,1.11,64.78,1.52Z"
         id="path4770" />
      <path
         class="cls-1"
         d="M76.58,6.88V.09h1.87c1.6,0,2.38.75,2.38,2s-.78,2-2.38,2h-.57V6.88Zm1.3-3.8h.7a.85.85,0,0,0,1-1,.85.85,0,0,0-1-1h-.7Z"
         id="path4772" />
      <path
         class="cls-1"
         d="M83,6.88,84.72.09h1.66L88,6.88H86.77l-.33-1.43H84.65l-.37,1.43Zm1.85-2.58h1.29l-.63-2.75h0Z"
         id="path4774" />
      <path
         class="cls-1"
         d="M92,4.87c0,.75.33,1,.85,1s.85-.21.85-1V4.42H95V4.7C95,6.37,94.13,7,92.87,7s-2.14-.6-2.14-2.27V2.28C90.73.6,91.61,0,92.87,0S95,.6,95,2.28v0h-1.3V2.11c0-.75-.33-1-.85-1s-.85.21-.85,1Z"
         id="path4776" />
      <path
         class="cls-1"
         d="M98.19,6.88V.09h1.3V2.9h0l1.68-2.8h1.42l-1.75,2.74,1.95,4.05h-1.46L100,4l-.51.77V6.88Z"
         id="path4778" />
      <path
         class="cls-1"
         d="M105.06,6.88,106.75.09h1.66L110,6.88H108.8l-.33-1.43h-1.79l-.37,1.43Zm1.85-2.58h1.29l-.63-2.75h0Z"
         id="path4780" />
      <path
         class="cls-1"
         d="M116.11,6.32A1.6,1.6,0,0,1,114.9,7c-1.26,0-2.14-.6-2.14-2.27V2.28c0-1.67.88-2.28,2.14-2.28s2,.76,2.09,2.3h-1.3c0-.87-.32-1.16-.79-1.16s-.85.21-.85,1V4.87c0,.75.33,1,.85,1s.79-.36.79-.94V4.47h-.91V3.4H117V6.88h-.68Z"
         id="path4782" />
      <path
         class="cls-1"
         d="M120.22,6.88V.09h3.55V1.24h-2.26V2.8h1.72V3.95h-1.72V5.73h2.35V6.88Z"
         id="path4784" />
      <path
         class="cls-1"
         d="M127,.09h1.8c1.49,0,2.31.64,2.37,2.35V4.53c-.06,1.71-.88,2.35-2.37,2.35H127Zm1.3,5.64h.45c.71,0,1.13-.34,1.13-1.35V2.59c0-1-.32-1.35-1.13-1.35h-.45Z"
         id="path4786" />
      <path
         class="cls-1"
         d="M139.12.09h1.82c1.39,0,2.19.58,2.19,1.75a1.6,1.6,0,0,1-.84,1.41,1.7,1.7,0,0,1,1,1.67c0,1.34-.9,2-2.27,2h-1.9Zm1.3,2.69h.45c.58,0,1-.34,1-.8s-.29-.82-.9-.82h-.52Zm0,3H141a.93.93,0,0,0,1-1c0-.65-.45-1-1.13-1h-.45Z"
         id="path4788" />
      <path
         class="cls-1"
         d="M148.5,2.83,149.6.09H151l-1.85,4V6.88h-1.3V4.14L146,.09h1.38Z"
         id="path4790" />
      <path
         class="cls-1"
         d="M8.57,14.79v12H6.78V17.41h0L4.89,26.76h-1L2,17.41H2v9.35H.22v-12h2.7l1.46,7h0l1.46-7Z"
         id="path4792" />
      <path
         class="cls-1"
         d="M11.35,17.69a2.87,2.87,0,0,1,3.15-3.07,2.87,2.87,0,0,1,3.15,3.07v6.16a2.88,2.88,0,0,1-3.15,3.07,2.88,2.88,0,0,1-3.15-3.07Zm2.05,6.12c0,.89.27,1.33,1.09,1.33s1.09-.43,1.09-1.33V17.74c0-.89-.26-1.33-1.09-1.33s-1.09.43-1.09,1.33Z"
         id="path4794" />
      <path
         class="cls-1"
         d="M20.53,17.69a2.87,2.87,0,0,1,3.15-3.07,2.87,2.87,0,0,1,3.15,3.07v6.16a2.88,2.88,0,0,1-3.15,3.07,2.88,2.88,0,0,1-3.15-3.07Zm2.05,6.12c0,.89.27,1.33,1.09,1.33s1.09-.43,1.09-1.33V17.74c0-.89-.26-1.33-1.09-1.33s-1.09.43-1.09,1.33Z"
         id="path4796" />
      <path
         class="cls-1"
         d="M29.72,26.76v-12h1.91l2.5,6.84h0V14.79H36v12H34.23l-2.62-7.47h0v7.47Z"
         id="path4798" />
      <path
         class="cls-1"
         d="M40.09,16.58h-2V14.79h6v1.79h-2V26.76H40.09Z"
         id="path4800" />
      <path
         class="cls-1"
         d="M46.25,17.69a2.87,2.87,0,0,1,3.15-3.07,2.87,2.87,0,0,1,3.15,3.07v6.16a2.88,2.88,0,0,1-3.15,3.07,2.88,2.88,0,0,1-3.15-3.07Zm2.05,6.12c0,.89.27,1.33,1.09,1.33s1.09-.43,1.09-1.33V17.74c0-.89-.26-1.33-1.09-1.33s-1.09.43-1.09,1.33Z"
         id="path4802" />
      <path
         class="cls-1"
         d="M59,14.79h1.69l1.39,7.62h0l1.14-7.62h1.92l-2.1,12H61.34l-1.49-7.9h0l-1.39,7.9H56.7l-2.27-12h1.92l1.26,7.62h0Z"
         id="path4804" />
      <path
         class="cls-1"
         d="M67.39,26.76v-12h5.5v1.79H69.44v3.08h2.65v1.79H69.44V25h3.68v1.79Z"
         id="path4806" />
      <path
         class="cls-1"
         d="M77.71,26.76H75.65v-12h2.88c2.3,0,3.48,1,3.48,3.53,0,1.92-.75,2.7-1.44,3l1.74,5.42H80.23l-1.46-5a9.88,9.88,0,0,1-1.06,0Zm0-6.6h.73c1.11,0,1.52-.41,1.52-1.84s-.41-1.84-1.52-1.84h-.73Z"
         id="path4808" />
      <path
         class="cls-1"
         d="M93.58,18.79v-.93c0-1-.46-1.44-1-1.44-.83,0-1.09.43-1.09,1.33v6.07c0,.89.27,1.33,1.09,1.33s1-.43,1-1.21V22.48h2.05v1.38a3.1,3.1,0,0,1-6.2,0V17.69a2.87,2.87,0,0,1,3.15-3.07,3,3,0,0,1,3,3.28v.88Z"
         id="path4810" />
      <path
         class="cls-1"
         d="M98.91,26.76v-12H101v12Z"
         id="path4812" />
      <path
         class="cls-1"
         d="M104.13,14.79h3c2.12,0,3.25,1.16,3.25,3.61v4.74c0,2.45-1.13,3.61-3.25,3.61h-3Zm2.05,10.27h.71c1.09,0,1.47-.41,1.47-1.67V18.16c0-1.26-.38-1.67-1.47-1.67h-.71Z"
         id="path4814" />
      <path
         class="cls-1"
         d="M113.3,26.76v-12h5.5v1.79h-3.45v3.08H118v1.79h-2.65V25H119v1.79Z"
         id="path4816" />
      <path
         class="cls-1"
         d="M123.62,26.76h-2.05v-12h2.88c2.3,0,3.48,1,3.48,3.53,0,1.92-.75,2.7-1.44,3l1.74,5.42h-2.09l-1.46-5a9.88,9.88,0,0,1-1.06,0Zm0-6.6h.73c1.11,0,1.52-.41,1.52-1.84s-.41-1.84-1.52-1.84h-.73Z"
         id="path4818" />
      <path
         class="cls-1"
         d="M139.47,18.79v-.93c0-1-.46-1.44-1-1.44-.83,0-1.09.43-1.09,1.33v6.07c0,.89.27,1.33,1.09,1.33s1-.43,1-1.21V22.48h2.05v1.38a3.1,3.1,0,0,1-6.2,0V17.69a2.87,2.87,0,0,1,3.15-3.07,3,3,0,0,1,3,3.28v.88Z"
         id="path4820" />
      <path
         class="cls-1"
         d="M144.51,17.69a3.15,3.15,0,0,1,6.3,0v6.16a3.15,3.15,0,0,1-6.3,0Zm2.05,6.12c0,.89.27,1.33,1.09,1.33s1.09-.43,1.09-1.33V17.74c0-.89-.26-1.33-1.09-1.33s-1.09.43-1.09,1.33Z"
         id="path4822" />
      <path
         class="cls-1"
         d="M153.57,26.76v-2h2v2Z"
         id="path4824" />
      <path
         class="cls-1"
         d="M187.79,18.65h1.79l3.9,8h-1.66L191,24.83h-4.63l-.85,1.84h-1.67Zm2.57,4.84-1.68-3.58L187,23.48Z"
         id="path4872" />
      <path
         class="cls-1"
         d="M204.48,23.23c0,2.58-1.65,3.65-4.26,3.65s-4.26-1.06-4.26-3.65V18.65h1.57v4.47c0,1.33.48,2.41,2.7,2.41s2.7-1.08,2.7-2.41V18.65h1.57Z"
         id="path4874" />
      <path
         class="cls-1"
         d="M214.34,21.09c-.25-.72-.91-1.34-2.82-1.34-1.06,0-2.13.27-2.13,1,0,.34.2.71,1.8.91l1.9.29c1.8.28,2.86,1,2.86,2.32,0,1.9-1.81,2.61-4,2.61-3.45,0-4.29-1.7-4.47-2.31l1.51-.47c.29.58.88,1.44,3,1.44,1.28,0,2.34-.42,2.34-1.12,0-.52-.6-.86-1.75-1l-1.92-.26c-1.86-.25-2.89-1.06-2.89-2.29,0-2.41,3.13-2.41,3.75-2.41,3.46,0,4.05,1.6,4.25,2.15Z"
         id="path4876" />
      <path
         class="cls-1"
         d="M221.84,20h-3.59V18.65H227V20h-3.59v6.68h-1.57Z"
         id="path4878" />
      <path
         class="cls-1"
         d="M230,18.65h1.57v8H230Z"
         id="path4880" />
      <path
         class="cls-1"
         d="M235.26,18.65h1.66l5.37,5.8v-5.8h1.5v8h-1.44l-5.59-6v6h-1.5Z"
         id="path4882" />
      <path
         class="cls-1"
         d="M247.09,25.11h1.47v1.62l-.7,1.65h-.73l.6-1.7h-.64Z"
         id="path4884" />
      <path
         class="cls-1"
         d="M260.22,20h-3.59V18.65h8.75V20h-3.59v6.68h-1.57Z"
         id="path4886" />
      <path
         class="cls-1"
         d="M271.93,23.65l-2.56,3h-2L271,22.52l-3.36-3.88h2l2.33,2.75,2.32-2.75h2l-3.37,3.88,3.61,4.15h-2Z"
         id="path4888" />
      <path
         class="cls-1"
         d="M295.21,19.9h-5.13V18.65h7v.71L293,26.68H291.3Z"
         id="path4890" />
      <path
         class="cls-1"
         d="M301.1,22.46v0a1.8,1.8,0,0,1-1.25-1.77c0-1.25,1.07-2.22,3.41-2.22s3.42,1.07,3.42,2.22a1.79,1.79,0,0,1-1.26,1.77v0a2.12,2.12,0,0,1,1.44,2c0,1.74-1.6,2.41-3.6,2.41s-3.6-.67-3.6-2.41A2.12,2.12,0,0,1,301.1,22.46Zm2.17,3.16c1.23,0,2.13-.31,2.13-1.28s-1-1.23-2.13-1.23-2.13.22-2.13,1.23S302,25.62,303.26,25.62Zm0-3.72c1.12,0,2-.24,2-1.11s-1.34-1.08-2-1.08-2,.09-2,1.08S302.14,21.89,303.26,21.89Z"
         id="path4892" />
      <path
         class="cls-1"
         d="M314.58,19.9h-5.13V18.65h7v.71l-4.05,7.32h-1.71Z"
         id="path4894" />
      <path
         class="cls-1"
         d="M322.64,18.45c2.58,0,3.61,1.87,3.61,4.22,0,2.84-1.47,4.21-3.61,4.21S319,25.51,319,22.67C319,20.31,320.05,18.45,322.64,18.45Zm0,7.17c1.26,0,2.14-1,2.14-2.95,0-1.41-.4-3-2.14-3s-2.17,1.55-2.17,3C320.47,24.66,321.38,25.62,322.64,25.62Z"
         id="path4896" />
      <path
         class="cls-1"
         d="M328.57,25.57l4.08-2.47c.86-.52,1.68-1,1.69-1.94,0-1.45-1.65-1.45-2.07-1.45a2,2,0,0,0-2.13,1.56h-1.47c0-1.14,1-2.82,3.59-2.82,1.83,0,3.55.65,3.55,2.73a3.22,3.22,0,0,1-2,2.76l-2.5,1.41v0h4.39v1.3h-7.14Z"
         id="path4898" />
      <line
         class="cls-2"
         x1="167.93"
         y1="0.39"
         x2="167.93"
         y2="26.39"
         id="line4900" />
      <line
         class="cls-2"
         x1="351.25"
         y1="0.39"
         x2="351.25"
         y2="26.39"
         id="line4902" />
      <path
         class="cls-1"
         d="M365.14.52h1.22l3.95,4.26V.52h1.1v5.9h-1.06L366.25,2V6.43h-1.1Z"
         id="path4904" />
      <path
         class="cls-1"
         d="M376.76.38c2.6,0,3.52,1.53,3.52,3.14,0,1.23-.72,3.05-3.52,3.05s-3.52-1.83-3.52-3.05C373.24,1.91,374.16.38,376.76.38Zm2.36,3.08c0-1.42-1-2.09-2.36-2.09s-2.36.67-2.36,2.09c0,1.67,1.26,2.13,2.36,2.13S379.12,5.13,379.12,3.46Z"
         id="path4906" />
      <path
         class="cls-1"
         d="M384.21,1.52h-2.64v-1H388v1h-2.64V6.43h-1.15Z"
         id="path4908" />
      <path
         class="cls-1"
         d="M393.42.52h5.43v1h-4.28V2.89h3.68v1h-3.68V6.43h-1.15Z"
         id="path4910" />
      <path
         class="cls-1"
         d="M402.82.52h1.32L407,6.43h-1.22l-.62-1.36h-3.4l-.63,1.36h-1.23Zm1.89,3.56-1.23-2.63-1.23,2.63Z"
         id="path4912" />
      <path
         class="cls-1"
         d="M408.58.52h3.55c1.4,0,2.4.32,2.4,1.76A1.67,1.67,0,0,1,412.89,4l1.81,2.4h-1.42l-1.71-2.32h-1.83V6.43h-1.15ZM412,3.15c.94,0,1.42-.14,1.42-.84s-.48-.83-1.42-.83h-2.22V3.15Z"
         id="path4914" />
      <path
         class="cls-1"
         d="M420.36.52h5.43v1h-4.28V2.89h3.68v1h-3.68V6.43h-1.15Z"
         id="path4916" />
      <path
         class="cls-1"
         d="M427.5.52H431c1.4,0,2.4.32,2.4,1.76A1.67,1.67,0,0,1,431.8,4l1.81,2.4h-1.42l-1.71-2.32h-1.83V6.43H427.5Zm3.38,2.62c.94,0,1.42-.14,1.42-.84s-.48-.83-1.42-.83h-2.22V3.15Z"
         id="path4918" />
      <path
         class="cls-1"
         d="M438.66.38c2.6,0,3.52,1.53,3.52,3.14,0,1.23-.72,3.05-3.52,3.05s-3.52-1.83-3.52-3.05C435.15,1.91,436.07.38,438.66.38ZM441,3.46c0-1.42-1-2.09-2.36-2.09S436.3,2,436.3,3.46c0,1.67,1.26,2.13,2.36,2.13S441,5.13,441,3.46Z"
         id="path4920" />
      <path
         class="cls-1"
         d="M445,2h0V6.43h-1V.52h1.55l1.84,4.38L449.25.52h1.52v5.9h-1V2h0l-1.89,4.47h-.92Z"
         id="path4922" />
      <path
         class="cls-1"
         d="M458.79,1.52h-2.64v-1h6.43v1h-2.64V6.43h-1.15Z"
         id="path4924" />
      <path
         class="cls-1"
         d="M464.26.52h1.15V2.86h4V.52h1.15v5.9h-1.15V3.89h-4V6.43h-1.15Z"
         id="path4926" />
      <path
         class="cls-1"
         d="M472.74.52H478v1H473.9V2.89h3.56v1H473.9V5.44h4.24v1h-5.39Z"
         id="path4928" />
      <path
         class="cls-1"
         d="M485.72,1.52h-2.64v-1h6.43v1h-2.64V6.43h-1.15Z"
         id="path4930" />
      <path
         class="cls-1"
         d="M491.19.52h3.55c1.4,0,2.4.32,2.4,1.76A1.67,1.67,0,0,1,495.49,4l1.81,2.4h-1.42l-1.71-2.32h-1.83V6.43h-1.15Zm3.38,2.62c.94,0,1.42-.14,1.42-.84s-.48-.83-1.42-.83h-2.22V3.15Z"
         id="path4932" />
      <path
         class="cls-1"
         d="M499.22.52h5.29v1h-4.14V2.89h3.56v1h-3.56V5.44h4.24v1h-5.39Z"
         id="path4934" />
      <path
         class="cls-1"
         d="M506.36.52h5.29v1h-4.14V2.89h3.56v1h-3.56V5.44h4.24v1h-5.39Z"
         id="path4936" />
      <path
         class="cls-1"
         d="M369.59,18.28v-1c0-1.08-.5-1.55-1.07-1.55-.89,0-1.17.46-1.17,1.42v6.51c0,1,.28,1.42,1.17,1.42s1.07-.46,1.07-1.3V22.25h2.2v1.48a3.33,3.33,0,0,1-6.65,0V17.11a3.09,3.09,0,0,1,3.38-3.29c2.2,0,3.27,1.6,3.27,3.52v.94Z"
         id="path4938" />
      <path
         class="cls-1"
         d="M375.67,26.83V14h2.2V26.83Z"
         id="path4940" />
      <path
         class="cls-1"
         d="M381.65,14h3.27c2.28,0,3.49,1.24,3.49,3.88V23c0,2.63-1.21,3.88-3.49,3.88h-3.27Zm2.2,11h.76c1.17,0,1.58-.44,1.58-1.8V17.6c0-1.35-.41-1.8-1.58-1.8h-.76Z"
         id="path4942" />
      <path
         class="cls-1"
         d="M391.87,26.83V14h5.9v1.92h-3.7v3.31h2.85v1.92h-2.85v3.77H398v1.92Z"
         id="path4944" />
      <path
         class="cls-1"
         d="M403.31,26.83H401.1V14h3.09c2.47,0,3.73,1,3.73,3.79,0,2.06-.8,2.9-1.55,3.24l1.87,5.81H406l-1.56-5.32a10.57,10.57,0,0,1-1.14.05Zm0-7.08h.78c1.19,0,1.64-.44,1.64-2s-.45-2-1.64-2h-.78Z"
         id="path4946" />
      <path
         class="cls-1"
         d="M416.91,26.83V14h2.21V26.83Z"
         id="path4948" />
      <path
         class="cls-1"
         d="M422.78,26.83V14H425V24.91h3.47v1.92Z"
         id="path4950" />
      <path
         class="cls-1"
         d="M431,26.83V14h2.21V24.91h3.47v1.92Z"
         id="path4952" />
      <path
         class="cls-1"
         d="M439.4,14h2.2v9.69c0,.94.37,1.4,1.17,1.4s1.17-.46,1.17-1.4V14h2.2v9.6a3.38,3.38,0,1,1-6.76,0Z"
         id="path4954" />
      <path
         class="cls-1"
         d="M458.46,14V26.83h-1.92v-10h0l-2,10h-1.07l-2-10h0v10H449.5V14h2.9L454,21.5h0l1.57-7.5Z"
         id="path4956" />
      <path
         class="cls-1"
         d="M462.12,26.83V14h2.21V26.83Z"
         id="path4958" />
      <path
         class="cls-1"
         d="M468.1,26.83V14h2l2.69,7.34h0V14h2V26.83h-1.92l-2.81-8h0v8Z"
         id="path4960" />
      <path
         class="cls-1"
         d="M479.61,26.83h-2.13L479.84,14h2.74l2.36,12.84h-2.13L482.42,24H480Zm.71-4.77h1.78l-.87-5.51h0Z"
         id="path4962" />
      <path
         class="cls-1"
         d="M488.84,15.91H486.7V14h6.47v1.92H491V26.83h-2.21Z"
         id="path4964" />
      <path
         class="cls-1"
         d="M495.81,26.83V14h5.9v1.92H498v3.31h2.85v1.92H498v3.77H502v1.92Z"
         id="path4966" />
      <path
         class="cls-1"
         d="M505,14h3.27c2.28,0,3.48,1.24,3.48,3.88V23c0,2.63-1.21,3.88-3.48,3.88H505Zm2.2,11H508c1.17,0,1.58-.44,1.58-1.8V17.6c0-1.35-.41-1.8-1.58-1.8h-.76Z"
         id="path4968" />
    </g>
  </g>
  <text
     xml:space="preserve"
     style="font-style:normal;font-variant:normal;font-weight:normal;font-stretch:normal;font-size:14.66666698px;line-height:1.25;font-family:Aileron;-inkscape-font-specification:Aileron;text-align:center;letter-spacing:2.77999997px;word-spacing:0px;text-anchor:middle;fill:#ebece8;fill-opacity:1;stroke:none"
     x="258.74332"
     y="10.609166"
     id="text4980"><tspan
       sodipodi:role="line"
       id="tspan4978"
       x="260.13333"
       y="10.609166">1916 TILLERY ST</tspan></text>
</svg>
