<svg xmlns="http://www.w3.org/2000/svg" viewBox="0 0 541.9 441.23"><defs><style>.cls-1{fill:#ebece8;}.cls-2{fill:none;stroke:#ebece8;stroke-miterlimit:10;stroke-width:2px;}</style></defs><title>history xl</title><g id="Layer_2" data-name="Layer 2"><g id="Layer_1-2" data-name="Layer 1"><polygon class="cls-1" points="507.34 266.05 110.34 266.05 110.34 187.05 460.04 187.05 460.04 189.05 112.34 189.05 112.34 264.05 507.34 264.05 507.34 266.05"/><path class="cls-1" d="M226.86,242.09a8.3,8.3,0,0,1-.7,1.48,1.8,1.8,0,0,0,.82.33v1a2,2,0,0,1-1.49-.6,2.1,2.1,0,0,1-1.48.61c-1.14,0-1.93-.55-1.93-1.63a1.82,1.82,0,0,1,1-1.64,2.26,2.26,0,0,1-.49-1.33,1.4,1.4,0,0,1,1.51-1.48,1.34,1.34,0,0,1,1.4,1.33c0,.76-.59,1.21-1.13,1.64a9.26,9.26,0,0,0,1.06,1.2,5.45,5.45,0,0,0,.53-1.16Zm-2.8,1.88a1,1,0,0,0,.76-.33,9,9,0,0,1-1.18-1.26.88.88,0,0,0-.42.74A.81.81,0,0,0,224.05,244Zm-.54-3.81a1.76,1.76,0,0,0,.34.93c.31-.28.7-.55.7-1a.53.53,0,0,0-.53-.55C223.7,239.51,223.52,239.79,223.52,240.15Z"/><path class="cls-1" d="M232.73,243c0,.66.29.83.74.83s.74-.18.73-.84v-.39h1.13v.25c0,1.46-.76,2-1.86,2s-1.87-.52-1.87-2v-2.11c0-1.46.76-2,1.86-2s1.87.52,1.87,2v0H234.2v-.16c0-.66-.29-.83-.74-.83s-.74.18-.73.84Z"/><path class="cls-1" d="M238.17,244.77l0-5.91h1.13l0,5.91Z"/><path class="cls-1" d="M242.21,238.85h1.57c1.29,0,2,.55,2.07,2v1.82c0,1.49-.76,2-2.06,2.05h-1.57Zm1.15,4.91h.39c.62,0,1-.3,1-1.18V241c0-.84-.28-1.18-1-1.18h-.39Z"/><path class="cls-1" d="M248.62,244.74l0-5.91h3.09v1h-2v1.36h1.5v1h-1.5v1.56h2v1Z"/><path class="cls-1" d="M257.22,244.71l-1-2.4h-.54v2.41h-1.13l0-5.91h1.64c1.36,0,2,.65,2,1.76a1.43,1.43,0,0,1-.89,1.51l1.12,2.63Zm-1.53-3.34h.58a.82.82,0,0,0,0-1.64h-.58Z"/><path class="cls-1" d="M265,240.67c0-1.46.76-2,1.86-2s1.87.52,1.87,2v2.11c0,1.46-.76,2-1.86,2s-1.87-.52-1.87-2Zm1.14,2.26c0,.66.29.83.74.83s.74-.18.73-.84v-2.41c0-.66-.29-.83-.74-.83s-.74.18-.73.84Z"/><path class="cls-1" d="M274.14,244.66l-1-2.4h-.54v2.41h-1.13l0-5.91h1.64c1.36,0,2,.65,2,1.76a1.43,1.43,0,0,1-.89,1.51l1.12,2.63Zm-1.53-3.34h.58a.82.82,0,0,0,0-1.64h-.58Z"/><path class="cls-1" d="M278.91,242.89c0,.66.29.83.74.83s.74-.18.73-.84v-.39h1.13v.25c0,1.46-.76,2-1.86,2s-1.87-.52-1.87-2v-2.11c0-1.46.76-2,1.86-2s1.87.52,1.87,2v0h-1.13v-.16c0-.66-.29-.83-.74-.83s-.74.18-.73.84Z"/><path class="cls-1" d="M284.35,244.63l0-5.91h1.13v2.36h1.6v-2.36h1.13l0,5.91h-1.13v-2.55h-1.6v2.55Z"/><path class="cls-1" d="M290.73,244.61l1.45-5.92h1.45l1.44,5.91H294l-.29-1.24h-1.56l-.32,1.25Zm1.61-2.25h1.12L292.9,240h0Z"/><path class="cls-1" d="M300.19,244.58l-1-2.4h-.54v2.41h-1.13l0-5.91h1.64c1.36,0,2,.65,2,1.76a1.43,1.43,0,0,1-.89,1.51l1.12,2.63Zm-1.53-3.34h.58a.82.82,0,0,0,0-1.64h-.58Z"/><path class="cls-1" d="M303.91,238.65h1.57c1.29,0,2,.55,2.07,2v1.82c0,1.49-.76,2-2.06,2.05h-1.57Zm1.14,4.91h.39c.62,0,1-.3,1-1.18v-1.56c0-.84-.28-1.18-1-1.18H305Z"/><path class="cls-1" d="M312.82,240.27c-.19-.56-.44-.79-.83-.79a.58.58,0,0,0-.62.65c0,.89,2.52,1,2.53,2.8a1.66,1.66,0,0,1-1.88,1.69,1.92,1.92,0,0,1-1.94-1.66l1.11-.24c.13.71.54,1,.88,1a.66.66,0,0,0,.69-.71c0-1.11-2.53-1.12-2.53-2.78a1.56,1.56,0,0,1,1.77-1.66,1.76,1.76,0,0,1,1.82,1.43Z"/><path class="cls-1" d="M320.85,244.51l0-5.91h2.95v1H322V241h1.43v1H322v2.55Z"/><path class="cls-1" d="M326.33,244.5l0-5.91h1.13l0,4.91h1.82v1Z"/><path class="cls-1" d="M331.7,240.47c0-1.46.76-2,1.86-2s1.87.52,1.87,2v2.11c0,1.46-.76,2-1.86,2s-1.87-.52-1.87-2Zm1.14,2.26c0,.66.29.83.74.83s.74-.18.73-.84v-2.41c0-.66-.29-.83-.74-.83s-.74.18-.73.84Z"/><path class="cls-1" d="M339.39,238.54v4.14c0,.57.25.86.8.86s.8-.3.8-.86v-4.14h1.13v4.14a1.93,1.93,0,0,1-3.86,0v-4.14Z"/><path class="cls-1" d="M347.72,244.43l-1-2.4h-.54v2.41h-1.13l0-5.91h1.64c1.36,0,2,.65,2,1.76a1.43,1.43,0,0,1-.89,1.51l1.12,2.63Zm-1.53-3.34h.58a.82.82,0,0,0,0-1.64h-.58Z"/><path class="cls-1" d="M351.53,244.42l0-5.91h1.13l0,5.91Z"/><path class="cls-1" d="M358.07,240.13c-.19-.56-.44-.79-.83-.79a.58.58,0,0,0-.62.65c0,.89,2.52,1,2.53,2.8a1.66,1.66,0,0,1-1.88,1.69,1.92,1.92,0,0,1-1.94-1.66l1.11-.24c.13.71.54,1,.88,1a.66.66,0,0,0,.69-.71c0-1.11-2.53-1.12-2.53-2.78a1.56,1.56,0,0,1,1.77-1.66,1.76,1.76,0,0,1,1.82,1.43Z"/><path class="cls-1" d="M362,244.38l0-5.91h1.13v2.36h1.6v-2.36h1.13l0,5.91h-1.13v-2.55h-1.6v2.55Z"/><path class="cls-1" d="M131.88,214.27H133v5.81h-1.13Z"/><path class="cls-1" d="M137.66,214.27h1.2l3.89,4.2v-4.2h1.09v5.81h-1l-4-4.35v4.35h-1.09Z"/><path class="cls-1" d="M156.57,215.24H154v-1h6.33v1h-2.6v4.84h-1.13Z"/><path class="cls-1" d="M164.36,214.27h1.14v2.3h3.9v-2.3h1.14v5.81h-1.14v-2.5h-3.9v2.5h-1.14Z"/><path class="cls-1" d="M175.11,214.27h5.21v1h-4.08v1.35h3.51v1h-3.51v1.54h4.17v1h-5.31Z"/><path class="cls-1" d="M184.76,216.53h1.06v1.14h-1.06Zm0,2.42h1.06v1.13h-1.06Z"/><path class="cls-1" d="M134,230.41a.37.37,0,0,1,0-.56c.74-.13,1.52-.29,2.22-.46s1.46-.5,1.5-.5a.26.26,0,0,1,.26.22c-.19.46-.46,1.22-.67,1.86l-1.94,6.11c-.38,1.22-.27,1.38.53,1.49l.59.08c.16.08.11.5-.08.56q-1.2,0-2.69,0c-.86,0-1.65,0-2.38,0a.36.36,0,0,1,0-.56l.56-.08c.86-.13,1-.27,1.36-1.49l1.6-5a4.17,4.17,0,0,0,.29-1.15c0-.24-.18-.37-.51-.4Z"/><path class="cls-1" d="M140.1,236.88c0-1.5,1.25-2.46,2.74-3.06a2.4,2.4,0,0,1-1-1.84,3.2,3.2,0,0,1,3.38-3.06c1.6,0,3,.75,3,2.45,0,1.28-1.17,2-2.29,2.46a2.79,2.79,0,0,1,1.38,2.37c0,1.89-1.6,3.15-4,3.15C141.51,239.36,140.1,238.54,140.1,236.88Zm3.38-2.53a2.91,2.91,0,0,0-1.39,2.46,1.62,1.62,0,0,0,1.6,1.81,1.6,1.6,0,0,0,1.6-1.7A3.15,3.15,0,0,0,143.48,234.35Zm3-3.17a1.36,1.36,0,0,0-1.31-1.52,1.43,1.43,0,0,0-1.38,1.52c0,1.09.75,1.63,1.54,2.13A2.43,2.43,0,0,0,146.46,231.18Z"/><path class="cls-1" d="M157.78,232.17a9.89,9.89,0,0,1-2.16,5.62,4.29,4.29,0,0,1-3.2,1.6c-2.14,0-2.67-1.57-2.67-3.15a9.21,9.21,0,0,1,2.11-5.59,4.38,4.38,0,0,1,3.22-1.73C157.19,228.92,157.78,230.57,157.78,232.17Zm-5.3,1.5a12.44,12.44,0,0,0-.82,3.71c0,.88.35,1.27.8,1.27s1.07-.59,1.57-1.6a17.77,17.77,0,0,0,1.82-6.1c0-.53,0-1.3-.7-1.3C154,229.66,153.11,231.93,152.49,233.68Z"/><path class="cls-1" d="M167.06,232.17a9.89,9.89,0,0,1-2.16,5.62,4.29,4.29,0,0,1-3.2,1.6c-2.14,0-2.67-1.57-2.67-3.15a9.21,9.21,0,0,1,2.11-5.59,4.38,4.38,0,0,1,3.22-1.73C166.47,228.92,167.06,230.57,167.06,232.17Zm-5.3,1.5a12.44,12.44,0,0,0-.82,3.71c0,.88.35,1.27.8,1.27s1.07-.59,1.57-1.6a17.77,17.77,0,0,0,1.82-6.1c0-.53,0-1.3-.7-1.3C163.29,229.66,162.39,231.93,161.77,233.68Z"/><path class="cls-1" d="M172.84,229.63c0,1.3-1.25,2.35-3,2.79a.36.36,0,0,1-.16-.54c.85-.24,1.6-.9,1.6-1.54a.83.83,0,0,0-.51-.75.63.63,0,0,1-.3-.59,1,1,0,0,1,1-1A1.49,1.49,0,0,1,172.84,229.63Z"/><path class="cls-1" d="M178,233.82a.78.78,0,0,1-.74.83.53.53,0,0,1-.37-.22c-.64-.74-.94-.91-1.26-.91a.43.43,0,0,0-.42.42,1.09,1.09,0,0,0,.42.72l.61.62a2.08,2.08,0,0,1-.14,3.41,3,3,0,0,1-2,.71c-.74,0-1.58-.45-1.58-1.23a.88.88,0,0,1,.78-.93c.18,0,.3.16.5.35.62.66.94.83,1.26.83a.53.53,0,0,0,.54-.46,1.31,1.31,0,0,0-.46-.82l-.53-.56a2.34,2.34,0,0,1-.78-1.62,2.43,2.43,0,0,1,.9-1.75,2.73,2.73,0,0,1,1.71-.67A1.44,1.44,0,0,1,178,233.82Z"/><path class="cls-1" d="M226.64,222.14h1.53l1.28,6.9h0l1-6.9h1.74L230.36,233H228.8l-1.37-7.15h0L226.16,233H224.6l-2.09-10.82h1.74l1.16,6.9h0Z"/><path class="cls-1" d="M234.58,232.94l0-10.83,5,0v1.62h-3.12v2.79h2.4v1.62h-2.4v3.18h3.33v1.62Z"/><path class="cls-1" d="M245.73,224.75c-.08-.93-.57-1.2-1-1.2-.6,0-.93.39-.93,1.07,0,1.84,3.79,2.72,3.8,5.66a2.65,2.65,0,0,1-2.93,2.78,2.85,2.85,0,0,1-2.8-3l1.77-.26c.08,1.09.52,1.63,1.12,1.63a1,1,0,0,0,1.08-1c0-2.15-3.79-2.7-3.8-5.81,0-1.72,1-2.7,2.87-2.71a2.6,2.6,0,0,1,2.59,2.62Z"/><path class="cls-1" d="M251.2,223.68h-1.8v-1.62l5.46,0v1.62h-1.8l0,9.21h-1.86Z"/><path class="cls-1" d="M260.3,222h1.53l1.28,6.9h0l1-6.9h1.74L264,232.85h-1.56l-1.37-7.15h0l-1.24,7.16h-1.56L256.17,222h1.74l1.16,6.9h0Z"/><path class="cls-1" d="M269.31,232.83h-1.8l2-10.84h2.31l2,10.82H272l-.34-2.4h-2Zm.59-4h1.5l-.75-4.65h0Z"/><path class="cls-1" d="M277.88,232.81H276L276,222h2.61c2.08,0,3.15.87,3.16,3.18,0,1.74-.67,2.45-1.3,2.73l1.59,4.9h-1.89l-1.33-4.48a8.9,8.9,0,0,1-1,0Zm0-6h.66c1,0,1.38-.38,1.37-1.67s-.38-1.66-1.39-1.66h-.66Z"/><path class="cls-1" d="M284.61,222h2.76c1.92,0,2.94,1,2.95,3.26v4.29c0,2.22-1,3.27-2.93,3.28h-2.76Zm1.89,9.29h.65c1,0,1.33-.38,1.33-1.52V225c0-1.14-.35-1.51-1.34-1.51h-.65Z"/><path class="cls-1" d="M297.73,232.74l0-10.83,5,0v1.62h-3.12v2.79H302v1.62h-2.4v3.18h3.33v1.62Z"/><path class="cls-1" d="M306.93,227l-2-5.15h1.83l1.15,3.43h0l1-3.44h1.83L308.94,227l2.12,5.66h-1.83L308,228.77h0l-1.28,3.95h-1.83Z"/><path class="cls-1" d="M313.3,232.69l0-10.83h2.67c2.29,0,3.36.87,3.37,3.18s-1.05,3.2-3.35,3.21h-.81v4.44Zm1.84-6h.72c1.21,0,1.59-.38,1.58-1.67s-.38-1.66-1.6-1.66h-.72Z"/><path class="cls-1" d="M323,232.66h-1.8l2-10.84h2.31l2,10.82h-1.8l-.34-2.4h-2Zm.59-4h1.5l-.75-4.65h0Z"/><path class="cls-1" d="M329.71,232.64l0-10.83h1.72l2.28,6.19h0l0-6.19h1.68l0,10.83h-1.62l-2.39-6.76h0l0,6.76Z"/><path class="cls-1" d="M341.7,224.45c-.08-.93-.57-1.2-1-1.2-.6,0-.93.39-.93,1.07,0,1.84,3.79,2.72,3.8,5.66a2.65,2.65,0,0,1-2.93,2.78,2.85,2.85,0,0,1-2.8-3l1.77-.26c.08,1.09.52,1.63,1.12,1.63a1,1,0,0,0,1.08-1c0-2.15-3.79-2.7-3.8-5.81,0-1.72,1-2.7,2.87-2.71a2.6,2.6,0,0,1,2.59,2.62Z"/><path class="cls-1" d="M346.37,232.59l0-10.83h1.86l0,10.83Z"/><path class="cls-1" d="M351.39,224.37a2.85,2.85,0,0,1,5.7,0l0,5.58a2.85,2.85,0,0,1-5.7,0Zm1.88,5.53c0,.81.24,1.2,1,1.2s1-.39,1-1.2l0-5.49c0-.81-.24-1.2-1-1.2s-1,.39-1,1.2Z"/><path class="cls-1" d="M360,232.55l0-10.83h1.72L364,227.9h0l0-6.19h1.68l0,10.83h-1.62l-2.39-6.76h0l0,6.76Z"/><path class="cls-1" d="M222.49,215.81l0-6.38h1.22l0,5.35h2.77v1Z"/><path class="cls-1" d="M231.64,215.87c-1.74,0-2.68-1.18-2.69-3.27s.93-3.28,2.67-3.29,2.68,1.18,2.69,3.27S233.38,215.86,231.64,215.87Zm0-5.53c-1,0-1.45.76-1.45,2.26s.46,2.25,1.46,2.25,1.46-.76,1.45-2.26S232.62,210.34,231.62,210.34Z"/><path class="cls-1" d="M236.64,209.39h1.2l1.15,4.7h0l1.17-4.7h1.2l-1.67,6.38h-1.36Z"/><path class="cls-1" d="M244.21,215.74l0-6.38h4.22v1h-3v1.52h2.18v1h-2.18v1.78h3.1v1Z"/><path class="cls-1" d="M258.47,215.78c-1.74,0-2.68-1.18-2.69-3.27s.93-3.28,2.67-3.29,2.68,1.18,2.69,3.27S260.21,215.78,258.47,215.78Zm0-5.53c-1,0-1.45.76-1.45,2.26s.46,2.25,1.46,2.25,1.46-.76,1.45-2.26S259.45,210.25,258.45,210.26Z"/><path class="cls-1" d="M264.09,215.68l0-6.38h4.06v1H265.3v1.52h2.13v1H265.3v2.81Z"/><path class="cls-1" d="M278.91,211.11a1.19,1.19,0,0,0-1.16-.91c-.81,0-1.3.76-1.3,2.26s.43,2.25,1.35,2.25c.55,0,.88-.2,1.24-.95l1.13.3a2.33,2.33,0,0,1-2.37,1.68c-1.63,0-2.57-1.18-2.57-3.27s.93-3.28,2.55-3.29a2.05,2.05,0,0,1,2.23,1.67Z"/><path class="cls-1" d="M283.22,215.62l0-6.38h1.22l0,6.38Z"/><path class="cls-1" d="M288,209.23h2.11c1.69,0,2.86.93,2.87,3.18s-1.16,3.19-2.85,3.2H288Zm1.24,5.35H290c1.4,0,1.72-1,1.72-2.17s-.33-2.16-1.73-2.16h-.81Z"/><path class="cls-1" d="M295.9,215.58l0-6.38h4.22v1h-3v1.52h2.18v1h-2.18v1.78h3.1v1Z"/><path class="cls-1" d="M303.23,215.56l0-6.38h2.54a1.79,1.79,0,0,1,2,1.88,1.58,1.58,0,0,1-1.16,1.65l1.41,2.84H306.7L305.49,213h-1.05v2.6Zm1.21-3.59h.9c1,0,1.24-.3,1.24-.9s-.36-.9-1-.9h-1.11Z"/><path class="cls-1" d="M315.79,215.52l0-6.38h4.06v1H317v1.52h2.13v1H317v2.81Z"/><path class="cls-1" d="M324.94,215.58c-1.74,0-2.68-1.18-2.69-3.27s.93-3.28,2.67-3.29,2.68,1.18,2.69,3.27S326.68,215.57,324.94,215.58Zm0-5.53c-1,0-1.45.76-1.45,2.26s.46,2.25,1.46,2.25,1.46-.76,1.45-2.26S325.92,210,324.92,210Z"/><path class="cls-1" d="M330.56,215.47l0-6.38h1.22l0,5.35h2.77v1Z"/><path class="cls-1" d="M337.45,215.45l0-6.38h1.22l0,5.35h2.77v1Z"/><path class="cls-1" d="M346.6,215.51c-1.74,0-2.68-1.18-2.69-3.27s.93-3.28,2.67-3.29,2.68,1.18,2.69,3.27S348.34,215.5,346.6,215.51Zm0-5.53c-1,0-1.45.76-1.45,2.26s.46,2.25,1.46,2.25,1.46-.76,1.45-2.26S347.58,210,346.58,210Z"/><path class="cls-1" d="M351.69,209h1.14l.82,4.3h0l.9-4.31h1.26l.85,4.3h0l.86-4.31h1.14l-1.31,6.38h-1.24l-.94-4.54h0l-.9,4.54H353Z"/><path class="cls-1" d="M364.56,210.68a1.17,1.17,0,0,0-1.14-.83c-.53,0-.91.21-.91.71,0,1.1,3.29.86,3.3,2.92,0,1.31-.82,2-2.23,2a2.53,2.53,0,0,1-2.39-1.5l1-.45a1.46,1.46,0,0,0,1.39,1c.61,0,1.08-.23,1.08-.85,0-1.25-3.29-1-3.3-3a1.86,1.86,0,0,1,2.05-1.79,2.32,2.32,0,0,1,2.26,1.43Z"/><rect class="cls-1" x="201.21" y="187.96" width="2" height="77.08"/><rect class="cls-1" x="385.6" y="187.96" width="2" height="77.08"/><polygon class="cls-1" points="211.23 78.12 0 78.12 0 76.12 209.23 76.12 209.23 2 0 2 0 0 211.23 0 211.23 78.12"/><path class="cls-1" d="M20.24,45.43V44.17c0-1.38-.63-2-1.35-2-1.13,0-1.49.59-1.49,1.8v8.25c0,1.22.36,1.8,1.49,1.8s1.35-.59,1.35-1.65v-2H23v1.87a3.87,3.87,0,0,1-4.15,4.17,3.91,3.91,0,0,1-4.28-4.17V43.94a3.91,3.91,0,0,1,4.28-4.17c2.8,0,4.15,2,4.15,4.47v1.2Z"/><path class="cls-1" d="M28,56.28V40h2.8V56.28Z"/><path class="cls-1" d="M35.53,40h4.15c2.89,0,4.42,1.58,4.42,4.92v6.45c0,3.34-1.53,4.92-4.42,4.92H35.53Zm2.8,14h1c1.49,0,2-.56,2-2.28V44.57c0-1.71-.52-2.28-2-2.28h-1Z"/><path class="cls-1" d="M48.5,56.28V40H56v2.44H51.3v4.19H54.9v2.44H51.3v4.78h5v2.44Z"/><path class="cls-1" d="M63,56.28h-2.8V40h3.92c3.13,0,4.74,1.33,4.74,4.8,0,2.62-1,3.68-2,4.1l2.37,7.37H66.43l-2-6.74A13.54,13.54,0,0,1,63,49.6Zm0-9h1c1.51,0,2.08-.56,2.08-2.5s-.56-2.5-2.08-2.5H63Z"/><path class="cls-1" d="M79.57,43.2h1.56v8.08H79.57Z"/><path class="cls-1" d="M87.52,43.2h1.65L94.52,49V43.2H96v8.08H94.58l-5.57-6v6h-1.5Z"/><path class="cls-1" d="M110.86,56.28h-2.71l3-16.28h3.47l3,16.28h-2.71l-.5-3.61h-3.07Zm.9-6H114l-1.11-7h0Z"/><path class="cls-1" d="M132.16,40V56.28h-2.44V43.56h0l-2.53,12.72H125.8l-2.53-12.72h0V56.28h-2.44V40h3.68l2,9.52h0l2-9.52Z"/><path class="cls-1" d="M136.42,56.28V40h7.49v2.44h-4.69v4.19h3.61v2.44h-3.61v4.78h5v2.44Z"/><path class="cls-1" d="M150.92,56.28h-2.8V40h3.92c3.13,0,4.74,1.33,4.74,4.8,0,2.62-1,3.68-2,4.1l2.37,7.37h-2.84l-2-6.74a13.54,13.54,0,0,1-1.44.07Zm0-9h1c1.51,0,2.08-.56,2.08-2.5s-.56-2.5-2.08-2.5h-1Z"/><path class="cls-1" d="M161.48,56.28V40h2.8V56.28Z"/><path class="cls-1" d="M174.7,45.43V44.17c0-1.38-.63-2-1.35-2-1.13,0-1.49.59-1.49,1.8v8.25c0,1.22.36,1.8,1.49,1.8s1.35-.59,1.35-1.65v-2h2.8v1.87a4.22,4.22,0,0,1-8.43,0V43.94a3.91,3.91,0,0,1,4.28-4.17c2.8,0,4.15,2,4.15,4.47v1.2Z"/><path class="cls-1" d="M183.65,56.28h-2.71l3-16.28h3.47l3,16.28h-2.71l-.5-3.61h-3.07Zm.9-6h2.26l-1.11-7h0Z"/><path class="cls-1" d="M18.65,22.16H20.4L24.23,30H22.61l-.82-1.81H17.24L16.4,30H14.76Zm2.53,4.75L19.53,23.4l-1.65,3.52Z"/><path class="cls-1" d="M33.23,22.16H38c1.85,0,3.09.52,3.09,2a1.72,1.72,0,0,1-.91,1.64,2.11,2.11,0,0,1,1.21,1.94c0,1.49-1.18,2.29-3.1,2.29h-5Zm4.85,3.11c1,0,1.45-.25,1.45-.91s-.44-.92-1.45-.92H34.77v1.83Zm0,3.49c1,0,1.71-.19,1.71-1.13s-.67-1.09-1.71-1.09H34.77v2.21Z"/><path class="cls-1" d="M44.9,22.16h4.74c1.87,0,3.21.42,3.21,2.35a2.23,2.23,0,0,1-2.2,2.32L53.07,30h-1.9l-2.29-3.1H46.44V30H44.9Zm4.51,3.5c1.26,0,1.9-.18,1.9-1.12s-.64-1.11-1.9-1.11h-3v2.22Z"/><path class="cls-1" d="M56.67,22.16h1.54V30H56.67Z"/><path class="cls-1" d="M62.2,22.16h7.07v1.32H63.74v1.83h4.76v1.32H63.74v2.08h5.66V30H62.2Z"/><path class="cls-1" d="M72.67,22.16h7.26v1.32H74.21v1.83h4.91v1.32H74.21V30H72.67Z"/><path class="cls-1" d="M89.09,22.16h1.54v3.12h5.29V22.16h1.54V30H95.92v-3.4H90.63V30H89.09Z"/><path class="cls-1" d="M101.45,22.16H103V30h-1.54Z"/><path class="cls-1" d="M113.13,24.56c-.25-.71-.89-1.31-2.77-1.31-1,0-2.09.26-2.09,1,0,.34.2.69,1.77.89l1.87.28c1.77.27,2.81,1,2.81,2.28,0,1.87-1.78,2.56-3.88,2.56-3.38,0-4.21-1.67-4.39-2.27l1.49-.47c.28.57.87,1.41,3,1.41,1.26,0,2.3-.41,2.3-1.1,0-.51-.59-.85-1.71-1l-1.89-.26c-1.82-.25-2.84-1-2.84-2.25,0-2.36,3.07-2.36,3.68-2.36,3.4,0,4,1.57,4.18,2.12Z"/><path class="cls-1" d="M122.24,22c3.47,0,4.7,2,4.7,4.2,0,1.64-1,4.08-4.7,4.08s-4.7-2.44-4.7-4.08C117.54,24,118.77,22,122.24,22Zm3.16,4.11c0-1.9-1.36-2.79-3.16-2.79s-3.16.89-3.16,2.79c0,2.23,1.68,2.84,3.16,2.84S125.4,28.31,125.4,26.08Z"/><path class="cls-1" d="M133.13,23.49h-3.53V22.16h8.59v1.32h-3.53V30h-1.54Z"/><path class="cls-1" d="M141.38,22.16h4.74c1.87,0,3.21.42,3.21,2.35a2.23,2.23,0,0,1-2.2,2.32L149.55,30h-1.9l-2.29-3.1h-2.44V30h-1.54Zm4.51,3.5c1.26,0,1.9-.18,1.9-1.12s-.64-1.11-1.9-1.11h-3v2.22Z"/><path class="cls-1" d="M156.16,26.89l-3.85-4.73h1.89l2.73,3.34,2.72-3.34h1.9l-3.85,4.73V30h-1.54Z"/><path class="cls-1" d="M174.84,22c3.47,0,4.7,2,4.7,4.2,0,1.64-1,4.08-4.7,4.08s-4.7-2.44-4.7-4.08C170.15,24,171.37,22,174.84,22ZM178,26.08c0-1.9-1.36-2.79-3.16-2.79s-3.16.89-3.16,2.79c0,2.23,1.68,2.84,3.16,2.84S178,28.31,178,26.08Z"/><path class="cls-1" d="M182.93,22.16h7.26v1.32h-5.72v1.83h4.91v1.32h-4.91V30h-1.54Z"/><line class="cls-2" x1="79.07" y1="55.49" x2="98.24" y2="55.49"/><path class="cls-1" d="M132.08,122.48h1.13v5.81h-1.13Z"/><path class="cls-1" d="M137.86,122.48h1.2l3.89,4.2v-4.2H144v5.81h-1l-4-4.35v4.35h-1.09Z"/><path class="cls-1" d="M148.84,124.74h1.06v1.13h-1.06Zm0,2.41h1.06v1.14h-1.06Z"/><polygon class="cls-1" points="363.22 167.65 63.87 167.65 63.87 165.65 361.22 165.65 361.22 99.65 99.04 99.65 99.04 97.65 363.22 97.65 363.22 167.65"/><path class="cls-1" d="M224.05,145.7h-1.83l2-11h2.35l2,11H226.8l-.33-2.44h-2.07Zm.61-4.09h1.52l-.75-4.73h0Z"/><path class="cls-1" d="M232.76,145.7h-1.89v-11h2.65c2.12,0,3.2.9,3.2,3.25,0,1.77-.69,2.48-1.33,2.77l1.6,5h-1.92l-1.34-4.56a9.18,9.18,0,0,1-1,0Zm0-6.07h.67c1,0,1.4-.38,1.4-1.69s-.38-1.69-1.4-1.69h-.67Z"/><path class="cls-1" d="M239.64,145.7v-11h5.06v1.65h-3.17v2.83H244v1.65h-2.44v3.23h3.38v1.65Z"/><path class="cls-1" d="M255.9,138.37v-.85c0-.93-.43-1.33-.92-1.33-.76,0-1,.4-1,1.22V143c0,.82.24,1.22,1,1.22s.92-.4.92-1.11v-1.33h1.89V143a2.85,2.85,0,0,1-5.7,0v-5.67a2.64,2.64,0,0,1,2.9-2.82,2.73,2.73,0,0,1,2.8,3v.81Z"/><path class="cls-1" d="M261.11,145.7v-11H263v11Z"/><path class="cls-1" d="M266.24,134.69H269c2,0,3,1.07,3,3.32v4.36c0,2.26-1,3.32-3,3.32h-2.8Zm1.89,9.45h.66c1,0,1.36-.38,1.36-1.54v-4.82c0-1.16-.35-1.54-1.36-1.54h-.66Z"/><path class="cls-1" d="M275,145.7v-11h5.06v1.65h-3.17v2.83h2.44v1.65h-2.44v3.23h3.38v1.65Z"/><path class="cls-1" d="M284.81,145.7h-1.89v-11h2.65c2.12,0,3.2.9,3.2,3.25,0,1.77-.69,2.48-1.33,2.77l1.6,5h-1.92l-1.34-4.56a9.18,9.18,0,0,1-1,0Zm0-6.07h.67c1,0,1.4-.38,1.4-1.69s-.38-1.69-1.4-1.69h-.67Z"/><path class="cls-1" d="M296.13,145.7v-11H298v9.36h3v1.65Z"/><path class="cls-1" d="M303.29,137.36a2.9,2.9,0,0,1,5.79,0V143a2.9,2.9,0,0,1-5.79,0Zm1.89,5.63c0,.82.24,1.22,1,1.22s1-.4,1-1.22v-5.58c0-.82-.24-1.22-1-1.22s-1,.4-1,1.22Z"/><path class="cls-1" d="M315.92,134.69h1.86l-2.3,11h-1.89l-2.3-11h1.86l1.37,7.64h0Z"/><path class="cls-1" d="M320,145.7v-11H325v1.65h-3.17v2.83h2.44v1.65h-2.44v3.23h3.38v1.65Z"/><path class="cls-1" d="M329.78,145.7h-1.89v-11h2.65c2.12,0,3.2.9,3.2,3.25,0,1.77-.69,2.48-1.33,2.77l1.6,5H332.1l-1.34-4.56a9.18,9.18,0,0,1-1,0Zm0-6.07h.67c1,0,1.4-.38,1.4-1.69s-.38-1.69-1.4-1.69h-.67Z"/><path class="cls-1" d="M340.1,137.41c-.08-.95-.58-1.22-1-1.22-.61,0-.95.4-.95,1.08,0,1.88,3.84,2.77,3.84,5.76a2.7,2.7,0,0,1-3,2.82,2.9,2.9,0,0,1-2.83-3l1.8-.26c.08,1.11.52,1.66,1.13,1.66a1,1,0,0,0,1.1-1c0-2.18-3.84-2.76-3.84-5.91,0-1.75,1.07-2.74,2.93-2.74a2.64,2.64,0,0,1,2.62,2.67Z"/><path class="cls-1" d="M133.21,135.63a.37.37,0,0,1,0-.56c.74-.13,1.52-.29,2.22-.46s1.46-.5,1.5-.5a.26.26,0,0,1,.26.22c-.19.46-.46,1.22-.67,1.86l-1.94,6.12c-.38,1.22-.27,1.38.53,1.49l.59.08c.16.08.11.5-.08.56q-1.2,0-2.69,0c-.86,0-1.65,0-2.38,0a.36.36,0,0,1,0-.56l.56-.08c.86-.13,1-.27,1.36-1.49l1.6-5a4.16,4.16,0,0,0,.29-1.15c0-.24-.18-.37-.51-.4Z"/><path class="cls-1" d="M147,134.37c1.07,0,1.66,0,1.9,0a.19.19,0,0,1,.11.26c-.53.59-1.22,1.46-2.13,2.64l-6.32,8.16a.56.56,0,0,1-.66-.56l5.86-7.56c.5-.66.67-.93.67-1.09s-.18-.16-.45-.16h-3c-.85,0-1.41.06-1.89.87a.38.38,0,0,1-.53-.21,16.46,16.46,0,0,0,1-2.35c.3,0,1.15,0,2,0Z"/><path class="cls-1" d="M156.32,134.37c1.07,0,1.66,0,1.9,0a.19.19,0,0,1,.11.26c-.53.59-1.22,1.46-2.13,2.64l-6.32,8.16a.56.56,0,0,1-.66-.56l5.86-7.56c.5-.66.67-.93.67-1.09s-.18-.16-.45-.16h-3c-.85,0-1.41.06-1.89.87a.38.38,0,0,1-.53-.21,16.46,16.46,0,0,0,1-2.35c.3,0,1.15,0,2,0Z"/><path class="cls-1" d="M161.45,144.61a3,3,0,0,1-3.3-3.3,7.92,7.92,0,0,1,3.57-6.08,11.86,11.86,0,0,1,5.78-1.94c.19,0,.22.43.1.54a8.7,8.7,0,0,0-4.51,2.15,8.45,8.45,0,0,0-2.79,5.94c0,.83.1,2,1.1,2,1.39,0,2-2.16,2-3.11,0-.61-.1-1.5-.88-1.66a1.88,1.88,0,0,0-.69,0,.29.29,0,0,1,0-.43,2.69,2.69,0,0,1,1.6-.61,2.23,2.23,0,0,1,2.27,2.45A4.1,4.1,0,0,1,161.45,144.61Z"/><path class="cls-1" d="M222.3,119.36h1.47l1.11,5.42h0l1.14-5.42h1.53l1.15,5.42h0l1.1-5.42h1.48l-1.81,8.29H228L226.82,122h0l-1.25,5.67H224Z"/><path class="cls-1" d="M234.9,127.65v-8.29h4.34v1.4h-2.75v1.91h2.1v1.4h-2.1v2.18h2.87v1.4Z"/><path class="cls-1" d="M243.66,121H243v-1.63h1.63V121l-.72,1.7h-.8Z"/><path class="cls-1" d="M252.08,127.65l-1.38-3.37h-.76v3.37h-1.58v-8.29h2.3c1.91,0,2.81.92,2.81,2.48a2,2,0,0,1-1.25,2.11l1.56,3.7ZM249.94,123h.81a1.15,1.15,0,0,0,0-2.3h-.81Z"/><path class="cls-1" d="M257.33,127.65v-8.29h4.34v1.4h-2.75v1.91H261v1.4h-2.1v2.18h2.87v1.4Z"/><path class="cls-1" d="M271.44,119.36h2.23c1.7,0,2.67.71,2.67,2.14a2,2,0,0,1-1,1.72,2.08,2.08,0,0,1,1.22,2c0,1.64-1.1,2.39-2.78,2.39h-2.32Zm1.58,3.28h.55c.71,0,1.18-.41,1.18-1s-.36-1-1.1-1H273Zm0,3.7h.67a1.13,1.13,0,0,0,1.26-1.21c0-.79-.55-1.18-1.38-1.18H273Z"/><path class="cls-1" d="M280.27,122c0-2,1.08-2.78,2.62-2.78s2.62.73,2.62,2.78v3c0,2-1.08,2.78-2.62,2.78s-2.62-.73-2.62-2.78Zm1.58,3.17c0,.92.4,1.17,1,1.17s1-.25,1-1.17v-3.37c0-.92-.4-1.17-1-1.17s-1,.25-1,1.17Z"/><path class="cls-1" d="M293.1,127.65l-1.38-3.37H291v3.37h-1.58v-8.29h2.3c1.91,0,2.81.92,2.81,2.48a2,2,0,0,1-1.25,2.11l1.56,3.7ZM291,123h.81a1.15,1.15,0,0,0,0-2.3H291Z"/><path class="cls-1" d="M298.44,127.65v-8.29h1.73l2.2,4.91h0v-4.91h1.45v8.29h-1.51l-2.42-5.35h0v5.35Z"/><path class="cls-1" d="M318,123.83a11.7,11.7,0,0,1-1,2.07,2.54,2.54,0,0,0,1.15.46v1.4a2.83,2.83,0,0,1-2.09-.85,2.94,2.94,0,0,1-2.08.85c-1.6,0-2.7-.78-2.7-2.3a2.55,2.55,0,0,1,1.4-2.3,3.17,3.17,0,0,1-.68-1.86,2,2,0,0,1,2.12-2.07,1.88,1.88,0,0,1,2,1.87c0,1.07-.83,1.69-1.6,2.3A13,13,0,0,0,316,125.1a7.62,7.62,0,0,0,.75-1.62Zm-3.94,2.62a1.46,1.46,0,0,0,1.07-.46,12.56,12.56,0,0,1-1.65-1.77,1.23,1.23,0,0,0-.6,1A1.13,1.13,0,0,0,314.11,126.45Zm-.73-5.35a2.46,2.46,0,0,0,.47,1.31c.44-.39,1-.77,1-1.43a.74.74,0,0,0-.73-.77C313.64,120.21,313.37,120.6,313.37,121.1Z"/><path class="cls-1" d="M325.17,119.36h1.47l1.11,5.42h0l1.14-5.42h1.53l1.15,5.42h0l1.1-5.42h1.48l-1.81,8.29h-1.53L329.69,122h0l-1.25,5.67H326.9Z"/><path class="cls-1" d="M337.77,127.65v-8.29h4.34v1.4h-2.75v1.91h2.1v1.4h-2.1v2.18h2.87v1.4Z"/><rect class="cls-1" x="110.56" y="99.1" width="2" height="67.12"/><rect class="cls-1" x="201.42" y="99.1" width="2" height="67.12"/><polygon class="cls-1" points="44.39 167.65 23.34 167.65 23.34 97.65 62.34 97.65 62.34 99.65 25.34 99.65 25.34 165.65 44.39 165.65 44.39 167.65"/><path class="cls-1" d="M45.88,125.3a.3.3,0,0,1,.25.25l.6,3.78a.2.2,0,0,0,.29.15.2.2,0,0,0,.09-.09L48.84,126a.3.3,0,0,1,.31-.16l3.78.6a.2.2,0,0,0,.12,0,.2.2,0,0,0,.05-.32l-2.71-2.71a.3.3,0,0,1-.06-.35l1.74-3.41a.2.2,0,0,0-.27-.27l-3.41,1.74a.3.3,0,0,1-.35-.06l-2.71-2.71a.2.2,0,0,0-.34.17l.59,3.78a.3.3,0,0,1-.16.31L42,124.32a.2.2,0,0,0,.06.38Z"/><path class="cls-1" d="M32.9,121.8l-.9.44a.2.2,0,0,0-.09.27l24.35,49.37a.2.2,0,0,0,.12.1.2.2,0,0,0,.15,0l.9-.45a.2.2,0,0,0,.09-.27L33.17,121.89a.2.2,0,0,0-.12-.1A.2.2,0,0,0,32.9,121.8Z"/><path class="cls-1" d="M44.8,137.86l.25-.13a9.78,9.78,0,0,1,4.9-1.13,11.24,11.24,0,0,0,5.57-1.31l.19-.1a11.31,11.31,0,0,0,4.45-3.93,10,10,0,0,1,4-3.51l.19-.1a10,10,0,0,1,5-1.16,11,11,0,0,0,5.46-1.3l.21-.11a11.31,11.31,0,0,0,4.45-3.93,10,10,0,0,1,4-3.51l.22-.11a9.86,9.86,0,0,1,4.94-1.14,11.17,11.17,0,0,0,5.53-1.3l.22-.11a.2.2,0,0,0,.08-.27l-.46-.89a.2.2,0,0,0-.27-.09l-.18.09a10,10,0,0,1-5,1.16,11.27,11.27,0,0,0-5.59,1.34l-.15.08a11.31,11.31,0,0,0-4.45,3.93,10,10,0,0,1-4,3.51l-.13.07a10,10,0,0,1-5,1.18,11.25,11.25,0,0,0-5.57,1.31l-.19.1A11.32,11.32,0,0,0,59,130.44a10,10,0,0,1-4,3.51l-.17.09a9.92,9.92,0,0,1-5,1.16h-.11a10.91,10.91,0,0,0-5.41,1.28l-.25.13a.2.2,0,0,0-.08.27l.46.89a.2.2,0,0,0,.27.09Z"/><path class="cls-1" d="M46.86,141.79l.2-.1A9.9,9.9,0,0,1,52,140.54a11.25,11.25,0,0,0,5.57-1.31l.19-.1a11.32,11.32,0,0,0,4.45-3.92,10,10,0,0,1,4-3.51l.22-.12a9.86,9.86,0,0,1,4.92-1.14,11.25,11.25,0,0,0,5.57-1.31l.19-.1a11.32,11.32,0,0,0,4.45-3.93,10,10,0,0,1,4-3.51l.2-.1a10,10,0,0,1,4.95-1.15A11.32,11.32,0,0,0,96.24,119l.17-.09a.2.2,0,0,0,.1-.12.2.2,0,0,0,0-.15l-.46-.89a.2.2,0,0,0-.27-.09l-.22.12a9.73,9.73,0,0,1-4.86,1.14h-.11a11.11,11.11,0,0,0-5.5,1.31l-.21.11a11.32,11.32,0,0,0-4.45,3.93,10,10,0,0,1-4,3.51l-.22.11a9.92,9.92,0,0,1-5,1.14,11.15,11.15,0,0,0-5.53,1.33l-.17.09a11.31,11.31,0,0,0-4.45,3.93,10,10,0,0,1-4,3.51l-.21.11A9.82,9.82,0,0,1,52,139.14a11.25,11.25,0,0,0-5.57,1.31l-.19.1a.2.2,0,0,0-.1.12.2.2,0,0,0,0,.15l.46.89a.2.2,0,0,0,.27.09Z"/><path class="cls-1" d="M48.92,145.73l.24-.13a9.77,9.77,0,0,1,4.9-1.13,11.25,11.25,0,0,0,5.57-1.31l.19-.1a11.31,11.31,0,0,0,4.45-3.93,10,10,0,0,1,4-3.51l.18-.09a10,10,0,0,1,5-1.16,11,11,0,0,0,5.43-1.28l.26-.14A11.32,11.32,0,0,0,83.59,129a10,10,0,0,1,4-3.51l.13-.07a10.08,10.08,0,0,1,5.06-1.19A11.14,11.14,0,0,0,98.25,123l.21-.11a.2.2,0,0,0,.08-.27l-.46-.89a.2.2,0,0,0-.27-.09l-.2.1a9.92,9.92,0,0,1-5,1.15,11.31,11.31,0,0,0-5.59,1.33l-.17.09a11.32,11.32,0,0,0-4.45,3.93,10,10,0,0,1-4,3.51l-.17.09A10.08,10.08,0,0,1,73.26,133a11,11,0,0,0-5.43,1.28l-.24.13a11.32,11.32,0,0,0-4.45,3.92,10,10,0,0,1-4,3.51l-.18.09a10,10,0,0,1-5,1.16,11.1,11.1,0,0,0-5.52,1.32l-.18.09a.2.2,0,0,0-.1.12.2.2,0,0,0,0,.15l.46.89a.2.2,0,0,0,.12.1A.2.2,0,0,0,48.92,145.73Z"/><path class="cls-1" d="M100.14,125.64a.2.2,0,0,0-.27-.09l-.15.07a10.13,10.13,0,0,1-5,1.18,11.22,11.22,0,0,0-5.54,1.3l-.22.11a11.31,11.31,0,0,0-4.45,3.93,10,10,0,0,1-4,3.51l-.18.09a9.83,9.83,0,0,1-4.92,1.16v.2h0l-.12-.2a11.12,11.12,0,0,0-5.52,1.32l-.17.09a11.31,11.31,0,0,0-4.45,3.93,10,10,0,0,1-4,3.51l-.22.11A9.81,9.81,0,0,1,56.09,147a11.25,11.25,0,0,0-5.57,1.31l-.19.1a.2.2,0,0,0-.1.12.2.2,0,0,0,0,.15l.46.89a.2.2,0,0,0,.27.09l.2-.1a9.9,9.9,0,0,1,4.95-1.15,11.25,11.25,0,0,0,5.57-1.31l.19-.1a11.31,11.31,0,0,0,4.45-3.93,10,10,0,0,1,4-3.51l.22-.11a9.88,9.88,0,0,1,4.92-1.14A11.23,11.23,0,0,0,81,137l.19-.1A11.31,11.31,0,0,0,85.64,133a10,10,0,0,1,4-3.51l.24-.12a9.93,9.93,0,0,1,4.94-1.13,11.1,11.1,0,0,0,5.48-1.29l.25-.13a.2.2,0,0,0,.08-.27Z"/><path class="cls-1" d="M57.51,111.3a10.48,10.48,0,0,1,3.61-.54,11,11,0,0,0,5.45-1.3l.21-.11a11.31,11.31,0,0,0,4.45-3.93,10,10,0,0,1,4-3.51l.22-.11a9.75,9.75,0,0,1,4.87-1.14v-.2l.11.2a11,11,0,0,0,5.45-1.28l.27-.14A.2.2,0,0,0,86.2,99l-.46-.89a.2.2,0,0,0-.27-.09l-.18.09a10,10,0,0,1-5,1.16,11.15,11.15,0,0,0-5.52,1.3l-.22.12a11.31,11.31,0,0,0-4.45,3.93,10,10,0,0,1-4,3.51l-.2.1A9.86,9.86,0,0,1,61,109.36a11.55,11.55,0,0,0-4.08.67h0a.2.2,0,0,0-.09.27l.46.89A.2.2,0,0,0,57.51,111.3Z"/><path class="cls-1" d="M87.52,101.94l-.2.11a9.9,9.9,0,0,1-4.94,1.15,11.31,11.31,0,0,0-5.61,1.34l-.15.08a11.31,11.31,0,0,0-4.45,3.93,10,10,0,0,1-4,3.51l-.16.09a10,10,0,0,1-5,1.17A11.38,11.38,0,0,0,59,114h0a.2.2,0,0,0-.1.11.2.2,0,0,0,0,.16l.46.89a.2.2,0,0,0,.24.1,10.36,10.36,0,0,1,3.55-.53,11.19,11.19,0,0,0,5.55-1.32l.17-.09a11.31,11.31,0,0,0,4.45-3.93,10,10,0,0,1,4-3.51l.19-.1a9.93,9.93,0,0,1,5-1.16,11.22,11.22,0,0,0,5.55-1.3l.21-.11a.2.2,0,0,0,.08-.27l-.46-.89a.2.2,0,0,0-.27-.09Z"/><path class="cls-1" d="M89.58,105.88l-.2.1a9.9,9.9,0,0,1-4.95,1.15,11.33,11.33,0,0,0-5.62,1.34l-.15.08a11.32,11.32,0,0,0-4.45,3.93,10,10,0,0,1-4,3.51l-.21.11a9.85,9.85,0,0,1-4.93,1.15,11.55,11.55,0,0,0-4.08.67h0a.2.2,0,0,0-.09.27l.46.89a.2.2,0,0,0,.24.1,10.46,10.46,0,0,1,3.6-.54,11,11,0,0,0,5.47-1.3l.21-.11a11.31,11.31,0,0,0,4.45-3.93,10,10,0,0,1,4-3.51l.18-.09a10,10,0,0,1,5-1.16,11.08,11.08,0,0,0,5.48-1.3l.23-.12a.2.2,0,0,0,.08-.27l-.46-.89a.2.2,0,0,0-.27-.09Z"/><path class="cls-1" d="M91.64,109.81l-.15.08a10.18,10.18,0,0,1-5,1.18,11.14,11.14,0,0,0-5.52,1.31l-.2.1a11.31,11.31,0,0,0-4.45,3.93,10,10,0,0,1-4,3.51l-.15.08a10,10,0,0,1-5,1.17,11.33,11.33,0,0,0-4.06.67h0a.2.2,0,0,0-.1.11.2.2,0,0,0,0,.16l.46.89a.2.2,0,0,0,.24.1,10.22,10.22,0,0,1,3.52-.53,11.21,11.21,0,0,0,5.55-1.3l.21-.11a11.31,11.31,0,0,0,4.45-3.93,10,10,0,0,1,4-3.51l.24-.12a9.87,9.87,0,0,1,4.91-1.13,11.31,11.31,0,0,0,5.58-1.32l.18-.09a.2.2,0,0,0,.1-.12.2.2,0,0,0,0-.15l-.46-.89A.2.2,0,0,0,91.64,109.81Z"/><path class="cls-1" d="M131.51,306.73h1.13v5.81h-1.13Z"/><path class="cls-1" d="M137.29,306.73h1.2l3.89,4.2v-4.2h1.09v5.81h-1l-4-4.35v4.35h-1.09Z"/><path class="cls-1" d="M156.2,307.7h-2.6v-1h6.33v1h-2.6v4.84H156.2Z"/><path class="cls-1" d="M164,306.73h1.14V309H169v-2.3h1.14v5.81H169V310h-3.9v2.5H164Z"/><path class="cls-1" d="M174.74,306.73H180v1h-4.08v1.35h3.51v1h-3.51v1.54h4.17v1h-5.31Z"/><path class="cls-1" d="M184.39,309h1.06v1.14h-1.06Zm0,2.42h1.06v1.13h-1.06Z"/><path class="cls-1" d="M133.64,320.68a.37.37,0,0,1,0-.56c.74-.13,1.52-.29,2.22-.46s1.46-.5,1.5-.5a.26.26,0,0,1,.26.22c-.19.46-.46,1.22-.67,1.86L135,327.35c-.38,1.22-.27,1.38.53,1.49l.59.08c.16.08.11.5-.08.56q-1.2,0-2.69,0c-.86,0-1.65,0-2.38,0a.36.36,0,0,1,0-.56l.56-.08c.86-.13,1-.27,1.36-1.49l1.6-5a4.17,4.17,0,0,0,.29-1.15c0-.24-.18-.37-.51-.4Z"/><path class="cls-1" d="M148.09,322.58a7.48,7.48,0,0,1-3.5,5.79,13.46,13.46,0,0,1-5.51,2,.39.39,0,0,1-.1-.56,9.53,9.53,0,0,0,4.51-2.37,8.45,8.45,0,0,0,2.48-5.65c0-.87-.14-1.89-1.14-1.89-1.17,0-1.91,1.84-1.91,3.06,0,.93.27,1.38.8,1.62a2.37,2.37,0,0,0,.86.14.41.41,0,0,1,0,.38,3,3,0,0,1-1.46.42,2.22,2.22,0,0,1-2.29-2.43,4.09,4.09,0,0,1,4.1-3.92C147,319.19,148.09,320.54,148.09,322.58Z"/><path class="cls-1" d="M153.86,327.83a1.72,1.72,0,0,0,1.82-.85.39.39,0,0,1,.54.22,7.43,7.43,0,0,1-1.23,2.27c-.62,0-1.28,0-2.34,0H150c-.8,0-1.5,0-2,0a.31.31,0,0,1-.06-.37c.86-.54,1.46-1.06,3.14-2.37,1.34-1.06,3.71-3,3.71-4.59a1.51,1.51,0,0,0-1.68-1.73A2.91,2.91,0,0,0,151,321.9c-.21,0-.51-.11-.5-.32a4.26,4.26,0,0,1,3.78-2.38,2.6,2.6,0,0,1,2.9,2.61c0,1.91-2,3.12-3.54,4.21l-1,.67c-.9.63-1.17.87-1.17,1s.08.18.5.18Z"/><path class="cls-1" d="M166.7,322.44a9.9,9.9,0,0,1-2.16,5.62,4.28,4.28,0,0,1-3.2,1.6c-2.14,0-2.67-1.57-2.67-3.15a9.2,9.2,0,0,1,2.11-5.59,4.38,4.38,0,0,1,3.22-1.73C166.11,319.19,166.7,320.84,166.7,322.44Zm-5.3,1.5a12.43,12.43,0,0,0-.82,3.71c0,.88.35,1.26.8,1.26s1.07-.59,1.57-1.6a17.77,17.77,0,0,0,1.82-6.1c0-.53,0-1.3-.7-1.3C162.92,319.93,162,322.2,161.4,323.95Z"/><path class="cls-1" d="M172.47,319.89c0,1.3-1.25,2.35-3,2.79a.36.36,0,0,1-.16-.54c.85-.24,1.6-.9,1.6-1.54a.83.83,0,0,0-.51-.75.63.63,0,0,1-.3-.59,1,1,0,0,1,1-1A1.49,1.49,0,0,1,172.47,319.89Z"/><path class="cls-1" d="M177.66,324.09a.78.78,0,0,1-.74.83.54.54,0,0,1-.37-.22c-.64-.74-.94-.91-1.26-.91a.43.43,0,0,0-.42.42,1.09,1.09,0,0,0,.42.72l.61.62a2.09,2.09,0,0,1-.14,3.41,3,3,0,0,1-2,.7c-.74,0-1.58-.45-1.58-1.23a.88.88,0,0,1,.78-.93c.18,0,.3.16.5.35.62.66.94.83,1.26.83a.53.53,0,0,0,.54-.46,1.31,1.31,0,0,0-.46-.82l-.53-.56a2.35,2.35,0,0,1-.78-1.62,2.43,2.43,0,0,1,.9-1.75,2.72,2.72,0,0,1,1.71-.67A1.44,1.44,0,0,1,177.66,324.09Z"/><polygon class="cls-1" points="421.95 351.66 55.34 351.66 55.34 283.75 68.76 283.75 68.76 285.75 57.34 285.75 57.34 349.66 419.95 349.66 419.95 285.75 99.1 285.75 99.1 283.75 421.95 283.75 421.95 351.66"/><path class="cls-1" d="M222.37,321.23a2.85,2.85,0,0,1,5.7,0v5.58a2.85,2.85,0,0,1-5.7,0Zm1.86,5.54c0,.81.24,1.2,1,1.2s1-.39,1-1.2v-5.49c0-.81-.24-1.2-1-1.2s-1,.39-1,1.2Z"/><path class="cls-1" d="M232.86,329.44H231V318.61h2.61c2.08,0,3.15.88,3.15,3.2,0,1.74-.68,2.44-1.31,2.73l1.58,4.91h-1.89L233.82,325a8.9,8.9,0,0,1-1,0Zm0-6h.66c1,0,1.38-.37,1.38-1.67s-.37-1.67-1.38-1.67h-.66Z"/><path class="cls-1" d="M243.37,322.22v-.84c0-.92-.42-1.31-.9-1.31-.75,0-1,.39-1,1.2v5.49c0,.81.24,1.2,1,1.2s.9-.39.9-1.1v-1.3h1.86v1.25a2.8,2.8,0,0,1-5.61,0v-5.58a2.6,2.6,0,0,1,2.85-2.77,2.68,2.68,0,0,1,2.76,3v.79Z"/><path class="cls-1" d="M248.25,329.44V318.61h1.86V323h2v-4.41h1.86v10.83h-1.86v-4.8h-2v4.8Z"/><path class="cls-1" d="M258,329.44h-1.8l2-10.83h2.31l2,10.83h-1.8l-.33-2.4h-2Zm.6-4h1.5l-.74-4.65h0Z"/><path class="cls-1" d="M266.52,329.44h-1.86V318.61h2.61c2.08,0,3.15.88,3.15,3.2,0,1.74-.68,2.44-1.31,2.73l1.58,4.91H268.8L267.48,325a8.9,8.9,0,0,1-1,0Zm0-6h.66c1,0,1.38-.37,1.38-1.67s-.37-1.67-1.38-1.67h-.66Z"/><path class="cls-1" d="M273.28,318.61H276c1.92,0,2.94,1,2.94,3.27v4.29c0,2.22-1,3.27-2.94,3.27h-2.76Zm1.86,9.3h.65c1,0,1.33-.37,1.33-1.51v-4.74c0-1.14-.35-1.51-1.33-1.51h-.65Z"/><path class="cls-1" d="M285.3,321.28c-.08-.93-.57-1.2-1-1.2-.6,0-.93.39-.93,1.07,0,1.84,3.78,2.73,3.78,5.67a2.65,2.65,0,0,1-2.94,2.77,2.85,2.85,0,0,1-2.79-3l1.77-.25c.08,1.1.51,1.64,1.11,1.64a1,1,0,0,0,1.08-1c0-2.15-3.78-2.71-3.78-5.82,0-1.72,1.05-2.7,2.88-2.7a2.6,2.6,0,0,1,2.58,2.63Z"/><path class="cls-1" d="M295.23,329.44h-1.8l2-10.83h2.31l2,10.83h-1.8l-.33-2.4h-2Zm.6-4h1.5l-.74-4.65h0Z"/><path class="cls-1" d="M303.79,329.44h-1.86V318.61h2.61c2.08,0,3.15.88,3.15,3.2,0,1.74-.68,2.44-1.31,2.73l1.58,4.91h-1.89L304.75,325a8.9,8.9,0,0,1-1,0Zm0-6h.66c1,0,1.38-.37,1.38-1.67s-.37-1.67-1.38-1.67h-.66Z"/><path class="cls-1" d="M310.56,329.44V318.61h5v1.62h-3.12V323h2.4v1.62h-2.4v3.18h3.33v1.62Z"/><path class="cls-1" d="M322.8,318.61h2.76c1.92,0,2.94,1,2.94,3.27v4.29c0,2.22-1,3.27-2.94,3.27H322.8Zm1.86,9.3h.65c1,0,1.33-.37,1.33-1.51v-4.74c0-1.14-.35-1.51-1.33-1.51h-.65Z"/><path class="cls-1" d="M331.42,329.44V318.61h5v1.62h-3.12V323h2.4v1.62h-2.4v3.18h3.33v1.62Z"/><path class="cls-1" d="M346.66,318.61v10.83H345V321h0l-1.68,8.46h-.9L340.75,321h0v8.46H339.1V318.61h2.45l1.32,6.33h0l1.32-6.33Z"/><path class="cls-1" d="M349.5,321.23a2.85,2.85,0,0,1,5.7,0v5.58a2.85,2.85,0,0,1-5.7,0Zm1.86,5.54c0,.81.24,1.2,1,1.2s1-.39,1-1.2v-5.49c0-.81-.24-1.2-1-1.2s-1,.39-1,1.2Z"/><path class="cls-1" d="M358,329.44V318.61h1.86v9.21h2.92v1.62Z"/><path class="cls-1" d="M365.34,329.44V318.61h1.86v10.83Z"/><path class="cls-1" d="M373.77,321.28c-.08-.93-.57-1.2-1-1.2-.6,0-.93.39-.93,1.07,0,1.84,3.78,2.73,3.78,5.67a2.65,2.65,0,0,1-2.94,2.77,2.85,2.85,0,0,1-2.79-3l1.77-.25c.08,1.1.51,1.64,1.11,1.64a1,1,0,0,0,1.08-1c0-2.15-3.78-2.71-3.78-5.82,0-1.72,1.05-2.7,2.88-2.7a2.6,2.6,0,0,1,2.58,2.63Z"/><path class="cls-1" d="M378.16,329.44V318.61H380V323h2v-4.41h1.86v10.83H382v-4.8h-2v4.8Z"/><path class="cls-1" d="M386.79,329.44V318.61h5v1.62h-3.12V323H391v1.62h-2.4v3.18H392v1.62Z"/><path class="cls-1" d="M394.57,318.61h2.76c1.92,0,2.94,1,2.94,3.27v4.29c0,2.22-1,3.27-2.94,3.27h-2.76Zm1.86,9.3h.65c1,0,1.33-.37,1.33-1.51v-4.74c0-1.14-.35-1.51-1.33-1.51h-.65Z"/><path class="cls-1" d="M222.37,311.51v-6.14h2.24c1.33,0,2.17.55,2.17,1.83s-.84,1.83-2.17,1.83h-1.07v2.48Zm1.17-3.43h.93c.88,0,1.13-.33,1.13-.87s-.25-.88-1.13-.88h-.93Z"/><path class="cls-1" d="M229.56,311.51v-6.14H232a1.73,1.73,0,0,1,2,1.82,1.52,1.52,0,0,1-1.12,1.58l1.35,2.74h-1.3l-1.16-2.5h-1v2.5Zm1.17-3.45h.87c.92,0,1.2-.29,1.2-.87s-.35-.87-1-.87h-1.07Z"/><path class="cls-1" d="M239.31,311.59c-1.67,0-2.58-1.15-2.58-3.15s.9-3.15,2.58-3.15,2.58,1.15,2.58,3.15S241,311.59,239.31,311.59Zm0-5.32c-1,0-1.4.73-1.4,2.17s.43,2.17,1.4,2.17,1.4-.73,1.4-2.17S240.27,306.27,239.31,306.27Z"/><path class="cls-1" d="M244.78,311.51v-6.14h1.17v2.45h2.36v-2.45h1.17v6.14h-1.17v-2.63h-2.36v2.63Z"/><path class="cls-1" d="M252.94,311.51v-6.14h1.17v6.14Z"/><path class="cls-1" d="M257.52,305.37h2.28c1.22,0,2,.41,2.08,1.5a1.37,1.37,0,0,1-.94,1.39,1.44,1.44,0,0,1,1.07,1.62c0,1-.67,1.62-2.24,1.62h-2.26Zm1.17,2.45h1.17a.75.75,0,1,0,0-1.5h-1.17Zm0,2.74h1.17c.68,0,1-.31,1-.89s-.3-.89-1-.89h-1.17Z"/><path class="cls-1" d="M265.26,311.51v-6.14h1.17v6.14Z"/><path class="cls-1" d="M273.74,305.37v1h-1.61v5.16H271v-5.16h-1.61v-1Z"/><path class="cls-1" d="M276.64,311.51v-6.14h1.17v6.14Z"/><path class="cls-1" d="M283.39,311.59c-1.67,0-2.58-1.15-2.58-3.15s.9-3.15,2.58-3.15,2.58,1.15,2.58,3.15S285.07,311.59,283.39,311.59Zm0-5.32c-1,0-1.4.73-1.4,2.17s.43,2.17,1.4,2.17,1.4-.73,1.4-2.17S284.35,306.27,283.39,306.27Z"/><path class="cls-1" d="M288.83,311.51v-6.14h1.22l2.41,4.18h0v-4.18h1.11v6.14h-1.13L290,307.14h0v4.37Z"/><path class="cls-1" d="M301.36,311.51v-6.14h2.45a1.73,1.73,0,0,1,2,1.82,1.52,1.52,0,0,1-1.12,1.58l1.35,2.74h-1.3l-1.16-2.5h-1v2.5Zm1.17-3.45h.87c.92,0,1.2-.29,1.2-.87s-.35-.87-1-.87h-1.07Z"/><path class="cls-1" d="M312.53,305.37h1.17v3.84a2.35,2.35,0,1,1-4.71,0v-3.84h1.17v3.89c0,1,.39,1.34,1.18,1.34s1.18-.35,1.18-1.34Z"/><path class="cls-1" d="M317.15,311.51v-6.14h1.17v6.14Z"/><path class="cls-1" d="M321.76,311.51v-6.14H323l2.41,4.18h0v-4.18h1.11v6.14h-1.13l-2.51-4.37h0v4.37Z"/><path class="cls-1" d="M332.68,307a1.13,1.13,0,0,0-1.1-.8c-.51,0-.88.2-.88.68,0,1.05,3.16.83,3.16,2.82,0,1.26-.79,1.89-2.15,1.89a2.43,2.43,0,0,1-2.29-1.45l1-.42a1.41,1.41,0,0,0,1.33,1c.59,0,1-.22,1-.82,0-1.21-3.16-1-3.16-2.86a1.79,1.79,0,0,1,2-1.72,2.23,2.23,0,0,1,2.17,1.39Z"/><path class="cls-1" d="M345.29,305.37v1h-1.61v5.16h-1.17v-5.16H340.9v-1Z"/><path class="cls-1" d="M348.08,311.51v-6.14h1.17v2.45h2.36v-2.45h1.17v6.14h-1.17v-2.63h-2.36v2.63Z"/><path class="cls-1" d="M356.13,311.51v-6.14h4.06v1H357.3v1.46h2.1v1h-2.1v1.72h3v1Z"/><path class="cls-1" d="M367.61,311.51v-6.14h2.24c1.33,0,2.17.55,2.17,1.83s-.84,1.83-2.17,1.83h-1.07v2.48Zm1.17-3.43h.93c.88,0,1.13-.33,1.13-.87s-.25-.88-1.13-.88h-.93Z"/><path class="cls-1" d="M376,305.37h1.46l1.74,6.14h-1.16l-.34-1.33h-1.94l-.37,1.33h-1.16Zm0,3.85h1.43l-.69-2.67h0Z"/><path class="cls-1" d="M381.9,311.51v-6.14h2.45a1.73,1.73,0,0,1,2,1.82,1.52,1.52,0,0,1-1.12,1.58l1.35,2.74h-1.3l-1.16-2.5h-1v2.5Zm1.17-3.45h.87c.92,0,1.2-.29,1.2-.87s-.35-.87-1-.87h-1.07Z"/><path class="cls-1" d="M393.38,305.37v1h-1.61v5.16H390.6v-5.16H389v-1Z"/><path class="cls-1" d="M397.82,307.8l1.05-2.43h1.22l-1.69,3.69v2.45h-1.17v-2.45l-1.69-3.69h1.22Z"/><rect class="cls-1" x="109.99" y="285.62" width="2" height="64.18"/><rect class="cls-1" x="200.84" y="285.62" width="2" height="64.18"/><path class="cls-1" d="M75.37,321.56l-.1,0a.2.2,0,0,1-.09-.12l-.08-.29a.2.2,0,0,1,.12-.24l.22-.09.14-.1a1.34,1.34,0,0,0,.27-.32,4.61,4.61,0,0,0,.24-.44l.4-.84.4-.86-.86-.71-.82-.67a2.21,2.21,0,0,0-.37-.24,1,1,0,0,0-.37-.12h-.14a1.69,1.69,0,0,0-.34,0h0a.2.2,0,0,1-.19-.15l-.08-.29a.2.2,0,0,1,.14-.25l3.26-.93h.05a.2.2,0,0,1,.19.15l.08.29a.2.2,0,0,1-.13.24,2.56,2.56,0,0,0-.5.21.54.54,0,0,0,.18.23l.4.35.41.36q.37-.83.46-1.09a1,1,0,0,0,.08-.29l-.44.07h0a.2.2,0,0,1-.19-.15l-.08-.29a.2.2,0,0,1,.14-.25l2.08-.59h.05a.2.2,0,0,1,.19.15l.08.29a.2.2,0,0,1-.13.25l-.19.08-.17.12a1.26,1.26,0,0,0-.27.31l-.24.45-.55,1.15-.16.35,1,.82.86.69a2,2,0,0,0,.36.24.94.94,0,0,0,.36.12h.15a1.64,1.64,0,0,0,.33,0h0a.2.2,0,0,1,.19.15l.08.29a.2.2,0,0,1-.14.25l-3.25.93h-.05a.2.2,0,0,1-.19-.15l-.08-.29a.2.2,0,0,1,.13-.24,2.21,2.21,0,0,0,.52-.22,1.89,1.89,0,0,0-.22-.23l-.5-.45-.45-.38c-.35.75-.49,1.09-.54,1.24a1.14,1.14,0,0,0-.09.35l.14,0,.29,0h0a.2.2,0,0,1,.19.15l.08.29a.2.2,0,0,1-.14.25l-2.07.59Z"/><path class="cls-1" d="M81.57,319.6l-3.25.93-.08-.29a2.45,2.45,0,0,0,.58-.25c.08-.06.11-.12.09-.18a.44.44,0,0,0-.09-.14l-.21-.21L78.1,319l-.65-.55q-.53,1.14-.66,1.5a1.05,1.05,0,0,0-.1.46.22.22,0,0,0,0,.08.19.19,0,0,0,.11,0H77l.32,0,.08.29-2.07.59-.08-.29.25-.11.17-.12a1.54,1.54,0,0,0,.31-.37,4.55,4.55,0,0,0,.25-.46l.4-.84.47-1-1-.82-.82-.67a2.35,2.35,0,0,0-.4-.26,1.15,1.15,0,0,0-.45-.14h-.24l-.3,0-.08-.29,3.26-.93.08.29a2.74,2.74,0,0,0-.54.23c-.11.07-.16.14-.14.21a.36.36,0,0,0,.07.12l.21.21.41.36.62.54q.47-1,.58-1.35a.88.88,0,0,0,.08-.4.18.18,0,0,0-.15-.13,1.72,1.72,0,0,0-.52,0l-.08-.29,2.08-.59.08.29-.23.09-.19.13a1.44,1.44,0,0,0-.32.37l-.24.46-.36.75-.42.89,1.1.92.86.69a2.16,2.16,0,0,0,.39.26,1.14,1.14,0,0,0,.44.14h.22l.32,0Z"/><path class="cls-1" d="M82.05,319.66l-.1,0a.2.2,0,0,1-.09-.12l-.08-.29a.2.2,0,0,1,.12-.24l.22-.1.14-.1a1.34,1.34,0,0,0,.27-.32,4.6,4.6,0,0,0,.24-.44l.4-.84.4-.86-.86-.71-.82-.67a2.09,2.09,0,0,0-.37-.24,1,1,0,0,0-.37-.12H81a1.71,1.71,0,0,0-.34,0h0a.2.2,0,0,1-.19-.15l-.08-.29a.2.2,0,0,1,.14-.25l3.26-.93h.05l.1,0a.2.2,0,0,1,.09.12l.08.29a.2.2,0,0,1-.13.24,2.55,2.55,0,0,0-.5.21.53.53,0,0,0,.18.23l.62.54.2.17q.37-.83.46-1.09a.92.92,0,0,0,.08-.29l-.44.07h0a.2.2,0,0,1-.19-.15l-.08-.29a.2.2,0,0,1,.14-.25l2.08-.59h.05l.1,0a.2.2,0,0,1,.09.12l.08.29a.2.2,0,0,1-.13.25l-.19.08-.17.12a1.21,1.21,0,0,0-.26.31c-.08.13-.15.28-.24.45l-.36.75-.35.75,1,.82.86.69a2,2,0,0,0,.36.24.94.94,0,0,0,.36.12h.16a1.61,1.61,0,0,0,.33,0h0a.2.2,0,0,1,.19.15l.08.29a.2.2,0,0,1-.14.25l-3.25.93H85l-.1,0a.2.2,0,0,1-.09-.12l-.08-.29a.2.2,0,0,1,.13-.24,2.19,2.19,0,0,0,.52-.22,1.68,1.68,0,0,0-.22-.23l-.5-.45-.45-.38c-.29.63-.46,1-.54,1.24a1.16,1.16,0,0,0-.09.35l.06.18.08-.2.29,0h0a.2.2,0,0,1,.19.15l.08.29a.2.2,0,0,1-.14.25l-2.07.59Z"/><path class="cls-1" d="M88.25,317.69l-3.25.93-.08-.29a2.42,2.42,0,0,0,.58-.25c.08-.06.11-.12.09-.18a.48.48,0,0,0-.09-.14l-.21-.21-.51-.45-.65-.55q-.53,1.14-.65,1.5a1.06,1.06,0,0,0-.1.46.22.22,0,0,0,0,.08.19.19,0,0,0,.11,0h.2l.32,0,.08.29-2.07.59-.08-.29.25-.11.17-.12a1.54,1.54,0,0,0,.31-.37,4.75,4.75,0,0,0,.25-.46l.4-.84.47-1-1-.82-.82-.67a2.31,2.31,0,0,0-.4-.26,1.15,1.15,0,0,0-.45-.14h-.24l-.3,0-.08-.29,3.26-.93.08.29a2.66,2.66,0,0,0-.54.23c-.11.07-.16.14-.14.21a.36.36,0,0,0,.07.12l.21.21.4.36.62.54q.47-1,.58-1.36a.88.88,0,0,0,.08-.4.18.18,0,0,0-.15-.13,1.72,1.72,0,0,0-.52,0l-.08-.29,2.08-.59.08.29-.23.09-.19.13a1.42,1.42,0,0,0-.32.37c-.08.13-.16.29-.24.46l-.36.75-.42.89,1.1.92.86.69a2.19,2.19,0,0,0,.39.26,1.15,1.15,0,0,0,.44.14h.22l.32,0Z"/><path class="cls-1" d="M88.74,317.75a.2.2,0,0,1-.19-.15l-.08-.29a.2.2,0,0,1,.12-.24l.22-.09.14-.1a1.33,1.33,0,0,0,.27-.32,4.47,4.47,0,0,0,.24-.44l.4-.84.4-.86-.86-.71-.8-.65a2.29,2.29,0,0,0-.39-.26,1,1,0,0,0-.37-.12H87.7a1.75,1.75,0,0,0-.34,0h0a.2.2,0,0,1-.19-.15l-.08-.29a.2.2,0,0,1,.14-.25l3.26-.93h.05a.2.2,0,0,1,.19.15l.08.29a.2.2,0,0,1-.13.24,2.53,2.53,0,0,0-.5.21.52.52,0,0,0,.18.23l.4.36.41.36q.37-.83.46-1.09a.92.92,0,0,0,.07-.29l-.44.07h0a.2.2,0,0,1-.19-.15l-.08-.29a.2.2,0,0,1,.14-.25l2.08-.59h.05a.2.2,0,0,1,.19.15l.08.29a.2.2,0,0,1-.13.25l-.19.08-.17.12a1.2,1.2,0,0,0-.27.31c-.07.13-.15.28-.24.45l-.36.75-.35.75,1,.82.86.69a2,2,0,0,0,.36.24,1,1,0,0,0,.37.12h.16a1.55,1.55,0,0,0,.32,0h0a.2.2,0,0,1,.19.15l.08.29A.2.2,0,0,1,95,316l-3.25.93h-.05a.2.2,0,0,1-.19-.15l-.08-.29a.2.2,0,0,1,.13-.24,2.14,2.14,0,0,0,.52-.22,1.68,1.68,0,0,0-.21-.23l-.5-.45-.45-.38c-.29.63-.47,1-.54,1.24a1.18,1.18,0,0,0-.09.35l.06.18.08-.2.29,0h0a.2.2,0,0,1,.19.15l.08.29a.2.2,0,0,1-.14.25l-2.07.59Z"/><path class="cls-1" d="M94.94,315.79l-3.25.93-.08-.29a2.4,2.4,0,0,0,.58-.25c.08-.06.11-.12.09-.18a.48.48,0,0,0-.09-.14l-.21-.21-.51-.45-.65-.56q-.53,1.14-.66,1.5a1.06,1.06,0,0,0-.1.46.22.22,0,0,0,0,.08.19.19,0,0,0,.11,0h.2l.31,0,.08.29-2.07.59-.08-.29.25-.11.17-.12a1.54,1.54,0,0,0,.31-.37,4.76,4.76,0,0,0,.25-.46l.4-.84.47-1-1-.82-.82-.67a2.41,2.41,0,0,0-.4-.26,1.15,1.15,0,0,0-.45-.14h-.24l-.3,0-.08-.29,3.26-.93.08.29a2.66,2.66,0,0,0-.54.23c-.11.07-.16.14-.14.21a.36.36,0,0,0,.07.12l.21.21.41.36.62.54q.47-1,.58-1.36a.89.89,0,0,0,.08-.4.18.18,0,0,0-.15-.13,1.73,1.73,0,0,0-.52,0l-.08-.29,2.08-.59.08.29-.23.09-.19.13a1.42,1.42,0,0,0-.32.37c-.08.13-.16.29-.24.46l-.36.75-.42.89,1.1.92.86.69a2.16,2.16,0,0,0,.39.26,1.16,1.16,0,0,0,.44.14h.22l.32,0Z"/><path class="cls-1" d="M69.86,337.76a.1.1,0,0,1-.1-.1l-.1-38.89.37-.31c5-2.5,10.63-5.95,11.23-7.4l0-.11c.42-1.59-1.06-2.67-2-3.06-.75-.25-.89-1.15-.45-2.49.08-.3.38-.44.86-.44l6.51,0,2.25,0c.72,0,.87.39.9.47a6.67,6.67,0,0,1,.21.87c.19,1.18-.33,1.54-.65,1.65l-.11,0c-1.1.48-2.28,1.58-1.89,3l0,.11c.6,1.45,6.22,4.88,11.21,7.37l.28.14a.1.1,0,0,1,.06.09l.05,38.88a.36.36,0,0,1-.18.19H69.86Zm26.41-14.1-.21,0-24.32,5.85a.9.9,0,0,0-.69.88v5.1a.9.9,0,0,0,.9.9l24.33,0a.9.9,0,0,0,.9-.9v-10.9a.9.9,0,0,0-.9-.9Zm0-18.9-.21,0-24.31,5.85a.9.9,0,0,0-.69.88v15.82a.9.9,0,0,0,.9.9l.21,0,24.32-5.85a.9.9,0,0,0,.69-.88l0-15.82a.9.9,0,0,0-.9-.9Zm-14-18.48a.9.9,0,0,0-.63,1.54,3.46,3.46,0,0,1,1,3.51c-.21.77-1.7,3.1-11.12,7.95a.9.9,0,0,0-.49.8v8.35a.9.9,0,0,0,.9.9l.21,0,24.3-5.85a.9.9,0,0,0,.69-.88V300a.9.9,0,0,0-.49-.8c-6.5-3.29-10.65-6.25-11.09-7.9a3.49,3.49,0,0,1,1-3.53.9.9,0,0,0-.64-1.53Z"/><path class="cls-1" d="M80.73,283a1,1,0,0,1-1-1v-.1a1,1,0,0,1,1-1l6.63,0a1,1,0,0,1,1,1c0,.46,0,0,0,.25,0,.57-.17.67-.63.85a1,1,0,0,1-.36.07Z"/><path class="cls-1" d="M503.89,219.19a.22.22,0,0,1-.14-.1l-.34-.94a.1.1,0,0,1,.06-.13c2-.76,2.09-2.33,2.26-4.5,0-.56.09-1.14.17-1.74a17.45,17.45,0,0,0,.1-4.27.4.4,0,0,0-.09-.21.74.74,0,0,0-.26-.15.79.79,0,0,0-.3,0c-.64.1-1.55.29-2.56.54a11.09,11.09,0,0,1-1-.63l-.21-.15a.1.1,0,0,1,0-.1.1.1,0,0,1,.07-.08l1.34-.39a.25.25,0,0,0,.14-.38l-.53-.81a27.9,27.9,0,0,0-4.83-2.11.1.1,0,0,1-.07-.09v-.11a.4.4,0,0,1,.06-.1c.32-.2.67-.42,1-.65,4,1.38,4.72,2.06,4.87,2.3l.94,1.43a.25.25,0,0,0,.21.11h0a7.72,7.72,0,0,1,1.26-.13,1.33,1.33,0,0,1,.79.18.7.7,0,0,1,.27.42.25.25,0,0,0,.15.17l.09,0a.24.24,0,0,0,.13,0c3.62-2.3,9.35-4.23,11.65-5a.4.4,0,0,0,.24-.21.41.41,0,0,0,0-.33l-.48-1.14,0,0,.08-.11.81,0a8.49,8.49,0,0,1,4.73,1.82c2,1.64,9.52,11.87,9.58,13-.08.88-1.33,1.55-2.07,1.86a1.87,1.87,0,0,1-.9.2,6.52,6.52,0,0,1-2.74-.84,50.86,50.86,0,0,1-5.76-3.08c-3.95-2.28-4.74-4.53-4.87-5.68a.1.1,0,0,1,.06-.1l1-.4.11,0h0a1.13,1.13,0,0,1,0,.15c.21,1.67,1.73,3.41,4.28,4.88a49.92,49.92,0,0,0,5.58,3,6.42,6.42,0,0,0,2.29.75.74.74,0,0,0,.3-.05,6,6,0,0,0,1-.56.4.4,0,0,0,.12-.54c-1.12-1.83-7.12-10.17-8.89-11.63a6.57,6.57,0,0,0-2-1.13l-.12,0a.39.39,0,0,0-.3.12.4.4,0,0,0-.07.43l.08.19a.88.88,0,0,1-.07.14l-.57.21c-1.5.45-9.33,2.89-13.16,5.59a.25.25,0,0,0-.11.22,20,20,0,0,1-.18,3.64c-.08.55-.12,1.09-.16,1.61-.19,2.38-.37,4.63-3.09,5.61Z"/><path class="cls-1" d="M492.46,245.5a.22.22,0,0,1-.14-.1l-.12-.37a3.9,3.9,0,0,1-.21-1.75.4.4,0,0,0-.17-.4c-1.36-1-5.1-3-8.14-4.63a.25.25,0,0,0-.3.39.76.76,0,0,1,.06.93l-.07.11a2.22,2.22,0,0,1-.38.42.94.94,0,0,0-.26.3.4.4,0,0,0,.22.54l1.19.46.09,0,.18,0a.25.25,0,0,0,.11,0,.4.4,0,0,0,.16-.36,4,4,0,0,0-.21-1,.1.1,0,0,1,0-.11l.13,0,1.23.58a8.83,8.83,0,0,1,.16,2.18l0,.68a.31.31,0,0,1-.17.14l-4.27-1.65-.14-.38a2.43,2.43,0,0,1,.14-1.54,1.9,1.9,0,0,1,.15-.25.4.4,0,0,0-.15-.58c-.86-.45-2.2-1.11-3.31-1.64-5.45-2.66-6.34-3.19-6.58-3.61s-.33-.6,2.3-6.78a.25.25,0,0,0-.12-.32c-3.78-2-5.76-4.63-6.07-8.19a5.12,5.12,0,0,1,.69-.53l.33-.22h.12a.13.13,0,0,1,0,.08c.26,5.92,5.53,7.89,8.68,9.07.49.18.92.35,1.27.5,2.52,1.09,3.79,6.6,4.22,8.92a.4.4,0,0,0,.21.28l2.41,1.28a.25.25,0,0,0,.12,0,.25.25,0,0,0,.25-.27l.05-.16,4.27-1a.11.11,0,0,1,.08.06l.36.79a.4.4,0,0,0,.35.23l4.8.17a.4.4,0,0,0,.4-.44c-.24-2.13-.85-9.32,1.57-12.75a.25.25,0,0,0,0-.19.24.24,0,0,0-.11-.16l-3.07-2-2.15-1.5a1.27,1.27,0,0,1,0-.24l-.53-.45a4.51,4.51,0,0,1-2.16-2.8c-.45-1.32-.94-2.17-4-2.88a8.72,8.72,0,0,1-6.12-4.57.25.25,0,0,0-.22-.14h0a30,30,0,0,0-8.66,1.88,20.6,20.6,0,0,0-4.68,2.8l-.2.16-.39,0a10.82,10.82,0,0,0-2.09-.18,14.11,14.11,0,0,0-4.3.67,7.59,7.59,0,0,0-4.35,3.87,7.71,7.71,0,0,0-.49,6c2,5.76-1.68,9.09-3.42,10.69l-.12,0-.08,0c0-.12,0-.15.14-.34a15.45,15.45,0,0,0,2.58-5,8.75,8.75,0,0,0-.32-4.88,9,9,0,0,1,.56-7A8.9,8.9,0,0,1,459,213.7a15.51,15.51,0,0,1,4.7-.74,12.7,12.7,0,0,1,1.92.14h0l.18,0a22.59,22.59,0,0,1,4.74-2.76,30.58,30.58,0,0,1,8.51-1.92.25.25,0,0,0,.22-.31,5.82,5.82,0,0,1-.14-.72l0-.36a.1.1,0,0,1,.05-.1l.36-.2a18,18,0,0,1,6.35-1.49,4.72,4.72,0,0,1,3.63,1.3l.28.3c2,2.13,2.69,2.93,4.19,3.48l4.94,1.61a.31.31,0,0,1,.26.24.45.45,0,0,1-.08.4l-4.55,7.4a.4.4,0,0,0,.11.54l.92.64,3.81,2.45a.77.77,0,0,0,.23.05.55.55,0,0,0,.24-.08.4.4,0,0,0,.11-.46,3.62,3.62,0,0,0-1.13-1.36.1.1,0,0,1,0-.14,7,7,0,0,1,.68-.79.15.15,0,0,1,.1,0,3.92,3.92,0,0,1,1.79,2.66,2.76,2.76,0,0,1-.52,2l-.28.35-.12.05-1.06-.66a.24.24,0,0,0-.13,0,.25.25,0,0,0-.2.1c-2.62,3.57-1.26,12.72-1.2,13.11l.1.6a.1.1,0,0,1,0,.1s-.07,0-.28,0c-.53,0-1.93,0-4.41-.11h0a.4.4,0,0,0-.09.79c1.77.35,4.06.77,4.92.82h0a.41.41,0,0,0,.3-.11c.65-.62,2.29-4.53,3.43-8.2l.07-.22,5.25-2.38c3.69-1.63,4-3.81,4.39-6.34.07-.45.17-1.13.31-1.76.53-2.22,4.16-6.81,7.11-10.07l.15,0,.57.46.24.19a.1.1,0,0,1,0,.12,7,7,0,0,1-.49.59c-3.91,4.56-6,7.52-6.35,9-.14.57-.23,1.23-.29,1.63-.38,2.55-.82,5.44-5.16,7.36l-1.69.75a.25.25,0,0,0,0,.44l6.32,3.8V236l-4.33,3.64a.4.4,0,0,0,.26.71.25.25,0,0,0,.14,0c2.49-1.71,4.81-3.64,5.17-4.3a.4.4,0,0,0,0-.29,22.79,22.79,0,0,0-3.44-5.17.1.1,0,0,1,0-.14l.42-.37.37-.32H511c2.87,3.43,3.85,5.45,3.82,6.21s-1.16,2.33-6.31,5.83l-.17.11-.12,0-5.37-1-1.2-3.14a.25.25,0,0,0-.23-.16h0a.25.25,0,0,0-.23.15c-1.13,2.73-2.09,4.08-2.94,4.11a47.69,47.69,0,0,1-6.4-1h0a.25.25,0,0,0-.14.46c1.19.76,1.74,1.25,1.79,1.58a.26.26,0,0,1,0,.23l-.11.28a.77.77,0,0,0-.08.24,1.08,1.08,0,0,0,0,.13.4.4,0,0,0,.13.29.4.4,0,0,0,.27.1l1.46-.12a.4.4,0,0,0,.29-.64l-.1-.12-1.09-1a.1.1,0,0,1,0-.13.24.24,0,0,1,.13-.09,1.19,1.19,0,0,1,.36,0l1.53.27,1.93,2.47a.11.11,0,0,1,0,.11,39.47,39.47,0,0,1-5.7.59h0Zm11.29-7.4a.63.63,0,0,0-.24.08.4.4,0,0,0-.14.45l.31.86a.41.41,0,0,0,.3.26l.25,0a.4.4,0,0,0,.3-.12.4.4,0,0,0,.1-.37l-.06-.27a1.46,1.46,0,0,0-.61-.86l-.15-.06Zm-14.73,0a.4.4,0,0,0,0,.78l.51.1a.4.4,0,0,0,.38-.56s0-.14-.25-.25A1.51,1.51,0,0,0,489,238.09Zm18,.43a.25.25,0,0,0,.16-.06l2.5-2a.4.4,0,0,0,.15-.34.41.41,0,0,0-.19-.31l-5.47-3.34a.25.25,0,0,0-.13,0l-.1,0-.9.4a.4.4,0,0,0-.22.24c-.46,1.44-.9,2.71-1.32,3.8a.25.25,0,0,0,.36.3l.12-.07a3.49,3.49,0,0,1,1.46-.35,2.09,2.09,0,0,1,1.15.32,2.77,2.77,0,0,1,1,1.1.4.4,0,0,0,.31.22h0Zm-31.76-11.13-.1,0a.25.25,0,0,0-.14.14c-1.1,2.7-1.8,4.5-2.08,5.36a.4.4,0,0,0,.18.47c1.05.61,3.78,1.94,5.41,2.74l3.06,1.51.11,0a.25.25,0,0,0,.16-.06.25.25,0,0,0,.07-.27l-.1-.3c-.3-1.82-1.24-5.82-2.59-7.63a.25.25,0,0,0-.2-.1h0a.25.25,0,0,0-.2.15l-1,2.41a.4.4,0,0,0,.15.49l2.69,1.77a14.31,14.31,0,0,1,.41,1.52.33.33,0,0,1-.16.18l-.09,0-4.66-3.07a.1.1,0,0,1,0-.12l1.72-4a.25.25,0,0,0-.14-.33l-.53-.2c-.53-.2-1.13-.43-1.78-.7Zm10.55-20.86a16.06,16.06,0,0,0-5,1.05.4.4,0,0,0-.24.49,7.25,7.25,0,0,0,5.73,5c3.94.92,4.45,2.41,4.9,3.72a5.26,5.26,0,0,0,1.46,2.14c.48.31.73.4.78.33l3.71-6a.4.4,0,0,0,0-.35.4.4,0,0,0-.25-.24l-3.43-1.12c-1.83-.67-2.73-1.65-4.71-3.81l-.29-.32A3.49,3.49,0,0,0,485.86,206.53Z"/><path class="cls-1" d="M488.92,204.7a4.89,4.89,0,0,0-1.26-.45.1.1,0,0,1-.08-.07c-1-3.25,1.51-6,3.55-8.16,1.13-1.21,3.28-3.31,6.19-6a.25.25,0,0,0,.05-.29.25.25,0,0,0-.22-.14h0a4.45,4.45,0,0,1-.76.08l-.3,0a1.12,1.12,0,0,1-.07-.17,8.85,8.85,0,0,1,2.78-1.65l.83-.24a.25.25,0,0,0,.18-.24v-1.46c.06-.2.81-1.28,3.17-1.93a7.11,7.11,0,0,1,1.76-.31.91.91,0,0,1,.71.22.4.4,0,0,1,.08.17l.9,2.63a.25.25,0,0,0,.21.17c2.58.31,3,1.36,3,1.57a.1.1,0,0,1-.07.12l-1,.34a.25.25,0,0,0-.2-.09h0c-.19-.19-.92-.72-3.33-.72h-.25a17.51,17.51,0,0,0-4.11.62.24.24,0,0,0-.11.06l-1.32,1.26-.2.19c-2,1.89-5.34,5.06-7,6.78-2.6,2.79-4.34,5-3,7.57a.1.1,0,0,1,0,.1A.42.42,0,0,1,488.92,204.7Z"/><path class="cls-1" d="M511.43,203.38l-.05,0c-.26-.59-1.2-.73-2.71-.92a14.62,14.62,0,0,1-4.77-1.22,8.74,8.74,0,0,1-2.79-2.17.25.25,0,0,0-.34,0,37.4,37.4,0,0,1-4,2.73h-.15l-1-.64a.11.11,0,0,1,0-.09.1.1,0,0,1,.06-.08,33.63,33.63,0,0,0,4.43-3,.25.25,0,0,0,.07-.32,8.22,8.22,0,0,1-.81-1.85.1.1,0,0,1,.07-.12l1-.31.12,0,.06.15a8,8,0,0,0,3.94,4.51,13.24,13.24,0,0,0,4.36,1.09c1.71.22,3.18.41,3.72,1.68a.1.1,0,0,1,0,.13,8.8,8.8,0,0,1-.9.43h-.17Z"/><path class="cls-1" d="M513.22,202.69s-.09-.06-.1-.07l-.07-.1c-.3-.6-3-2.25-5.93-3.37-2.58-1-3-1.84-4.15-4.35l-.3-.65c-.85-1.8-1.79-2.09-2.15-2.13h0l-.1,0-.2-.06-.33-1c.1-.22.32-.23.54-.23a3,3,0,0,1,2,.85.25.25,0,0,0,.17.06l1.32,0a.4.4,0,0,0,.37-.54l-.12-.32.06-.13.74-.27a.4.4,0,0,0,.26-.41l-.11-1.4a.1.1,0,0,1,.09-.11,4.76,4.76,0,0,1,.54,0l.54,0a.1.1,0,0,1,.09.09l.24,2.55a.1.1,0,0,1-.07.1l-.69.23a.4.4,0,0,0-.26.27,2,2,0,0,1-1,1.13l-.11.07-.08,0h-.52a.25.25,0,0,0-.22.37l.18.34.3.65c1.08,2.33,1.34,2.88,3.44,3.69,2.76,1.09,6.16,2.84,6.68,4.2a.1.1,0,0,1,0,.12,8,8,0,0,1-.93.41Z"/><path class="cls-1" d="M497,219.83l0-.15c3.7-3.85,6.11-7.23,6.22-8.15a.39.39,0,0,0-.09-.31c-1.16-1.36-7.91-5.71-10.42-7.27l0-.16a7.46,7.46,0,0,1,.83-.64.38.38,0,0,1,.19-.06c4.45,2.73,9.65,6.23,10.54,7.45.67.92.13,3.36-6.19,9.83l-.11,0Z"/><path class="cls-1" d="M408,254.44a.1.1,0,0,1-.1-.09l-.05-1,.1-.1,124.61,0a.1.1,0,0,1,.1.09l.05,1.05a.33.33,0,0,1-.16.15Z"/><path class="cls-1" d="M432.74,209.63a.1.1,0,0,1-.1-.07.1.1,0,0,1,0-.11l2-1.09,9.7,0a.1.1,0,0,1,.1.1l0,1a.31.31,0,0,1-.16.16Z"/><path class="cls-1" d="M401.71,221.87a.1.1,0,0,1-.1-.07.1.1,0,0,1,0-.11l2-1.09,33.63,0a.1.1,0,0,1,.1.1l0,1a.31.31,0,0,1-.16.16Z"/><path class="cls-1" d="M424.74,233.35a.1.1,0,0,1-.1-.07.1.1,0,0,1,0-.11l2-1.09,19.73,0a.1.1,0,0,1,.1.1l0,1a.31.31,0,0,1-.16.16Z"/><path class="cls-1" d="M486.5,236.32l-.09,0-1.49-.88-.5-9.83a.25.25,0,0,0-.06-.15,9.41,9.41,0,0,1-.94-1.36.1.1,0,0,1,0-.11l.09,0c.34.06.63.13.91.2l.54.13a.62.62,0,0,1,.18.08c3.2,4.24,10.25,5.16,10.32,5.17a.1.1,0,0,1,.09.1,8.75,8.75,0,0,1,0,.89v.12l-.09.14-.12,0a20.3,20.3,0,0,1-9.12-3.59.25.25,0,0,0-.27,0,.25.25,0,0,0-.13.23l.34,7a.4.4,0,0,0,.2.32l1.72,1a.1.1,0,0,1,0,.1.1.1,0,0,1-.07.08l-1.47.4Z"/><path class="cls-1" d="M464,226.85a.3.3,0,0,1-.13-.07c-.07-.11,0-.31.14-.76a12.35,12.35,0,0,0,.64-2.38,22.94,22.94,0,0,0,.35-3.78.1.1,0,0,1,.05-.09l1-.47.14.09a10.61,10.61,0,0,1-.16,1.9,21.86,21.86,0,0,1-.56,2.52,13.11,13.11,0,0,1-.92,2.42c-.16.31-.32.61-.5.61Z"/><path class="cls-1" d="M461.95,225.11c-.25-.18-.3-.51-.18-1.18a13.15,13.15,0,0,0,.19-1.86,10,10,0,0,0,0-1.2.1.1,0,0,1,.06-.1c.29-.11.55-.19.81-.26l.15,0,.13.1a6.51,6.51,0,0,1-.07,1.61,14.7,14.7,0,0,1-.45,2c-.14.45-.34,1-.59,1Z"/><path class="cls-1" d="M456.72,229.66a.29.29,0,0,1-.14-.09c-.06-.12,0-.33.31-.83a13.35,13.35,0,0,0,1.15-2.61,18.16,18.16,0,0,0,.62-2.79c.08-.56.13-1.17.15-1.87a.1.1,0,0,1,.07-.09c.29-.08.57-.13.85-.18l.14,0,.12.11a12.3,12.3,0,0,1-.31,2.25,18.89,18.89,0,0,1-.9,2.87,13.8,13.8,0,0,1-1.44,2.63c-.28.39-.47.62-.62.62Z"/><polygon class="cls-1" points="541.9 438.2 536.07 438.2 536.07 436.2 539.9 436.2 539.9 371.47 112.34 371.47 112.34 436.2 496.63 436.2 496.63 438.2 110.34 438.2 110.34 369.47 541.9 369.47 541.9 438.2"/><path class="cls-1" d="M221.37,416.51V405.68h5v1.62h-3.12v2.79h2.4v1.62h-2.4v3.18h3.33v1.62Z"/><path class="cls-1" d="M232.94,405.68h1.83l-2.26,10.83h-1.86l-2.27-10.83h1.83l1.35,7.51h0Z"/><path class="cls-1" d="M236.94,416.51V405.68h5v1.62h-3.12v2.79h2.4v1.62h-2.4v3.18h3.33v1.62Z"/><path class="cls-1" d="M246.58,416.51h-1.86V405.68h2.61c2.08,0,3.15.88,3.15,3.19,0,1.74-.68,2.44-1.31,2.73l1.58,4.91h-1.89L247.54,412a8.66,8.66,0,0,1-1,0Zm0-6h.66c1,0,1.38-.37,1.38-1.67s-.37-1.67-1.38-1.67h-.66Z"/><path class="cls-1" d="M256.71,416.51h-1.86V412l-2.25-6.33h1.89l1.3,4.13h0l1.25-4.12H259L256.71,412Z"/><path class="cls-1" d="M262.21,407.3h-1.8v-1.62h5.46v1.62h-1.8v9.21h-1.86Z"/><path class="cls-1" d="M268.09,416.51V405.68H270v4.41h2v-4.41h1.86v10.83h-1.86v-4.8h-2v4.8Z"/><path class="cls-1" d="M277,416.51V405.68h1.86v10.83Z"/><path class="cls-1" d="M282,416.51V405.68h1.72l2.26,6.19h0v-6.19h1.68v10.83h-1.62l-2.37-6.76h0v6.76Z"/><path class="cls-1" d="M293.2,411h3v5.49h-.9l-.34-.81a2.16,2.16,0,0,1-1.87,1,2.48,2.48,0,0,1-2.49-2.77V408.3a2.57,2.57,0,0,1,2.73-2.78,2.71,2.71,0,0,1,2.79,3v.69h-1.77c0-1.62-.33-2-1.06-2-.45,0-.83.27-.83,1.19v5.56c0,.69.23,1.14.87,1.14s1-.42,1-1.5v-1.05H293.2Z"/><path class="cls-1" d="M304,416.51V405.68h1.86v10.83Z"/><path class="cls-1" d="M312.4,408.35c-.08-.93-.57-1.2-1-1.2-.6,0-.93.39-.93,1.07,0,1.84,3.78,2.73,3.78,5.67a2.65,2.65,0,0,1-2.94,2.77,2.85,2.85,0,0,1-2.79-3l1.77-.25c.08,1.09.51,1.63,1.11,1.63a1,1,0,0,0,1.08-1c0-2.14-3.78-2.71-3.78-5.82,0-1.72,1.05-2.7,2.88-2.7a2.6,2.6,0,0,1,2.58,2.63Z"/><path class="cls-1" d="M323.11,416.51h-1.86V405.68h2.61c2.08,0,3.15.88,3.15,3.19,0,1.74-.68,2.44-1.31,2.73l1.58,4.91h-1.89L324.07,412a8.66,8.66,0,0,1-1,0Zm0-6h.66c1,0,1.38-.37,1.38-1.67s-.37-1.67-1.38-1.67h-.66Z"/><path class="cls-1" d="M330.13,416.51V405.68H332v10.83Z"/><path class="cls-1" d="M337.74,411h3v5.49h-.9l-.34-.81a2.16,2.16,0,0,1-1.87,1,2.48,2.48,0,0,1-2.49-2.77V408.3a2.57,2.57,0,0,1,2.73-2.78,2.71,2.71,0,0,1,2.79,3v.69h-1.77c0-1.62-.33-2-1.06-2-.45,0-.83.27-.83,1.19v5.56c0,.69.23,1.14.87,1.14s1-.42,1-1.5v-1.05h-1.18Z"/><path class="cls-1" d="M343.8,416.51V405.68h1.86v4.41h2v-4.41h1.86v10.83h-1.86v-4.8h-2v4.8Z"/><path class="cls-1" d="M353.5,407.3h-1.8v-1.62h5.46v1.62h-1.8v9.21H353.5Z"/><path class="cls-1" d="M367.06,405.68h1.53l1.26,6.9h0l1-6.9h1.74l-1.91,10.83h-1.56l-1.35-7.16h0l-1.26,7.16H365l-2.05-10.83h1.74l1.14,6.9h0Z"/><path class="cls-1" d="M375.22,416.51V405.68h1.86v10.83Z"/><path class="cls-1" d="M381.34,407.3h-1.8v-1.62H385v1.62h-1.8v9.21h-1.86Z"/><path class="cls-1" d="M387.22,416.51V405.68h1.86v4.41h2v-4.41h1.86v10.83h-1.86v-4.8h-2v4.8Z"/><path class="cls-1" d="M401.38,407.3h-1.8v-1.62H405v1.62h-1.8v9.21h-1.86Z"/><path class="cls-1" d="M407.26,416.51V405.68h1.86v4.41h2v-4.41H413v10.83H411.1v-4.8h-2v4.8Z"/><path class="cls-1" d="M415.89,416.51V405.68h5v1.62h-3.12v2.79h2.4v1.62h-2.4v3.18h3.33v1.62Z"/><path class="cls-1" d="M431.35,405.68h1.53l1.26,6.9h0l1-6.9h1.74L435,416.51h-1.56l-1.35-7.16h0l-1.26,7.16h-1.56l-2.05-10.83H429l1.14,6.9h0Z"/><path class="cls-1" d="M439.26,408.3a2.85,2.85,0,0,1,5.7,0v5.58a2.85,2.85,0,0,1-5.7,0Zm1.86,5.53c0,.81.24,1.2,1,1.2s1-.39,1-1.2v-5.49c0-.81-.24-1.2-1-1.2s-1,.39-1,1.2Z"/><path class="cls-1" d="M449.74,416.51h-1.86V405.68h2.61c2.08,0,3.15.88,3.15,3.19,0,1.74-.68,2.44-1.31,2.73l1.58,4.91H452L450.7,412a8.66,8.66,0,0,1-1,0Zm0-6h.66c1,0,1.38-.37,1.38-1.67s-.37-1.67-1.38-1.67h-.66Z"/><path class="cls-1" d="M456.42,416.51V405.68h1.86v9.21h2.92v1.62Z"/><path class="cls-1" d="M463.47,405.68h2.76c1.92,0,2.94,1,2.94,3.27v4.29c0,2.22-1,3.27-2.94,3.27h-2.76Zm1.86,9.3H466c1,0,1.33-.37,1.33-1.51v-4.74c0-1.14-.35-1.52-1.33-1.52h-.65Z"/><path class="cls-1" d="M221.37,391h1.36l1,5h0l1-5h1.41l1.06,5h0l1-5h1.37L228,398.67h-1.41l-1.07-5.24h0l-1.16,5.24H223Z"/><path class="cls-1" d="M233,398.67V391h4v1.29h-2.54v1.76h1.94v1.29h-1.94v2h2.65v1.29Z"/><path class="cls-1" d="M249.45,398.67l-1.27-3.12h-.7v3.12H246V391h2.12c1.76,0,2.6.85,2.6,2.29a1.85,1.85,0,0,1-1.16,2l1.44,3.42Zm-2-4.33h.75a1.06,1.06,0,0,0,0-2.12h-.75Z"/><path class="cls-1" d="M254.29,398.67V391h4v1.29h-2.54v1.76h1.94v1.29h-1.94v2h2.65v1.29Z"/><path class="cls-1" d="M262.06,398.67V391h2l1.33,5h0l1.33-5h2v7.66h-1.25v-6h0l-1.56,6h-1.1l-1.56-6h0v6Z"/><path class="cls-1" d="M272.61,398.67V391h4v1.29h-2.54v1.76H276v1.29h-1.94v2h2.65v1.29Z"/><path class="cls-1" d="M280.38,398.67V391h2l1.33,5h0l1.33-5h2v7.66h-1.25v-6h0l-1.56,6h-1.1l-1.56-6h0v6Z"/><path class="cls-1" d="M290.92,391H293c1.57,0,2.47.66,2.47,2a1.8,1.8,0,0,1-.94,1.59,1.92,1.92,0,0,1,1.12,1.89c0,1.52-1,2.21-2.57,2.21h-2.14Zm1.46,3h.51c.66,0,1.09-.38,1.09-.9s-.33-.92-1-.92h-.58Zm0,3.42H293a1,1,0,0,0,1.17-1.11c0-.73-.51-1.09-1.27-1.09h-.51Z"/><path class="cls-1" d="M299.2,398.67V391h4v1.29h-2.54v1.76h1.94v1.29h-1.94v2h2.65v1.29Z"/><path class="cls-1" d="M310.32,398.67,309,395.55h-.7v3.12h-1.46V391H309c1.76,0,2.6.85,2.6,2.29a1.85,1.85,0,0,1-1.16,2l1.44,3.42Zm-2-4.33h.75a1.06,1.06,0,0,0,0-2.12h-.75Z"/><path class="cls-1" d="M320.37,393.47c0-1.89,1-2.57,2.42-2.57s2.42.68,2.42,2.57v2.74c0,1.89-1,2.57-2.42,2.57s-2.42-.68-2.42-2.57Zm1.46,2.93c0,.85.37,1.08,1,1.08s1-.23,1-1.08v-3.12c0-.85-.37-1.08-1-1.08s-1,.23-1,1.08Z"/><path class="cls-1" d="M330.32,391v5.36c0,.73.32,1.11,1,1.11s1-.38,1-1.11V391h1.46v5.37a2.5,2.5,0,0,1-5,0V391Z"/><path class="cls-1" d="M341.07,398.67l-1.27-3.12h-.7v3.12h-1.46V391h2.12c1.76,0,2.6.85,2.6,2.29a1.85,1.85,0,0,1-1.16,2l1.44,3.42Zm-2-4.33h.75a1.06,1.06,0,0,0,0-2.12h-.75Z"/><path class="cls-1" d="M351.33,398.67V391h1.6l2,4.54h0V391h1.34v7.66h-1.4l-2.24-4.94h0v4.94Z"/><path class="cls-1" d="M359.59,398.67l1.9-7.66h1.88l1.85,7.66h-1.4l-.37-1.61h-2l-.41,1.61Zm2.09-2.91h1.45l-.71-3.1h0Z"/><path class="cls-1" d="M372.82,391v1.29h-1.71v6.36h-1.46V392.3h-1.71V391Z"/><path class="cls-1" d="M376.16,398.67V391h1.46v7.66Z"/><path class="cls-1" d="M380.91,391h1.44l1.35,5.47h0l1.34-5.47h1.43l-2,7.66h-1.67Z"/><path class="cls-1" d="M389.68,398.67V391h4v1.29h-2.54v1.76h1.94v1.29h-1.94v2h2.65v1.29Z"/><path class="cls-1" d="M402.7,391h2c1.68,0,2.61.72,2.67,2.65V396c-.06,1.93-1,2.65-2.67,2.65h-2Zm1.46,6.36h.51c.81,0,1.27-.38,1.27-1.53v-2c0-1.08-.36-1.53-1.27-1.53h-.51Z"/><path class="cls-1" d="M414.41,398.67l-1.27-3.12h-.7v3.12H411V391h2.12c1.76,0,2.6.85,2.6,2.29a1.85,1.85,0,0,1-1.16,2l1.44,3.42Zm-2-4.33h.75a1.06,1.06,0,0,0,0-2.12h-.75Z"/><path class="cls-1" d="M419.34,398.67V391h1.46v7.66Z"/><path class="cls-1" d="M424.67,398.67V391h1.6l2,4.54h0V391h1.34v7.66h-1.4L426,393.72h0v4.94Z"/><path class="cls-1" d="M433.45,398.67V391h1.46v3.16h0l1.9-3.16h1.6l-2,3.09,2.2,4.57H437l-1.53-3.21-.57.87v2.34Z"/><path class="cls-1" d="M446.54,398.67l1.9-7.66h1.88l1.85,7.66h-1.4l-.37-1.61h-2l-.41,1.61Zm2.09-2.91h1.45l-.71-3.1h0Z"/><path class="cls-1" d="M455.42,398.67V391H457l2,4.54h0V391h1.34v7.66H459l-2.24-4.94h0v4.94Z"/><path class="cls-1" d="M464.2,391h2c1.68,0,2.61.72,2.67,2.65V396c-.06,1.93-1,2.65-2.67,2.65h-2Zm1.46,6.36h.51c.81,0,1.27-.38,1.27-1.53v-2c0-1.08-.36-1.53-1.27-1.53h-.51Z"/><path class="cls-1" d="M131.43,393.33h1.2l3.89,4.2v-4.2h1.09v5.81h-1l-4-4.35v4.35h-1.09Z"/><path class="cls-1" d="M145.27,393.18c2.56,0,3.46,1.5,3.46,3.09,0,1.21-.71,3-3.46,3s-3.46-1.8-3.46-3C141.81,394.69,142.71,393.18,145.27,393.18Zm2.33,3c0-1.4-1-2.05-2.33-2.05s-2.33.66-2.33,2.05c0,1.65,1.24,2.1,2.33,2.1S147.6,397.86,147.6,396.21Z"/><path class="cls-1" d="M152.4,393.33h1.13l1.12,4h0l1.11-4h1.09l1.13,4h0l1.11-4h1.11l-1.69,5.81h-1.09l-1.1-4.13h0l-1.11,4.13h-1.11Z"/><path class="cls-1" d="M164.5,395.59h1.06v1.13H164.5Zm0,2.41h1.06v1.14H164.5Z"/><path class="cls-1" d="M136.3,414.63a1.72,1.72,0,0,0,1.82-.85.39.39,0,0,1,.54.22,7.45,7.45,0,0,1-1.23,2.27c-.62,0-1.28,0-2.34,0h-2.66c-.8,0-1.5,0-2,0a.31.31,0,0,1-.06-.37c.86-.54,1.46-1.06,3.14-2.37,1.34-1.06,3.71-3,3.71-4.59a1.51,1.51,0,0,0-1.68-1.73,2.92,2.92,0,0,0-2.16,1.47c-.21,0-.51-.11-.5-.32a4.26,4.26,0,0,1,3.78-2.38,2.6,2.6,0,0,1,2.9,2.61c0,1.9-2,3.12-3.54,4.21l-1,.67c-.9.62-1.17.86-1.17,1s.08.18.5.18Z"/><path class="cls-1" d="M149.13,409.24a9.89,9.89,0,0,1-2.16,5.62,4.28,4.28,0,0,1-3.2,1.6c-2.14,0-2.67-1.57-2.67-3.15a9.21,9.21,0,0,1,2.11-5.59,4.38,4.38,0,0,1,3.22-1.73C148.54,406,149.13,407.64,149.13,409.24Zm-5.3,1.5a12.44,12.44,0,0,0-.82,3.71c0,.88.35,1.26.8,1.26s1.07-.59,1.57-1.6a17.78,17.78,0,0,0,1.82-6.1c0-.53,0-1.3-.7-1.3C145.35,406.72,144.46,409,143.83,410.74Z"/><path class="cls-1" d="M158.41,409.24a9.89,9.89,0,0,1-2.16,5.62,4.28,4.28,0,0,1-3.2,1.6c-2.14,0-2.67-1.57-2.67-3.15a9.21,9.21,0,0,1,2.11-5.59,4.38,4.38,0,0,1,3.22-1.73C157.82,406,158.41,407.64,158.41,409.24Zm-5.3,1.5a12.44,12.44,0,0,0-.82,3.71c0,.88.35,1.26.8,1.26s1.07-.59,1.57-1.6a17.78,17.78,0,0,0,1.82-6.1c0-.53,0-1.3-.7-1.3C154.63,406.72,153.74,409,153.11,410.74Z"/><path class="cls-1" d="M167.69,409.24a9.89,9.89,0,0,1-2.16,5.62,4.28,4.28,0,0,1-3.2,1.6c-2.14,0-2.67-1.57-2.67-3.15a9.21,9.21,0,0,1,2.11-5.59A4.38,4.38,0,0,1,165,406C167.1,406,167.69,407.64,167.69,409.24Zm-5.3,1.5a12.44,12.44,0,0,0-.82,3.71c0,.88.35,1.26.8,1.26s1.07-.59,1.57-1.6a17.78,17.78,0,0,0,1.82-6.1c0-.53,0-1.3-.7-1.3C163.91,406.72,163,409,162.39,410.74Z"/><path class="cls-1" d="M173.47,406.69c0,1.3-1.25,2.35-3,2.79a.36.36,0,0,1-.16-.54c.85-.24,1.6-.9,1.6-1.54a.83.83,0,0,0-.51-.75.63.63,0,0,1-.3-.59,1,1,0,0,1,1-1A1.49,1.49,0,0,1,173.47,406.69Z"/><path class="cls-1" d="M178.65,410.89a.78.78,0,0,1-.74.83.53.53,0,0,1-.37-.22c-.64-.74-.94-.91-1.26-.91a.44.44,0,0,0-.42.42,1.09,1.09,0,0,0,.42.72l.61.63a2.08,2.08,0,0,1-.14,3.41,3,3,0,0,1-2,.7c-.74,0-1.58-.45-1.58-1.23a.88.88,0,0,1,.78-.93c.18,0,.3.16.5.35.62.66.94.83,1.26.83a.53.53,0,0,0,.54-.46,1.31,1.31,0,0,0-.46-.82l-.53-.56a2.35,2.35,0,0,1-.78-1.62,2.43,2.43,0,0,1,.9-1.75,2.72,2.72,0,0,1,1.71-.67A1.44,1.44,0,0,1,178.65,410.89Z"/><line class="cls-2" x1="489.95" y1="371.22" x2="489.95" y2="436.63"/><rect class="cls-1" x="200.84" y="370.47" width="2" height="66.73"/><path class="cls-1" d="M504.57,441.23a.1.1,0,0,1-.1-.09l-6.37-55.88.1-.11h35.15l.1.11-6.37,55.88a.1.1,0,0,1-.1.09Zm-4.13-54.88a.9.9,0,0,0-.89,1l5.91,51.88a.9.9,0,0,0,.89.8h18.84a.9.9,0,0,0,.89-.8L532,387.35a.9.9,0,0,0-.89-1Z"/><path class="cls-1" d="M512.48,400.84a.42.42,0,0,1,.16.47l-1.57,5.16a.28.28,0,0,0,.27.36.29.29,0,0,0,.17-.06l4.31-3.25a.42.42,0,0,1,.5,0l4.43,3.1a.28.28,0,0,0,.17.05.28.28,0,0,0,.26-.37l-1.76-5.1a.42.42,0,0,1,.14-.48l4.31-3.25a.28.28,0,0,0-.17-.51l-5.4.1a.42.42,0,0,1-.41-.28l-1.76-5.1a.28.28,0,0,0-.54,0L514,396.83a.42.42,0,0,1-.4.3l-5.39.1a.28.28,0,0,0-.16.51Z"/><path class="cls-1" d="M526.68,412.37h-.19a11.32,11.32,0,0,0-5.72,1.58,10,10,0,0,1-5.1,1.42h-.19a10.08,10.08,0,0,1-5.06-1.16A11,11,0,0,0,505,413h-.27a13.26,13.26,0,0,0-2.21.24l.16,1.4a11.63,11.63,0,0,1,2.09-.24h.2a10,10,0,0,1,5,1.15,11,11,0,0,0,5.44,1.23h.3a11.32,11.32,0,0,0,5.72-1.59,10,10,0,0,1,5.1-1.42h.15a11.28,11.28,0,0,1,2.29.17l.16-1.39A12.69,12.69,0,0,0,526.68,412.37Z"/><path class="cls-1" d="M526.86,416.8h-.24a11.31,11.31,0,0,0-5.72,1.58,10,10,0,0,1-5.1,1.42h-.2a9.83,9.83,0,0,1-4.93-1.11l-.08.18,0-.23a11.12,11.12,0,0,0-5.54-1.23h-.19a14,14,0,0,0-1.84.17l.16,1.39a12.41,12.41,0,0,1,1.72-.16h.25A9.88,9.88,0,0,1,510,420a11.23,11.23,0,0,0,5.58,1.25h.22a11.3,11.3,0,0,0,5.72-1.58,10,10,0,0,1,5.1-1.42h.27a11.37,11.37,0,0,1,1.54.07l.16-1.39A13.29,13.29,0,0,0,526.86,416.8Z"/><path class="cls-1" d="M526.4,421.15h-.17a11.3,11.3,0,0,0-5.72,1.58,10,10,0,0,1-5.1,1.42h-.15a10,10,0,0,1-5-1.13,11.25,11.25,0,0,0-5.58-1.25h-.21c-.34,0-.66,0-1,.06l.16,1.39.85-.05h.21a10,10,0,0,1,5,1.16,11,11,0,0,0,5.48,1.22h.24a11.31,11.31,0,0,0,5.72-1.58,10,10,0,0,1,5.1-1.42h.24a11.79,11.79,0,0,1,1.46.06l.16-1.38A14,14,0,0,0,526.4,421.15Z"/><path class="cls-1" d="M526.6,425.59h-.23a11.32,11.32,0,0,0-5.72,1.58,10,10,0,0,1-5.1,1.42h-.25a9.92,9.92,0,0,1-5-1.15,11.15,11.15,0,0,0-5.56-1.23h-.19l-.59,0,.16,1.39.48,0h.25a9.87,9.87,0,0,1,4.92,1.13,11.25,11.25,0,0,0,5.58,1.25h.21a11.32,11.32,0,0,0,5.72-1.58,10,10,0,0,1,5.1-1.42h1.08l.16-1.39C527.31,425.59,527,425.59,526.6,425.59Z"/><path class="cls-1" d="M526.68,430h-.19a11.32,11.32,0,0,0-5.72,1.58,10,10,0,0,1-5.1,1.42h-.19a10.07,10.07,0,0,1-5.06-1.16,11,11,0,0,0-5.45-1.22h-.49l.16,1.39H505a10,10,0,0,1,5,1.15,11,11,0,0,0,5.44,1.23h.3a11.32,11.32,0,0,0,5.72-1.59,10,10,0,0,1,5.1-1.42H527l.16-1.4Z"/><path class="cls-1" d="M526.63,434.48h0a11.31,11.31,0,0,0-5.72,1.58,10,10,0,0,1-5.1,1.42h-.2a9.83,9.83,0,0,1-4.93-1.11l-.08.18,0-.23a11.12,11.12,0,0,0-5.54-1.23h0l.16,1.4a9.88,9.88,0,0,1,4.9,1.13,11.23,11.23,0,0,0,5.58,1.25h.22a11.3,11.3,0,0,0,5.72-1.58,10,10,0,0,1,4.91-1.41Z"/></g></g></svg>