<?xml version="1.0" encoding="UTF-8" standalone="no"?>
<svg
   xmlns:dc="http://purl.org/dc/elements/1.1/"
   xmlns:cc="http://creativecommons.org/ns#"
   xmlns:rdf="http://www.w3.org/1999/02/22-rdf-syntax-ns#"
   xmlns:svg="http://www.w3.org/2000/svg"
   xmlns="http://www.w3.org/2000/svg"
   viewBox="0 0 640.4267 135.72"
   height="135.72"
   width="640.4267"
   xml:space="preserve"
   id="svg2"
   version="1.1"><metadata
     id="metadata8"><rdf:RDF><cc:Work
         rdf:about=""><dc:format>image/svg+xml</dc:format><dc:type
           rdf:resource="http://purl.org/dc/dcmitype/StillImage" /></cc:Work></rdf:RDF></metadata><defs
     id="defs6"><clipPath
       id="clipPath20"
       clipPathUnits="userSpaceOnUse"><path
         id="path18"
         d="M 0,0 H 4803 V 1017.93 H 0 Z" /></clipPath></defs><g
     transform="matrix(1.3333333,0,0,-1.3333333,0,135.72)"
     id="g10"><g
       transform="scale(0.1)"
       id="g12"><g
         id="g14"><g
           clip-path="url(#clipPath20)"
           id="g16"><path
             id="path22"
             style="fill:#ecefe8;fill-opacity:1;fill-rule:nonzero;stroke:none"
             d="m 644.926,829.188 c -1.344,0 -23.09,-9.336 -41.735,-13.758 -19.535,-4.883 -41.277,-9.332 -61.699,-12.887 -4.883,-2.227 -5.332,-12.863 -0.879,-15.523 l 19.965,-2.223 c 9.324,-0.899 14.656,-4.453 14.207,-11.098 0,-5.347 -1.328,-11.097 -7.988,-31.961 L 522.406,601.918 C 511.758,568.16 508.652,564.18 484.676,560.621 l -15.531,-2.195 c -4.887,-2.692 -6.215,-11.563 -1.332,-15.547 20.417,0.894 42.167,1.328 66.136,1.328 27.516,0 52.383,-0.434 74.574,-1.328 5.321,1.762 6.653,13.32 2.211,15.547 l -16.414,2.195 c -22.191,3.121 -25.297,7.539 -14.648,41.297 l 53.707,169.555 c 5.766,17.746 13.309,38.609 18.641,51.5 -0.45,3.09 -3.106,6.215 -7.094,6.215" /><path
             id="path24"
             style="fill:#ecefe8;fill-opacity:1;fill-rule:nonzero;stroke:none"
             d="m 784.738,620.559 26.633,18.64 c 43.512,30.168 98.102,63.922 98.102,116.727 0,46.617 -35.071,72.363 -80.344,72.363 -43.941,0 -82.996,-24.851 -104.762,-66.152 -0.429,-5.746 7.996,-10.199 13.778,-8.871 14.632,24.422 40.832,40.836 59.921,40.836 30.618,0 46.602,-15.985 46.602,-47.918 0,-43.52 -65.691,-98.114 -102.969,-127.414 -46.617,-36.387 -63.047,-50.61 -87.008,-65.692 -1.777,-3.555 -0.894,-7.976 1.778,-10.199 12.426,0.43 31.953,1.328 54.144,1.328 h 73.684 c 29.301,0 47.496,-0.434 64.805,-1.328 10.218,8.871 26.644,41.73 34.187,63.027 -1.777,6.645 -11.098,9.336 -15.098,6.215 -15.98,-19.969 -20.851,-23.523 -50.605,-23.523 h -51.484 c -11.547,0 -13.754,2.226 -13.754,4.882 0,3.09 7.539,9.77 32.39,27.079" /><path
             id="path26"
             style="fill:#ecefe8;fill-opacity:1;fill-rule:nonzero;stroke:none"
             d="m 1013.93,544.207 h 21.04 v 46.5 h 67.09 v 18.063 h -67.09 v 25.054 h 78.06 v 18.063 h -99.1 v -107.68" /><path
             id="path28"
             style="fill:#ecefe8;fill-opacity:1;fill-rule:nonzero;stroke:none"
             d="m 1164.89,651.887 h -21.02 v -107.68 h 99.08 v 18.668 h -78.06 v 89.012" /><path
             id="path30"
             style="fill:#ecefe8;fill-opacity:1;fill-rule:nonzero;stroke:none"
             d="m 1277.93,544.207 h 19.6992 v 21.0391 H 1277.93 Z" /><path
             id="path32"
             style="fill:#ecefe8;fill-opacity:1;fill-rule:nonzero;stroke:none"
             d="m 1399.16,559.609 c -20.14,0 -43.1,8.293 -43.1,38.813 0,25.922 18.51,38.062 43.1,38.062 24.6,0 43.11,-12.14 43.11,-38.062 0,-30.52 -22.96,-38.813 -43.11,-38.813 z m 0,94.934 c -47.39,0 -64.13,-27.824 -64.13,-57.305 0,-22.371 13.18,-55.691 64.13,-55.691 50.96,0 64.13,33.32 64.13,55.691 0,29.481 -16.73,57.305 -64.13,57.305" /><path
             id="path34"
             style="fill:#ecefe8;fill-opacity:1;fill-rule:nonzero;stroke:none"
             d="m 1593.63,640.035 v 11.852 h -102.51 v -18.063 h 71.4 l -75.24,-79.242 v -10.375 h 108.11 v 18.063 h -74.93 l 73.17,77.765" /><path
             id="path36"
             style="fill:#ecefe8;fill-opacity:1;fill-rule:nonzero;stroke:none"
             d="m 1630.54,544.207 h 19.6914 v 21.0391 H 1630.54 Z" /><path
             id="path38"
             style="fill:#ecefe8;fill-opacity:1;fill-rule:nonzero;stroke:none"
             d="M 2083.72,396.996 V 988.34 H 4773.61 V 396.996 Z M 4773.61,29.5938 H 29.5938 V 367.395 H 4773.61 Z M 29.5938,988.34 H 2054.13 V 396.996 H 29.5938 Z M 0,1017.93 V -0.0117188 H 4803.2 V 1017.93 H 0" /><path
             id="path40"
             style="fill:#ecefe8;fill-opacity:1;fill-rule:nonzero;stroke:none"
             d="m 3615.17,587.473 -22.31,47.562 -22.31,-47.562 z m -34.19,64.289 h 23.76 l 51.8,-106.692 h -22.01 l -11.15,24.508 h -61.49 L 3550.6,545.07 h -22.17 l 52.55,106.692" /><path
             id="path42"
             style="fill:#ecefe8;fill-opacity:1;fill-rule:nonzero;stroke:none"
             d="m 3684.86,651.762 h 20.85 v -88.196 h 77.34 V 545.07 h -98.19 v 106.692" /><path
             id="path44"
             style="fill:#ecefe8;fill-opacity:1;fill-rule:nonzero;stroke:none"
             d="m 3925.7,583.066 c -2.04,-11.882 -10.57,-40.632 -59.57,-40.632 -33.74,0 -60.32,18.785 -60.32,57.671 0,31.094 19.53,54.29 61.94,54.29 47.68,0 54.72,-30.954 56.35,-36.68 h -20.84 c -1.19,3.664 -9.4,18.781 -34.34,18.781 -29.49,0 -41.84,-16.574 -41.84,-38.738 0,-24.512 17.77,-37.43 40.67,-37.43 24.34,0 35.08,14.52 37.12,22.738 h 20.83" /><path
             id="path46"
             style="fill:#ecefe8;fill-opacity:1;fill-rule:nonzero;stroke:none"
             d="m 3975.45,654.395 h 15.56 l -33.76,-111.961 h -15.55 l 33.75,111.961" /><path
             id="path48"
             style="fill:#ecefe8;fill-opacity:1;fill-rule:nonzero;stroke:none"
             d="m 4003.87,651.762 h 22.31 l 40.05,-85.133 40.8,85.133 h 22.31 L 4077.1,545.07 h -21.72 l -51.51,106.692" /><path
             id="path50"
             style="fill:#ecefe8;fill-opacity:1;fill-rule:nonzero;stroke:none"
             d="m 4255.71,598.785 c 0,25.688 -18.36,37.711 -42.71,37.711 -24.35,0 -42.71,-12.023 -42.71,-37.711 0,-30.238 22.75,-38.457 42.71,-38.457 19.95,0 42.71,8.219 42.71,38.457 z m -42.71,55.61 c 46.95,0 63.54,-27.575 63.54,-56.786 0,-22.156 -13.06,-55.175 -63.54,-55.175 -50.49,0 -63.54,33.019 -63.54,55.175 0,29.211 16.58,56.786 63.54,56.786" /><path
             id="path52"
             style="fill:#ecefe8;fill-opacity:1;fill-rule:nonzero;stroke:none"
             d="m 4309.4,651.762 h 20.84 v -88.196 h 77.34 V 545.07 h -98.18 v 106.692" /><path
             id="path54"
             style="fill:#ecefe8;fill-opacity:1;fill-rule:nonzero;stroke:none"
             d="m 485.465,231.977 h -0.344 V 144.23 h -20.043 v 115.782 h 30.41 l 36.157,-85.821 36.777,85.821 h 29.789 V 144.23 h -20.078 v 87.747 h -0.309 L 540.703,144.23 h -17.98 l -37.258,87.747" /><path
             id="path56"
             style="fill:#ecefe8;fill-opacity:1;fill-rule:nonzero;stroke:none"
             d="m 716.449,190.266 -24.211,51.593 -24.207,-51.593 z m -37.121,69.746 h 25.797 l 56.23,-115.782 h -23.894 l -12.09,26.594 H 658.633 L 646.371,144.23 h -24.066 l 57.023,115.782" /><path
             id="path58"
             style="fill:#ecefe8;fill-opacity:1;fill-rule:nonzero;stroke:none"
             d="m 831.629,163.656 c 38.543,0 53.516,11.778 53.516,38.875 0,28.34 -15.598,38.059 -53.516,38.059 h -22.934 v -76.934 z m -45.555,96.356 h 55.75 c 36.641,0 65.942,-15.438 65.942,-57.168 0,-39.5 -26.754,-58.614 -64.981,-58.614 h -56.711 v 115.782" /><path
             id="path60"
             style="fill:#ecefe8;fill-opacity:1;fill-rule:nonzero;stroke:none"
             d="M 937.418,260.012 H 1041.27 V 240.59 h -81.231 v -26.934 h 69.911 V 194.23 h -69.911 v -30.574 h 83.131 V 144.23 H 937.418 v 115.782" /><path
             id="path62"
             style="fill:#ecefe8;fill-opacity:1;fill-rule:nonzero;stroke:none"
             d="m 1121.6,260.012 h 22.59 l 22.31,-79.629 h 0.32 l 22.14,79.629 h 21.66 l 22.45,-79.481 h 0.31 l 22.14,79.481 h 22.14 L 1243.91,144.23 h -21.66 l -22,82.168 h -0.3 L 1177.8,144.23 h -22.14 l -34.06,115.782" /><path
             id="path64"
             style="fill:#ecefe8;fill-opacity:1;fill-rule:nonzero;stroke:none"
             d="m 1305.61,144.23 h 22.6016 V 260.011 H 1305.61 Z" /><path
             id="path66"
             style="fill:#ecefe8;fill-opacity:1;fill-rule:nonzero;stroke:none"
             d="m 1407.91,240.59 h -51.76 v 19.422 h 126.14 V 240.59 h -51.75 v -96.36 h -22.63 v 96.36" /><path
             id="path68"
             style="fill:#ecefe8;fill-opacity:1;fill-rule:nonzero;stroke:none"
             d="m 1508.91,260.012 h 22.62 v -45.867 h 77.72 v 45.867 h 22.62 V 144.23 h -22.62 v 49.864 h -77.72 V 144.23 h -22.62 v 115.782" /><path
             id="path70"
             style="fill:#ecefe8;fill-opacity:1;fill-rule:nonzero;stroke:none"
             d="m 1736.13,260.012 h 22.62 v -45.867 h 77.72 v 45.867 h 22.63 V 144.23 h -22.63 v 49.864 h -77.72 V 144.23 h -22.62 v 115.782" /><path
             id="path72"
             style="fill:#ecefe8;fill-opacity:1;fill-rule:nonzero;stroke:none"
             d="m 2004.07,202.531 c 0,27.864 -19.91,40.91 -46.36,40.91 -26.44,0 -46.34,-13.046 -46.34,-40.91 0,-32.82 24.68,-41.738 46.34,-41.738 21.66,0 46.36,8.918 46.36,41.738 z m -46.36,60.364 c 50.97,0 68.95,-29.954 68.95,-61.641 0,-24.063 -14.16,-59.883 -68.95,-59.883 -54.78,0 -68.97,35.82 -68.97,59.883 0,31.687 18.01,61.641 68.97,61.641" /><path
             id="path74"
             style="fill:#ecefe8;fill-opacity:1;fill-rule:nonzero;stroke:none"
             d="m 2056.33,260.012 h 23.9 l 77.41,-83.614 v 83.614 h 21.66 V 144.23 h -20.72 l -80.59,86.641 V 144.23 h -21.66 v 115.782" /><path
             id="path76"
             style="fill:#ecefe8;fill-opacity:1;fill-rule:nonzero;stroke:none"
             d="m 2216.45,260.012 h 103.83 V 240.59 h -81.23 v -26.934 h 69.93 V 194.23 h -69.93 v -30.574 h 83.16 V 144.23 h -105.76 v 115.782" /><path
             id="path78"
             style="fill:#ecefe8;fill-opacity:1;fill-rule:nonzero;stroke:none"
             d="m 2395.77,190.578 -56.52,69.434 h 27.69 l 40.15,-49.043 39.98,49.043 h 27.87 l -56.56,-69.434 V 144.23 h -22.61 v 46.348" /><path
             id="path80"
             style="fill:#ecefe8;fill-opacity:1;fill-rule:nonzero;stroke:none"
             d="m 2551.8,260.012 h 22.6 l 22.31,-79.629 h 0.32 l 22.13,79.629 h 21.66 l 22.46,-79.481 h 0.31 l 22.14,79.481 h 22.14 L 2674.12,144.23 h -21.66 l -22,82.168 h -0.31 l -22.14,-82.168 h -22.15 l -34.06,115.782" /><path
             id="path82"
             style="fill:#ecefe8;fill-opacity:1;fill-rule:nonzero;stroke:none"
             d="m 2735.81,144.23 h 22.6016 V 260.011 H 2735.81 Z" /><path
             id="path84"
             style="fill:#ecefe8;fill-opacity:1;fill-rule:nonzero;stroke:none"
             d="m 2796.89,260.012 h 23.87 l 77.41,-83.614 v 83.614 h 21.66 V 144.23 h -20.7 l -80.58,86.641 V 144.23 h -21.66 v 115.782" /><path
             id="path86"
             style="fill:#ecefe8;fill-opacity:1;fill-rule:nonzero;stroke:none"
             d="m 2956.98,260.012 h 103.85 V 240.59 h -81.23 v -26.934 h 69.91 V 194.23 h -69.91 v -30.574 h 83.13 V 144.23 h -105.75 v 115.782" /><path
             id="path88"
             style="fill:#ecefe8;fill-opacity:1;fill-rule:nonzero;stroke:none"
             d="m 3233.55,190.266 -24.21,51.593 -24.21,-51.593 z m -37.12,69.746 h 25.8 l 56.23,-115.782 h -23.9 l -12.09,26.594 h -66.73 l -12.27,-26.594 h -24.06 l 57.02,115.782" /><path
             id="path90"
             style="fill:#ecefe8;fill-opacity:1;fill-rule:nonzero;stroke:none"
             d="m 3303.18,260.012 h 23.86 l 77.42,-83.614 v 83.614 h 21.66 V 144.23 h -20.7 l -80.58,86.641 V 144.23 h -21.66 v 115.782" /><path
             id="path92"
             style="fill:#ecefe8;fill-opacity:1;fill-rule:nonzero;stroke:none"
             d="m 3508.82,163.656 c 38.54,0 53.52,11.778 53.52,38.875 0,28.34 -15.61,38.059 -53.52,38.059 h -22.93 v -76.934 z m -45.55,96.356 h 55.75 c 36.64,0 65.93,-15.438 65.93,-57.168 0,-39.5 -26.74,-58.614 -64.98,-58.614 h -56.7 v 115.782" /><path
             id="path94"
             style="fill:#ecefe8;fill-opacity:1;fill-rule:nonzero;stroke:none"
             d="m 3681.74,260.012 h 22.62 v -95.703 h 83.92 V 144.23 h -106.54 v 115.782" /><path
             id="path96"
             style="fill:#ecefe8;fill-opacity:1;fill-rule:nonzero;stroke:none"
             d="m 3815.38,260.012 h 103.83 V 240.59 h -81.24 v -26.934 h 69.94 V 194.23 h -69.94 v -30.574 h 83.17 V 144.23 h -105.76 v 115.782" /><path
             id="path98"
             style="fill:#ecefe8;fill-opacity:1;fill-rule:nonzero;stroke:none"
             d="m 3968.75,231.977 h -0.33 V 144.23 h -20.05 v 115.782 h 30.41 l 36.16,-85.821 36.78,85.821 h 29.79 V 144.23 h -20.08 v 87.747 h -0.31 L 4024,144.23 h -17.98 l -37.27,87.747" /><path
             id="path100"
             style="fill:#ecefe8;fill-opacity:1;fill-rule:nonzero;stroke:none"
             d="m 4225.85,202.531 c 0,27.864 -19.9,40.91 -46.34,40.91 -26.43,0 -46.36,-13.046 -46.36,-40.91 0,-32.82 24.69,-41.738 46.36,-41.738 21.66,0 46.34,8.918 46.34,41.738 z m -46.34,60.364 c 50.95,0 68.96,-29.954 68.96,-61.641 0,-24.063 -14.18,-59.883 -68.96,-59.883 -54.8,0 -68.95,35.82 -68.95,59.883 0,31.687 17.98,61.641 68.95,61.641" /><path
             id="path102"
             style="fill:#ecefe8;fill-opacity:1;fill-rule:nonzero;stroke:none"
             d="m 4278.12,260.012 h 23.9 l 77.41,-83.614 v 83.614 h 21.66 V 144.23 h -20.73 l -80.58,86.641 V 144.23 h -21.66 v 115.782" /><path
             id="path104"
             style="fill:#ecefe8;fill-opacity:1;fill-rule:nonzero;stroke:none"
             d="m 2565.36,534.383 c -62.57,0 -92.73,38.277 -92.73,92.73 0,54.012 33.75,125.141 100.38,171.063 46.37,31.945 112.08,52.668 162.49,54.453 5.41,-1.348 6.31,-12.16 2.72,-15.297 -54.48,-9.469 -90.03,-28.809 -126.95,-60.312 -46.36,-40.063 -78.32,-108.934 -78.32,-167.024 0,-23.387 2.7,-54.922 31.05,-54.922 39.17,0 54.92,60.785 54.92,87.336 0,17.113 -2.7,42.32 -24.75,46.832 -5.41,1.348 -10.82,1.348 -19.35,0.438 -3.62,1.789 -4.96,9.468 -1.36,12.164 12.15,9 27.01,17.086 45.01,17.086 38.27,0 63.93,-27.461 63.93,-68.871 0,-66.614 -53.58,-115.676 -117.04,-115.676" /><path
             id="path106"
             style="fill:#ecefe8;fill-opacity:1;fill-rule:nonzero;stroke:none"
             d="m 2762.52,574.887 c 0,-22.512 -16.2,-40.504 -38.26,-40.504 -17.55,0 -31.06,11.695 -31.06,31.504 0,21.164 15.75,42.32 39.17,42.32 17.99,0 30.15,-12.602 30.15,-33.32" /><path
             id="path108"
             style="fill:#ecefe8;fill-opacity:1;fill-rule:nonzero;stroke:none"
             d="m 3050.62,733.348 c 0,-61.219 -41.87,-125.141 -98.59,-162.946 -45.46,-30.629 -119.28,-55.359 -154.85,-56.738 -4.95,2.258 -6.76,11.719 -2.69,15.77 51.76,12.16 96.76,36.453 126.94,66.613 40.5,39.621 69.77,102.633 69.77,158.902 0,24.297 -4.07,53.106 -31.97,53.106 -32.86,0 -53.57,-51.758 -53.57,-85.957 0,-26.114 7.66,-38.715 22.51,-45.457 6.3,-2.727 13.05,-3.606 24.31,-4.075 1.8,-1.785 1.8,-7.175 0,-10.785 -9.91,-7.207 -29.26,-11.722 -40.95,-11.722 -38.26,0 -64.38,26.113 -64.38,68.429 0,58.532 52.67,110.285 115.24,110.285 57.16,0 88.23,-37.804 88.23,-95.425" /><path
             id="path110"
             style="fill:#ecefe8;fill-opacity:1;fill-rule:nonzero;stroke:none"
             d="m 3324.3,551.496 c 11.71,0 22.51,12.606 29.71,25.645 11.71,21.601 27.46,66.617 27.46,90.476 0,13.949 -4.96,24.321 -17.56,24.321 -10.8,0 -21.6,-10.813 -29.25,-24.321 -13.96,-23.39 -27.92,-63.922 -27.92,-89.566 0,-13.949 4.5,-26.555 17.56,-26.555 z m 96.79,94.52 c 0,-47.711 -36.48,-111.633 -96.79,-111.633 -39.15,0 -58.52,24.765 -58.52,59.875 0,53.105 40.51,114.769 96.32,114.769 39.17,0 58.99,-24.297 58.99,-63.011 z M 3152.34,522.688 c -8.54,-1.817 -16.19,3.136 -17.99,10.789 l 223.71,301.597 c 6.76,0.91 17.1,-3.133 18.01,-10.812 z m -2.7,148.531 c 11.71,0 22.51,12.601 29.72,25.676 11.7,21.593 27.45,66.613 27.45,90.468 0,13.95 -4.94,24.297 -17.56,24.297 -10.8,0 -21.6,-10.789 -29.25,-24.297 -13.96,-23.414 -27.91,-63.918 -27.91,-89.59 0,-13.953 4.5,-26.554 17.55,-26.554 z m 96.79,94.547 c 0,-47.715 -36.48,-111.633 -96.79,-111.633 -39.15,0 -58.5,24.734 -58.5,59.844 0,53.136 40.49,114.796 96.32,114.796 39.15,0 58.97,-24.293 58.97,-63.007" /></g></g></g></g></svg>