<?xml version="1.0" encoding="UTF-8" standalone="no"?>
<svg
   xmlns:dc="http://purl.org/dc/elements/1.1/"
   xmlns:cc="http://creativecommons.org/ns#"
   xmlns:rdf="http://www.w3.org/1999/02/22-rdf-syntax-ns#"
   xmlns:svg="http://www.w3.org/2000/svg"
   xmlns="http://www.w3.org/2000/svg"
   viewBox="0 0 409.33334 12.346667"
   height="12.346667"
   width="409.33334"
   xml:space="preserve"
   id="svg2"
   version="1.1"><metadata
     id="metadata8"><rdf:RDF><cc:Work
         rdf:about=""><dc:format>image/svg+xml</dc:format><dc:type
           rdf:resource="http://purl.org/dc/dcmitype/StillImage" /></cc:Work></rdf:RDF></metadata><defs
     id="defs6" /><g
     transform="matrix(1.3333333,0,0,-1.3333333,0,12.346667)"
     id="g10"><g
       transform="scale(0.1)"
       id="g12"><path
         id="path14"
         style="fill:#ecefe8;fill-opacity:1;fill-rule:nonzero;stroke:none"
         d="M 287.91,38.1289 V 54.5156 H 2626.12 V 38.1289 H 287.91" /><path
         id="path16"
         style="fill:#ecefe8;fill-opacity:1;fill-rule:nonzero;stroke:none"
         d="m 23.4609,25.8242 c 19.8477,0 27.5664,6.0625 27.5664,20.0274 0,14.5976 -8.0351,19.6054 -27.5664,19.6054 H 11.6523 V 25.8242 Z M 0,75.457 h 28.7148 c 18.8672,0 33.961,-7.9531 33.961,-29.4492 0,-20.3398 -13.7774,-30.1836 -33.4649,-30.1836 L 0,15.8242 V 75.457" /><path
         id="path18"
         style="fill:#ecefe8;fill-opacity:1;fill-rule:nonzero;stroke:none"
         d="m 111.895,48.9531 c 9.507,0 14.351,1.4063 14.351,8.4532 0,6.9765 -4.844,8.3671 -14.351,8.3671 H 89.4141 V 48.9531 Z M 77.7734,75.457 h 35.8396 c 14.114,0 24.282,-3.1992 24.282,-17.7968 0,-10.9961 -7.875,-17.0625 -16.657,-17.5586 L 139.535,15.8242 H 125.18 L 107.871,39.2891 H 89.4141 V 15.8242 H 77.7734 V 75.457" /><path
         id="path20"
         style="fill:#ecefe8;fill-opacity:1;fill-rule:nonzero;stroke:none"
         d="M 174.574,39.6914 145.461,75.457 h 14.266 l 20.671,-25.2734 20.594,25.2734 h 14.344 L 186.227,39.6914 V 15.8242 h -11.653 v 23.8672" /><path
         id="path22"
         style="fill:#ecefe8;fill-opacity:1;fill-rule:nonzero;stroke:none"
         d="m 2758.01,57.3242 c -1.9,5.3321 -6.73,9.9258 -20.93,9.9258 -7.87,0 -15.83,-1.9687 -15.83,-7.4609 0,-2.543 1.47,-5.25 13.38,-6.7227 l 14.11,-2.1289 c 13.36,-2.0625 21.23,-7.2344 21.23,-17.2344 0,-14.1015 -13.44,-19.3554 -29.35,-19.3554 -25.6,0 -31.83,12.6289 -33.23,17.1406 l 11.24,3.5234 c 2.13,-4.3359 6.57,-10.664 22.31,-10.664 9.52,0 17.39,3.125 17.39,8.2929 0,3.8555 -4.42,6.3867 -12.96,7.461 l -14.28,1.9726 c -13.78,1.8828 -21.49,7.8711 -21.49,16.9766 0,17.8828 23.22,17.8828 27.81,17.8828 25.69,0 30.11,-11.8945 31.58,-15.9922 l -10.98,-3.6172" /><path
         id="path24"
         style="fill:#ecefe8;fill-opacity:1;fill-rule:nonzero;stroke:none"
         d="m 2779.26,75.457 h 11.64 l 11.48,-41.0195 h 0.18 l 11.4,41.0195 h 11.16 l 11.56,-40.9414 h 0.16 l 11.4,40.9414 h 11.41 l -17.39,-59.6328 h -11.16 l -11.32,42.3203 h -0.16 l -11.41,-42.3203 h -11.4 l -17.55,59.6328" /><path
         id="path26"
         style="fill:#ecefe8;fill-opacity:1;fill-rule:nonzero;stroke:none"
         d="m 2873.1,75.457 h 53.47 v -10 h -41.82 V 51.582 h 36 V 41.5742 h -36 v -15.75 h 42.82 v -10 H 2873.1 V 75.457" /><path
         id="path28"
         style="fill:#ecefe8;fill-opacity:1;fill-rule:nonzero;stroke:none"
         d="m 2941.77,75.457 h 53.48 v -10 h -41.83 V 51.582 h 36 V 41.5742 h -36 v -15.75 h 42.81 v -10 h -54.46 V 75.457" /><path
         id="path30"
         style="fill:#ecefe8;fill-opacity:1;fill-rule:nonzero;stroke:none"
         d="m 3031.69,65.457 h -26.66 v 10 H 3070 v -10 h -26.66 V 15.8242 h -11.65 V 65.457" /><path
         id="path32"
         style="fill:#ecefe8;fill-opacity:1;fill-rule:nonzero;stroke:none"
         d="m 1018.74,46.3203 c 0,25.5781 20.73,46.3203 46.3,46.3203 25.58,0 46.33,-20.7422 46.33,-46.3203 0,-25.5742 -20.75,-46.31639375 -46.33,-46.31639375 -25.57,0 -46.3,20.74219375 -46.3,46.31639375" /></g></g></svg>