<?xml version="1.0" encoding="UTF-8" standalone="no"?>
<svg
   xmlns:dc="http://purl.org/dc/elements/1.1/"
   xmlns:cc="http://creativecommons.org/ns#"
   xmlns:rdf="http://www.w3.org/1999/02/22-rdf-syntax-ns#"
   xmlns:svg="http://www.w3.org/2000/svg"
   xmlns="http://www.w3.org/2000/svg"
   viewBox="0 0 640.4267 135.72"
   height="135.72"
   width="640.4267"
   xml:space="preserve"
   id="svg2"
   version="1.1"><metadata
     id="metadata8"><rdf:RDF><cc:Work
         rdf:about=""><dc:format>image/svg+xml</dc:format><dc:type
           rdf:resource="http://purl.org/dc/dcmitype/StillImage" /></cc:Work></rdf:RDF></metadata><defs
     id="defs6" /><g
     transform="matrix(1.3333333,0,0,-1.3333333,0,135.72)"
     id="g10"><g
       transform="scale(0.1)"
       id="g12"><path
         id="path14"
         style="fill:#ecefe8;fill-opacity:1;fill-rule:nonzero;stroke:none"
         d="m 644.926,829.188 c -1.344,0 -23.09,-9.336 -41.735,-13.758 -19.535,-4.883 -41.277,-9.332 -61.699,-12.887 -4.883,-2.227 -5.332,-12.863 -0.879,-15.523 l 19.965,-2.223 c 9.324,-0.899 14.656,-4.453 14.207,-11.098 0,-5.347 -1.328,-11.097 -7.988,-31.961 L 522.406,601.918 C 511.758,568.16 508.652,564.18 484.676,560.621 l -15.531,-2.195 c -4.887,-2.692 -6.215,-11.563 -1.332,-15.547 20.417,0.894 42.167,1.328 66.136,1.328 27.516,0 52.383,-0.434 74.574,-1.328 5.321,1.762 6.653,13.32 2.211,15.547 l -16.414,2.195 c -22.191,3.121 -25.297,7.539 -14.648,41.297 l 53.707,169.555 c 5.766,17.746 13.309,38.609 18.641,51.5 -0.45,3.09 -3.106,6.215 -7.094,6.215" /><path
         id="path16"
         style="fill:#ecefe8;fill-opacity:1;fill-rule:nonzero;stroke:none"
         d="m 784.738,620.559 26.633,18.64 c 43.512,30.168 98.102,63.922 98.102,116.727 0,46.617 -35.071,72.363 -80.344,72.363 -43.941,0 -82.996,-24.851 -104.762,-66.152 -0.429,-5.746 7.996,-10.199 13.778,-8.871 14.632,24.422 40.832,40.836 59.921,40.836 30.618,0 46.602,-15.985 46.602,-47.918 0,-43.52 -65.691,-98.114 -102.969,-127.414 -46.617,-36.387 -63.047,-50.61 -87.008,-65.692 -1.777,-3.555 -0.894,-7.976 1.778,-10.199 12.426,0.43 31.953,1.328 54.144,1.328 h 73.684 c 29.301,0 47.496,-0.434 64.805,-1.328 10.218,8.871 26.644,41.73 34.187,63.027 -1.777,6.645 -11.098,9.336 -15.098,6.215 -15.98,-19.969 -20.851,-23.523 -50.605,-23.523 h -51.484 c -11.547,0 -13.754,2.226 -13.754,4.882 0,3.09 7.539,9.77 32.39,27.079" /><path
         id="path18"
         style="fill:#ecefe8;fill-opacity:1;fill-rule:nonzero;stroke:none"
         d="m 1013.93,544.207 h 21.04 v 46.5 h 67.09 v 18.063 h -67.09 v 25.054 h 78.06 v 18.063 h -99.1 v -107.68" /><path
         id="path20"
         style="fill:#ecefe8;fill-opacity:1;fill-rule:nonzero;stroke:none"
         d="m 1164.89,651.887 h -21.02 v -107.68 h 99.08 v 18.668 h -78.06 v 89.012" /><path
         id="path22"
         style="fill:#ecefe8;fill-opacity:1;fill-rule:nonzero;stroke:none"
         d="m 1277.93,544.207 h 19.7 v 21.039 h -19.7 v -21.039" /><path
         id="path24"
         style="fill:#ecefe8;fill-opacity:1;fill-rule:nonzero;stroke:none"
         d="m 1399.16,559.609 c -20.14,0 -43.1,8.293 -43.1,38.813 0,25.922 18.51,38.062 43.1,38.062 24.6,0 43.11,-12.14 43.11,-38.062 0,-30.52 -22.96,-38.813 -43.11,-38.813 z m 0,94.934 c -47.39,0 -64.13,-27.824 -64.13,-57.305 0,-22.371 13.18,-55.691 64.13,-55.691 50.96,0 64.13,33.32 64.13,55.691 0,29.481 -16.73,57.305 -64.13,57.305" /><path
         id="path26"
         style="fill:#ecefe8;fill-opacity:1;fill-rule:nonzero;stroke:none"
         d="m 1593.63,640.035 v 11.852 h -102.51 v -18.063 h 71.4 l -75.24,-79.242 v -10.375 h 108.11 v 18.063 h -74.93 l 73.17,77.765" /><path
         id="path28"
         style="fill:#ecefe8;fill-opacity:1;fill-rule:nonzero;stroke:none"
         d="m 1630.54,565.246 v -21.039 h 19.69 v 21.039 h -19.69" /><path
         id="path30"
         style="fill:#ecefe8;fill-opacity:1;fill-rule:nonzero;stroke:none"
         d="M 2083.72,396.996 V 988.34 H 4773.61 V 396.996 Z M 4773.61,29.5938 H 29.5938 V 367.395 H 4773.61 Z M 29.5938,988.34 H 2054.13 V 396.996 H 29.5938 Z M 0,1017.93 V -0.0117188 H 4803.2 V 1017.93 H 0" /><path
         id="path32"
         style="fill:#ecefe8;fill-opacity:1;fill-rule:nonzero;stroke:none"
         d="m 3616.5,591.254 -22.39,47.762 -22.41,-47.762 z m -34.33,64.555 h 23.87 l 52.01,-107.137 h -22.1 l -11.2,24.613 H 3563 l -11.34,-24.613 h -22.25 l 52.76,107.137" /><path
         id="path34"
         style="fill:#ecefe8;fill-opacity:1;fill-rule:nonzero;stroke:none"
         d="m 3686.49,655.809 h 20.94 v -88.567 h 77.66 v -18.57 h -98.6 v 107.137" /><path
         id="path36"
         style="fill:#ecefe8;fill-opacity:1;fill-rule:nonzero;stroke:none"
         d="m 3928.35,586.824 c -2.06,-11.933 -10.61,-40.801 -59.83,-40.801 -33.89,0 -60.57,18.864 -60.57,57.911 0,31.23 19.61,54.519 62.2,54.519 47.89,0 54.96,-31.082 56.59,-36.836 h -20.94 c -1.18,3.684 -9.43,18.863 -34.47,18.863 -29.62,0 -42.01,-16.648 -42.01,-38.906 0,-24.613 17.84,-37.582 40.83,-37.582 24.45,0 35.22,14.582 37.28,22.832 h 20.92" /><path
         id="path38"
         style="fill:#ecefe8;fill-opacity:1;fill-rule:nonzero;stroke:none"
         d="m 3978.31,658.453 h 15.63 l -33.91,-112.43 h -15.61 l 33.89,112.43" /><path
         id="path40"
         style="fill:#ecefe8;fill-opacity:1;fill-rule:nonzero;stroke:none"
         d="m 4006.85,655.809 h 22.4 l 40.23,-85.489 40.97,85.489 h 22.41 l -52.47,-107.137 h -21.81 l -51.73,107.137" /><path
         id="path42"
         style="fill:#ecefe8;fill-opacity:1;fill-rule:nonzero;stroke:none"
         d="m 4259.75,602.609 c 0,25.797 -18.44,37.871 -42.89,37.871 -24.45,0 -42.89,-12.074 -42.89,-37.871 0,-30.359 22.85,-38.617 42.89,-38.617 20.04,0 42.89,8.258 42.89,38.617 z m -42.89,55.844 c 47.16,0 63.81,-27.687 63.81,-57.019 0,-22.254 -13.12,-55.411 -63.81,-55.411 -50.69,0 -63.81,33.157 -63.81,55.411 0,29.332 16.65,57.019 63.81,57.019" /><path
         id="path44"
         style="fill:#ecefe8;fill-opacity:1;fill-rule:nonzero;stroke:none"
         d="m 4313.67,655.809 h 20.92 v -88.567 h 77.67 v -18.57 h -98.59 v 107.137" /><path
         id="path46"
         style="fill:#ecefe8;fill-opacity:1;fill-rule:nonzero;stroke:none"
         d="m 2704.55,837.813 c 5.3,0 6.62,-4.411 5.75,-7.508 -4.87,-14.559 -17.66,-31.328 -29.56,-41.907 l -107.22,-13.687 c -7.95,-0.879 -12.36,-5.293 -15.89,-12.801 l -3.96,-8.375 c -4.42,-8.816 0,-10.137 4.39,-10.582 56.92,-7.062 116.49,-31.777 113.85,-97.066 -1.77,-47.66 -36.62,-81.188 -80.75,-101.043 -35.75,-15.887 -87.36,-24.27 -129.71,-25.594 -8.38,2.648 -8.38,14.566 -3.1,18.086 59.57,3.543 155.76,26.914 155.76,96.187 0,47.219 -41.04,61.332 -95.31,67.071 -9.26,0.879 -11.9,5.293 -6.62,15.445 l 46.78,93.09 c 4.84,9.707 9.26,11.476 24.7,13.242 l 120.89,15.442" /><path
         id="path48"
         style="fill:#ecefe8;fill-opacity:1;fill-rule:nonzero;stroke:none"
         d="m 2768.52,582.785 c 0,-22.055 -15.89,-39.711 -37.51,-39.711 -17.2,0 -30.44,11.477 -30.44,30.899 0,20.73 15.44,41.465 38.39,41.465 17.65,0 29.56,-12.348 29.56,-32.653" /><path
         id="path50"
         style="fill:#ecefe8;fill-opacity:1;fill-rule:nonzero;stroke:none"
         d="m 2995.75,631.324 c -9.71,0 -10.16,-1.32 -13.24,-10.597 l -6.18,-18.086 c -10.14,-30.438 -6.18,-35.743 15.89,-38.391 l 7.49,-0.871 c 4.41,-2.203 3.09,-13.676 -2.2,-15.445 -21.18,0.879 -43.68,1.324 -65.3,1.324 -23.83,0 -45.45,-0.445 -64.86,-1.324 -4.85,3.968 -3.52,12.796 1.33,15.445 l 15.43,1.766 c 23.83,2.648 26.92,7.058 36.2,37.496 l 6.16,19.855 c 2.22,7.508 1.33,8.828 -7.49,8.828 h -98.83 c -4.41,2.645 -5.73,8.379 -3.1,14.117 l 207.38,208.243 c 3.51,3.543 8.38,7.062 14.56,7.062 h 16.32 c 7.51,0 7.94,-4.398 0,-12.348 L 2867.35,663.977 c -4.42,-3.969 -6.61,-7.954 7.51,-7.954 h 52.94 c 8.38,0 9.26,0.45 11.02,6.633 l 21.19,67.942 c 3.08,10.136 9.71,13.226 15.87,16.32 10.6,5.293 35.31,13.242 41.49,13.242 5.29,0 7.5,-3.09 6.61,-7.504 l -27.79,-87.804 c -2.22,-7.504 -3.09,-8.829 7.06,-8.829 h 29.11 c 6.63,-3.074 2.64,-21.175 -5.29,-24.699 h -31.32" /><path
         id="path52"
         style="fill:#ecefe8;fill-opacity:1;fill-rule:nonzero;stroke:none"
         d="m 3319.16,559.852 c 11.48,0 22.05,12.351 29.12,25.144 11.47,21.184 26.91,65.289 26.91,88.684 0,13.672 -4.85,23.824 -17.21,23.824 -10.58,0 -21.18,-10.582 -28.68,-23.824 -13.67,-22.946 -27.34,-62.657 -27.34,-87.801 0,-13.676 4.41,-26.027 17.2,-26.027 z m 94.85,92.652 c 0,-46.774 -35.73,-109.43 -94.85,-109.43 -38.38,0 -57.36,24.274 -57.36,58.692 0,52.058 39.71,112.5 94.41,112.5 38.39,0 57.8,-23.825 57.8,-61.762 z M 3150.62,531.613 c -8.39,-1.765 -15.89,3.082 -17.65,10.586 l 219.27,295.614 c 6.63,0.878 16.77,-3.094 17.66,-10.598 z m -2.65,145.586 c 11.48,0 22.05,12.371 29.11,25.164 11.48,21.18 26.92,65.285 26.92,88.68 0,13.672 -4.85,23.824 -17.21,23.824 -10.59,0 -21.18,-10.597 -28.67,-23.824 -13.68,-22.945 -27.36,-62.656 -27.36,-87.801 0,-13.672 4.41,-26.043 17.21,-26.043 z m 94.87,92.668 c 0,-46.773 -35.75,-109.429 -94.87,-109.429 -38.39,0 -57.35,24.273 -57.35,58.691 0,52.062 39.7,112.5 94.41,112.5 38.38,0 57.81,-23.824 57.81,-61.762" /><path
         id="path54"
         style="fill:#ecefe8;fill-opacity:1;fill-rule:nonzero;stroke:none"
         d="m 481.426,223.734 h -0.309 V 136.195 H 461.09 v 115.508 h 30.348 l 36.07,-85.625 36.711,85.625 h 29.715 V 136.195 h -20.028 v 87.539 h -0.308 l -37.032,-87.539 h -17.953 l -37.187,87.539" /><path
         id="path56"
         style="fill:#ecefe8;fill-opacity:1;fill-rule:nonzero;stroke:none"
         d="m 711.879,182.121 -24.152,51.465 -24.149,-51.465 z m -37.016,69.582 h 25.731 L 756.68,136.195 h -23.825 l -12.074,26.524 h -66.582 l -12.23,-26.524 h -23.996 l 56.89,115.508" /><path
         id="path58"
         style="fill:#ecefe8;fill-opacity:1;fill-rule:nonzero;stroke:none"
         d="m 826.793,155.57 c 38.457,0 53.383,11.758 53.383,38.789 0,28.27 -15.578,37.957 -53.383,37.957 H 803.91 V 155.57 Z m -45.438,96.133 h 55.602 c 36.539,0 65.777,-15.402 65.777,-57.031 0,-39.406 -26.695,-58.477 -64.832,-58.477 h -56.547 v 115.508" /><path
         id="path60"
         style="fill:#ecefe8;fill-opacity:1;fill-rule:nonzero;stroke:none"
         d="m 932.34,251.703 h 103.58 v -19.387 h -81.029 v -26.863 h 69.759 V 186.078 H 954.891 V 155.57 h 82.949 v -19.375 h -105.5 v 115.508" /><path
         id="path62"
         style="fill:#ecefe8;fill-opacity:1;fill-rule:nonzero;stroke:none"
         d="m 1116.07,251.703 h 22.56 l 22.24,-79.433 h 0.33 l 22.08,79.433 h 21.61 l 22.4,-79.297 h 0.31 l 22.09,79.297 h 22.09 l -33.69,-115.508 h -21.6 l -21.94,81.973 h -0.31 l -22.09,-81.973 h -22.09 l -33.99,115.508" /><path
         id="path64"
         style="fill:#ecefe8;fill-opacity:1;fill-rule:nonzero;stroke:none"
         d="m 1299.65,251.703 h 22.55 V 136.195 h -22.55 v 115.508" /><path
         id="path66"
         style="fill:#ecefe8;fill-opacity:1;fill-rule:nonzero;stroke:none"
         d="m 1401.72,232.316 h -51.64 v 19.387 h 125.84 v -19.387 h -51.63 v -96.121 h -22.57 v 96.121" /><path
         id="path68"
         style="fill:#ecefe8;fill-opacity:1;fill-rule:nonzero;stroke:none"
         d="m 1502.47,251.703 h 22.56 v -45.762 h 77.54 v 45.762 h 22.56 V 136.195 h -22.56 v 49.746 h -77.54 v -49.746 h -22.56 v 115.508" /><path
         id="path70"
         style="fill:#ecefe8;fill-opacity:1;fill-rule:nonzero;stroke:none"
         d="m 1800.81,154.953 c 14.31,0 25.11,2.852 25.11,16.524 0,12.062 -9.86,15.871 -25.11,15.871 h -49.09 v -32.395 z m -0.64,51.152 c 14.78,0 21.3,3.645 21.3,13.36 0,9.836 -6.52,13.508 -21.3,13.508 h -48.45 v -26.868 z m -71.01,45.598 h 69.59 c 27.17,0 45.28,-7.629 45.28,-29.551 0,-14.601 -7.15,-20.031 -13.35,-23.984 8.11,-3.496 17.8,-13.359 17.8,-28.449 0,-21.778 -17.32,-33.524 -45.44,-33.524 h -73.88 v 115.508" /><path
         id="path72"
         style="fill:#ecefe8;fill-opacity:1;fill-rule:nonzero;stroke:none"
         d="m 1987.7,194.359 c 0,27.793 -19.85,40.809 -46.24,40.809 -26.38,0 -46.24,-13.016 -46.24,-40.809 0,-32.746 24.64,-41.64 46.24,-41.64 21.61,0 46.24,8.894 46.24,41.64 z m -46.24,60.223 c 50.85,0 68.8,-29.891 68.8,-61.492 0,-24.016 -14.14,-59.746 -68.8,-59.746 -54.65,0 -68.79,35.73 -68.79,59.746 0,31.601 17.95,61.492 68.79,61.492" /><path
         id="path74"
         style="fill:#ecefe8;fill-opacity:1;fill-rule:nonzero;stroke:none"
         d="m 2129.79,216.586 c -3.66,10.34 -13.02,19.238 -40.52,19.238 -15.25,0 -30.66,-3.82 -30.66,-14.465 0,-4.91 2.85,-10.164 25.9,-13.015 l 27.33,-4.133 c 25.89,-3.984 41.14,-14.004 41.14,-33.387 0,-27.316 -26.04,-37.48 -56.88,-37.48 -49.57,0 -61.64,24.461 -64.34,33.191 l 21.76,6.836 c 4.13,-8.418 12.71,-20.652 43.22,-20.652 18.43,0 33.68,6.043 33.68,16.043 0,7.492 -8.57,12.402 -25.09,14.465 l -27.66,3.816 c -26.69,3.645 -41.63,15.254 -41.63,32.871 0,34.668 44.96,34.668 53.87,34.668 49.74,0 58.31,-23.055 61.18,-30.996 l -21.3,-7" /><path
         id="path76"
         style="fill:#ecefe8;fill-opacity:1;fill-rule:nonzero;stroke:none"
         d="m 2303.31,177.348 c -2.22,-12.883 -11.44,-44.004 -64.5,-44.004 -36.54,0 -65.31,20.34 -65.31,62.422 0,33.699 21.15,58.816 67.06,58.816 51.64,0 59.26,-33.535 61.02,-39.746 H 2279 c -1.27,3.984 -10.16,20.332 -37.17,20.332 -31.93,0 -45.29,-17.93 -45.29,-41.941 0,-26.524 19.24,-40.508 44.02,-40.508 26.37,0 37.98,15.73 40.2,24.629 h 22.55" /><path
         id="path78"
         style="fill:#ecefe8;fill-opacity:1;fill-rule:nonzero;stroke:none"
         d="m 2475.52,182.121 -24.15,51.465 -24.15,-51.465 z m -37.02,69.582 h 25.73 l 56.09,-115.508 h -23.82 l -12.08,26.524 h -66.58 l -12.23,-26.524 h -24 l 56.89,115.508" /><path
         id="path80"
         style="fill:#ecefe8;fill-opacity:1;fill-rule:nonzero;stroke:none"
         d="m 2544.96,251.703 h 23.84 l 77.24,-83.418 v 83.418 h 21.6 V 136.195 h -20.66 l -80.4,86.434 v -86.434 h -21.62 v 115.508" /><path
         id="path82"
         style="fill:#ecefe8;fill-opacity:1;fill-rule:nonzero;stroke:none"
         d="m 2750.14,155.57 c 38.46,0 53.39,11.758 53.39,38.789 0,28.27 -15.58,37.957 -53.39,37.957 h -22.88 V 155.57 Z m -45.44,96.133 h 55.61 c 36.54,0 65.77,-15.402 65.77,-57.031 0,-39.406 -26.69,-58.477 -64.83,-58.477 h -56.55 v 115.508" /><path
         id="path84"
         style="fill:#ecefe8;fill-opacity:1;fill-rule:nonzero;stroke:none"
         d="m 2998.28,182.121 -24.16,51.465 -24.15,-51.465 z m -37.04,69.582 H 2987 l 56.08,-115.508 h -23.83 l -12.08,26.524 h -66.57 l -12.24,-26.524 h -23.99 l 56.87,115.508" /><path
         id="path86"
         style="fill:#ecefe8;fill-opacity:1;fill-rule:nonzero;stroke:none"
         d="m 3067.74,251.703 h 23.84 l 77.22,-83.418 v 83.418 h 21.61 V 136.195 h -20.66 l -80.4,86.434 v -86.434 h -21.61 v 115.508" /><path
         id="path88"
         style="fill:#ecefe8;fill-opacity:1;fill-rule:nonzero;stroke:none"
         d="m 3217.31,158.598 c 8.08,-2.063 15.87,-3.645 25.89,-3.645 26.53,-0.176 31.77,9.375 31.46,26.379 v 70.371 h 22.56 v -71.672 c -0.31,-33.972 -17.31,-45.105 -51.33,-45.105 -10.79,0 -23.03,1.101 -28.58,2.539 v 21.133" /><path
         id="path90"
         style="fill:#ecefe8;fill-opacity:1;fill-rule:nonzero;stroke:none"
         d="m 3441.77,194.359 c 0,27.793 -19.87,40.809 -46.24,40.809 -26.37,0 -46.24,-13.016 -46.24,-40.809 0,-32.746 24.63,-41.64 46.24,-41.64 21.61,0 46.24,8.894 46.24,41.64 z m -46.24,60.223 c 50.85,0 68.8,-29.891 68.8,-61.492 0,-24.016 -14.14,-59.746 -68.8,-59.746 -54.66,0 -68.8,35.73 -68.8,59.746 0,31.601 17.95,61.492 68.8,61.492" /><path
         id="path92"
         style="fill:#ecefe8;fill-opacity:1;fill-rule:nonzero;stroke:none"
         d="m 3616.58,185.766 c 0,-37.168 -23.68,-52.422 -61.32,-52.422 -37.66,0 -61.33,15.254 -61.33,52.422 v 65.937 h 22.56 v -64.355 c 0,-19.063 6.83,-34.629 38.77,-34.629 31.93,0 38.77,15.566 38.77,34.629 v 64.355 h 22.55 v -65.937" /><path
         id="path94"
         style="fill:#ecefe8;fill-opacity:1;fill-rule:nonzero;stroke:none"
         d="m 3789.91,200.375 c 12.86,0 24.15,1.133 24.15,16.074 0,14.766 -11.29,15.867 -24.15,15.867 h -46.72 v -31.941 z m -69.3,51.328 h 64.36 c 19.54,0 51.64,0 51.64,-35.43 C 3836.61,181 3804.51,181 3784.97,181 h -41.78 v -44.805 h -22.58 v 115.508" /><path
         id="path96"
         style="fill:#ecefe8;fill-opacity:1;fill-rule:nonzero;stroke:none"
         d="m 3862.7,251.703 h 103.58 v -19.387 h -81.03 v -26.863 h 69.76 v -19.375 h -69.76 V 155.57 h 82.95 v -19.375 h -105.5 v 115.508" /><path
         id="path98"
         style="fill:#ecefe8;fill-opacity:1;fill-rule:nonzero;stroke:none"
         d="m 4077.51,182.121 -24.15,51.465 -24.15,-51.465 z m -37.03,69.582 h 25.75 l 56.09,-115.508 h -23.83 l -12.08,26.524 h -66.57 l -12.24,-26.524 h -23.99 l 56.87,115.508" /><path
         id="path100"
         style="fill:#ecefe8;fill-opacity:1;fill-rule:nonzero;stroke:none"
         d="m 4213.08,200.375 c 18.44,0 27.8,2.715 27.8,16.375 0,13.508 -9.36,16.223 -27.8,16.223 h -43.54 v -32.598 z m -66.1,51.328 h 69.44 c 27.33,0 47.03,-6.191 47.03,-34.465 0,-21.297 -15.25,-33.054 -32.25,-34.011 l 35.43,-47.032 h -27.81 l -33.52,45.45 h -35.76 v -45.45 h -22.56 v 115.508" /><path
         id="path102"
         style="fill:#ecefe8;fill-opacity:1;fill-rule:nonzero;stroke:none"
         d="m 4387.88,216.586 c -3.66,10.34 -13.03,19.238 -40.52,19.238 -15.25,0 -30.66,-3.82 -30.66,-14.465 0,-4.91 2.86,-10.164 25.9,-13.015 l 27.34,-4.133 c 25.89,-3.984 41.15,-14.004 41.15,-33.387 0,-27.316 -26.08,-37.48 -56.9,-37.48 -49.57,0 -61.64,24.461 -64.34,33.191 l 21.76,6.836 c 4.15,-8.418 12.72,-20.652 43.23,-20.652 18.43,0 33.68,6.043 33.68,16.043 0,7.492 -8.58,12.402 -25.12,14.465 l -27.63,3.816 c -26.69,3.645 -41.63,15.254 -41.63,32.871 0,34.668 44.96,34.668 53.86,34.668 49.73,0 58.31,-23.055 61.16,-30.996 l -21.28,-7" /></g></g></svg>