<svg xmlns="http://www.w3.org/2000/svg" viewBox="0 0 312.05 11.28"><defs><style>.cls-1{fill:#ebece8;}.cls-2{fill:none;stroke:#ebece8;stroke-miterlimit:10;}.cls-3{fill:#e6e7e8;}</style></defs><title>semi-dry scale</title><g id="Layer_2" data-name="Layer 2"><g id="Layer_1-2" data-name="Layer 1"><path class="cls-1" d="M0,1.65H3c2,0,3.52.82,3.52,3.05S5.07,7.83,3,7.83H0ZM2.43,6.79c2.06,0,2.86-.63,2.86-2.07s-.83-2-2.86-2H1.21v4.1Z"/><path class="cls-1" d="M8.41,1.65h3.71c1.46,0,2.52.33,2.52,1.84a1.75,1.75,0,0,1-1.73,1.82l1.9,2.52H13.32L11.53,5.4H9.61V7.83H8.41ZM11.94,4.4c1,0,1.49-.14,1.49-.88s-.5-.87-1.49-.87H9.61V4.4Z"/><path class="cls-1" d="M19.25,5.36l-3-3.71h1.48l2.14,2.62L22,1.65h1.49l-3,3.71V7.83H19.25Z"/><path class="cls-1" d="M278.33,3.53c-.2-.55-.7-1-2.17-1-.82,0-1.64.2-1.64.77,0,.26.15.54,1.38.7l1.46.22c1.39.21,2.2.75,2.2,1.78,0,1.46-1.39,2-3,2-2.65,0-3.3-1.31-3.44-1.78l1.16-.37c.22.45.68,1.11,2.31,1.11,1,0,1.8-.32,1.8-.86s-.46-.66-1.34-.77l-1.48-.2c-1.43-.2-2.23-.82-2.23-1.76,0-1.85,2.41-1.85,2.88-1.85,2.66,0,3.12,1.23,3.27,1.66Z"/><path class="cls-1" d="M280.88,1.65h1.21l1.19,4.25h0l1.18-4.25h1.16l1.2,4.24h0L288,1.65h1.18l-1.8,6.18h-1.16l-1.17-4.39h0l-1.18,4.39H282.7Z"/><path class="cls-1" d="M291,1.65h5.54v1h-4.33V4.12h3.73v1h-3.73V6.79h4.44v1H291Z"/><path class="cls-1" d="M298.42,1.65H304v1h-4.33V4.12h3.73v1h-3.73V6.79h4.44v1h-5.64Z"/><path class="cls-1" d="M308.08,2.69h-2.76v-1h6.73v1h-2.76V7.83h-1.21Z"/><line class="cls-2" x1="34.55" y1="5.21" x2="262.79" y2="5.21"/><path class="cls-2" d="M262.79,7.21"/><path class="cls-2" d="M262.79,3.21"/><path class="cls-2" d="M34.55,7.21"/><circle class="cls-3" cx="89.57" cy="5.64" r="5.64"/></g></g></svg>