<?xml version="1.0" encoding="UTF-8" standalone="no"?>
<svg
   xmlns:dc="http://purl.org/dc/elements/1.1/"
   xmlns:cc="http://creativecommons.org/ns#"
   xmlns:rdf="http://www.w3.org/1999/02/22-rdf-syntax-ns#"
   xmlns:svg="http://www.w3.org/2000/svg"
   xmlns="http://www.w3.org/2000/svg"
   viewBox="0 0 640.4267 135.72"
   height="135.72"
   width="640.4267"
   xml:space="preserve"
   id="svg2"
   version="1.1"><metadata
     id="metadata8"><rdf:RDF><cc:Work
         rdf:about=""><dc:format>image/svg+xml</dc:format><dc:type
           rdf:resource="http://purl.org/dc/dcmitype/StillImage" /></cc:Work></rdf:RDF></metadata><defs
     id="defs6"><clipPath
       id="clipPath20"
       clipPathUnits="userSpaceOnUse"><path
         id="path18"
         d="M 0,0 H 4803 V 1017.93 H 0 Z" /></clipPath></defs><g
     transform="matrix(1.3333333,0,0,-1.3333333,0,135.72)"
     id="g10"><g
       transform="scale(0.1)"
       id="g12"><g
         id="g14"><g
           clip-path="url(#clipPath20)"
           id="g16"><path
             id="path22"
             style="fill:#ecefe8;fill-opacity:1;fill-rule:nonzero;stroke:none"
             d="m 644.926,829.188 c -1.344,0 -23.09,-9.336 -41.735,-13.758 -19.535,-4.883 -41.277,-9.332 -61.699,-12.887 -4.883,-2.227 -5.332,-12.863 -0.879,-15.523 l 19.965,-2.223 c 9.324,-0.899 14.656,-4.453 14.207,-11.098 0,-5.347 -1.328,-11.097 -7.988,-31.961 L 522.406,601.918 C 511.758,568.16 508.652,564.18 484.676,560.621 l -15.531,-2.195 c -4.887,-2.692 -6.215,-11.563 -1.332,-15.547 20.417,0.894 42.167,1.328 66.136,1.328 27.516,0 52.383,-0.434 74.574,-1.328 5.321,1.762 6.653,13.32 2.211,15.547 l -16.414,2.195 c -22.191,3.121 -25.297,7.539 -14.648,41.297 l 53.707,169.555 c 5.766,17.746 13.309,38.609 18.641,51.5 -0.45,3.09 -3.106,6.215 -7.094,6.215" /><path
             id="path24"
             style="fill:#ecefe8;fill-opacity:1;fill-rule:nonzero;stroke:none"
             d="m 784.738,620.559 26.633,18.64 c 43.512,30.168 98.102,63.922 98.102,116.727 0,46.617 -35.071,72.363 -80.344,72.363 -43.941,0 -82.996,-24.851 -104.762,-66.152 -0.429,-5.746 7.996,-10.199 13.778,-8.871 14.632,24.422 40.832,40.836 59.921,40.836 30.618,0 46.602,-15.985 46.602,-47.918 0,-43.52 -65.691,-98.114 -102.969,-127.414 -46.617,-36.387 -63.047,-50.61 -87.008,-65.692 -1.777,-3.555 -0.894,-7.976 1.778,-10.199 12.426,0.43 31.953,1.328 54.144,1.328 h 73.684 c 29.301,0 47.496,-0.434 64.805,-1.328 10.218,8.871 26.644,41.73 34.187,63.027 -1.777,6.645 -11.098,9.336 -15.098,6.215 -15.98,-19.969 -20.851,-23.523 -50.605,-23.523 h -51.484 c -11.547,0 -13.754,2.226 -13.754,4.882 0,3.09 7.539,9.77 32.39,27.079" /><path
             id="path26"
             style="fill:#ecefe8;fill-opacity:1;fill-rule:nonzero;stroke:none"
             d="m 1013.93,544.207 h 21.04 v 46.5 h 67.09 v 18.063 h -67.09 v 25.054 h 78.06 v 18.063 h -99.1 v -107.68" /><path
             id="path28"
             style="fill:#ecefe8;fill-opacity:1;fill-rule:nonzero;stroke:none"
             d="m 1164.89,651.887 h -21.02 v -107.68 h 99.08 v 18.668 h -78.06 v 89.012" /><path
             id="path30"
             style="fill:#ecefe8;fill-opacity:1;fill-rule:nonzero;stroke:none"
             d="m 1277.93,544.207 h 19.6992 v 21.0391 H 1277.93 Z" /><path
             id="path32"
             style="fill:#ecefe8;fill-opacity:1;fill-rule:nonzero;stroke:none"
             d="m 1399.16,559.609 c -20.14,0 -43.1,8.293 -43.1,38.813 0,25.922 18.51,38.062 43.1,38.062 24.6,0 43.11,-12.14 43.11,-38.062 0,-30.52 -22.96,-38.813 -43.11,-38.813 z m 0,94.934 c -47.39,0 -64.13,-27.824 -64.13,-57.305 0,-22.371 13.18,-55.691 64.13,-55.691 50.96,0 64.13,33.32 64.13,55.691 0,29.481 -16.73,57.305 -64.13,57.305" /><path
             id="path34"
             style="fill:#ecefe8;fill-opacity:1;fill-rule:nonzero;stroke:none"
             d="m 1593.63,640.035 v 11.852 h -102.51 v -18.063 h 71.4 l -75.24,-79.242 v -10.375 h 108.11 v 18.063 h -74.93 l 73.17,77.765" /><path
             id="path36"
             style="fill:#ecefe8;fill-opacity:1;fill-rule:nonzero;stroke:none"
             d="m 1630.54,544.207 h 19.6914 v 21.0391 H 1630.54 Z" /><path
             id="path38"
             style="fill:#ecefe8;fill-opacity:1;fill-rule:nonzero;stroke:none"
             d="M 2083.72,396.996 V 988.34 H 4773.61 V 396.996 Z M 4773.61,29.5938 H 29.5938 V 367.395 H 4773.61 Z M 29.5938,988.34 H 2054.13 V 396.996 H 29.5938 Z M 0,1017.93 V -0.0117188 H 4803.2 V 1017.93 H 0" /><path
             id="path40"
             style="fill:#ecefe8;fill-opacity:1;fill-rule:nonzero;stroke:none"
             d="m 2578.18,538.914 c -61.14,0 -90.6,37.395 -90.6,90.598 0,52.773 32.97,122.265 98.07,167.136 45.3,31.211 109.51,51.457 158.76,53.2 5.28,-1.313 6.16,-11.879 2.64,-14.946 -53.21,-9.25 -87.95,-28.144 -124.02,-58.925 -45.3,-39.149 -76.52,-106.438 -76.52,-163.192 0,-22.844 2.63,-53.656 30.34,-53.656 38.26,0 53.65,59.387 53.65,85.328 0,16.723 -2.63,41.348 -24.18,45.758 -5.28,1.316 -10.56,1.316 -18.91,0.43 -3.52,1.746 -4.84,9.246 -1.31,11.882 11.86,8.789 26.38,16.696 43.96,16.696 37.39,0 62.46,-26.832 62.46,-67.289 0,-65.09 -52.34,-113.02 -114.34,-113.02" /><path
             id="path42"
             style="fill:#ecefe8;fill-opacity:1;fill-rule:nonzero;stroke:none"
             d="m 2770.81,578.484 c 0,-21.992 -15.84,-39.57 -37.38,-39.57 -17.16,0 -30.35,11.426 -30.35,30.781 0,20.672 15.39,41.348 38.26,41.348 17.59,0 29.47,-12.313 29.47,-32.559" /><path
             id="path44"
             style="fill:#ecefe8;fill-opacity:1;fill-rule:nonzero;stroke:none"
             d="m 2955.96,589.051 c 29.47,0 34.3,3.519 50.14,23.304 3.96,3.067 13.19,0.43 14.96,-6.152 -7.47,-21.101 -23.75,-53.66 -33.88,-62.449 -17.15,0.887 -35.17,1.316 -64.21,1.316 h -73.01 c -21.98,0 -41.32,-0.886 -53.64,-1.316 -2.64,2.199 -3.52,6.586 -1.76,10.105 23.74,14.95 40.01,29.036 86.21,65.086 36.93,29.035 102.02,83.125 102.02,126.25 0,31.641 -15.83,47.469 -46.18,47.469 -18.91,0 -44.87,-16.258 -59.37,-40.461 -5.72,-1.312 -14.07,3.098 -13.64,8.797 21.56,40.918 60.26,65.543 103.8,65.543 44.85,0 79.6,-25.516 79.6,-71.699 0,-52.317 -54.09,-85.758 -97.2,-115.656 l -26.39,-18.465 c -24.62,-17.157 -32.1,-23.766 -32.1,-26.832 0,-2.633 2.2,-4.84 13.64,-4.84 h 51.01" /><path
             id="path46"
             style="fill:#ecefe8;fill-opacity:1;fill-rule:nonzero;stroke:none"
             d="m 3319.68,555.633 c 11.44,0 21.99,12.316 29.02,25.058 11.44,21.106 26.83,65.082 26.83,88.395 0,13.629 -4.84,23.766 -17.16,23.766 -10.54,0 -21.1,-10.567 -28.57,-23.766 -13.64,-22.852 -27.28,-62.453 -27.28,-87.512 0,-13.625 4.4,-25.941 17.16,-25.941 z m 94.56,92.347 c 0,-46.613 -35.63,-109.066 -94.56,-109.066 -38.26,0 -57.17,24.195 -57.17,58.496 0,51.887 39.57,112.133 94.1,112.133 38.28,0 57.63,-23.738 57.63,-61.563 z M 3151.67,527.488 c -8.35,-1.777 -15.82,3.063 -17.58,10.539 l 218.58,294.672 c 6.59,0.883 16.7,-3.066 17.59,-10.566 z m -2.63,145.117 c 11.43,0 21.99,12.309 29.03,25.083 11.43,21.105 26.82,65.085 26.82,88.394 0,13.629 -4.83,23.734 -17.15,23.734 -10.56,0 -21.11,-10.535 -28.59,-23.734 -13.64,-22.883 -27.27,-62.449 -27.27,-87.535 0,-13.633 4.4,-25.942 17.16,-25.942 z m 94.56,92.375 c 0,-46.617 -35.64,-109.07 -94.56,-109.07 -38.26,0 -57.17,24.164 -57.17,58.473 0,51.914 39.57,112.16 94.12,112.16 38.25,0 57.61,-23.742 57.61,-61.563" /><path
             id="path48"
             style="fill:#ecefe8;fill-opacity:1;fill-rule:nonzero;stroke:none"
             d="m 3615.17,587.473 -22.31,47.562 -22.31,-47.562 z m -34.19,64.289 h 23.76 l 51.8,-106.692 h -22.01 l -11.15,24.508 h -61.49 L 3550.6,545.07 h -22.17 l 52.55,106.692" /><path
             id="path50"
             style="fill:#ecefe8;fill-opacity:1;fill-rule:nonzero;stroke:none"
             d="m 3684.86,651.762 h 20.85 v -88.196 h 77.34 V 545.07 h -98.19 v 106.692" /><path
             id="path52"
             style="fill:#ecefe8;fill-opacity:1;fill-rule:nonzero;stroke:none"
             d="m 3925.7,583.066 c -2.04,-11.882 -10.57,-40.632 -59.57,-40.632 -33.74,0 -60.32,18.785 -60.32,57.671 0,31.094 19.53,54.29 61.94,54.29 47.68,0 54.72,-30.954 56.35,-36.68 h -20.84 c -1.19,3.664 -9.4,18.781 -34.34,18.781 -29.49,0 -41.84,-16.574 -41.84,-38.738 0,-24.512 17.77,-37.43 40.67,-37.43 24.34,0 35.08,14.52 37.12,22.738 h 20.83" /><path
             id="path54"
             style="fill:#ecefe8;fill-opacity:1;fill-rule:nonzero;stroke:none"
             d="m 3975.45,654.395 h 15.56 l -33.76,-111.961 h -15.55 l 33.75,111.961" /><path
             id="path56"
             style="fill:#ecefe8;fill-opacity:1;fill-rule:nonzero;stroke:none"
             d="m 4003.87,651.762 h 22.31 l 40.05,-85.133 40.8,85.133 h 22.31 L 4077.1,545.07 h -21.72 l -51.51,106.692" /><path
             id="path58"
             style="fill:#ecefe8;fill-opacity:1;fill-rule:nonzero;stroke:none"
             d="m 4255.71,598.785 c 0,25.688 -18.36,37.711 -42.71,37.711 -24.35,0 -42.71,-12.023 -42.71,-37.711 0,-30.238 22.75,-38.457 42.71,-38.457 19.95,0 42.71,8.219 42.71,38.457 z m -42.71,55.61 c 46.95,0 63.54,-27.575 63.54,-56.786 0,-22.156 -13.06,-55.175 -63.54,-55.175 -50.49,0 -63.54,33.019 -63.54,55.175 0,29.211 16.58,56.786 63.54,56.786" /><path
             id="path60"
             style="fill:#ecefe8;fill-opacity:1;fill-rule:nonzero;stroke:none"
             d="m 4309.4,651.762 h 20.84 v -88.196 h 77.34 V 545.07 h -98.18 v 106.692" /><path
             id="path62"
             style="fill:#ecefe8;fill-opacity:1;fill-rule:nonzero;stroke:none"
             d="m 248.602,235.141 h 17.554 l 17.309,-61.817 h 0.254 l 17.179,61.817 h 16.817 l 17.445,-61.68 h 0.238 l 17.196,61.68 h 17.183 l -26.211,-89.883 h -16.812 l -17.074,63.816 h -0.242 L 292.25,145.258 h -17.191 l -26.457,89.883" /><path
             id="path64"
             style="fill:#ecefe8;fill-opacity:1;fill-rule:nonzero;stroke:none"
             d="m 391.469,145.258 h 17.5469 v 89.8828 H 391.469 Z" /><path
             id="path66"
             style="fill:#ecefe8;fill-opacity:1;fill-rule:nonzero;stroke:none"
             d="m 470.898,220.063 h -40.179 v 15.078 h 97.926 v -15.078 h -40.184 v -74.805 h -17.563 v 74.805" /><path
             id="path68"
             style="fill:#ecefe8;fill-opacity:1;fill-rule:nonzero;stroke:none"
             d="m 549.301,235.141 h 17.562 v -35.606 h 60.344 v 35.606 h 17.563 v -89.883 h -17.563 v 38.711 h -60.344 v -38.711 h -17.562 v 89.883" /><path
             id="path70"
             style="fill:#ecefe8;fill-opacity:1;fill-rule:nonzero;stroke:none"
             d="m 809.426,190.52 c 0,21.632 -15.465,31.757 -35.985,31.757 -20.523,0 -35.988,-10.125 -35.988,-31.757 0,-25.477 19.172,-32.403 35.988,-32.403 16.817,0 35.985,6.926 35.985,32.403 z m -35.985,46.867 c 39.567,0 53.536,-23.262 53.536,-47.864 0,-18.679 -11,-46.484 -53.536,-46.484 -42.535,0 -53.539,27.805 -53.539,46.484 0,24.602 13.969,47.864 53.539,47.864" /><path
             id="path72"
             style="fill:#ecefe8;fill-opacity:1;fill-rule:nonzero;stroke:none"
             d="m 901.453,195.219 c 14.332,0 21.633,2.09 21.633,12.734 0,10.508 -7.301,12.617 -21.633,12.617 h -33.887 v -25.351 z m -51.441,39.922 h 54.035 c 21.269,0 36.601,-4.817 36.601,-26.817 0,-16.574 -11.871,-25.722 -25.101,-26.465 l 27.578,-36.601 h -21.648 l -26.086,35.371 h -27.825 v -35.371 h -17.554 v 89.883" /><path
             id="path74"
             style="fill:#ecefe8;fill-opacity:1;fill-rule:nonzero;stroke:none"
             d="M 1030.94,181 1012.15,221.047 993.352,181 Z m -28.81,54.141 h 20.03 l 43.64,-89.883 h -18.54 l -9.4,20.644 h -51.805 l -9.52,-20.644 h -18.676 l 44.271,89.883" /><path
             id="path76"
             style="fill:#ecefe8;fill-opacity:1;fill-rule:nonzero;stroke:none"
             d="m 1085,235.141 h 18.55 l 60.09,-64.914 v 64.914 h 16.81 v -89.883 h -16.07 l -62.56,67.265 V 145.258 H 1085 v 89.883" /><path
             id="path78"
             style="fill:#ecefe8;fill-opacity:1;fill-rule:nonzero;stroke:none"
             d="M 1302.03,191.371 V 144.27 h -10.63 l -3.45,9.277 c -6.81,-4.461 -16.2,-10.508 -33.63,-10.508 -23.01,0 -50.83,11.25 -50.83,46.973 0,23.984 14.46,47.375 50.32,47.375 20.65,0 43.28,-7.676 47.61,-30.293 h -17.93 c -2.1,4.57 -6.93,15.183 -27.57,15.183 -28.2,0 -34.88,-19.031 -34.88,-31.523 0,-21.25 14.34,-32.156 33.39,-32.156 17.32,0 26.96,6.074 31.16,18.691 h -31.53 v 14.082 h 47.97" /><path
             id="path80"
             style="fill:#ecefe8;fill-opacity:1;fill-rule:nonzero;stroke:none"
             d="m 1326.79,235.141 h 80.61 v -15.078 h -63.06 v -20.879 h 54.29 v -15.11 h -54.29 v -23.738 h 64.55 v -15.078 h -82.1 v 89.883" /><path
             id="path82"
             style="fill:#ecefe8;fill-opacity:1;fill-rule:nonzero;stroke:none"
             d="m 1497.99,213.383 h -0.26 v -68.125 h -15.57 v 89.883 h 23.61 l 28.07,-66.653 28.57,66.653 h 23.11 v -89.883 h -15.57 v 68.125 h -0.26 l -28.81,-68.125 h -13.97 l -28.92,68.125" /><path
             id="path84"
             style="fill:#ecefe8;fill-opacity:1;fill-rule:nonzero;stroke:none"
             d="m 1709.34,183.832 c 0,-28.926 -18.43,-40.793 -47.73,-40.793 -29.3,0 -47.73,11.867 -47.73,40.793 v 51.309 h 17.56 v -50.078 c 0,-14.836 5.32,-26.946 30.17,-26.946 24.85,0 30.17,12.11 30.17,26.946 v 50.078 h 17.56 v -51.309" /><path
             id="path86"
             style="fill:#ecefe8;fill-opacity:1;fill-rule:nonzero;stroke:none"
             d="m 1808.17,207.816 c -2.85,8.047 -10.15,14.969 -31.54,14.969 -11.87,0 -23.86,-2.969 -23.86,-11.25 0,-3.828 2.23,-7.918 20.16,-10.137 l 21.27,-3.23 c 20.15,-3.078 32.02,-10.859 32.02,-25.957 0,-21.262 -20.28,-29.172 -44.27,-29.172 -38.58,0 -47.97,19.035 -50.07,25.82 l 16.94,5.325 c 3.21,-6.555 9.88,-16.067 33.63,-16.067 14.34,0 26.21,4.699 26.21,12.481 0,5.812 -6.68,9.648 -19.54,11.261 l -21.51,2.969 c -20.78,2.832 -32.39,11.863 -32.39,25.586 0,26.973 34.98,26.973 41.91,26.973 38.7,0 45.38,-17.942 47.6,-24.121 l -16.56,-5.45" /><path
             id="path88"
             style="fill:#ecefe8;fill-opacity:1;fill-rule:nonzero;stroke:none"
             d="m 1943.22,177.289 c -1.74,-10.031 -8.91,-34.25 -50.21,-34.25 -28.45,0 -50.82,15.82 -50.82,48.574 0,26.231 16.44,45.774 52.18,45.774 40.18,0 46.12,-26.094 47.48,-30.93 h -17.56 c -0.99,3.098 -7.91,15.82 -28.93,15.82 -24.86,0 -35.24,-13.953 -35.24,-32.636 0,-20.645 14.96,-31.524 34.25,-31.524 20.52,0 29.54,12.246 31.28,19.172 h 17.57" /><path
             id="path90"
             style="fill:#ecefe8;fill-opacity:1;fill-rule:nonzero;stroke:none"
             d="m 2029.66,181 -18.8,40.047 L 1992.07,181 Z m -28.81,54.141 h 20.03 l 43.65,-89.883 h -18.55 l -9.39,20.644 h -51.82 l -9.52,-20.644 h -18.67 l 44.27,89.883" /><path
             id="path92"
             style="fill:#ecefe8;fill-opacity:1;fill-rule:nonzero;stroke:none"
             d="m 2099.77,220.063 h -40.18 v 15.078 h 97.93 v -15.078 h -40.18 v -74.805 h -17.57 v 74.805" /><path
             id="path94"
             style="fill:#ecefe8;fill-opacity:1;fill-rule:nonzero;stroke:none"
             d="m 2271.1,203.996 c 5.94,1.973 11.99,5.93 11.99,12.727 0,6.679 -4.94,10.507 -11.74,10.507 -6.8,0 -11.37,-4.074 -11.37,-10.878 0,-4.2 3.33,-8.164 5.94,-11.125 l 2.21,-2.09 z m -10.26,-46.367 c 7.29,0 13.72,1.848 20.53,4.309 l 3.96,1.738 -3.96,3.34 c -5.2,4.336 -11.01,10.027 -17.44,16.953 l -3.34,3.691 -3.46,-1.23 c -6.92,-2.219 -16.94,-6.309 -16.94,-15.078 0,-10.645 12.12,-13.723 20.65,-13.723 z m 69.12,-14.59 c -14.22,0 -26.22,6.172 -32.15,10.637 l -4.2,-2.727 c -11.38,-5.691 -20.15,-7.91 -33.02,-7.91 -22.37,0 -37.58,9.895 -37.58,27.941 0,14.344 12.48,23.739 24.85,27.45 l 3.83,1.105 -2.11,2.852 c -3.58,4.812 -4.69,9.765 -4.69,13.965 0,13.972 12.86,21.035 25.84,21.035 13.73,0 27.45,-6.203 27.45,-21.418 0,-13.582 -10.38,-20.262 -19.16,-23.477 l -1.36,-0.496 1.11,-1.105 c 5.43,-5.567 11.37,-11.493 17.06,-16.2 l 2.85,-2.355 1.11,0.859 c 6.8,5.325 12.86,13.743 16.44,19.543 l 0.99,1.602 13.73,-7.16 -0.99,-1.61 c -4.45,-7.297 -9.4,-13.605 -15.58,-19.785 l -2.96,-2.726 c 5.06,-3.711 12.72,-4.942 18.42,-4.942 h 3.21 v -15.078 h -3.09" /><path
             id="path96"
             style="fill:#ecefe8;fill-opacity:1;fill-rule:nonzero;stroke:none"
             d="m 2458.15,195.219 c 14.35,0 21.64,2.09 21.64,12.734 0,10.508 -7.29,12.617 -21.64,12.617 h -33.88 v -25.351 z m -51.44,39.922 h 54.05 c 21.27,0 36.6,-4.817 36.6,-26.817 0,-16.574 -11.88,-25.722 -25.11,-26.465 l 27.58,-36.601 h -21.64 l -26.1,35.371 h -27.82 v -35.371 h -17.56 v 89.883" /><path
             id="path98"
             style="fill:#ecefe8;fill-opacity:1;fill-rule:nonzero;stroke:none"
             d="m 2619.65,183.832 c 0,-28.926 -18.42,-40.793 -47.72,-40.793 -29.3,0 -47.73,11.867 -47.73,40.793 v 51.309 h 17.56 v -50.078 c 0,-14.836 5.31,-26.946 30.17,-26.946 24.85,0 30.17,12.11 30.17,26.946 v 50.078 h 17.55 v -51.309" /><path
             id="path100"
             style="fill:#ecefe8;fill-opacity:1;fill-rule:nonzero;stroke:none"
             d="m 2704.26,159.855 c 11.13,0 19.54,2.219 19.54,12.852 0,9.395 -7.66,12.356 -19.54,12.356 h -38.2 v -25.208 z m -0.5,39.805 c 11.52,0 16.59,2.832 16.59,10.383 0,7.664 -5.07,10.527 -16.59,10.527 h -37.7 v -20.91 z m -55.27,35.481 h 54.17 c 21.14,0 35.23,-5.938 35.23,-22.989 0,-11.367 -5.55,-15.586 -10.38,-18.664 6.31,-2.734 13.85,-10.398 13.85,-22.136 0,-16.954 -13.48,-26.094 -35.36,-26.094 h -57.51 v 89.883" /><path
             id="path102"
             style="fill:#ecefe8;fill-opacity:1;fill-rule:nonzero;stroke:none"
             d="m 2801.48,181.242 -43.89,53.899 h 21.52 l 31.15,-38.078 31.04,38.078 h 21.63 l -43.88,-53.899 v -35.984 h -17.57 v 35.984" /><path
             id="path104"
             style="fill:#ecefe8;fill-opacity:1;fill-rule:nonzero;stroke:none"
             d="m 3029.95,177.289 c -1.73,-10.031 -8.9,-34.25 -50.21,-34.25 -28.44,0 -50.82,15.82 -50.82,48.574 0,26.231 16.44,45.774 52.19,45.774 40.18,0 46.12,-26.094 47.48,-30.93 h -17.56 c -1,3.098 -7.92,15.82 -28.94,15.82 -24.86,0 -35.23,-13.953 -35.23,-32.636 0,-20.645 14.96,-31.524 34.25,-31.524 20.51,0 29.54,12.246 31.28,19.172 h 17.56" /><path
             id="path106"
             style="fill:#ecefe8;fill-opacity:1;fill-rule:nonzero;stroke:none"
             d="m 3116.41,181 -18.8,40.047 L 3078.82,181 Z m -28.82,54.141 h 20.04 l 43.64,-89.883 h -18.54 l -9.4,20.644 h -51.81 l -9.51,-20.644 h -18.69 l 44.27,89.883" /><path
             id="path108"
             style="fill:#ecefe8;fill-opacity:1;fill-rule:nonzero;stroke:none"
             d="m 3226.23,159.855 c 11.14,0 19.55,2.219 19.55,12.852 0,9.395 -7.68,12.356 -19.55,12.356 h -38.21 v -25.208 z m -0.49,39.805 c 11.5,0 16.57,2.832 16.57,10.383 0,7.664 -5.07,10.527 -16.57,10.527 h -37.72 v -20.91 z m -55.28,35.481 h 54.16 c 21.16,0 35.25,-5.938 35.25,-22.989 0,-11.367 -5.57,-15.586 -10.39,-18.664 6.3,-2.734 13.84,-10.398 13.84,-22.136 0,-16.954 -13.47,-26.094 -35.35,-26.094 h -57.51 v 89.883" /><path
             id="path110"
             style="fill:#ecefe8;fill-opacity:1;fill-rule:nonzero;stroke:none"
             d="m 3287.95,235.141 h 80.62 v -15.078 h -63.06 v -20.879 h 54.29 v -15.11 h -54.29 v -23.738 h 64.55 v -15.078 h -82.11 v 89.883" /><path
             id="path112"
             style="fill:#ecefe8;fill-opacity:1;fill-rule:nonzero;stroke:none"
             d="m 3443.13,195.219 c 14.35,0 21.64,2.09 21.64,12.734 0,10.508 -7.29,12.617 -21.64,12.617 h -33.88 v -25.351 z m -51.44,39.922 h 54.05 c 21.27,0 36.6,-4.817 36.6,-26.817 0,-16.574 -11.88,-25.722 -25.11,-26.465 l 27.58,-36.601 h -21.64 l -26.1,35.371 h -27.82 v -35.371 h -17.56 v 89.883" /><path
             id="path114"
             style="fill:#ecefe8;fill-opacity:1;fill-rule:nonzero;stroke:none"
             d="m 3509.18,235.141 h 18.56 l 60.1,-64.914 v 64.914 h 16.81 v -89.883 h -16.07 L 3526,212.523 v -67.265 h -16.82 v 89.883" /><path
             id="path116"
             style="fill:#ecefe8;fill-opacity:1;fill-rule:nonzero;stroke:none"
             d="m 3633.5,235.141 h 80.61 v -15.078 h -63.06 v -20.879 h 54.29 v -15.11 h -54.29 v -23.738 h 64.55 v -15.078 h -82.1 v 89.883" /><path
             id="path118"
             style="fill:#ecefe8;fill-opacity:1;fill-rule:nonzero;stroke:none"
             d="m 3769.26,220.063 h -40.18 v 15.078 h 97.93 v -15.078 h -40.19 v -74.805 h -17.56 v 74.805" /><path
             id="path120"
             style="fill:#ecefe8;fill-opacity:1;fill-rule:nonzero;stroke:none"
             d="M 3992.51,191.371 V 144.27 h -10.64 l -3.45,9.277 c -6.81,-4.461 -16.2,-10.508 -33.63,-10.508 -23.01,0 -50.82,11.25 -50.82,46.973 0,23.984 14.46,47.375 50.31,47.375 20.66,0 43.28,-7.676 47.62,-30.293 h -17.94 c -2.1,4.57 -6.93,15.183 -27.57,15.183 -28.19,0 -34.87,-19.031 -34.87,-31.523 0,-21.25 14.34,-32.156 33.39,-32.156 17.31,0 26.95,6.074 31.16,18.691 h -31.54 v 14.082 h 47.98" /><path
             id="path122"
             style="fill:#ecefe8;fill-opacity:1;fill-rule:nonzero;stroke:none"
             d="m 4068.7,195.219 c 14.35,0 21.65,2.09 21.65,12.734 0,10.508 -7.3,12.617 -21.65,12.617 h -33.87 v -25.351 z m -51.44,39.922 h 54.04 c 21.27,0 36.6,-4.817 36.6,-26.817 0,-16.574 -11.86,-25.722 -25.09,-26.465 l 27.56,-36.601 h -21.64 l -26.09,35.371 h -27.81 v -35.371 h -17.57 v 89.883" /><path
             id="path124"
             style="fill:#ecefe8;fill-opacity:1;fill-rule:nonzero;stroke:none"
             d="m 4198.2,181 -18.79,40.047 -18.8,-40.047 z m -28.82,54.141 h 20.04 l 43.64,-89.883 h -18.54 l -9.4,20.644 h -51.81 l -9.52,-20.644 h -18.67 l 44.26,89.883" /><path
             id="path126"
             style="fill:#ecefe8;fill-opacity:1;fill-rule:nonzero;stroke:none"
             d="m 4306.18,195.219 c 10.01,0 18.79,0.859 18.79,12.488 0,11.496 -8.78,12.356 -18.79,12.356 h -36.36 v -24.844 z m -53.93,39.922 h 50.09 c 15.2,0 40.18,0 40.18,-27.571 0,-27.449 -24.98,-27.449 -40.18,-27.449 h -32.52 v -34.863 h -17.57 v 89.883" /><path
             id="path128"
             style="fill:#ecefe8;fill-opacity:1;fill-rule:nonzero;stroke:none"
             d="m 4362.83,235.141 h 80.6 v -15.078 h -63.06 v -20.879 h 54.29 v -15.11 h -54.29 v -23.738 h 64.56 v -15.078 h -82.1 v 89.883" /><path
             id="path130"
             style="fill:#ecefe8;fill-opacity:1;fill-rule:nonzero;stroke:none"
             d="m 4536.55,207.816 c -2.85,8.047 -10.13,14.969 -31.54,14.969 -11.86,0 -23.85,-2.969 -23.85,-11.25 0,-3.828 2.21,-7.918 20.15,-10.137 l 21.27,-3.23 c 20.15,-3.078 32.01,-10.859 32.01,-25.957 0,-21.262 -20.26,-29.172 -44.25,-29.172 -38.59,0 -47.98,19.035 -50.08,25.82 l 16.94,5.325 c 3.2,-6.555 9.89,-16.067 33.63,-16.067 14.34,0 26.21,4.699 26.21,12.481 0,5.812 -6.67,9.648 -19.53,11.261 l -21.52,2.969 c -20.77,2.832 -32.4,11.863 -32.4,25.586 0,26.973 35,26.973 41.92,26.973 38.71,0 45.38,-17.942 47.61,-24.121 l -16.57,-5.45" /></g></g></g></g></svg>