<svg xmlns="http://www.w3.org/2000/svg" width="474" height="96.26" viewBox="0 0 474 96.26">
  <defs>
    <style>
      .cls-1 {
        fill: #ebece8;
      }

      .cls-2 {
        fill: none;
        stroke: #ebebeb;
        stroke-miterlimit: 10;
        stroke-width: 4px;
      }

      .cls-3 {
        fill: #eaece7;
      }

      .cls-4 {
        fill: #ebebeb;
      }
    </style>
  </defs>
  <title>semi-info-640</title>
  <g id="Layer_2" data-name="Layer 2">
    <g id="Layer_1-2" data-name="Layer 1">
      <g>
        <g>
          <path class="cls-1" d="M265.26,42.1V35.73H254.39V33.64L264.83,18.7h3.42V33.25h3.28v2.48h-3.28V42.1Zm0-8.85V25.44q0-1.84.11-3.67h-.11c-.72,1.37-1.3,2.38-1.94,3.46l-5.72,8v.07Z"/>
          <path class="cls-1" d="M274.91,40.23a2.13,2.13,0,0,1,2-2.23h.13a2.27,2.27,0,1,1-2.16,2.38s0-.07,0-.11Z"/>
          <path class="cls-1" d="M298,18.71V20.8L287.83,42.1h-3.28L294.7,21.4v-.07H283.26V18.71Z"/>
          <path class="cls-1" d="M312.56,25.29c0,4.93-2.59,7.38-5.62,7.38s-5.44-2.34-5.47-7.06,2.56-7.31,5.65-7.31C310.4,18.31,312.56,20.83,312.56,25.29Zm-8.57.22c-.07,3,1,5.26,3,5.26s3-2.23,3-5.33c0-2.84-.83-5.22-3-5.22-2,0-3,2.34-3,5.29Zm2.74,17,13.75-24.19h2L308.75,42.5ZM327.79,35c0,4.93-2.59,7.38-5.58,7.38s-5.44-2.34-5.47-7S319.29,28,322.39,28C325.66,28,327.79,30.51,327.79,35Zm-8.57.22c0,3,1.12,5.26,3.06,5.26s3-2.23,3-5.33c0-2.84-.83-5.22-3-5.22-2,0-3.06,2.31-3.06,5.26Z"/>
        </g>
        <g>
          <path class="cls-1" d="M54.85,21.66h-.07l-4.07,2.2-.61-2.41,5.11-2.74h2.7V42.1H54.85Z"/>
          <path class="cls-1" d="M66.44,42.1V40.16l2.48-2.41c6-5.69,8.67-8.71,8.71-12.24,0-2.38-1.15-4.57-4.64-4.57a8,8,0,0,0-5,2l-1-2.23a10.27,10.27,0,0,1,6.62-2.38c5,0,7.16,3.46,7.16,6.8,0,4.32-3.13,7.81-8.06,12.56L70.87,39.4v.07H81.38V42.1Z"/>
        </g>
        <line class="cls-2" x1="217.91" y1="1.37" x2="217.91" y2="55.05"/>
        <g>
          <path class="cls-3" d="M96.2,31.92h9.37v1.71H98.19V36h6.35v1.71H98.19v4.4h-2Z"/>
          <path class="cls-3" d="M107.65,31.92h2v8.42H117V42.1h-9.37Z"/>
          <path class="cls-3" d="M120.33,40.11h1.86v2h-1.86Z"/>
          <path class="cls-3" d="M131.24,31.67c4.48,0,6.07,2.63,6.07,5.42,0,2.12-1.25,5.27-6.07,5.27s-6.06-3.15-6.06-5.27C125.18,34.3,126.76,31.67,131.24,31.67ZM135.32,37c0-2.45-1.75-3.6-4.08-3.6s-4.08,1.15-4.08,3.6c0,2.89,2.17,3.67,4.08,3.67S135.32,39.86,135.32,37Z"/>
          <path class="cls-3" d="M139.3,42.1v-1l7.12-7.49h-6.75V31.92h9.69V33l-6.92,7.35h7.09V42.1Z"/>
          <path class="cls-3" d="M152.29,40.11h1.86v2h-1.86Z"/>
        </g>
        <g>
          <path class="cls-3" d="M60.39,72.64h0v7.72H58.6V70.17h2.68l3.18,7.55,3.24-7.55h2.62V80.36H68.54V72.64h0l-3.26,7.72H63.67Z"/>
          <path class="cls-3" d="M78,70.17h2.27l4.94,10.18h-2.1L82,78H76.15l-1.08,2.34H73Zm3.26,6.14-2.13-4.54L77,76.31Z"/>
          <path class="cls-3" d="M87.9,70.17h4.9c3.22,0,5.8,1.36,5.8,5,0,3.47-2.35,5.15-5.71,5.15h-5Zm4,8.47c3.39,0,4.71-1,4.71-3.42s-1.37-3.35-4.71-3.35h-2v6.77Z"/>
          <path class="cls-3" d="M101.74,70.17h9.13v1.71h-7.14v2.37h6.15V76h-6.15v2.69H111V80.4h-9.3Z"/>
          <path class="cls-3" d="M119.55,70.17h2l2,7h0l1.95-7h1.9l2,7h0l1.95-7h1.95l-3,10.18h-1.9l-1.93-7.23h0l-1.95,7.23h-1.95Z"/>
          <path class="cls-3" d="M136.27,70.17h2V80.36h-2Z"/>
          <path class="cls-3" d="M145.82,71.88h-4.55V70.17h11.09v1.71h-4.55v8.47h-2Z"/>
          <path class="cls-3" d="M155.24,70.17h2v4h6.84v-4h2V80.36h-2V76h-6.84v4.38h-2Z"/>
          <path class="cls-3" d="M176.31,70.17h6.14c2.4,0,4,.67,4,2.61a2.21,2.21,0,0,1-1.18,2.12,2.72,2.72,0,0,1,1.57,2.51c0,1.92-1.53,3-4,3h-6.51Zm6.26,4c1.3,0,1.88-.32,1.88-1.18s-.57-1.19-1.88-1.19H178.3v2.37Zm.06,4.51c1.26,0,2.21-.25,2.21-1.46s-.87-1.4-2.21-1.4H178.3v2.86Z"/>
          <path class="cls-3" d="M190.28,70.17h2V80.36h-2Z"/>
          <path class="cls-3" d="M199.83,71.88h-4.55V70.17h11.09v1.71h-4.55v8.47h-2Z"/>
          <path class="cls-3" d="M212.88,71.88h-4.55V70.17h11.09v1.71h-4.55v8.47h-2Z"/>
          <path class="cls-3" d="M222.3,70.17h9.13v1.71h-7.14v2.37h6.15V76h-6.15v2.69h7.31V80.4h-9.3Z"/>
          <path class="cls-3" d="M234.59,70.17h6.12c2.41,0,4.15.55,4.15,3a2.88,2.88,0,0,1-2.76,3H242l3.12,4.15h-2.45l-3-4h-3.15v4h-2Zm5.83,4.52c1.63,0,2.45-.24,2.45-1.44s-.83-1.43-2.45-1.43h-3.84V74.7Z"/>
          <path class="cls-3" d="M256.36,73.27c-.32-.91-1.15-1.69-3.57-1.69-1.34,0-2.7.34-2.7,1.27,0,.43.25.9,2.28,1.15l2.41.36c2.28.35,3.63,1.23,3.63,2.94,0,2.41-2.3,3.31-5,3.31-4.37,0-5.43-2.16-5.67-2.93l1.92-.6c.36.74,1.12,1.82,3.81,1.82,1.63,0,3-.53,3-1.41,0-.66-.76-1.09-2.21-1.27l-2.44-.34c-2.35-.32-3.67-1.34-3.67-2.9,0-3.05,4-3.05,4.75-3.05,4.38,0,5.14,2,5.39,2.73Z"/>
          <path class="cls-3" d="M260.56,70.17h2l2,7h0l2-7h1.9l2,7h0l2-7h2l-3,10.18h-1.9l-1.93-7.23h0l-2,7.23h-2Z"/>
          <path class="cls-3" d="M277.15,70.17h9.13v1.71h-7.14v2.37h6.15V76h-6.15v2.69h7.31V80.4h-9.3Z"/>
          <path class="cls-3" d="M289.44,70.17h9.13v1.71h-7.14v2.37h6.15V76h-6.15v2.69h7.31V80.4h-9.3Z"/>
          <path class="cls-3" d="M305.36,71.88h-4.55V70.17H311.9v1.71h-4.55v8.47h-2Z"/>
          <path class="cls-3" d="M325.16,70.17h2.27l4.94,10.18h-2.1L329.2,78h-5.87l-1.08,2.34h-2.11Zm3.26,6.14-2.13-4.54-2.13,4.54Z"/>
          <path class="cls-3" d="M335.08,70.17h5.67c1.72,0,4.55,0,4.55,3.12s-2.83,3.11-4.55,3.11h-3.68v4h-2Zm6.11,4.52c1.13,0,2.13-.1,2.13-1.41s-1-1.4-2.13-1.4h-4.12V74.7Z"/>
          <path class="cls-3" d="M348.14,70.17h5.67c1.72,0,4.55,0,4.55,3.12s-2.83,3.11-4.55,3.11h-3.68v4h-2Zm6.11,4.52c1.13,0,2.13-.1,2.13-1.41s-1-1.4-2.13-1.4h-4.12V74.7Z"/>
          <path class="cls-3" d="M361.2,70.17h2v8.42h7.38v1.77H361.2Z"/>
          <path class="cls-3" d="M373.5,70.17h9.13v1.71h-7.14v2.37h6.15V76h-6.15v2.69h7.31V80.4h-9.3Z"/>
          <path class="cls-3" d="M393.72,73.27c-.32-.91-1.15-1.69-3.57-1.69-1.34,0-2.7.34-2.7,1.27,0,.43.25.9,2.28,1.15l2.41.36c2.28.35,3.63,1.23,3.63,2.94,0,2.41-2.3,3.31-5,3.31-4.37,0-5.44-2.16-5.67-2.93l1.92-.6c.36.74,1.12,1.82,3.81,1.82,1.63,0,3-.53,3-1.41,0-.66-.76-1.09-2.21-1.27l-2.44-.34c-2.35-.32-3.67-1.34-3.67-2.9,0-3.05,4-3.05,4.75-3.05,4.38,0,5.14,2,5.39,2.73Z"/>
        </g>
        <g>
          <path class="cls-3" d="M346.86,31.92h2.27l4.94,10.18H352l-1.06-2.34H345l-1,2.34h-2.11Zm3.26,6.14L348,33.52l-2.13,4.54Z"/>
          <path class="cls-3" d="M356.5,31.92h2v8.42h7.38V42.1H356.5Z"/>
          <path class="cls-3" d="M378.93,38.48c-.2,1.13-1,3.88-5.69,3.88-3.22,0-5.76-1.79-5.76-5.5,0-3,1.86-5.18,5.91-5.18,4.55,0,5.22,3,5.38,3.5h-2c-.11-.35-.9-1.79-3.28-1.79-2.82,0-4,1.58-4,3.7,0,2.34,1.7,3.57,3.88,3.57a3.54,3.54,0,0,0,3.54-2.17Z"/>
          <path class="cls-3" d="M383.41,31.67h1.48l-3.22,10.69h-1.48Z"/>
          <path class="cls-3" d="M386.12,31.92h2.13L392.08,40,396,31.92h2.13l-5,10.18H391Z"/>
          <path class="cls-3" d="M404.94,31.67c4.48,0,6.07,2.63,6.07,5.42,0,2.12-1.25,5.27-6.07,5.27s-6.06-3.15-6.06-5.27C398.88,34.3,400.46,31.67,404.94,31.67ZM409,37c0-2.45-1.75-3.6-4.08-3.6s-4.08,1.15-4.08,3.6c0,2.89,2.17,3.67,4.08,3.67S409,39.86,409,37Z"/>
          <path class="cls-3" d="M413.59,31.92h2v8.42H423V42.1h-9.37Z"/>
        </g>
        <path class="cls-4" d="M470,4V92.26H4V4H470m4-4H0V96.26H474Z"/>
        <line class="cls-2" x1="0.08" y1="54.9" x2="474" y2="54.9"/>
      </g>
    </g>
  </g>
</svg>
