<svg xmlns="http://www.w3.org/2000/svg" viewBox="0 0 465.93 24">
  <defs>
    <style>
      .cls-1 {
        fill: #eaece7;
      }

      .cls-2 {
        fill: #ebece8;
      }

      .cls-3 {
        fill: none;
        stroke: #ebebeb;
        stroke-miterlimit: 10;
        stroke-width: 4px;
      }
    </style>
  </defs>
  <title>semi-slider-640</title>
  <g id="Layer_2" data-name="Layer 2">
    <g id="Layer_1-2" data-name="Layer 1">
      <g>
        <g>
          <path class="cls-1" d="M8.62,9c-.32-.91-1.15-1.7-3.57-1.7-1.34,0-2.7.34-2.7,1.28,0,.43.25.9,2.28,1.15L7,10.06c2.28.35,3.63,1.23,3.63,2.94,0,2.41-2.3,3.31-5,3.31C1.3,16.31.24,14.15,0,13.38l1.92-.6c.36.74,1.12,1.82,3.81,1.82,1.63,0,3-.53,3-1.42,0-.66-.76-1.09-2.21-1.27l-2.44-.34C1.73,11.25.41,10.23.41,8.67c0-3,4-3,4.75-3,4.38,0,5.14,2,5.39,2.73Z"/>
          <path class="cls-1" d="M12.81,5.87h2l2,7h0l2-7h1.9l2,7h0l2-7h2L23.56,16h-1.9L19.73,8.82h0l-2,7.23h-2Z"/>
          <path class="cls-1" d="M29.43,5.87h9.1V7.58h-7.1V9.95h6.15v1.71H31.43v2.69h7.31v1.71H29.43Z"/>
          <path class="cls-1" d="M41.69,5.87h9.14V7.58H43.68V9.95h6.15v1.71H43.68v2.69H51v1.71h-9.3Z"/>
          <path class="cls-1" d="M57.61,7.58H53.06V5.87h11.1V7.58H59.6v8.47h-2Z"/>
        </g>
        <g>
          <path class="cls-1" d="M427.29,5.87h4.9c3.22,0,5.8,1.36,5.8,5,0,3.47-2.35,5.16-5.71,5.16h-5Zm4,8.47c3.39,0,4.71-1,4.71-3.42s-1.37-3.35-4.71-3.35h-2v6.77Z"/>
          <path class="cls-1" d="M441.13,5.87h6.12c2.41,0,4.15.55,4.15,3a2.88,2.88,0,0,1-2.76,3h-.08L451.68,16h-2.45l-3-4h-3.15v4h-2ZM447,10.39c1.63,0,2.45-.24,2.45-1.44s-.83-1.43-2.45-1.43h-3.84v2.89Z"/>
          <path class="cls-1" d="M459,12l-5-6.11h2.43L460,10.18l3.52-4.31h2.45l-5,6.11v4.08h-2Z"/>
        </g>
        <circle class="cls-2" cx="128.79" cy="12" r="12"/>
        <line class="cls-3" x1="75.6" y1="12" x2="414.07" y2="12"/>
      </g>
    </g>
  </g>
</svg>
