<svg xmlns="http://www.w3.org/2000/svg" viewBox="0 0 480.32 101.79"><defs><style>.cls-1{fill:#eaece7;}.cls-2{fill:#e9ebe6;}</style></defs><title>semi-dry cider card</title><g id="Layer_2" data-name="Layer 2"><g id="Layer_1-2" data-name="Layer 1"><path class="cls-1" d="M64.49,18.87c-.13,0-2.31.93-4.17,1.38s-4.13.93-6.17,1.29a1,1,0,0,0-.09,1.55l2,.22c.93.09,1.47.45,1.42,1.11a11.54,11.54,0,0,1-.8,3.2l-4.44,14c-1.06,3.38-1.38,3.77-3.77,4.13L46.91,46a1,1,0,0,0-.13,1.55c2-.09,4.22-.13,6.61-.13q4.13,0,7.46.13c.53-.18.66-1.33.22-1.55l-1.64-.22C57.21,45.42,56.9,45,58,41.6l5.37-17c.58-1.77,1.33-3.86,1.86-5.15A.72.72,0,0,0,64.49,18.87Z"/><path class="cls-1" d="M78.47,39.74l2.66-1.86c4.35-3,9.81-6.39,9.81-11.67,0-4.66-3.51-7.24-8-7.24a11.82,11.82,0,0,0-10.48,6.62c0,.58.8,1,1.38.89,1.46-2.44,4.08-4.08,6-4.08,3.06,0,4.66,1.6,4.66,4.79,0,4.35-6.57,9.81-10.3,12.74-4.66,3.64-6.3,5.06-8.7,6.57a.86.86,0,0,0,.18,1c1.24,0,3.19-.13,5.41-.13h7.37c2.93,0,4.75,0,6.48.13,1-.89,2.66-4.17,3.42-6.3a1.08,1.08,0,0,0-1.51-.62c-1.6,2-2.09,2.35-5.06,2.35H76.61c-1.15,0-1.38-.22-1.38-.49S76,41.47,78.47,39.74Z"/><polygon class="cls-1" points="101.39 47.37 103.5 47.37 103.5 42.72 110.21 42.72 110.21 40.92 103.5 40.92 103.5 38.41 111.3 38.41 111.3 36.6 101.39 36.6 101.39 47.37"/><polygon class="cls-1" points="116.49 36.6 114.39 36.6 114.39 47.37 124.3 47.37 124.3 45.51 116.49 45.51 116.49 36.6"/><rect class="cls-1" x="127.79" y="45.27" width="1.97" height="2.1"/><path class="cls-1" d="M139.92,36.34c-4.74,0-6.41,2.78-6.41,5.73,0,2.24,1.32,5.57,6.41,5.57s6.41-3.33,6.41-5.57C146.33,39.12,144.66,36.34,139.92,36.34Zm0,9.49c-2,0-4.31-.83-4.31-3.88,0-2.59,1.85-3.81,4.31-3.81s4.31,1.21,4.31,3.81C144.23,45,141.93,45.83,139.92,45.83Z"/><polygon class="cls-1" points="159.36 37.79 159.36 36.6 149.11 36.6 149.11 38.41 156.25 38.41 148.73 46.34 148.73 47.37 159.54 47.37 159.54 45.57 152.05 45.57 159.36 37.79"/><rect class="cls-1" x="163.05" y="45.27" width="1.97" height="2.1"/><path class="cls-1" d="M357.65,36.52l-5.3,10.77h2.24l1.14-2.47h6.21l1.13,2.47h2.22L360,36.52ZM356.6,43l2.25-4.8L361.1,43Z"/><polygon class="cls-1" points="370.24 36.52 368.13 36.52 368.13 47.29 378.04 47.29 378.04 45.42 370.24 45.42 370.24 36.52"/><path class="cls-1" d="M386.59,45.75c-2.31,0-4.1-1.3-4.1-3.78,0-2.24,1.25-3.91,4.22-3.91,2.52,0,3.35,1.53,3.47,1.9h2.1c-.16-.58-.87-3.7-5.69-3.7-4.28,0-6.25,2.34-6.25,5.48,0,3.92,2.68,5.82,6.09,5.82,4.95,0,5.81-2.9,6-4.1h-2.1C390.13,44.28,389.05,45.75,386.59,45.75Z"/><polygon class="cls-1" points="394.06 47.55 395.63 47.55 399.03 36.26 397.46 36.26 394.06 47.55"/><polygon class="cls-1" points="406.63 45.11 402.58 36.52 400.33 36.52 405.53 47.29 407.72 47.29 413 36.52 410.74 36.52 406.63 45.11"/><path class="cls-1" d="M421.44,36.25C416.7,36.25,415,39,415,42c0,2.24,1.32,5.57,6.41,5.57s6.41-3.33,6.41-5.57C427.85,39,426.18,36.25,421.44,36.25Zm0,9.49c-2,0-4.31-.83-4.31-3.88,0-2.59,1.85-3.81,4.31-3.81s4.31,1.21,4.31,3.81C425.75,44.92,423.45,45.75,421.44,45.75Z"/><polygon class="cls-1" points="433.27 36.52 431.17 36.52 431.17 47.29 441.08 47.29 441.08 45.42 433.27 45.42 433.27 36.52"/><path class="cls-1" d="M0,0V101.79H480.32V0ZM3,3H205.41V62.09H3Zm474.4,95.87H3V65.05h474.4Zm-269-36.74V3h269V62.09Z"/><path class="cls-2" d="M255.87,47.93c-5.77,0-8.56-3.53-8.56-8.56s3.12-11.55,9.27-15.79a30.76,30.76,0,0,1,15-5c.5.12.58,1.12.25,1.41a22.58,22.58,0,0,0-11.71,5.57A22,22,0,0,0,252.88,41c0,2.16.25,5.07,2.87,5.07,3.61,0,5.07-5.61,5.07-8.06,0-1.58-.25-3.9-2.28-4.32a4.93,4.93,0,0,0-1.79,0,.76.76,0,0,1-.13-1.12,7,7,0,0,1,4.16-1.58c3.53,0,5.9,2.53,5.9,6.36A10.65,10.65,0,0,1,255.87,47.93Z"/><path class="cls-2" d="M275.72,44.19a3.58,3.58,0,0,1-3.53,3.74A2.74,2.74,0,0,1,269.32,45a3.79,3.79,0,0,1,3.61-3.9A2.75,2.75,0,0,1,275.72,44.19Z"/><path class="cls-2" d="M303.76,20.18a.53.53,0,0,1,.54.71,10.4,10.4,0,0,1-2.78,3.95l-10.09,1.29a1.79,1.79,0,0,0-1.5,1.21l-.37.79c-.41.83,0,1,.42,1,5.36.66,11,3,10.72,9.14-.17,4.49-3.45,7.64-7.6,9.51a35.53,35.53,0,0,1-12.21,2.41,1,1,0,0,1-.29-1.7c5.61-.33,14.67-2.53,14.67-9.06,0-4.44-3.86-5.77-9-6.31-.87-.08-1.12-.5-.62-1.45l4.4-8.77c.46-.91.87-1.08,2.33-1.25Z"/><path class="cls-2" d="M323.7,26.58c0,4.4-3.37,10.3-8.93,10.3-3.61,0-5.4-2.28-5.4-5.52,0-4.9,3.74-10.59,8.89-10.59C321.87,20.76,323.7,23,323.7,26.58Zm-8.93,8.72c1.08,0,2.08-1.16,2.74-2.37,1.08-2,2.53-6.15,2.53-8.35,0-1.29-.46-2.25-1.62-2.25-1,0-2,1-2.7,2.25a19.57,19.57,0,0,0-2.58,8.27C313.15,34.14,313.56,35.3,314.77,35.3ZM315,49a1.37,1.37,0,0,1-1.66-1L334,20.18c.62-.08,1.58.29,1.66,1Zm24.8-11.38c0,4.4-3.37,10.3-8.93,10.3-3.62,0-5.4-2.28-5.4-5.53,0-4.9,3.74-10.59,8.89-10.59C338,31.82,339.82,34.06,339.82,37.63Zm-8.93,8.72c1.08,0,2.08-1.16,2.74-2.37,1.08-2,2.53-6.15,2.53-8.35,0-1.29-.46-2.24-1.62-2.24-1,0-2,1-2.7,2.24a19.6,19.6,0,0,0-2.58,8.27C329.27,45.19,329.68,46.36,330.89,46.36Z"/><path class="cls-2" d="M46.27,79.27h0v9H44.18V76.41h3.11L51,85.18l3.76-8.77h3V88.24H55.74v-9h0l-3.79,9H50.08Z"/><path class="cls-2" d="M66.71,76.41h2.64l5.75,11.83H72.65l-1.24-2.72H64.59l-1.25,2.72H60.88Zm3.79,7.13L68,78.26l-2.47,5.27Z"/><path class="cls-2" d="M78.25,76.41h5.7c3.74,0,6.74,1.58,6.74,5.84,0,4-2.73,6-6.64,6H78.25Zm4.66,9.85c3.94,0,5.47-1.2,5.47-4s-1.6-3.89-5.47-3.89H80.56v7.86Z"/><path class="cls-2" d="M94.35,76.41H105v2h-8.3v2.75h7.15v2H96.66v3.13h8.5v2H94.35Z"/><path class="cls-2" d="M115.05,76.41h2.31l2.28,8.14h0l2.26-8.14h2.21l2.29,8.12h0l2.26-8.12H131l-3.45,11.83h-2.21l-2.25-8.4h0l-2.26,8.4h-2.26Z"/><path class="cls-2" d="M134.48,76.41h2.31V88.24h-2.31Z"/><path class="cls-2" d="M145.58,78.39h-5.29v-2h12.89v2H147.9v9.85h-2.31Z"/><path class="cls-2" d="M156.54,76.41h2.31v4.69h7.94V76.41h2.31V88.24h-2.31V83.15h-7.94v5.09h-2.31Z"/><path class="cls-2" d="M181,76.41h7.13c2.78,0,4.64.78,4.64,3a2.57,2.57,0,0,1-1.37,2.46,3.16,3.16,0,0,1,1.82,2.91c0,2.23-1.77,3.43-4.66,3.43H181Zm7.28,4.67c1.51,0,2.18-.37,2.18-1.37s-.67-1.38-2.18-1.38h-5v2.75Zm.07,5.24c1.46,0,2.57-.29,2.57-1.69,0-1.24-1-1.63-2.57-1.63h-5v3.32Z"/><path class="cls-2" d="M197.28,76.41h2.31V88.24h-2.31Z"/><path class="cls-2" d="M208.38,78.39h-5.29v-2H216v2h-5.29v9.85h-2.31Z"/><path class="cls-2" d="M223.55,78.39h-5.29v-2h12.89v2h-5.29v9.85h-2.31Z"/><path class="cls-2" d="M234.5,76.41h10.61v2h-8.3v2.75H244v2h-7.15v3.13h8.5v2H234.5Z"/><path class="cls-2" d="M248.79,76.41h7.11c2.8,0,4.82.63,4.82,3.53a3.35,3.35,0,0,1-3.3,3.48L261,88.24H258.2l-3.43-4.66H251.1v4.66h-2.31Zm6.77,5.26c1.89,0,2.85-.28,2.85-1.68s-1-1.66-2.85-1.66H251.1v3.34Z"/><path class="cls-2" d="M274.1,80c-.37-1.06-1.33-2-4.15-2-1.56,0-3.14.39-3.14,1.48,0,.5.29,1,2.65,1.33l2.8.42c2.65.41,4.22,1.43,4.22,3.42,0,2.8-2.67,3.84-5.83,3.84-5.08,0-6.32-2.51-6.59-3.4l2.23-.7c.42.86,1.3,2.12,4.43,2.12,1.89,0,3.45-.62,3.45-1.64,0-.76-.88-1.27-2.57-1.48L268.76,83c-2.73-.37-4.26-1.56-4.26-3.37,0-3.55,4.61-3.55,5.52-3.55,5.09,0,6,2.36,6.27,3.17Z"/><path class="cls-2" d="M279,76.41h2.31l2.28,8.14h0l2.26-8.14h2.21l2.29,8.12h0l2.26-8.12h2.26l-3.45,11.83h-2.21L287,79.84h0l-2.26,8.4h-2.26Z"/><path class="cls-2" d="M298.27,76.41h10.61v2h-8.3v2.75h7.15v2h-7.15v3.13h8.5v2H298.27Z"/><path class="cls-2" d="M312.56,76.41h10.61v2h-8.3v2.75H322v2h-7.15v3.13h8.5v2H312.56Z"/><path class="cls-2" d="M331.07,78.39h-5.29v-2h12.89v2h-5.29v9.85h-2.31Z"/><path class="cls-2" d="M354.08,76.41h2.64l5.75,11.83H360l-1.24-2.72H352l-1.25,2.72h-2.46Zm3.79,7.13-2.47-5.27-2.47,5.27Z"/><path class="cls-2" d="M365.62,76.41h6.59c2,0,5.29,0,5.29,3.63s-3.29,3.61-5.29,3.61h-4.28v4.59h-2.31Zm7.1,5.26c1.32,0,2.47-.11,2.47-1.64s-1.16-1.63-2.47-1.63h-4.79v3.27Z"/><path class="cls-2" d="M380.81,76.41h6.59c2,0,5.29,0,5.29,3.63s-3.29,3.61-5.29,3.61h-4.28v4.59h-2.31Zm7.1,5.26c1.32,0,2.47-.11,2.47-1.64s-1.16-1.63-2.47-1.63h-4.79v3.27Z"/><path class="cls-2" d="M396,76.41h2.31v9.78h8.58v2.05H396Z"/><path class="cls-2" d="M410.28,76.41H420.9v2h-8.3v2.75h7.15v2h-7.15v3.13h8.5v2H410.28Z"/><path class="cls-2" d="M433.79,80c-.37-1.06-1.33-2-4.15-2-1.56,0-3.14.39-3.14,1.48,0,.5.29,1,2.65,1.33l2.8.42c2.65.41,4.22,1.43,4.22,3.42,0,2.8-2.67,3.84-5.83,3.84-5.08,0-6.32-2.51-6.59-3.4l2.23-.7c.42.86,1.3,2.12,4.43,2.12,1.89,0,3.45-.62,3.45-1.64,0-.76-.88-1.27-2.57-1.48L428.45,83c-2.73-.37-4.26-1.56-4.26-3.37,0-3.55,4.61-3.55,5.52-3.55,5.09,0,6,2.36,6.27,3.17Z"/></g></g></svg>