<svg xmlns="http://www.w3.org/2000/svg" viewBox="0 0 162.31 34.4"><defs><style>.cls-1{fill:#eaece7;}.cls-2{fill:#e9ebe6;}</style></defs><title>cider card semi-dry</title><g id="Layer_2" data-name="Layer 2"><g id="Layer_1-2" data-name="Layer 1"><path class="cls-1" d="M21.79,6.38s-.78.32-1.41.46-1.4.32-2.08.44a.35.35,0,0,0,0,.52l.67.08c.31,0,.5.15.48.38a3.9,3.9,0,0,1-.27,1.08l-1.5,4.72c-.36,1.14-.46,1.28-1.27,1.4l-.52.07a.34.34,0,0,0,0,.53c.69,0,1.42,0,2.23,0s1.77,0,2.52,0c.18-.06.22-.45.07-.53l-.55-.07c-.75-.11-.85-.25-.5-1.4L21.4,8.33c.19-.6.45-1.3.63-1.74A.24.24,0,0,0,21.79,6.38Z"/><path class="cls-1" d="M26.52,13.43l.9-.63c1.47-1,3.31-2.16,3.31-3.94A2.44,2.44,0,0,0,28,6.41a4,4,0,0,0-3.54,2.24c0,.19.27.34.47.3a2.73,2.73,0,0,1,2-1.38,1.42,1.42,0,0,1,1.57,1.62c0,1.47-2.22,3.32-3.48,4.31-1.58,1.23-2.13,1.71-2.94,2.22a.29.29,0,0,0,.06.34c.42,0,1.08,0,1.83,0H26.5c1,0,1.6,0,2.19,0a7,7,0,0,0,1.16-2.13.37.37,0,0,0-.51-.21,1.61,1.61,0,0,1-1.71.79H25.89c-.39,0-.46-.08-.46-.17S25.68,14,26.52,13.43Z"/><polygon class="cls-1" points="34.26 16.01 34.97 16.01 34.97 14.44 37.24 14.44 37.24 13.83 34.97 13.83 34.97 12.98 37.61 12.98 37.61 12.37 34.26 12.37 34.26 16.01"/><polygon class="cls-1" points="39.36 12.37 38.65 12.37 38.65 16.01 42 16.01 42 15.38 39.36 15.38 39.36 12.37"/><rect class="cls-1" x="43.18" y="15.3" width="0.67" height="0.71"/><path class="cls-1" d="M47.28,12.28c-1.6,0-2.17.94-2.17,1.94a1.89,1.89,0,0,0,2.17,1.88,1.89,1.89,0,0,0,2.17-1.88C49.45,13.22,48.88,12.28,47.28,12.28Zm0,3.21c-.68,0-1.46-.28-1.46-1.31,0-.88.63-1.29,1.46-1.29s1.46.41,1.46,1.29C48.74,15.21,48,15.49,47.28,15.49Z"/><polygon class="cls-1" points="53.85 12.77 53.85 12.37 50.39 12.37 50.39 12.98 52.8 12.98 50.26 15.66 50.26 16.01 53.91 16.01 53.91 15.4 51.38 15.4 53.85 12.77"/><rect class="cls-1" x="55.1" y="15.3" width="0.67" height="0.71"/><path class="cls-1" d="M120.85,12.34,119.06,16h.76l.39-.84h2.1l.38.84h.75l-1.77-3.64Zm-.36,2.19.76-1.62.76,1.62Z"/><polygon class="cls-1" points="125.11 12.34 124.4 12.34 124.4 15.98 127.75 15.98 127.75 15.35 125.11 15.35 125.11 12.34"/><path class="cls-1" d="M130.64,15.46a1.3,1.3,0,1,1,0-2.6,1.15,1.15,0,0,1,1.17.64h.71c-.06-.2-.3-1.25-1.92-1.25-1.45,0-2.11.79-2.11,1.85a1.87,1.87,0,0,0,2.06,2c1.67,0,2-1,2-1.39h-.71A1.21,1.21,0,0,1,130.64,15.46Z"/><polygon class="cls-1" points="133.16 16.07 133.69 16.07 134.84 12.25 134.31 12.25 133.16 16.07"/><polygon class="cls-1" points="137.41 15.24 136.04 12.34 135.28 12.34 137.03 15.98 137.78 15.98 139.56 12.34 138.8 12.34 137.41 15.24"/><path class="cls-1" d="M142.41,12.25c-1.6,0-2.17.94-2.17,1.94a2.19,2.19,0,0,0,4.33,0C144.58,13.19,144,12.25,142.41,12.25Zm0,3.21c-.68,0-1.46-.28-1.46-1.31,0-.88.63-1.29,1.46-1.29s1.46.41,1.46,1.29C143.87,15.18,143.09,15.46,142.41,15.46Z"/><polygon class="cls-1" points="146.41 12.34 145.7 12.34 145.7 15.98 149.05 15.98 149.05 15.35 146.41 15.35 146.41 12.34"/><path class="cls-1" d="M17.44,28.64a1.07,1.07,0,0,0-.62-1,.87.87,0,0,0,.46-.83c0-.76-.63-1-1.57-1H13.32v4h2.55C16.85,29.8,17.44,29.39,17.44,28.64ZM14.1,26.45h1.68c.51,0,.74.13.74.47s-.23.46-.74.46H14.1Zm0,2.7V28h1.7c.53,0,.87.13.87.55s-.37.57-.87.57Z"/><path class="cls-1" d="M19.32,28.23h1.24l1.16,1.57h1l-1.23-1.63A1.13,1.13,0,0,0,22.56,27c0-1-.68-1.19-1.63-1.19h-2.4v4h.78Zm0-1.77h1.5c.64,0,1,.09,1,.56s-.32.57-1,.57h-1.5Z"/><polygon class="cls-1" points="27.41 29.13 24.54 29.13 24.54 28.07 26.95 28.07 26.95 27.4 24.54 27.4 24.54 26.47 27.34 26.47 27.34 25.8 23.76 25.8 23.76 29.8 27.41 29.8 27.41 29.13"/><polygon class="cls-1" points="29.94 29.8 30.7 26.96 30.71 26.96 31.47 29.8 32.22 29.8 33.38 25.8 32.62 25.8 31.86 28.55 31.84 28.55 31.07 25.8 30.32 25.8 29.56 28.55 29.55 28.55 28.78 25.8 28 25.8 29.17 29.8 29.94 29.8"/><polygon class="cls-1" points="37.94 29.13 35.08 29.13 35.08 28.07 37.49 28.07 37.49 27.4 35.08 27.4 35.08 26.47 37.88 26.47 37.88 25.8 34.3 25.8 34.3 29.8 37.94 29.8 37.94 29.13"/><path class="cls-1" d="M43.1,27.78c0-1.44-1-2-2.27-2H38.9v4h2C42.18,29.8,43.1,29.14,43.1,27.78Zm-3.42,1.35V26.47h.79c1.31,0,1.85.33,1.85,1.31s-.52,1.34-1.85,1.34Z"/><polygon class="cls-1" points="47.81 29.8 48.57 26.96 48.58 26.96 49.34 29.8 50.09 29.8 51.25 25.8 50.49 25.8 49.72 28.55 49.71 28.55 48.94 25.8 48.19 25.8 47.43 28.55 47.42 28.55 46.65 25.8 45.87 25.8 47.04 29.8 47.81 29.8"/><rect class="cls-1" x="52.21" y="25.8" width="0.78" height="3.99"/><polygon class="cls-1" points="55.74 29.8 56.52 29.8 56.52 26.47 58.31 26.47 58.31 25.8 53.96 25.8 53.96 26.47 55.74 26.47 55.74 29.8"/><polygon class="cls-1" points="60.01 28.08 62.69 28.08 62.69 29.8 63.47 29.8 63.47 25.8 62.69 25.8 62.69 27.39 60.01 27.39 60.01 25.8 59.23 25.8 59.23 29.8 60.01 29.8 60.01 28.08"/><path class="cls-1" d="M71.19,28.64a1.07,1.07,0,0,0-.62-1,.87.87,0,0,0,.46-.83c0-.76-.63-1-1.57-1H67.06v4h2.55C70.59,29.8,71.19,29.39,71.19,28.64Zm-3.35-2.19h1.68c.51,0,.74.13.74.47s-.23.46-.74.46H67.84Zm0,2.7V28h1.7c.53,0,.87.13.87.55s-.37.57-.87.57Z"/><rect class="cls-1" x="72.33" y="25.8" width="0.78" height="3.99"/><polygon class="cls-1" points="75.86 29.8 76.64 29.8 76.64 26.47 78.43 26.47 78.43 25.8 74.08 25.8 74.08 26.47 75.86 26.47 75.86 29.8"/><polygon class="cls-1" points="80.77 29.8 81.55 29.8 81.55 26.47 83.33 26.47 83.33 25.8 78.98 25.8 78.98 26.47 80.77 26.47 80.77 29.8"/><polygon class="cls-1" points="87.9 29.13 85.03 29.13 85.03 28.07 87.44 28.07 87.44 27.4 85.03 27.4 85.03 26.47 87.83 26.47 87.83 25.8 84.25 25.8 84.25 29.8 87.9 29.8 87.9 29.13"/><path class="cls-1" d="M89.64,28.23h1.24L92,29.8h1l-1.23-1.63A1.13,1.13,0,0,0,92.89,27c0-1-.68-1.19-1.63-1.19h-2.4v4h.78Zm0-1.77h1.51c.64,0,1,.09,1,.56s-.32.57-1,.57H89.64Z"/><path class="cls-1" d="M96,29.23c-1.05,0-1.35-.42-1.49-.71l-.75.24c.09.3.51,1.15,2.22,1.15,1.07,0,2-.35,2-1.3,0-.67-.53-1-1.42-1.15l-.94-.14c-.8-.1-.9-.28-.9-.45,0-.37.53-.5,1.06-.5,1,0,1.27.31,1.4.67l.74-.24c-.1-.27-.4-1.07-2.11-1.07-.31,0-1.86,0-1.86,1.2,0,.61.52,1,1.44,1.14l1,.13c.57.07.87.24.87.5S96.68,29.23,96,29.23Z"/><polygon class="cls-1" points="100.56 29.8 101.33 26.96 101.34 26.96 102.09 29.8 102.84 29.8 104.01 25.8 103.24 25.8 102.48 28.55 102.47 28.55 101.69 25.8 100.95 25.8 100.18 28.55 100.17 28.55 99.4 25.8 98.62 25.8 99.8 29.8 100.56 29.8"/><polygon class="cls-1" points="108.57 29.13 105.7 29.13 105.7 28.07 108.11 28.07 108.11 27.4 105.7 27.4 105.7 26.47 108.5 26.47 108.5 25.8 104.92 25.8 104.92 29.8 108.57 29.8 108.57 29.13"/><polygon class="cls-1" points="113.18 29.13 110.31 29.13 110.31 28.07 112.72 28.07 112.72 27.4 110.31 27.4 110.31 26.47 113.11 26.47 113.11 25.8 109.53 25.8 109.53 29.8 113.18 29.8 113.18 29.13"/><polygon class="cls-1" points="115.56 29.8 116.34 29.8 116.34 26.47 118.13 26.47 118.13 25.8 113.77 25.8 113.77 26.47 115.56 26.47 115.56 29.8"/><path class="cls-1" d="M122,28.88h2.3l.42.92h.82l-1.94-4h-.89l-2,4h.83Zm1.16-2.45.83,1.78H122.3Z"/><path class="cls-1" d="M127.15,28.25h1.44c.68,0,1.79,0,1.79-1.22s-1.11-1.22-1.79-1.22h-2.22v4h.78Zm0-1.77h1.61c.45,0,.83,0,.83.55s-.39.56-.83.56h-1.61Z"/><path class="cls-1" d="M132.07,28.25h1.44c.68,0,1.79,0,1.79-1.22s-1.11-1.22-1.79-1.22h-2.23v4h.78Zm0-1.77h1.62c.44,0,.83,0,.83.55s-.39.56-.83.56h-1.62Z"/><polygon class="cls-1" points="139.87 29.1 136.98 29.1 136.98 25.8 136.2 25.8 136.2 29.8 139.87 29.8 139.87 29.1"/><polygon class="cls-1" points="144.45 29.13 141.59 29.13 141.59 28.07 144 28.07 144 27.4 141.59 27.4 141.59 26.47 144.39 26.47 144.39 25.8 140.81 25.8 140.81 29.8 144.45 29.8 144.45 29.13"/><path class="cls-1" d="M147.38,29.23c-1.05,0-1.35-.42-1.49-.71l-.75.24c.09.3.51,1.15,2.22,1.15,1.07,0,2-.35,2-1.3,0-.67-.53-1-1.42-1.15L147,27.3c-.8-.1-.9-.28-.9-.45,0-.37.53-.5,1.06-.5,1,0,1.27.31,1.4.67l.74-.24c-.1-.27-.4-1.07-2.12-1.07-.31,0-1.86,0-1.86,1.2,0,.61.52,1,1.44,1.14l1,.13c.57.07.87.24.87.5S148,29.23,147.38,29.23Z"/><path class="cls-1" d="M0,0V34.4H162.31V0ZM1,1H69.41V21H1ZM161.31,33.4H1V22H161.31ZM70.41,21V1h90.9V21Z"/><path class="cls-2" d="M86.46,16.2a2.64,2.64,0,0,1-2.89-2.89A6.94,6.94,0,0,1,86.7,8a10.4,10.4,0,0,1,5.07-1.7c.17,0,.2.38.08.48a7.63,7.63,0,0,0-4,1.88,7.42,7.42,0,0,0-2.44,5.21c0,.73.08,1.71,1,1.71,1.22,0,1.71-1.9,1.71-2.72,0-.53-.08-1.32-.77-1.46a1.66,1.66,0,0,0-.6,0,.26.26,0,0,1,0-.38,2.36,2.36,0,0,1,1.4-.53,2,2,0,0,1,2,2.15A3.6,3.6,0,0,1,86.46,16.2Z"/><path class="cls-2" d="M93.17,14.93A1.21,1.21,0,0,1,92,16.2a.92.92,0,0,1-1-1,1.28,1.28,0,0,1,1.22-1.32A.93.93,0,0,1,93.17,14.93Z"/><path class="cls-2" d="M102.65,6.82a.18.18,0,0,1,.18.24,3.51,3.51,0,0,1-.94,1.33l-3.41.43a.6.6,0,0,0-.51.41l-.13.27c-.14.28,0,.32.14.34,1.81.22,3.71,1,3.62,3.09A3.82,3.82,0,0,1,99,16.14a12,12,0,0,1-4.13.81.34.34,0,0,1-.1-.58c1.9-.11,5-.86,5-3.06,0-1.5-1.31-2-3-2.13-.29,0-.38-.17-.21-.49l1.49-3c.15-.31.29-.37.79-.42Z"/><path class="cls-2" d="M109.38,9c0,1.49-1.14,3.48-3,3.48a1.69,1.69,0,0,1-1.82-1.87c0-1.66,1.26-3.58,3-3.58A1.73,1.73,0,0,1,109.38,9Zm-3,2.95c.37,0,.7-.39.93-.8a7.91,7.91,0,0,0,.86-2.82c0-.44-.15-.76-.55-.76s-.67.34-.91.76a6.61,6.61,0,0,0-.87,2.79C105.82,11.54,106,11.93,106.36,11.93Zm.08,4.63a.46.46,0,0,1-.56-.34l7-9.41c.21,0,.53.1.56.34Zm8.38-3.85c0,1.49-1.14,3.48-3,3.48A1.69,1.69,0,0,1,110,14.33c0-1.66,1.26-3.58,3-3.58A1.73,1.73,0,0,1,114.83,12.72Zm-3,2.95c.36,0,.7-.39.93-.8a7.92,7.92,0,0,0,.86-2.82c0-.43-.15-.76-.55-.76s-.67.34-.91.76a6.62,6.62,0,0,0-.87,2.79C111.26,15.27,111.4,15.66,111.81,15.66Z"/></g></g></svg>