<?xml version="1.0"?>
<svg xmlns="http://www.w3.org/2000/svg" viewBox="0 0 372.14 202.78">
<defs>
    <style>.cls-1{fill:#ebece8;}.cls-2,.cls-3{fill:none;stroke:#ebece8;stroke-miterlimit:10;}.cls-2{stroke-width:3.78px;}.cls-3{stroke-width:3.92px;}</style>
</defs>
<title>home page mobile</title>
<g id="Layer_2" data-name="Layer 2">
    <g id="Layer_1-2" data-name="Layer 1">
        <path class="cls-1" d="M35.12,34.12v2.75H30.64V51.24H27.38V36.87H22.9V34.12Z"/>
        <path class="cls-1" d="M39.33,51.24V34.15h6.82c3.88,0,5.44,2.25,5.47,5.06a4.23,4.23,0,0,1-3.12,4.4l3.76,7.62H48.63l-3.22-7H42.59v7Zm3.27-9.61H45c2.56,0,3.34-.8,3.34-2.41s-1-2.41-2.77-2.41h-3Z"/>
        <path class="cls-1" d="M60.39,34.12h4.07l4.85,17.11H66.07l-.95-3.69h-5.4l-1,3.69H55.47Zm0,10.72h4L62.5,37.41h0Z"/>
        <path class="cls-1" d="M73.36,34.15H79c4.52,0,7.64,2.51,7.67,8.54S83.53,51.24,79,51.24H73.36Zm3.27,14.34H78.8c3.74,0,4.62-2.75,4.62-5.8s-.88-5.8-4.62-5.8H76.62Z"/>
        <path class="cls-1" d="M91.49,51.24V34.15h3.27V51.24Z"/>
        <path class="cls-1" d="M111.65,34.12v2.75h-4.47V51.24h-3.27V36.87H99.44V34.12Z"/>
        <path class="cls-1" d="M116.31,51.24V34.15h3.27V51.24Z"/>
        <path class="cls-1" d="M131.67,51.47c-4.66,0-7.17-3.2-7.17-8.78s2.51-8.78,7.17-8.78,7.17,3.19,7.17,8.78S136.33,51.47,131.67,51.47Zm0-14.82c-2.67,0-3.91,2-3.91,6s1.21,6,3.91,6,3.91-2,3.91-6S134.34,36.66,131.67,36.66Z"/>
        <path class="cls-1" d="M143.38,51.24V34.15h3.41l6.72,11.64h0V34.15h3.08V51.24h-3.15l-7-12.16h0V51.24Z"/>
        <path class="cls-1" d="M165.68,34.12h4.07l4.85,17.11h-3.24l-.95-3.69H165l-1,3.69h-3.24Zm0,10.72h4l-1.92-7.43h0Z"/>
        <path class="cls-1" d="M178.64,51.24V34.15h3.27V48.49h7.43v2.75Z"/>
        <path class="cls-1" d="M193.7,51.24V34.15H197V48.49h7.43v2.75Z"/>
        <path class="cls-1" d="M213.48,40.92l2.93-6.77h3.41l-4.71,10.27v6.82h-3.27V44.42l-4.71-10.27h3.41Z"/>
        <path class="cls-1" d="M233.36,51.24V34.15h3.27V51.24Z"/>
        <path class="cls-1" d="M242.75,51.24V34.15h3.41l6.72,11.64h0V34.15H256V51.24h-3.15l-7-12.16h0V51.24Z"/>
        <path class="cls-1" d="M269.73,38.69a3.14,3.14,0,0,0-3.05-2.22c-1.42,0-2.44.57-2.44,1.89,0,2.93,8.8,2.32,8.8,7.86,0,3.5-2.2,5.25-6,5.25a6.78,6.78,0,0,1-6.39-4l2.7-1.18c.78,1.61,1.8,2.67,3.72,2.67,1.63,0,2.89-.62,2.89-2.27,0-3.36-8.8-2.7-8.8-8,0-3.05,2.56-4.78,5.51-4.78a6.22,6.22,0,0,1,6,3.86Z"/>
        <path class="cls-1" d="M277.78,51.24V34.15H284c3.69,0,6,1.54,6,5.09s-2.34,5.09-6,5.09h-3v6.91ZM281,41.67h2.6c2.46,0,3.15-.92,3.15-2.44s-.69-2.44-3.15-2.44H281Z"/>
        <path class="cls-1" d="M294.82,51.24V34.15h3.27V51.24Z"/>
        <path class="cls-1" d="M304.14,51.24V34.15H311c3.88,0,5.44,2.25,5.47,5.06a4.23,4.23,0,0,1-3.12,4.4l3.76,7.62h-3.62l-3.22-7h-2.82v7Zm3.27-9.61h2.41c2.56,0,3.34-.8,3.34-2.41s-1-2.41-2.77-2.41h-3Z"/>
        <path class="cls-1" d="M322,51.24V34.15h11.31v2.75h-8V41h5.85v2.75h-5.85v4.78h8.31v2.75Z"/>
        <path class="cls-1" d="M338.17,34.15h5.66c4.52,0,7.64,2.51,7.67,8.54s-3.15,8.54-7.67,8.54h-5.66Zm3.27,14.34h2.18c3.74,0,4.62-2.75,4.62-5.8s-.88-5.8-4.62-5.8h-2.18Z"/>
        <line class="cls-2" x1="1.91" y1="1.96" x2="1.91" y2="201.01"/>
        <line class="cls-2" x1="370.25" y1="1.96" x2="370.25" y2="200.31"/>
        <line class="cls-2" x1="113.24" y1="135.16" x2="113.24" y2="200.31"/>
        <line class="cls-2" x1="367.97" y1="135.16" x2="2.19" y2="135.16"/>
        <line class="cls-3" y1="1.96" x2="372" y2="2.01"/>
        <path class="cls-1" d="M44.77,78c-.38,2.2-2,7.54-11,7.54-6.26,0-11.18-3.48-11.18-10.69C22.54,69,26.16,64.74,34,64.74c8.84,0,10.15,5.74,10.45,6.8H40.61c-.22-.68-1.74-3.48-6.37-3.48-5.47,0-7.75,3.07-7.75,7.18,0,4.54,3.29,6.94,7.54,6.94,4.52,0,6.5-2.69,6.88-4.22Z"/>
        <path class="cls-1" d="M59.06,65.23H70.95c4.68,0,8.05,1.06,8.05,5.9A5.6,5.6,0,0,1,73.48,77L79.54,85H74.78L69,77.23H62.92V85H59.06ZM70.38,74c3.16,0,4.76-.46,4.76-2.8s-1.61-2.78-4.76-2.78H62.92V74Z"/>
        <path class="cls-1" d="M101.75,65.23h4.41L115.76,85h-4.08l-2.07-4.54H98.21L96.12,85H92Zm6.34,11.92L104,68.34l-4.13,8.81Z"/>
        <path class="cls-1" d="M129.21,65.23h18.2v3.32H133.07v4.6h12.32v3.32H133.07V85h-3.86Z"/>
        <path class="cls-1" d="M168.3,68.55h-8.84V65.23H181v3.32h-8.84V85H168.3Z"/>
        <path class="cls-1" d="M230.29,78c-.38,2.2-2,7.54-11,7.54-6.26,0-11.18-3.48-11.18-10.69,0-5.77,3.62-10.07,11.48-10.07,8.84,0,10.15,5.74,10.45,6.8h-3.86c-.22-.68-1.74-3.48-6.37-3.48-5.47,0-7.75,3.07-7.75,7.18,0,4.54,3.29,6.94,7.54,6.94,4.52,0,6.5-2.69,6.88-4.22Z"/>
        <path class="cls-1" d="M244.82,65.23h3.86V85h-3.86Z"/>
        <path class="cls-1" d="M264.49,65.23H274c6.26,0,11.26,2.64,11.26,9.77,0,6.75-4.57,10-11.1,10h-9.69Zm7.78,16.46c6.58,0,9.14-2,9.14-6.64,0-4.84-2.67-6.5-9.14-6.5h-3.92V81.69Z"/>
        <path class="cls-1" d="M299.57,65.23h17.74v3.32H303.43v4.6h11.94v3.32H303.43v5.22h14.2V85H299.57Z"/>
        <path class="cls-1" d="M331.62,65.23h11.89c4.68,0,8.05,1.06,8.05,5.9A5.6,5.6,0,0,1,346,77L352.11,85h-4.76l-5.74-7.78h-6.12V85h-3.86ZM342.94,74c3.16,0,4.76-.46,4.76-2.8s-1.61-2.78-4.76-2.78h-7.45V74Z"/>
        <path class="cls-1" d="M23.69,101.29h0v6.2H22.25V99.31H24.4L27,105.37l2.6-6.06h2.1v8.18H30.24v-6.2h0l-2.62,6.2H26.32Z"/>
        <path class="cls-1" d="M41.41,99.31h1.82l4,8.18H45.52l-.85-1.88H39.95l-.87,1.88h-1.7ZM44,104.23l-1.71-3.64-1.71,3.64Z"/>
        <path class="cls-1" d="M53,99.31h3.94c2.59,0,4.66,1.09,4.66,4,0,2.79-1.89,4.14-4.59,4.14H53Zm3.22,6.8c2.72,0,3.78-.83,3.78-2.74s-1.1-2.69-3.78-2.69H54.58v5.43Z"/>
        <path class="cls-1" d="M67.7,99.31H75v1.37H69.3v1.9h4.94V104H69.3v2.16h5.87v1.37H67.7Z"/>
        <path class="cls-1" d="M90.05,99.31h1.6v8.18h-1.6Z"/>
        <path class="cls-1" d="M98.41,99.31h1.69l5.47,5.9v-5.9h1.53v8.18h-1.46l-5.69-6.12v6.12H98.41Z"/>
        <path class="cls-1" d="M122.53,99.31h7.33v1.37h-5.74v1.9h4.94V104h-4.94v2.16H130v1.37h-7.47Z"/>
        <path class="cls-1" d="M139.15,99.31H141l4,8.18h-1.69l-.85-1.88h-4.71l-.87,1.88h-1.7Zm2.62,4.93-1.71-3.64-1.71,3.64Z"/>
        <path class="cls-1" d="M157.08,101.79c-.26-.73-.92-1.36-2.87-1.36-1.08,0-2.17.27-2.17,1,0,.35.2.72,1.83.92l1.93.29c1.83.28,2.91,1,2.91,2.36,0,1.93-1.84,2.65-4,2.65-3.51,0-4.36-1.73-4.55-2.35l1.54-.48c.29.6.9,1.46,3.06,1.46,1.3,0,2.38-.43,2.38-1.14,0-.53-.61-.88-1.78-1l-2-.27c-1.89-.26-2.95-1.08-2.95-2.33,0-2.45,3.18-2.45,3.81-2.45,3.52,0,4.13,1.63,4.33,2.19Z"/>
        <path class="cls-1" d="M167.72,100.68h-3.65V99.31H173v1.37h-3.65v6.8h-1.6Z"/>
        <path class="cls-1" d="M190.81,99.31h1.82l4,8.18h-1.69l-.85-1.88h-4.71l-.87,1.88h-1.7Zm2.62,4.93-1.71-3.64L190,104.23Z"/>
        <path class="cls-1" d="M211.07,104c0,2.63-1.68,3.71-4.34,3.71s-4.34-1.08-4.34-3.71V99.31H204v4.55c0,1.35.48,2.45,2.74,2.45s2.74-1.1,2.74-2.45V99.31h1.6Z"/>
        <path class="cls-1" d="M224.09,101.79c-.26-.73-.92-1.36-2.87-1.36-1.08,0-2.17.27-2.17,1,0,.35.2.72,1.83.92l1.93.29c1.83.28,2.91,1,2.91,2.36,0,1.93-1.84,2.65-4,2.65-3.51,0-4.36-1.73-4.55-2.35l1.54-.48c.29.6.9,1.46,3.06,1.46,1.3,0,2.38-.43,2.38-1.14,0-.53-.61-.88-1.78-1l-2-.27c-1.89-.26-2.95-1.08-2.95-2.33,0-2.45,3.18-2.45,3.81-2.45,3.52,0,4.13,1.63,4.33,2.19Z"/>
        <path class="cls-1" d="M234.72,100.68h-3.65V99.31H240v1.37h-3.65v6.8h-1.6Z"/>
        <path class="cls-1" d="M246,99.31h1.6v8.18H246Z"/>
        <path class="cls-1" d="M254.34,99.31H256l5.47,5.9v-5.9H263v8.18h-1.46l-5.69-6.12v6.12h-1.53Z"/>
        <path class="cls-1" d="M270,105.89h1.5v1.65l-.71,1.68H270l.61-1.73H270Z"/>
        <path class="cls-1" d="M290.16,100.68H286.5V99.31h8.91v1.37h-3.65v6.8h-1.6Z"/>
        <path class="cls-1" d="M301.32,99.31h7.33v1.37h-5.74v1.9h4.94V104h-4.94v2.16h5.87v1.37h-7.47Z"/>
        <path class="cls-1" d="M318.54,104.4l-2.61,3.08h-2.08l3.7-4.23-3.42-3.95h2l2.37,2.8,2.36-2.8h2l-3.43,3.95,3.68,4.23h-2Z"/>
        <path class="cls-1" d="M332,99.31h1.82l4,8.18h-1.69l-.85-1.88h-4.71l-.87,1.88H328Zm2.62,4.93-1.71-3.64-1.71,3.64Z"/>
        <path class="cls-1" d="M350,101.79c-.26-.73-.92-1.36-2.87-1.36-1.08,0-2.17.27-2.17,1,0,.35.2.72,1.83.92l1.93.29c1.83.28,2.91,1,2.91,2.36,0,1.93-1.84,2.65-4,2.65-3.51,0-4.36-1.73-4.55-2.35l1.54-.48c.29.6.9,1.46,3.06,1.46,1.3,0,2.38-.43,2.38-1.14,0-.53-.61-.88-1.78-1l-2-.27c-1.89-.26-2.95-1.08-2.95-2.33,0-2.45,3.18-2.45,3.81-2.45,3.52,0,4.13,1.63,4.33,2.19Z"/>
        <line class="cls-3" x1="372" y1="200.82" y2="200.82"/>
        <path class="cls-1" d="M144.25,169.7c-.14.8-.71,2.72-4,2.72-2.26,0-4-1.26-4-3.86,0-2.08,1.3-3.63,4.14-3.63,3.19,0,3.66,2.07,3.77,2.45h-1.39a2.26,2.26,0,0,0-2.3-1.26c-2,0-2.8,1.11-2.8,2.59a2.45,2.45,0,0,0,2.72,2.5,2.38,2.38,0,0,0,2.48-1.52Z"/>
        <path class="cls-1" d="M152.71,164.93c3.14,0,4.25,1.84,4.25,3.8,0,1.48-.87,3.69-4.25,3.69s-4.25-2.21-4.25-3.69C148.46,166.77,149.57,164.93,152.71,164.93Zm2.86,3.72c0-1.72-1.23-2.52-2.86-2.52s-2.86.81-2.86,2.52c0,2,1.52,2.57,2.86,2.57S155.57,170.67,155.57,168.64Z"/>
        <path class="cls-1" d="M162.85,166.83h0v5.41h-1.24V165.1h1.87l2.23,5.29L168,165.1h1.84v7.14h-1.24v-5.41h0l-2.29,5.41h-1.11Z"/>
        <path class="cls-1" d="M174.9,165.1h6.4v1.2h-5V168h4.31v1.2h-4.31V171h5.12v1.2H174.9Z"/>
        <path class="cls-1" d="M195.71,165.1h1.59l3.46,7.14h-1.47l-.74-1.64h-4.11l-.76,1.64H192.2Zm2.29,4.3-1.49-3.18L195,169.4Z"/>
        <path class="cls-1" d="M205.14,165.1h1.47l4.77,5.15V165.1h1.34v7.14h-1.28l-5-5.34v5.34h-1.33Z"/>
        <path class="cls-1" d="M217.85,165.1h3.44c2.26,0,4.06,1,4.06,3.52s-1.65,3.61-4,3.61h-3.5Zm2.81,5.94c2.38,0,3.3-.73,3.3-2.39s-1-2.35-3.3-2.35h-1.41V171Z"/>
        <path class="cls-1" d="M237,165.1h3.44c2.26,0,4.06,1,4.06,3.52s-1.65,3.61-4,3.61H237Zm2.81,5.94c2.38,0,3.3-.73,3.3-2.39s-1-2.35-3.3-2.35H238.4V171Z"/>
        <path class="cls-1" d="M249.18,165.1h4.29c1.69,0,2.91.38,2.91,2.13a2,2,0,0,1-2,2.1l2.19,2.91h-1.72l-2.07-2.81h-2.21v2.81h-1.39Zm4.08,3.17c1.14,0,1.72-.17,1.72-1s-.58-1-1.72-1h-2.69v2Z"/>
        <path class="cls-1" d="M261.44,165.1h1.39v7.14h-1.39Z"/>
        <path class="cls-1" d="M268.05,165.1h1.47l4.77,5.15V165.1h1.34v7.14h-1.28l-5-5.34v5.34h-1.33Z"/>
        <path class="cls-1" d="M280.76,165.1h1.39v3.33l4-3.33h2l-3.41,2.83,3.75,4.31h-1.83l-2.94-3.49L282.16,170v2.22h-1.39Z"/>
        <path class="cls-1" d="M300,165.1h1.39v7.14H300Z"/>
        <path class="cls-1" d="M309.16,166.3H306v-1.2h7.77v1.2h-3.19v5.94h-1.39Z"/>
        <path class="cls-1" d="M330.91,157.28l2.42,21.28h8.34l2.42-21.28Zm8.47,9.54-1.89-1.4-1.91,1.37.74-2.23-1.89-1.4,2.35,0,.74-2.23.71,2.24,2.35,0-1.91,1.37Z"/>
        <path class="cls-1" d="M33.79,179.58H21.35V177.5A13,13,0,0,1,23.13,176a18.09,18.09,0,0,1,2-1.21q1.07-.56,1.79-1a4.78,4.78,0,0,0,1.14-.92,2.71,2.71,0,0,0,.59-1,3.68,3.68,0,0,0,.18-1.18,2.84,2.84,0,0,0-.69-2.12,2.53,2.53,0,0,0-1.83-.67,4,4,0,0,0-.67.05,3.13,3.13,0,0,0-.66.19c.11.34.23.7.33,1.07a4.38,4.38,0,0,1,.16,1.23,1.59,1.59,0,0,1-.59,1.3,2.27,2.27,0,0,1-1.49.48,1.76,1.76,0,0,1-1.37-.56,2,2,0,0,1-.51-1.37,2.89,2.89,0,0,1,1.63-2.42,7.32,7.32,0,0,1,4-1,9,9,0,0,1,4.38.93,3.17,3.17,0,0,1,1.67,3,3,3,0,0,1-.44,1.72,3.85,3.85,0,0,1-1.3,1.15,8,8,0,0,1-1.7.73q-.94.29-2,.55a17.81,17.81,0,0,0-2,.61,7.08,7.08,0,0,0-1.5.77v.13h9.58Z"/>
        <path class="cls-1" d="M49.45,168.88A5.89,5.89,0,0,1,50.74,171a7.26,7.26,0,0,1,.42,2.44,6.79,6.79,0,0,1-.52,2.71,5.93,5.93,0,0,1-1.43,2A6.54,6.54,0,0,1,47,179.51a8.47,8.47,0,0,1-2.9.46,8.07,8.07,0,0,1-3.06-.54A6.62,6.62,0,0,1,38.82,178,5.83,5.83,0,0,1,37.5,176a7.38,7.38,0,0,1,0-5,6.06,6.06,0,0,1,1.33-2.08A6.33,6.33,0,0,1,41,167.4a9,9,0,0,1,6.23,0A6.37,6.37,0,0,1,49.45,168.88Zm-3.24,8.55a6.91,6.91,0,0,0,.48-1.72,15.53,15.53,0,0,0,.14-2.3,16.49,16.49,0,0,0-.13-2.19,7.07,7.07,0,0,0-.44-1.73,3,3,0,0,0-.85-1.2,2,2,0,0,0-1.3-.42,2,2,0,0,0-1.31.42,3,3,0,0,0-.86,1.19,6.7,6.7,0,0,0-.44,1.72,16.6,16.6,0,0,0-.14,2.23,16.31,16.31,0,0,0,.12,2.17,7.5,7.5,0,0,0,.44,1.72,2.91,2.91,0,0,0,.83,1.2,2,2,0,0,0,1.33.46,2,2,0,0,0,1.27-.41A2.77,2.77,0,0,0,46.21,177.43Z"/>
        <path class="cls-1" d="M64.26,179.58H54.79v-.87l1.1-.11a6.34,6.34,0,0,0,1-.18,1,1,0,0,0,.54-.39,1.28,1.28,0,0,0,.2-.76V170h-2.9v-1.09h.63a6.06,6.06,0,0,0,1.73-.22,4.75,4.75,0,0,0,1.21-.53,4.2,4.2,0,0,0,.81-.67,6,6,0,0,0,.5-.61h2q0,.74-.07,1.74t0,1.79v6.72a1.39,1.39,0,0,0,.18.72,1.16,1.16,0,0,0,.51.46,4.21,4.21,0,0,0,1,.25q.7.12,1,.14Z"/>
        <path class="cls-1" d="M79.1,168.58l-8.36,15.23H69l7.74-13.51H69.94a2.54,2.54,0,0,0-1,.23,1.44,1.44,0,0,0-.65.8,7,7,0,0,0-.43,1.53H67v-5.66H79.1Z"/>
        <path class="cls-1" d="M21.33,154h5.53v1H22.53v1.44h3.73v1H22.53v1.63H27v1H21.33Z"/>
        <path class="cls-1" d="M36.14,155.92c-.19-.55-.7-1-2.17-1-.82,0-1.64.2-1.64.77,0,.26.15.54,1.38.7l1.46.22c1.38.21,2.2.75,2.2,1.78,0,1.46-1.39,2-3,2-2.65,0-3.29-1.31-3.44-1.78l1.16-.36c.22.45.68,1.1,2.31,1.1,1,0,1.8-.32,1.8-.86s-.46-.66-1.34-.77l-1.48-.2c-1.43-.19-2.22-.82-2.22-1.76,0-1.85,2.4-1.85,2.88-1.85,2.66,0,3.12,1.23,3.27,1.66Z"/>
        <path class="cls-1" d="M44,155.08H41.25v-1H48v1H45.21v5.14H44Z"/>
        <path class="cls-1" d="M52.51,159h1.13v1.2H52.51Z"/>
    </g>
</g>
</svg>
