<?xml version="1.0"?>
<svg xmlns="http://www.w3.org/2000/svg" viewBox="0 0 795.18 202.78">
<defs>
    <style>.cls-1{isolation:isolate;}.cls-2{fill:#ebece8;}.cls-3,.cls-4{fill:none;stroke:#ebece8;stroke-miterlimit:10;}.cls-3{stroke-width:3.78px;}.cls-4{stroke-width:3.92px;}.cls-5{mix-blend-mode:multiply;}</style>
</defs>
<title>home page</title>
<g class="cls-1">
    <g id="Layer_2" data-name="Layer 2">
        <g id="Layer_1-2" data-name="Layer 1">
            <path class="cls-2" d="M245.08,34.12v2.75H240.6V51.24h-3.27V36.87h-4.47V34.12Z"/>
            <path class="cls-2" d="M249.29,51.24V34.15h6.82c3.88,0,5.44,2.25,5.47,5.06a4.23,4.23,0,0,1-3.12,4.4l3.76,7.62h-3.62l-3.22-7h-2.82v7Zm3.27-9.61H255c2.56,0,3.34-.8,3.34-2.41s-1-2.41-2.77-2.41h-3Z"/>
            <path class="cls-2" d="M270.35,34.12h4.07l4.85,17.11H276l-.95-3.69h-5.4l-1,3.69h-3.24Zm0,10.72h4l-1.92-7.43h0Z"/>
            <path class="cls-2" d="M283.32,34.15H289c4.52,0,7.64,2.51,7.67,8.54s-3.15,8.54-7.67,8.54h-5.66Zm3.27,14.34h2.18c3.74,0,4.62-2.75,4.62-5.8s-.88-5.8-4.62-5.8h-2.18Z"/>
            <path class="cls-2" d="M301.45,51.24V34.15h3.27V51.24Z"/>
            <path class="cls-2" d="M321.61,34.12v2.75h-4.47V51.24h-3.27V36.87H309.4V34.12Z"/>
            <path class="cls-2" d="M326.27,51.24V34.15h3.27V51.24Z"/>
            <path class="cls-2" d="M341.63,51.47c-4.66,0-7.17-3.2-7.17-8.78s2.51-8.78,7.17-8.78,7.17,3.19,7.17,8.78S346.29,51.47,341.63,51.47Zm0-14.82c-2.67,0-3.91,2-3.91,6s1.21,6,3.91,6,3.91-2,3.91-6S344.3,36.66,341.63,36.66Z"/>
            <path class="cls-2" d="M353.34,51.24V34.15h3.41l6.72,11.64h0V34.15h3.08V51.24h-3.15l-7-12.16h0V51.24Z"/>
            <path class="cls-2" d="M375.64,34.12h4.07l4.85,17.11h-3.24l-.95-3.69H375l-1,3.69h-3.24Zm0,10.72h4l-1.92-7.43h0Z"/>
            <path class="cls-2" d="M388.61,51.24V34.15h3.27V48.49h7.43v2.75Z"/>
            <path class="cls-2" d="M403.66,51.24V34.15h3.27V48.49h7.43v2.75Z"/>
            <path class="cls-2" d="M423.44,40.92l2.93-6.77h3.41l-4.71,10.27v6.82h-3.27V44.42L417.1,34.15h3.41Z"/>
            <path class="cls-2" d="M443.32,51.24V34.15h3.27V51.24Z"/>
            <path class="cls-2" d="M452.71,51.24V34.15h3.41l6.72,11.64h0V34.15H466V51.24h-3.15l-7-12.16h0V51.24Z"/>
            <path class="cls-2" d="M479.69,38.69a3.14,3.14,0,0,0-3.05-2.22c-1.42,0-2.44.57-2.44,1.89,0,2.93,8.8,2.32,8.8,7.86,0,3.5-2.2,5.25-6,5.25a6.78,6.78,0,0,1-6.39-4l2.7-1.18c.78,1.61,1.8,2.67,3.72,2.67,1.63,0,2.89-.62,2.89-2.27,0-3.36-8.8-2.7-8.8-8,0-3.05,2.56-4.78,5.51-4.78a6.22,6.22,0,0,1,6,3.86Z"/>
            <path class="cls-2" d="M487.74,51.24V34.15H494c3.69,0,6,1.54,6,5.09s-2.34,5.09-6,5.09h-3v6.91ZM491,41.67h2.6c2.46,0,3.15-.92,3.15-2.44s-.69-2.44-3.15-2.44H491Z"/>
            <path class="cls-2" d="M504.78,51.24V34.15H508V51.24Z"/>
            <path class="cls-2" d="M514.1,51.24V34.15h6.82c3.88,0,5.44,2.25,5.47,5.06a4.23,4.23,0,0,1-3.12,4.4L527,51.24H523.4l-3.22-7h-2.82v7Zm3.27-9.61h2.41c2.56,0,3.34-.8,3.34-2.41s-1-2.41-2.77-2.41h-3Z"/>
            <path class="cls-2" d="M531.92,51.24V34.15h11.31v2.75h-8V41H541v2.75h-5.85v4.78h8.31v2.75Z"/>
            <path class="cls-2" d="M548.13,34.15h5.66c4.52,0,7.64,2.51,7.67,8.54s-3.15,8.54-7.67,8.54h-5.66Zm3.27,14.34h2.18c3.74,0,4.62-2.75,4.62-5.8s-.88-5.8-4.62-5.8H551.4Z"/>
            <line class="cls-3" x1="211.87" y1="1.96" x2="211.87" y2="198.3"/>
            <line class="cls-3" x1="580.22" y1="1.96" x2="580.22" y2="200.31"/>
            <line class="cls-3" x1="323.2" y1="135.16" x2="323.2" y2="200.31"/>
            <line class="cls-3" x1="577.93" y1="135.16" x2="212.15" y2="135.16"/>
            <polyline class="cls-4" points="30.76 1.96 793.22 1.96 793.22 200.82 1.96 200.82 1.96 1.96 30.76 1.96"/>
            <path class="cls-2" d="M254.73,78c-.38,2.2-2,7.54-11,7.54-6.26,0-11.18-3.48-11.18-10.69,0-5.77,3.62-10.07,11.48-10.07,8.84,0,10.15,5.74,10.45,6.8h-3.86c-.22-.68-1.74-3.48-6.37-3.48-5.47,0-7.75,3.07-7.75,7.18,0,4.54,3.29,6.94,7.54,6.94,4.52,0,6.5-2.69,6.88-4.22Z"/>
            <path class="cls-2" d="M269,65.23h11.89c4.68,0,8.05,1.06,8.05,5.9A5.6,5.6,0,0,1,283.44,77L289.51,85h-4.76L279,77.23h-6.12V85H269ZM280.34,74c3.16,0,4.76-.46,4.76-2.8s-1.61-2.78-4.76-2.78h-7.45V74Z"/>
            <path class="cls-2" d="M311.71,65.23h4.41L325.72,85h-4.08l-2.07-4.54h-11.4L306.08,85H302ZM318,77.15l-4.14-8.81-4.13,8.81Z"/>
            <path class="cls-2" d="M339.17,65.23h18.2v3.32H343v4.6h12.32v3.32H343V85h-3.86Z"/>
            <path class="cls-2" d="M378.27,68.55h-8.84V65.23H391v3.32h-8.84V85h-3.86Z"/>
            <path class="cls-2" d="M440.25,78c-.38,2.2-2,7.54-11,7.54C422.95,85.5,418,82,418,74.81c0-5.77,3.62-10.07,11.48-10.07,8.84,0,10.15,5.74,10.45,6.8h-3.86c-.22-.68-1.74-3.48-6.37-3.48-5.47,0-7.75,3.07-7.75,7.18,0,4.54,3.29,6.94,7.54,6.94,4.52,0,6.5-2.69,6.88-4.22Z"/>
            <path class="cls-2" d="M454.78,65.23h3.86V85h-3.86Z"/>
            <path class="cls-2" d="M474.45,65.23H484c6.26,0,11.26,2.64,11.26,9.77,0,6.75-4.57,10-11.1,10h-9.69Zm7.78,16.46c6.58,0,9.14-2,9.14-6.64,0-4.84-2.67-6.5-9.14-6.5h-3.92V81.69Z"/>
            <path class="cls-2" d="M509.53,65.23h17.74v3.32H513.39v4.6h11.94v3.32H513.39v5.22h14.2V85H509.53Z"/>
            <path class="cls-2" d="M541.58,65.23h11.89c4.68,0,8.05,1.06,8.05,5.9A5.6,5.6,0,0,1,556,77L562.07,85h-4.76l-5.74-7.78h-6.12V85h-3.86ZM552.9,74c3.16,0,4.76-.46,4.76-2.8s-1.61-2.78-4.76-2.78h-7.45V74Z"/>
            <path class="cls-2" d="M233.65,101.29h0v6.2h-1.42V99.31h2.15l2.55,6.06,2.6-6.06h2.1v8.18H240.2v-6.2h0l-2.62,6.2h-1.27Z"/>
            <path class="cls-2" d="M251.37,99.31h1.82l4,8.18h-1.69l-.85-1.88h-4.71l-.87,1.88h-1.7Zm2.62,4.93-1.71-3.64-1.71,3.64Z"/>
            <path class="cls-2" d="M262.94,99.31h3.94c2.59,0,4.66,1.09,4.66,4,0,2.79-1.89,4.14-4.59,4.14h-4Zm3.22,6.8c2.72,0,3.78-.83,3.78-2.74s-1.1-2.69-3.78-2.69h-1.62v5.43Z"/>
            <path class="cls-2" d="M277.66,99.31H285v1.37h-5.74v1.9h4.94V104h-4.94v2.16h5.87v1.37h-7.47Z"/>
            <path class="cls-2" d="M300,99.31h1.6v8.18H300Z"/>
            <path class="cls-2" d="M308.37,99.31h1.69l5.47,5.9v-5.9h1.53v8.18h-1.46l-5.69-6.12v6.12h-1.53Z"/>
            <path class="cls-2" d="M332.49,99.31h7.33v1.37h-5.74v1.9H339V104h-4.94v2.16H340v1.37h-7.47Z"/>
            <path class="cls-2" d="M349.11,99.31h1.82l4,8.18h-1.69l-.85-1.88h-4.71l-.87,1.88h-1.7Zm2.62,4.93L350,100.59l-1.71,3.64Z"/>
            <path class="cls-2" d="M367,101.79c-.26-.73-.92-1.36-2.87-1.36-1.08,0-2.17.27-2.17,1,0,.35.2.72,1.83.92l1.93.29c1.83.28,2.91,1,2.91,2.36,0,1.93-1.84,2.65-4,2.65-3.51,0-4.36-1.73-4.55-2.35l1.54-.48c.29.6.9,1.46,3.06,1.46,1.3,0,2.38-.43,2.38-1.14,0-.53-.61-.88-1.78-1l-2-.27c-1.89-.26-2.95-1.08-2.95-2.33,0-2.45,3.18-2.45,3.81-2.45,3.52,0,4.13,1.63,4.33,2.19Z"/>
            <path class="cls-2" d="M377.68,100.68H374V99.31h8.91v1.37h-3.65v6.8h-1.6Z"/>
            <path class="cls-2" d="M400.77,99.31h1.82l4,8.18h-1.69L404,105.6h-4.71l-.87,1.88h-1.7Zm2.62,4.93-1.71-3.64L400,104.23Z"/>
            <path class="cls-2" d="M421,104c0,2.63-1.68,3.71-4.34,3.71s-4.34-1.08-4.34-3.71V99.31h1.6v4.55c0,1.35.48,2.45,2.74,2.45s2.74-1.1,2.74-2.45V99.31H421Z"/>
            <path class="cls-2" d="M434,101.79c-.26-.73-.92-1.36-2.87-1.36-1.08,0-2.17.27-2.17,1,0,.35.2.72,1.83.92l1.93.29c1.83.28,2.91,1,2.91,2.36,0,1.93-1.84,2.65-4,2.65-3.51,0-4.36-1.73-4.55-2.35l1.54-.48c.29.6.9,1.46,3.06,1.46,1.3,0,2.38-.43,2.38-1.14,0-.53-.61-.88-1.78-1l-2-.27c-1.89-.26-2.95-1.08-2.95-2.33,0-2.45,3.18-2.45,3.81-2.45,3.52,0,4.13,1.63,4.33,2.19Z"/>
            <path class="cls-2" d="M444.68,100.68H441V99.31h8.91v1.37h-3.65v6.8h-1.6Z"/>
            <path class="cls-2" d="M455.95,99.31h1.6v8.18h-1.6Z"/>
            <path class="cls-2" d="M464.3,99.31H466l5.47,5.9v-5.9H473v8.18h-1.46l-5.69-6.12v6.12H464.3Z"/>
            <path class="cls-2" d="M480,105.89h1.5v1.65l-.71,1.68H480l.61-1.73H480Z"/>
            <path class="cls-2" d="M500.12,100.68h-3.65V99.31h8.91v1.37h-3.65v6.8h-1.6Z"/>
            <path class="cls-2" d="M511.28,99.31h7.33v1.37h-5.74v1.9h4.94V104h-4.94v2.16h5.87v1.37h-7.47Z"/>
            <path class="cls-2" d="M528.5,104.4l-2.61,3.08h-2.08l3.7-4.23-3.42-3.95h2l2.37,2.8,2.36-2.8h2l-3.43,3.95,3.68,4.23h-2Z"/>
            <path class="cls-2" d="M542,99.31h1.82l4,8.18H546.1l-.85-1.88h-4.71l-.87,1.88H538Zm2.62,4.93-1.71-3.64-1.71,3.64Z"/>
            <path class="cls-2" d="M559.93,101.79c-.26-.73-.92-1.36-2.87-1.36-1.08,0-2.17.27-2.17,1,0,.35.2.72,1.83.92l1.93.29c1.83.28,2.91,1,2.91,2.36,0,1.93-1.84,2.65-4,2.65-3.51,0-4.36-1.73-4.55-2.35l1.54-.48c.29.6.9,1.46,3.06,1.46,1.3,0,2.38-.43,2.38-1.14,0-.53-.61-.88-1.78-1l-2-.27c-1.89-.26-2.95-1.08-2.95-2.33,0-2.45,3.18-2.45,3.81-2.45,3.52,0,4.13,1.63,4.33,2.19Z"/>
            <line class="cls-4" x1="792.96" y1="200.82" x2="1.96" y2="200.82"/>
            <path class="cls-2" d="M50.17,69.06h8.15v1.49H51.9v2.06h5.52v1.49H51.9v3.82H50.17Z"/>
            <path class="cls-2" d="M64.76,69.06h5.32c2.09,0,3.6.48,3.6,2.64a2.51,2.51,0,0,1-2.47,2.61l2.72,3.6H71.8l-2.57-3.48H66.49v3.48H64.76ZM69.83,73c1.41,0,2.13-.21,2.13-1.25s-.72-1.24-2.13-1.24H66.49V73Z"/>
            <path class="cls-2" d="M85.41,68.84c3.9,0,5.27,2.29,5.27,4.71,0,1.84-1.08,4.58-5.27,4.58s-5.27-2.74-5.27-4.58C80.14,71.13,81.51,68.84,85.41,68.84ZM89,73.46c0-2.13-1.52-3.13-3.54-3.13s-3.54,1-3.54,3.13c0,2.51,1.89,3.19,3.54,3.19S89,76,89,73.46Z"/>
            <path class="cls-2" d="M98.84,71.2h0v6.71H97.28V69.06H99.6l2.76,6.56,2.81-6.56h2.28v8.85h-1.53V71.2h0l-2.84,6.71h-1.38Z"/>
            <path class="cls-2" d="M127.29,70.55h-4V69.06H133v1.49h-4v7.37h-1.73Z"/>
            <path class="cls-2" d="M139.39,69.06h1.73v3.51h5.94V69.06h1.73v8.85h-1.73V74.1h-5.94v3.81h-1.73Z"/>
            <path class="cls-2" d="M156,69.06h7.94v1.49h-6.21v2.06h5.35v1.49h-5.35v2.34h6.36v1.49H156Z"/>
            <path class="cls-2" d="M61.06,92.56H50.13v-4.1H76.77v4.1H65.84v20.36H61.06Z"/>
            <path class="cls-2" d="M82.19,88.45H96.9c5.79,0,10,1.31,10,7.3A6.92,6.92,0,0,1,100,103l7.5,10h-5.89l-7.1-9.62H87v9.62H82.19Zm14,10.87c3.9,0,5.89-.57,5.89-3.47s-2-3.43-5.89-3.43H87v6.9Z"/>
            <path class="cls-2" d="M114,88.45h21.94v4.1H118.73v5.69H133.5v4.1H118.73v6.46H136.3v4.1H114Z"/>
            <path class="cls-2" d="M142,88.45h21.94v4.1H146.76v5.69h14.77v4.1H146.76v6.46h17.56v4.1H142Z"/>
            <path class="cls-2" d="M50,58.52V33.82H54L59.13,48h.07V33.82H63v24.7H59.34L53.93,43.1h-.07V58.52Z"/>
            <path class="cls-2" d="M69.71,39.81c0-3.49,2.05-6.33,6.5-6.33s6.5,2.84,6.5,6.33V52.54c0,3.49-2.05,6.33-6.5,6.33s-6.5-2.84-6.5-6.33Zm4.24,12.62c0,1.85.55,2.74,2.26,2.74s2.26-.89,2.26-2.74V39.91c0-1.85-.55-2.74-2.26-2.74s-2.26.89-2.26,2.74Z"/>
            <path class="cls-2" d="M91.84,37.52h-4.1V33.82h12.45v3.69h-4.1v21H91.84Z"/>
            <path class="cls-2" d="M115.42,58.52V33.82h11.84v3.69h-7.59v6.36h5.68v3.69h-5.68V58.52Z"/>
            <path class="cls-2" d="M135.64,58.52h-4.1l4.55-24.7h5.27l4.55,24.7h-4.1L141,53.05h-4.65ZM137,49.36h3.42l-1.68-10.6h-.07Z"/>
            <path class="cls-2" d="M155.18,58.52h-4.24V33.82h6c4.75,0,7.18,2,7.18,7.29,0,4-1.54,5.58-3,6.23l3.59,11.19h-4.31l-3-10.23a20.49,20.49,0,0,1-2.19.1Zm0-13.62h1.5c2.29,0,3.15-.85,3.15-3.8s-.86-3.8-3.15-3.8h-1.5Z"/>
            <path class="cls-2" d="M649.28,63.5c-.35,2-1.78,6.86-10.05,6.86-5.7,0-10.18-3.17-10.18-9.73,0-5.25,3.29-9.16,10.45-9.16,8,0,9.24,5.23,9.51,6.19h-3.52c-.2-.62-1.58-3.17-5.79-3.17-5,0-7.06,2.8-7.06,6.54,0,4.14,3,6.31,6.86,6.31,4.11,0,5.92-2.45,6.27-3.84Z"/>
            <path class="cls-2" d="M658.79,51.91h3.52v18h-3.52Z"/>
            <path class="cls-2" d="M673,51.91h8.67c5.7,0,10.25,2.4,10.25,8.89,0,6.14-4.16,9.11-10.1,9.11H673Zm7.08,15c6,0,8.32-1.83,8.32-6,0-4.41-2.43-5.92-8.32-5.92H676.5v12Z"/>
            <path class="cls-2" d="M701.19,51.91h16.15v3H704.7v4.19h10.87v3H704.7v4.75h12.93v3H701.19Z"/>
            <path class="cls-2" d="M726.65,51.91h10.82c4.26,0,7.33,1,7.33,5.37a5.1,5.1,0,0,1-5,5.3l5.52,7.33H741l-5.23-7.08h-5.57v7.08h-3.52Zm10.3,8c2.87,0,4.33-.42,4.33-2.55s-1.46-2.53-4.33-2.53h-6.79v5.08Z"/>
            <path class="cls-2" d="M629,94.28V80h2.44V94.28Z"/>
            <path class="cls-2" d="M636.62,94.28V80h2.44v12.1h3.84v2.13Z"/>
            <path class="cls-2" d="M646.85,94.28V80h2.44v12.1h3.84v2.13Z"/>
            <path class="cls-2" d="M657.19,80h2.44V90.79c0,1,.41,1.56,1.3,1.56s1.3-.51,1.3-1.56V80h2.44V90.69a3.75,3.75,0,1,1-7.49,0Z"/>
            <path class="cls-2" d="M679.41,80V94.28h-2.13V83.16h0L675,94.28h-1.18l-2.21-11.12h0V94.28h-2.13V80h3.21l1.73,8.32h0L676.19,80Z"/>
            <path class="cls-2" d="M684.55,94.28V80H687V94.28Z"/>
            <path class="cls-2" d="M692.25,94.28V80h2.27l3,8.14h0V80h2.21V94.28h-2.13l-3.11-8.89h0v8.89Z"/>
            <path class="cls-2" d="M706.09,94.28h-2.37L706.34,80h3L712,94.28h-2.37l-.43-3.15h-2.68Zm.79-5.28h2l-1-6.11h0Z"/>
            <path class="cls-2" d="M717.4,82.17H715V80h7.18v2.13h-2.37v12.1H717.4Z"/>
            <path class="cls-2" d="M726.21,94.28V80h6.55v2.13h-4.1v3.67h3.15V88h-3.15v4.18H733v2.13Z"/>
            <path class="cls-2" d="M737.52,80h3.63c2.52,0,3.86,1.38,3.86,4.3V90c0,2.92-1.34,4.3-3.86,4.3h-3.63ZM740,92.27h.85c1.3,0,1.75-.49,1.75-2V84c0-1.5-.45-2-1.75-2H740Z"/>
            <path class="cls-2" d="M354.21,169.7c-.14.8-.71,2.72-4,2.72-2.26,0-4-1.26-4-3.86,0-2.08,1.3-3.63,4.14-3.63,3.19,0,3.66,2.07,3.77,2.45h-1.39a2.26,2.26,0,0,0-2.3-1.26c-2,0-2.8,1.11-2.8,2.59a2.45,2.45,0,0,0,2.72,2.5,2.38,2.38,0,0,0,2.48-1.52Z"/>
            <path class="cls-2" d="M362.67,164.93c3.14,0,4.25,1.84,4.25,3.8,0,1.48-.87,3.69-4.25,3.69s-4.25-2.21-4.25-3.69C358.42,166.77,359.53,164.93,362.67,164.93Zm2.86,3.72c0-1.72-1.23-2.52-2.86-2.52s-2.86.81-2.86,2.52c0,2,1.52,2.57,2.86,2.57S365.53,170.67,365.53,168.64Z"/>
            <path class="cls-2" d="M372.81,166.83h0v5.41h-1.24V165.1h1.87l2.23,5.29,2.27-5.29h1.84v7.14h-1.24v-5.41h0l-2.29,5.41h-1.11Z"/>
            <path class="cls-2" d="M384.86,165.1h6.4v1.2h-5V168h4.31v1.2h-4.31V171h5.12v1.2h-6.52Z"/>
            <path class="cls-2" d="M405.67,165.1h1.59l3.46,7.14h-1.47l-.74-1.64H404.4l-.76,1.64h-1.48Zm2.29,4.3-1.49-3.18L405,169.4Z"/>
            <path class="cls-2" d="M415.1,165.1h1.47l4.77,5.15V165.1h1.34v7.14H421.4l-5-5.34v5.34H415.1Z"/>
            <path class="cls-2" d="M427.81,165.1h3.44c2.26,0,4.06,1,4.06,3.52s-1.65,3.61-4,3.61h-3.5Zm2.81,5.94c2.38,0,3.3-.73,3.3-2.39s-1-2.35-3.3-2.35H429.2V171Z"/>
            <path class="cls-2" d="M447,165.1h3.44c2.26,0,4.06,1,4.06,3.52s-1.65,3.61-4,3.61H447Zm2.81,5.94c2.38,0,3.3-.73,3.3-2.39s-1-2.35-3.3-2.35h-1.41V171Z"/>
            <path class="cls-2" d="M459.14,165.1h4.29c1.69,0,2.91.38,2.91,2.13a2,2,0,0,1-2,2.1l2.19,2.91h-1.72l-2.07-2.81h-2.21v2.81h-1.39Zm4.08,3.17c1.14,0,1.72-.17,1.72-1s-.58-1-1.72-1h-2.69v2Z"/>
            <path class="cls-2" d="M471.4,165.1h1.39v7.14H471.4Z"/>
            <path class="cls-2" d="M478,165.1h1.47l4.77,5.15V165.1h1.34v7.14h-1.28l-5-5.34v5.34H478Z"/>
            <path class="cls-2" d="M490.72,165.1h1.39v3.33l4-3.33h2l-3.41,2.83,3.75,4.31h-1.83l-2.94-3.49L492.12,170v2.22h-1.39Z"/>
            <path class="cls-2" d="M510,165.1h1.39v7.14H510Z"/>
            <path class="cls-2" d="M519.12,166.3h-3.19v-1.2h7.77v1.2h-3.19v5.94h-1.39Z"/>
            <path class="cls-2" d="M540.87,157.28l2.42,21.28h8.34l2.42-21.28Zm8.47,9.54-1.89-1.4-1.91,1.37.74-2.23-1.89-1.4,2.35,0,.74-2.23.71,2.24,2.35,0-1.91,1.37Z"/>
            <path class="cls-2" d="M243.75,179.58H231.31V177.5a13,13,0,0,1,1.79-1.51,18.09,18.09,0,0,1,2-1.21q1.07-.56,1.79-1a4.78,4.78,0,0,0,1.14-.92,2.71,2.71,0,0,0,.59-1,3.68,3.68,0,0,0,.18-1.18,2.84,2.84,0,0,0-.69-2.12,2.53,2.53,0,0,0-1.83-.67,4,4,0,0,0-.67.05,3.13,3.13,0,0,0-.66.19c.11.34.23.7.33,1.07a4.38,4.38,0,0,1,.16,1.23,1.59,1.59,0,0,1-.59,1.3,2.27,2.27,0,0,1-1.49.48,1.76,1.76,0,0,1-1.37-.56,2,2,0,0,1-.51-1.37,2.89,2.89,0,0,1,1.63-2.42,7.32,7.32,0,0,1,4-1,9,9,0,0,1,4.38.93,3.17,3.17,0,0,1,1.67,3,3,3,0,0,1-.44,1.72,3.85,3.85,0,0,1-1.3,1.15,8,8,0,0,1-1.7.73q-.94.29-2,.55a17.81,17.81,0,0,0-2,.61,7.08,7.08,0,0,0-1.5.77v.13h9.58Z"/>
            <path class="cls-2" d="M259.41,168.88A5.89,5.89,0,0,1,260.7,171a7.26,7.26,0,0,1,.42,2.44,6.79,6.79,0,0,1-.52,2.71,5.93,5.93,0,0,1-1.43,2,6.54,6.54,0,0,1-2.21,1.33,8.47,8.47,0,0,1-2.9.46,8.07,8.07,0,0,1-3.06-.54,6.62,6.62,0,0,1-2.21-1.42,5.83,5.83,0,0,1-1.32-2.05,7.38,7.38,0,0,1,0-5,6.06,6.06,0,0,1,1.33-2.08A6.33,6.33,0,0,1,251,167.4a9,9,0,0,1,6.23,0A6.37,6.37,0,0,1,259.41,168.88Zm-3.24,8.55a6.91,6.91,0,0,0,.48-1.72,15.53,15.53,0,0,0,.14-2.3,16.49,16.49,0,0,0-.13-2.19,7.07,7.07,0,0,0-.44-1.73,3,3,0,0,0-.85-1.2,2,2,0,0,0-1.3-.42,2,2,0,0,0-1.31.42,3,3,0,0,0-.86,1.19,6.7,6.7,0,0,0-.44,1.72,16.6,16.6,0,0,0-.14,2.23,16.31,16.31,0,0,0,.12,2.17,7.5,7.5,0,0,0,.44,1.72,2.91,2.91,0,0,0,.83,1.2,2,2,0,0,0,1.33.46,2,2,0,0,0,1.27-.41A2.77,2.77,0,0,0,256.18,177.43Z"/>
            <path class="cls-2" d="M274.22,179.58h-9.47v-.87l1.1-.11a6.34,6.34,0,0,0,1-.18,1,1,0,0,0,.54-.39,1.28,1.28,0,0,0,.2-.76V170h-2.9v-1.09h.63a6.06,6.06,0,0,0,1.73-.22,4.75,4.75,0,0,0,1.21-.53,4.2,4.2,0,0,0,.81-.67,6,6,0,0,0,.5-.61h2q0,.74-.07,1.74t0,1.79v6.72a1.39,1.39,0,0,0,.18.72,1.16,1.16,0,0,0,.51.46,4.21,4.21,0,0,0,1,.25q.7.12,1,.14Z"/>
            <path class="cls-2" d="M289.06,168.58l-8.36,15.23H279l7.74-13.51H279.9a2.54,2.54,0,0,0-1,.23,1.44,1.44,0,0,0-.65.8,7,7,0,0,0-.43,1.53H277v-5.66h12.11Z"/>
            <path class="cls-2" d="M231.29,154h5.53v1H232.5v1.44h3.73v1H232.5v1.63h4.43v1h-5.64Z"/>
            <path class="cls-2" d="M246.1,155.92c-.19-.55-.7-1-2.17-1-.82,0-1.64.2-1.64.77,0,.26.15.54,1.38.7l1.46.22c1.38.21,2.2.75,2.2,1.78,0,1.46-1.39,2-3,2-2.65,0-3.29-1.31-3.44-1.78l1.16-.36c.22.45.68,1.1,2.31,1.1,1,0,1.8-.32,1.8-.86s-.46-.66-1.34-.77l-1.48-.2c-1.43-.19-2.22-.82-2.22-1.76,0-1.85,2.4-1.85,2.88-1.85,2.66,0,3.12,1.23,3.27,1.66Z"/>
            <path class="cls-2" d="M254,155.08h-2.76v-1h6.72v1h-2.76v5.14H254Z"/>
            <path class="cls-2" d="M262.47,159h1.13v1.2h-1.13Z"/>
        </g>
    </g>
</g>
</svg>
