<svg id="Layer_1" data-name="Layer 1" xmlns="http://www.w3.org/2000/svg" viewBox="0 0 799.92 203.92">
  <defs>
    <style>
     .cls-1 {
       fill: #ebece8;
     }

     .cls-2, .cls-3 {
       fill: none;
       stroke: #ebece8;
       stroke-miterlimit: 10;
     }

     .cls-2 {
       stroke-width: 3.78px;
     }

     .cls-3 {
       stroke-width: 3.92px;
     }
    </style>
  </defs>
  <title>home_1024</title>

  <g id="Apples_are_for_Drinking" data-name="Apples are for Drinking">
    <g>


      <path class="cls-1" d="M58.81,71.44h2.28l5,10.23H63.94l-1.07-2.35H57L55.9,81.67H53.77Zm3.28,6.16L59.95,73l-2.14,4.56Z" transform="translate(1.96 1.96)"/>
      <path class="cls-1" d="M73,71.44h6.15c2.42,0,4.16.55,4.16,3.05a2.9,2.9,0,0,1-2.86,3l3.14,4.16H81.14l-3-4H75v4H73ZM78.86,76c1.63,0,2.46-.24,2.46-1.45s-.83-1.43-2.46-1.43H75V76Z" transform="translate(1.96 1.96)"/>
      <path class="cls-1" d="M91.14,71.44h9.17v1.72H93.14v2.38h6.18v1.72H93.14V80h7.34v1.72H91.14Z" transform="translate(1.96 1.96)"/>
      <path class="cls-1" d="M118.42,71.44h9.41v1.72h-7.41v2.38h6.37v1.72h-6.37v4.42h-2Z" transform="translate(1.96 1.96)"/>
      <path class="cls-1" d="M140.42,71.19c4.5,0,6.09,2.65,6.09,5.45,0,2.12-1.25,5.29-6.09,5.29s-6.09-3.17-6.09-5.29C134.33,73.84,135.92,71.19,140.42,71.19Zm4.09,5.33c0-2.46-1.76-3.62-4.09-3.62s-4.09,1.15-4.09,3.62c0,2.9,2.18,3.69,4.09,3.69S144.52,79.42,144.52,76.52Z" transform="translate(1.96 1.96)"/>
      <path class="cls-1" d="M153.9,71.44H160c2.42,0,4.16.55,4.16,3.05a2.9,2.9,0,0,1-2.86,3l3.14,4.16H162l-3-4H155.9v4h-2ZM159.75,76c1.63,0,2.46-.24,2.46-1.45s-.83-1.43-2.46-1.43H155.9V76Z" transform="translate(1.96 1.96)"/>

    </g>
    <g>
      <path class="cls-1" d="M54,93.05h5.23c4.18,0,7.06,2.32,7.08,7.89s-2.91,7.89-7.08,7.89H54Zm3,13.25h2c3.45,0,4.26-2.54,4.26-5.36s-.81-5.36-4.26-5.36H57Z" transform="translate(1.96 1.96)"/>
      <path class="cls-1" d="M69.91,108.84V93.05h6.3c3.59,0,5,2.08,5.05,4.68a3.91,3.91,0,0,1-2.89,4.07l3.48,7H78.5l-3-6.43h-2.6v6.43Zm3-8.88h2.23c2.36,0,3.08-.74,3.08-2.23s-.9-2.23-2.56-2.23H72.93Z" transform="translate(1.96 1.96)"/>
      <path class="cls-1" d="M86.22,108.84V93.05h3v15.79Z" transform="translate(1.96 1.96)"/>
      <path class="cls-1" d="M94.47,108.84V93.05h3.15l6.21,10.76h0V93.05h2.84v15.79h-2.91L97.36,97.6h0v11.24Z" transform="translate(1.96 1.96)"/>
      <path class="cls-1" d="M111.51,108.84V93.05h3v7l5.27-7h3.48L118.79,99l5.2,9.86h-3.35l-3.91-7.5-2.21,2.75v4.75Z" transform="translate(1.96 1.96)"/>
      <path class="cls-1" d="M127.82,108.84V93.05h3v15.79Z" transform="translate(1.96 1.96)"/>
      <path class="cls-1" d="M136.07,108.84V93.05h3.15l6.21,10.76h0V93.05h2.84v15.79h-2.91L139,97.6h0v11.24Z" transform="translate(1.96 1.96)"/>
      <path class="cls-1" d="M161.57,97.6a3.15,3.15,0,0,0-3.17-2.23c-2.23,0-3.32,2.23-3.32,5.73,0,3.32,1.25,5.42,3.35,5.42a3.12,3.12,0,0,0,3.3-3.13h-3v-2.54h5.9v8h-2.19v-1.62a5,5,0,0,1-4.11,1.84c-4.29,0-6.28-3.41-6.28-7.87,0-4,1.53-8.35,6.58-8.35a5.58,5.58,0,0,1,5.73,4Z" transform="translate(1.96 1.96)"/>
    </g>
    <g>
      <path class="cls-1" d="M58.43,59.13H53.95l5-26.94h5.75l5,26.94H65.14l-.82-6H59.25Zm1.49-10h3.73L61.82,37.57h-.07Z" transform="translate(1.96 1.96)"/>
      <path class="cls-1" d="M74.35,59.13V32.2H81c5.71,0,8.36,2.2,8.36,7.95S86.7,48.09,81,48.09H79v11ZM79,44.29h1.79c3,0,4-.93,4-4.14s-.93-4.14-4-4.14H79Z" transform="translate(1.96 1.96)"/>
      <path class="cls-1" d="M95.05,59.13V32.2h6.64c5.71,0,8.36,2.2,8.36,7.95s-2.65,7.95-8.36,7.95h-2v11Zm4.63-14.85h1.79c3,0,4-.93,4-4.14s-.93-4.14-4-4.14H99.68Z" transform="translate(1.96 1.96)"/>
      <path class="cls-1" d="M115.53,59.13V32.2h4.63V55.1h7.27v4Z" transform="translate(1.96 1.96)"/>
      <path class="cls-1" d="M132.32,59.13V32.2H144.7v4h-7.76v6.94h6v4h-6V55.1h8.28v4Z" transform="translate(1.96 1.96)"/>
      <path class="cls-1" d="M159.36,38.84c-.19-2.31-1.42-3-2.46-3-1.49,0-2.31,1-2.31,2.65,0,4.59,9.4,6.79,9.4,14.1,0,4.44-3,6.9-7.31,6.9s-6.75-3.43-6.94-7.46l4.4-.63c.19,2.72,1.27,4.07,2.76,4.07A2.38,2.38,0,0,0,159.58,53c0-5.33-9.4-6.75-9.4-14.48,0-4.29,2.61-6.72,7.16-6.72,3.77,0,6,2.72,6.42,6.53Z" transform="translate(1.96 1.96)"/>
    </g>
  </g>
  <g id="Traditional_Inventive" data-name="Traditional &amp; Inventive">
    <path class="cls-1" d="M247.44,32.35v2.76h-4.5V49.56h-3.29V35.11h-4.5V32.35Z" transform="translate(1.96 1.96)"/>
    <path class="cls-1" d="M251.2,49.56V32.37h6.86c3.9,0,5.47,2.26,5.5,5.09a4.25,4.25,0,0,1-3.14,4.43l3.78,7.67h-3.64l-3.24-7h-2.83v7Zm3.28-9.66h2.43c2.57,0,3.36-.81,3.36-2.43s-1-2.43-2.79-2.43h-3Z" transform="translate(1.96 1.96)"/>
    <path class="cls-1" d="M271.91,32.35H276l4.88,17.21h-3.26l-1-3.71h-5.43l-1,3.71H267Zm0,10.78h4L274,35.65h0Z" transform="translate(1.96 1.96)"/>
    <path class="cls-1" d="M284.47,32.37h5.69c4.55,0,7.69,2.52,7.71,8.59s-3.17,8.59-7.71,8.59h-5.69Zm3.29,14.42h2.19c3.76,0,4.64-2.76,4.64-5.83s-.88-5.83-4.64-5.83h-2.19Z" transform="translate(1.96 1.96)"/>
    <path class="cls-1" d="M302.23,49.56V32.37h3.28V49.56Z" transform="translate(1.96 1.96)"/>
    <path class="cls-1" d="M322,32.35v2.76h-4.5V49.56h-3.29V35.11h-4.5V32.35Z" transform="translate(1.96 1.96)"/>
    <path class="cls-1" d="M326.24,49.56V32.37h3.28V49.56Z" transform="translate(1.96 1.96)"/>
    <path class="cls-1" d="M341.21,49.79c-4.69,0-7.21-3.21-7.21-8.83s2.52-8.83,7.21-8.83,7.21,3.21,7.21,8.83S345.9,49.79,341.21,49.79Zm0-14.9c-2.69,0-3.93,2-3.93,6.07S338.5,47,341.21,47s3.93-2,3.93-6.07S343.9,34.89,341.21,34.89Z" transform="translate(1.96 1.96)"/>
    <path class="cls-1" d="M352.52,49.56V32.37h3.43l6.76,11.71h0V32.37h3.09V49.56h-3.17l-7-12.24h0V49.56Z" transform="translate(1.96 1.96)"/>
    <path class="cls-1" d="M374.46,32.35h4.09l4.88,17.21h-3.26l-1-3.71H373.8l-1,3.71h-3.26Zm0,10.78h4l-1.93-7.47h0Z" transform="translate(1.96 1.96)"/>
    <path class="cls-1" d="M387,49.56V32.37h3.29V46.79h7.47v2.76Z" transform="translate(1.96 1.96)"/>
    <path class="cls-1" d="M423.28,41.65a18.34,18.34,0,0,1-2.09,4.21A4,4,0,0,0,423.61,47v2.76c-1.64,0-2.33-.24-4.28-1.81A5.86,5.86,0,0,1,415,49.79c-3.21,0-5.5-1.57-5.5-5,0-2.12,1.19-3.4,2.86-4.52a6.6,6.6,0,0,1-1.45-4.14c0-2.43,1.83-4,4.36-4A3.94,3.94,0,0,1,419.33,36c0,2.24-1.71,3.55-3.31,4.81a22.17,22.17,0,0,0,3,3.4,13.7,13.7,0,0,0,1.62-3.24ZM415.09,47a3.25,3.25,0,0,0,2.29-1,15.7,15.7,0,0,1-3.43-3.69c-.81.67-1.38,1.14-1.38,2.26A2.53,2.53,0,0,0,415.09,47Zm-.55-8.33c1-.74,2-1.74,2-2.86,0-1-.5-1.76-1.48-1.76a1.67,1.67,0,0,0-1.45,1.83A5.1,5.1,0,0,0,414.54,38.7Z" transform="translate(1.96 1.96)"/>
    <path class="cls-1" d="M436.82,49.56V32.37h3.29V49.56Z" transform="translate(1.96 1.96)"/>
    <path class="cls-1" d="M445.79,49.56V32.37h3.43L456,44.08h0V32.37h3.09V49.56H456l-7-12.24h0V49.56Z" transform="translate(1.96 1.96)"/>
    <path class="cls-1" d="M462.72,32.37H466L469,45h0l3.19-12.66h3.24l-4.55,17.19h-3.67Z" transform="translate(1.96 1.96)"/>
    <path class="cls-1" d="M479.14,49.56V32.37h11.38v2.76h-8.09v4.09h5.88V42h-5.88v4.81h8.35v2.76Z" transform="translate(1.96 1.96)"/>
    <path class="cls-1" d="M495,49.56V32.37h3.43l6.76,11.71h0V32.37h3.09V49.56H505.2l-7-12.24h0V49.56Z" transform="translate(1.96 1.96)"/>
    <path class="cls-1" d="M524.48,32.35v2.76H520V49.56H516.7V35.11h-4.5V32.35Z" transform="translate(1.96 1.96)"/>
    <path class="cls-1" d="M528.69,49.56V32.37H532V49.56Z" transform="translate(1.96 1.96)"/>
    <path class="cls-1" d="M536,32.37h3.24l3,12.66h0l3.19-12.66h3.24l-4.55,17.19h-3.67Z" transform="translate(1.96 1.96)"/>
    <path class="cls-1" d="M552.4,49.56V32.37h11.38v2.76h-8.09v4.09h5.88V42h-5.88v4.81H564v2.76Z" transform="translate(1.96 1.96)"/>
  </g>
  <g id="Craft_Cider" data-name="Craft Cider">
    <path class="cls-1" d="M256.47,76.44c-.38,2.22-2,7.58-11.11,7.58-6.29,0-11.24-3.5-11.24-10.75,0-5.8,3.64-10.12,11.55-10.12,8.89,0,10.21,5.77,10.51,6.84h-3.89c-.22-.68-1.75-3.5-6.4-3.5-5.5,0-7.8,3.09-7.8,7.22,0,4.57,3.31,7,7.58,7,4.54,0,6.54-2.71,6.92-4.24Z" transform="translate(1.96 1.96)"/>
    <path class="cls-1" d="M270.85,63.64h12c4.71,0,8.1,1.07,8.1,5.94a5.63,5.63,0,0,1-5.55,5.85l6.1,8.1h-4.79l-5.77-7.82h-6.16v7.82h-3.89Zm11.38,8.84c3.17,0,4.79-.47,4.79-2.82s-1.61-2.79-4.79-2.79h-7.5v5.61Z" transform="translate(1.96 1.96)"/>
    <path class="cls-1" d="M313.78,63.64h4.43l9.66,19.89h-4.1L321.69,79H310.23l-2.11,4.57H304Zm6.37,12L316,66.76l-4.16,8.86Z" transform="translate(1.96 1.96)"/>
    <path class="cls-1" d="M341.4,63.64h18.3V67H345.28V71.6h12.39v3.34H345.28v8.59H341.4Z" transform="translate(1.96 1.96)"/>
    <path class="cls-1" d="M380.72,67h-8.89V63.64H393.5V67H384.6V83.53h-3.89Z" transform="translate(1.96 1.96)"/>
    <path class="cls-1" d="M443.06,76.44c-.38,2.22-2,7.58-11.11,7.58-6.29,0-11.24-3.5-11.24-10.75,0-5.8,3.64-10.12,11.54-10.12,8.89,0,10.21,5.77,10.51,6.84h-3.88c-.22-.68-1.75-3.5-6.4-3.5-5.5,0-7.8,3.09-7.8,7.22,0,4.57,3.31,7,7.58,7,4.54,0,6.54-2.71,6.92-4.24Z" transform="translate(1.96 1.96)"/>
    <path class="cls-1" d="M457.67,63.64h3.88V83.53h-3.88Z" transform="translate(1.96 1.96)"/>
    <path class="cls-1" d="M477.46,63.64H487c6.29,0,11.33,2.65,11.33,9.82,0,6.79-4.6,10.07-11.16,10.07h-9.74Zm7.83,16.55c6.62,0,9.19-2,9.19-6.68,0-4.87-2.68-6.54-9.19-6.54h-3.94V80.19Z" transform="translate(1.96 1.96)"/>
    <path class="cls-1" d="M512.74,63.64h17.84V67h-14V71.6h12v3.34h-12v5.25H530.9v3.34H512.74Z" transform="translate(1.96 1.96)"/>
    <path class="cls-1" d="M545,63.64h12c4.71,0,8.1,1.07,8.1,5.94a5.63,5.63,0,0,1-5.55,5.85l6.1,8.1h-4.79L555,75.7h-6.16v7.82H545Zm11.38,8.84c3.17,0,4.79-.47,4.79-2.82s-1.61-2.79-4.79-2.79h-7.5v5.61Z" transform="translate(1.96 1.96)"/>
  </g>
  <g id="Made_in_East_Austin_Texas" data-name="Made in East Austin, Texas">
    <path class="cls-1" d="M237.53,99.93h0v6.3h-1.44V97.91h2.18l2.59,6.16,2.64-6.16h2.14v8.31h-1.44v-6.3h0l-2.66,6.3h-1.29Z" transform="translate(1.96 1.96)"/>
    <path class="cls-1" d="M255.31,97.91h1.85l4,8.31h-1.71l-.87-1.91h-4.79l-.88,1.91h-1.73Zm2.66,5-1.74-3.7-1.74,3.7Z" transform="translate(1.96 1.96)"/>
    <path class="cls-1" d="M266.83,97.91h4c2.63,0,4.73,1.11,4.73,4.1,0,2.83-1.92,4.21-4.66,4.21h-4.07Zm3.27,6.91c2.77,0,3.84-.85,3.84-2.79s-1.12-2.73-3.84-2.73h-1.65v5.52Z" transform="translate(1.96 1.96)"/>
    <path class="cls-1" d="M281.56,97.91H289v1.39h-5.83v1.93h5v1.39h-5v2.19h6v1.39h-7.59Z" transform="translate(1.96 1.96)"/>
    <path class="cls-1" d="M303.81,97.91h1.62v8.31h-1.62Z" transform="translate(1.96 1.96)"/>
    <path class="cls-1" d="M312.07,97.91h1.71l5.55,6v-6h1.55v8.31h-1.49L313.63,100v6.22h-1.55Z" transform="translate(1.96 1.96)"/>
    <path class="cls-1" d="M336.12,97.91h7.45v1.39h-5.83v1.93h5v1.39h-5v2.19h6v1.39h-7.59Z" transform="translate(1.96 1.96)"/>
    <path class="cls-1" d="M352.78,97.91h1.85l4,8.31h-1.71l-.87-1.91h-4.79l-.88,1.91h-1.73Zm2.66,5-1.74-3.7-1.74,3.7Z" transform="translate(1.96 1.96)"/>
    <path class="cls-1" d="M370.77,100.44c-.26-.74-.94-1.38-2.91-1.38-1.1,0-2.21.27-2.21,1,0,.35.21.73,1.86.94l2,.3c1.86.29,3,1,3,2.4,0,2-1.87,2.7-4.09,2.7-3.57,0-4.43-1.76-4.63-2.39l1.57-.49c.3.61.91,1.49,3.11,1.49,1.33,0,2.42-.43,2.42-1.15,0-.54-.62-.89-1.81-1l-2-.27c-1.92-.26-3-1.1-3-2.37,0-2.49,3.23-2.49,3.87-2.49,3.58,0,4.19,1.66,4.4,2.23Z" transform="translate(1.96 1.96)"/>
    <path class="cls-1" d="M381.35,99.31h-3.71V97.91h9.05v1.39H383v6.91h-1.62Z" transform="translate(1.96 1.96)"/>
    <path class="cls-1" d="M404.36,97.91h1.85l4,8.31h-1.71l-.87-1.91h-4.79l-.88,1.91h-1.73Zm2.66,5-1.74-3.7-1.74,3.7Z" transform="translate(1.96 1.96)"/>
    <path class="cls-1" d="M424.71,102.66c0,2.67-1.7,3.77-4.41,3.77s-4.41-1.1-4.41-3.77V97.91h1.62v4.63c0,1.37.49,2.49,2.79,2.49s2.79-1.12,2.79-2.49V97.91h1.62Z" transform="translate(1.96 1.96)"/>
    <path class="cls-1" d="M437.71,100.44c-.26-.74-.94-1.38-2.92-1.38-1.1,0-2.21.27-2.21,1,0,.35.21.73,1.86.94l2,.3c1.86.29,3,1,3,2.4,0,2-1.87,2.7-4.09,2.7-3.57,0-4.43-1.76-4.63-2.39l1.57-.49c.3.61.91,1.49,3.11,1.49,1.33,0,2.42-.43,2.42-1.15,0-.54-.62-.89-1.81-1l-2-.27c-1.92-.26-3-1.1-3-2.37,0-2.49,3.23-2.49,3.87-2.49,3.58,0,4.19,1.66,4.4,2.23Z" transform="translate(1.96 1.96)"/>
    <path class="cls-1" d="M448.28,99.31h-3.71V97.91h9.05v1.39h-3.71v6.91h-1.62Z" transform="translate(1.96 1.96)"/>
    <path class="cls-1" d="M459.5,97.91h1.62v8.31H459.5Z" transform="translate(1.96 1.96)"/>
    <path class="cls-1" d="M467.76,97.91h1.71l5.55,6v-6h1.55v8.31H475.1L469.31,100v6.22h-1.55Z" transform="translate(1.96 1.96)"/>
    <path class="cls-1" d="M483.43,104.6H485v1.68l-.72,1.7h-.75l.62-1.76h-.66Z" transform="translate(1.96 1.96)"/>
    <path class="cls-1" d="M503.46,99.31h-3.71V97.91h9.05v1.39h-3.71v6.91h-1.62Z" transform="translate(1.96 1.96)"/>
    <path class="cls-1" d="M514.57,97.91H522v1.39H516.2v1.93h5v1.39h-5v2.19h6v1.39h-7.59Z" transform="translate(1.96 1.96)"/>
    <path class="cls-1" d="M531.84,103.09l-2.65,3.13h-2.11l3.76-4.3-3.47-4h2.07l2.41,2.85,2.4-2.85h2.06l-3.49,4,3.74,4.3h-2.08Z" transform="translate(1.96 1.96)"/>
    <path class="cls-1" d="M545.32,97.91h1.85l4,8.31h-1.71l-.87-1.91h-4.79l-.88,1.91h-1.73Zm2.66,5-1.74-3.7-1.74,3.7Z" transform="translate(1.96 1.96)"/>
    <path class="cls-1" d="M563.31,100.44c-.26-.74-.94-1.38-2.92-1.38-1.1,0-2.21.27-2.21,1,0,.35.21.73,1.86.94l2,.3c1.86.29,3,1,3,2.4,0,2-1.87,2.7-4.09,2.7-3.57,0-4.43-1.76-4.63-2.39l1.57-.49c.3.61.92,1.49,3.11,1.49,1.33,0,2.42-.43,2.42-1.15,0-.54-.62-.89-1.81-1l-2-.27c-1.92-.26-3-1.1-3-2.37,0-2.49,3.23-2.49,3.87-2.49,3.58,0,4.19,1.66,4.4,2.23Z" transform="translate(1.96 1.96)"/>
  </g>
  <g id="Cider_is_for_Sharing" data-name="Cider is for Sharing">
    <g>
      <path class="cls-1" d="M636.6,71.44h2V81.67h-2Z" transform="translate(1.96 1.96)"/>
      <path class="cls-1" d="M657.41,74.55c-.32-.91-1.15-1.7-3.59-1.7-1.35,0-2.72.34-2.72,1.28,0,.44.25.9,2.29,1.15l2.42.37c2.29.35,3.64,1.24,3.64,3,0,2.42-2.31,3.32-5,3.32-4.39,0-5.46-2.17-5.7-2.94l1.93-.6c.37.75,1.13,1.83,3.83,1.83,1.63,0,3-.54,3-1.42,0-.66-.76-1.1-2.22-1.28l-2.45-.34c-2.36-.32-3.69-1.35-3.69-2.91,0-3.07,4-3.07,4.77-3.07,4.4,0,5.16,2,5.42,2.74Z" transform="translate(1.96 1.96)"/>
      <path class="cls-1" d="M682.85,71.44h9.41v1.72h-7.41v2.38h6.37v1.72h-6.37v4.42h-2Z" transform="translate(1.96 1.96)"/>
      <path class="cls-1" d="M707.52,71.19c4.5,0,6.09,2.65,6.09,5.45,0,2.12-1.25,5.29-6.09,5.29s-6.09-3.17-6.09-5.29C701.43,73.84,703,71.19,707.52,71.19Zm4.09,5.33c0-2.46-1.76-3.62-4.09-3.62s-4.09,1.15-4.09,3.62c0,2.9,2.18,3.69,4.09,3.69S711.62,79.42,711.62,76.52Z" transform="translate(1.96 1.96)"/>
      <path class="cls-1" d="M723.68,71.44h6.15c2.42,0,4.16.55,4.16,3.05a2.9,2.9,0,0,1-2.86,3l3.14,4.16h-2.46l-3-4h-3.17v4h-2ZM729.53,76c1.63,0,2.46-.24,2.46-1.45s-.83-1.43-2.46-1.43h-3.85V76Z" transform="translate(1.96 1.96)"/>
    </g>
    <g>
      <path class="cls-1" d="M643.07,97.25a2.9,2.9,0,0,0-2.82-2.06c-1.31,0-2.25.53-2.25,1.75,0,2.71,8.13,2.14,8.13,7.26,0,3.24-2,4.85-5.53,4.85a6.26,6.26,0,0,1-5.9-3.74l2.49-1.09c.72,1.49,1.66,2.47,3.43,2.47,1.51,0,2.67-.57,2.67-2.1,0-3.1-8.13-2.49-8.13-7.35,0-2.82,2.36-4.42,5.09-4.42a5.75,5.75,0,0,1,5.58,3.56Z" transform="translate(1.96 1.96)"/>
      <path class="cls-1" d="M650.42,108.84V93.05h3v6.3h6.08v-6.3h3v15.79h-3v-6.78h-6.08v6.78Z" transform="translate(1.96 1.96)"/>
      <path class="cls-1" d="M670.52,93h3.76l4.48,15.81h-3l-.87-3.41h-5l-.94,3.41h-3Zm0,9.9h3.67l-1.77-6.87h0Z" transform="translate(1.96 1.96)"/>
      <path class="cls-1" d="M682.07,108.84V93.05h6.3c3.59,0,5,2.08,5.05,4.68a3.91,3.91,0,0,1-2.89,4.07l3.48,7h-3.35l-3-6.43h-2.6v6.43Zm3-8.88h2.23c2.36,0,3.08-.74,3.08-2.23s-.9-2.23-2.56-2.23h-2.76Z" transform="translate(1.96 1.96)"/>
      <path class="cls-1" d="M698.38,108.84V93.05h3v15.79Z" transform="translate(1.96 1.96)"/>
      <path class="cls-1" d="M706.63,108.84V93.05h3.15L716,103.81h0V93.05h2.84v15.79H716L709.52,97.6h0v11.24Z" transform="translate(1.96 1.96)"/>
      <path class="cls-1" d="M732.13,97.6A3.15,3.15,0,0,0,729,95.37c-2.23,0-3.32,2.23-3.32,5.73,0,3.32,1.25,5.42,3.34,5.42a3.12,3.12,0,0,0,3.3-3.13h-3v-2.54h5.9v8H733v-1.62a5,5,0,0,1-4.11,1.84c-4.29,0-6.28-3.41-6.28-7.87,0-4,1.53-8.35,6.58-8.35a5.58,5.58,0,0,1,5.73,4Z" transform="translate(1.96 1.96)"/>
    </g>
    <g>
      <path class="cls-1" d="M645.47,41.19V39.1c0-2.28-1-3.25-2.24-3.25-1.87,0-2.46,1-2.46,3V52.49c0,2,.6,3,2.46,3,1.68,0,2.24-1,2.24-2.72V49.51h4.63v3.1c0,3.81-2.24,6.9-6.86,6.9-4.85,0-7.09-3.1-7.09-6.9V38.73c0-3.81,2.24-6.9,7.09-6.9,4.63,0,6.86,3.36,6.86,7.39v2Z" transform="translate(1.96 1.96)"/>
      <path class="cls-1" d="M660.28,59.13V32.2h4.63V59.13Z" transform="translate(1.96 1.96)"/>
      <path class="cls-1" d="M674.86,32.2h6.87c4.78,0,7.31,2.61,7.31,8.13V51c0,5.52-2.54,8.13-7.31,8.13h-6.87Zm4.63,23.13h1.6c2.46,0,3.32-.93,3.32-3.77V39.77c0-2.84-.86-3.77-3.32-3.77h-1.6Z" transform="translate(1.96 1.96)"/>
      <path class="cls-1" d="M698.36,59.13V32.2h12.39v4H703v6.94h6v4h-6V55.1h8.28v4Z" transform="translate(1.96 1.96)"/>
      <path class="cls-1" d="M724.4,59.13h-4.63V32.2h6.49c5.19,0,7.83,2.2,7.83,7.95,0,4.33-1.68,6.08-3.25,6.79l3.92,12.2h-4.7L726.79,48a22.17,22.17,0,0,1-2.39.11Zm0-14.85H726c2.5,0,3.43-.93,3.43-4.14S728.54,36,726,36H724.4Z" transform="translate(1.96 1.96)"/>
    </g>
  </g>
  <g id="Est._2016" data-name="Est. 2016">
    <g>
      <path class="cls-1" d="M245.85,177.9H234.38V176A12.08,12.08,0,0,1,236,174.6a16.91,16.91,0,0,1,1.82-1.12q1-.52,1.65-.93a4.35,4.35,0,0,0,1-.85,2.49,2.49,0,0,0,.55-.9,3.39,3.39,0,0,0,.16-1.09,2.62,2.62,0,0,0-.64-2,2.33,2.33,0,0,0-1.69-.61,3.8,3.8,0,0,0-.62,0,2.87,2.87,0,0,0-.61.17q.16.48.31,1a4,4,0,0,1,.15,1.13,1.47,1.47,0,0,1-.54,1.2,2.09,2.09,0,0,1-1.37.44,1.62,1.62,0,0,1-1.26-.52,1.81,1.81,0,0,1-.47-1.26,2.67,2.67,0,0,1,1.5-2.23,6.76,6.76,0,0,1,3.66-.94,8.27,8.27,0,0,1,4,.86,2.93,2.93,0,0,1,1.54,2.76,2.79,2.79,0,0,1-.41,1.59,3.53,3.53,0,0,1-1.2,1.06,7.42,7.42,0,0,1-1.57.68q-.86.27-1.85.51a16.5,16.5,0,0,0-1.82.56,6.61,6.61,0,0,0-1.38.71V175h8.83Z" transform="translate(1.96 1.96)"/>
      <path class="cls-1" d="M260.62,168a5.42,5.42,0,0,1,1.19,1.93,6.66,6.66,0,0,1,.39,2.25,6.25,6.25,0,0,1-.48,2.5,5.49,5.49,0,0,1-1.32,1.89,6.05,6.05,0,0,1-2,1.23,7.81,7.81,0,0,1-2.68.42,7.42,7.42,0,0,1-2.82-.5,6.07,6.07,0,0,1-2-1.31,5.36,5.36,0,0,1-1.22-1.89,6.79,6.79,0,0,1,0-4.63A5.55,5.55,0,0,1,250.8,168a5.82,5.82,0,0,1,2-1.34,8.35,8.35,0,0,1,5.74,0A5.9,5.9,0,0,1,260.62,168Zm-3,7.88a6.36,6.36,0,0,0,.44-1.58,14.4,14.4,0,0,0,.13-2.12,15.19,15.19,0,0,0-.12-2,6.53,6.53,0,0,0-.41-1.6,2.72,2.72,0,0,0-.78-1.11,1.85,1.85,0,0,0-1.2-.39,1.88,1.88,0,0,0-1.21.39,2.77,2.77,0,0,0-.79,1.1,6.16,6.16,0,0,0-.4,1.58,17.38,17.38,0,0,0,0,4.06,6.93,6.93,0,0,0,.41,1.59,2.68,2.68,0,0,0,.76,1.11,1.83,1.83,0,0,0,1.23.42,1.88,1.88,0,0,0,1.17-.38A2.56,2.56,0,0,0,257.64,175.93Z" transform="translate(1.96 1.96)"/>
      <path class="cls-1" d="M274.59,177.9h-8.73v-.8l1-.11a5.6,5.6,0,0,0,.95-.17,1,1,0,0,0,.5-.36,1.19,1.19,0,0,0,.18-.7v-6.71h-2.68v-1h.58a5.6,5.6,0,0,0,1.59-.2,4.4,4.4,0,0,0,1.12-.49,3.85,3.85,0,0,0,.75-.61,5.57,5.57,0,0,0,.46-.56h1.86q0,.69-.06,1.61t0,1.65v6.2a1.29,1.29,0,0,0,.16.66,1.07,1.07,0,0,0,.47.43,3.89,3.89,0,0,0,.92.23q.65.11,1,.13Z" transform="translate(1.96 1.96)"/>
      <path class="cls-1" d="M289.65,173a4.84,4.84,0,0,1-1.69,3.76,6.21,6.21,0,0,1-4.31,1.51,5.84,5.84,0,0,1-4.4-1.72,6.37,6.37,0,0,1-1.66-4.62,8.53,8.53,0,0,1,2.61-6.4,11.87,11.87,0,0,1,7.1-3.06l.24,1-1.12.19a6.77,6.77,0,0,0-2.14,1,5.93,5.93,0,0,0-1.42,1.39,6.13,6.13,0,0,0-.85,1.7,13.51,13.51,0,0,0-.47,1.87,5.08,5.08,0,0,1,1.83-1.11,6.41,6.41,0,0,1,1.94-.29,4.08,4.08,0,0,1,3.08,1.33A4.8,4.8,0,0,1,289.65,173Zm-3.91.29a5.17,5.17,0,0,0-.59-2.66,1.77,1.77,0,0,0-1.57-1,2.7,2.7,0,0,0-1.14.22,2.61,2.61,0,0,0-1,.93s0,.1,0,.18,0,.2,0,.34,0,.3,0,.43,0,.25,0,.34A9.63,9.63,0,0,0,282,176q.62,1.35,1.59,1.35a1.71,1.71,0,0,0,1.52-1.06A6.34,6.34,0,0,0,285.73,173.29Z" transform="translate(1.96 1.96)"/>
    </g>
    <g>
      <path class="cls-1" d="M233.91,153.72h5.24v1h-4.1v1.36h3.53v1h-3.53v1.54h4.2v1h-5.34Z" transform="translate(1.96 1.96)"/>
      <path class="cls-1" d="M247.94,155.49c-.18-.52-.66-1-2.05-1-.77,0-1.55.19-1.55.73,0,.25.15.51,1.31.66l1.38.21c1.31.2,2.08.71,2.08,1.69,0,1.38-1.32,1.9-2.88,1.9-2.51,0-3.12-1.24-3.26-1.68l1.1-.35c.21.43.64,1,2.19,1,.93,0,1.7-.31,1.7-.81s-.43-.63-1.27-.73l-1.4-.19c-1.35-.18-2.11-.77-2.11-1.67,0-1.75,2.28-1.75,2.73-1.75,2.52,0,3,1.17,3.1,1.57Z" transform="translate(1.96 1.96)"/>
      <path class="cls-1" d="M255.39,154.7h-2.61v-1h6.37v1h-2.61v4.87h-1.14Z" transform="translate(1.96 1.96)"/>
      <path class="cls-1" d="M263.45,158.42h1.07v1.14h-1.07Z" transform="translate(1.96 1.96)"/>
    </g>
  </g>
  <g id="Handcrafted_in_the_Heart_of_Texas" data-name="Handcrafted in the Heart of Texas">
    <g>
      <path class="cls-1" d="M344.36,153.72h1.14V156h3.92v-2.32h1.14v5.85h-1.14V157H345.5v2.52h-1.14Z" transform="translate(1.96 1.96)"/>
      <path class="cls-1" d="M357.43,153.72h1.3l2.84,5.85h-1.21l-.61-1.34h-3.37l-.62,1.34h-1.21Zm1.87,3.52-1.22-2.61-1.22,2.61Z" transform="translate(1.96 1.96)"/>
      <path class="cls-1" d="M365.54,153.72h1.21l3.91,4.22v-4.22h1.09v5.85h-1l-4.07-4.37v4.38h-1.09Z" transform="translate(1.96 1.96)"/>
      <path class="cls-1" d="M376.36,153.72h2.81c1.85,0,3.33.78,3.33,2.89s-1.35,3-3.28,3h-2.86Zm2.3,4.86c1.95,0,2.7-.59,2.7-2s-.79-1.92-2.7-1.92H377.5v3.88Z" transform="translate(1.96 1.96)"/>
      <path class="cls-1" d="M399,157.48c-.11.65-.58,2.23-3.26,2.23a3,3,0,0,1-3.31-3.16c0-1.71,1.07-3,3.39-3,2.61,0,3,1.7,3.09,2h-1.14a1.85,1.85,0,0,0-1.88-1,2.09,2.09,0,1,0-.06,4.17,2,2,0,0,0,2-1.25Z" transform="translate(1.96 1.96)"/>
      <path class="cls-1" d="M403.22,153.72h3.51c1.38,0,2.38.31,2.38,1.74a1.66,1.66,0,0,1-1.63,1.72l1.79,2.38h-1.41l-1.7-2.3h-1.81v2.3h-1.14Zm3.34,2.6c.93,0,1.41-.14,1.41-.83s-.47-.82-1.41-.82h-2.2v1.65Z" transform="translate(1.96 1.96)"/>
      <path class="cls-1" d="M415.85,153.72h1.3l2.84,5.85h-1.21l-.61-1.34H414.8l-.62,1.34H413Zm1.87,3.52-1.22-2.61-1.22,2.61Z" transform="translate(1.96 1.96)"/>
      <path class="cls-1" d="M424,153.72h5.38v1h-4.24v1.36h3.64v1h-3.64v2.53H424Z" transform="translate(1.96 1.96)"/>
      <path class="cls-1" d="M435.53,154.7h-2.61v-1h6.37v1h-2.61v4.87h-1.14Z" transform="translate(1.96 1.96)"/>
      <path class="cls-1" d="M443.36,153.72h5.24v1h-4.1v1.36H448v1H444.5v1.54h4.2v1h-5.34Z" transform="translate(1.96 1.96)"/>
      <path class="cls-1" d="M452.83,153.72h2.81c1.85,0,3.33.78,3.33,2.89s-1.35,3-3.28,3h-2.86Zm2.3,4.86c1.95,0,2.7-.59,2.7-2s-.79-1.92-2.7-1.92H454v3.88Z" transform="translate(1.96 1.96)"/>
      <path class="cls-1" d="M469.4,153.72h1.14v5.85H469.4Z" transform="translate(1.96 1.96)"/>
      <path class="cls-1" d="M475.22,153.72h1.21l3.91,4.22v-4.22h1.09v5.85h-1l-4.07-4.37v4.38h-1.09Z" transform="translate(1.96 1.96)"/>
      <path class="cls-1" d="M494.24,154.7h-2.61v-1H498v1h-2.61v4.87h-1.14Z" transform="translate(1.96 1.96)"/>
      <path class="cls-1" d="M502.07,153.72h1.14V156h3.92v-2.32h1.14v5.85h-1.14V157h-3.92v2.52h-1.14Z" transform="translate(1.96 1.96)"/>
      <path class="cls-1" d="M512.88,153.72h5.24v1H514v1.36h3.53v1H514v1.54h4.2v1h-5.34Z" transform="translate(1.96 1.96)"/>
    </g>
    <g>
      <path class="cls-1" d="M345.19,180.33V167.26h2.5v5.21h5v-5.21h2.5v13.07h-2.5v-5.61h-5v5.61Z" transform="translate(1.96 1.96)"/>
      <path class="cls-1" d="M359.35,180.33V167.26H368v2.1h-6.15v3.11h4.47v2.1h-4.47v3.66h6.35v2.1Z" transform="translate(1.96 1.96)"/>
      <path class="cls-1" d="M374,167.24h3.11l3.71,13.08h-2.48l-.72-2.82h-4.13l-.78,2.82h-2.48Zm0,8.2h3l-1.47-5.68h0Z" transform="translate(1.96 1.96)"/>
      <path class="cls-1" d="M383.53,180.33V167.26h5.21c3,0,4.16,1.72,4.18,3.87a3.23,3.23,0,0,1-2.39,3.37l2.88,5.83h-2.77L388.18,175H386v5.32ZM386,173h1.85c2,0,2.55-.62,2.55-1.85s-.74-1.85-2.12-1.85H386Z" transform="translate(1.96 1.96)"/>
      <path class="cls-1" d="M405,167.24v2.1h-3.42v11h-2.5v-11h-3.42v-2.1Z" transform="translate(1.96 1.96)"/>
      <path class="cls-1" d="M419.07,180.51c-3.56,0-5.48-2.44-5.48-6.71s1.92-6.71,5.48-6.71,5.48,2.44,5.48,6.71S422.63,180.51,419.07,180.51Zm0-11.33c-2,0-3,1.56-3,4.61s.92,4.62,3,4.62,3-1.56,3-4.62S421.11,169.18,419.07,169.18Z" transform="translate(1.96 1.96)"/>
      <path class="cls-1" d="M427.61,180.33V167.26h8.32v2.1h-5.83v3.11h4.36v2.1h-4.36v5.75Z" transform="translate(1.96 1.96)"/>
      <path class="cls-1" d="M453.66,167.24v2.1h-3.42v11h-2.5v-11h-3.42v-2.1Z" transform="translate(1.96 1.96)"/>
      <path class="cls-1" d="M456.63,180.33V167.26h8.65v2.1h-6.15v3.11h4.47v2.1h-4.47v3.66h6.35v2.1Z" transform="translate(1.96 1.96)"/>
      <path class="cls-1" d="M467.62,167.26h2.71l2,4,2-4H477l-3.31,6.37,3.53,6.7h-2.71l-2.17-4.43-2.17,4.43H467.4l3.53-6.7Z" transform="translate(1.96 1.96)"/>
      <path class="cls-1" d="M482.41,167.24h3.11l3.71,13.08h-2.48L486,177.5H481.9l-.78,2.82h-2.48Zm0,8.2h3L484,169.76h0Z" transform="translate(1.96 1.96)"/>
      <path class="cls-1" d="M498.14,170.74a2.4,2.4,0,0,0-2.33-1.7c-1.09,0-1.86.43-1.86,1.45,0,2.24,6.73,1.77,6.73,6,0,2.68-1.68,4-4.58,4a5.18,5.18,0,0,1-4.89-3.09l2.06-.9a3,3,0,0,0,2.84,2c1.25,0,2.21-.47,2.21-1.74,0-2.57-6.73-2.06-6.73-6.08,0-2.33,2-3.66,4.22-3.66a4.76,4.76,0,0,1,4.62,3Z" transform="translate(1.96 1.96)"/>
    </g>
  </g>
  <line class="cls-2" x1="215.33" y1="1.96" x2="215.33" y2="199.43"/>
  <line class="cls-2" x1="585.76" y1="1.96" x2="585.76" y2="201.44"/>
  <line class="cls-2" x1="327.29" y1="135.93" x2="327.29" y2="201.44"/>
  <line class="cls-2" x1="583.47" y1="135.93" x2="215.61" y2="135.93"/>
  <polyline class="cls-3" points="324.31 1.96 797.96 1.96 797.96 201.96 1.96 201.96 1.96 1.96 324.31 1.96"/>
</svg>
