 <svg xmlns="http://www.w3.org/2000/svg" viewBox="0 0 478 255.9">
  <title>home-frame-640</title>
  <g id="Handcrafted_in_the_Heart_of_Texas" data-name="Handcrafted in the Heart of Texas">
    <path d="M169.94,231.33V214.56h3.21v6.69h6.46v-6.69h3.21v16.77H179.6v-7.2h-6.46v7.2Z" style="fill: #ebece8"/>
    <path d="M188.1,231.33V214.56h11.1v2.69h-7.9v4H197v2.69h-5.74v4.69h8.15v2.69Z" style="fill: #ebece8"/>
    <path d="M206.87,214.54h4l4.76,16.79h-3.18l-.93-3.62h-5.29l-1,3.62H202Zm0,10.52h3.9l-1.88-7.29h0Z" style="fill: #ebece8"/>
    <path d="M219.13,231.33V214.56h6.69c3.81,0,5.34,2.21,5.36,5a4.15,4.15,0,0,1-3.07,4.32l3.69,7.48h-3.55l-3.16-6.83h-2.76v6.83Zm3.21-9.43h2.37c2.51,0,3.27-.79,3.27-2.37s-1-2.37-2.72-2.37h-2.93Z" style="fill: #ebece8"/>
    <path d="M246.65,214.54v2.69h-4.39v14.1h-3.2v-14.1h-4.39v-2.69Z" style="fill: #ebece8"/>
    <path d="M264.71,231.56c-4.58,0-7-3.14-7-8.62s2.46-8.62,7-8.62,7,3.14,7,8.62S269.29,231.56,264.71,231.56Zm0-14.54c-2.62,0-3.83,2-3.83,5.92s1.18,5.92,3.83,5.92,3.83-2,3.83-5.92-1.2-5.94-3.83-5.94Z" style="fill: #ebece8"/>
    <path d="M275.67,231.33V214.56h10.68v2.69h-7.48v4h5.6v2.69h-5.6v7.39Z" style="fill: #ebece8"/>
    <path d="M309.09,214.54v2.69H304.7v14.1h-3.2v-14.1h-4.39v-2.69Z" style="fill: #ebece8"/>
    <path d="M312.9,231.33V214.56H324v2.69h-7.9v4h5.74v2.69H316.1v4.69h8.15v2.69Z" style="fill: #ebece8"/>
    <path d="M327,214.56h3.48l2.51,5.18,2.51-5.18H339l-4.25,8.17,4.53,8.59H335.8l-2.8-5.68-2.79,5.69h-3.48l4.53-8.59Z" style="fill: #ebece8"/>
    <path d="M346,214.54h4l4.76,16.79h-3.18l-.93-3.62h-5.29l-1,3.62h-3.18Zm0,10.52h3.9l-1.9-7.29h0Z" style="fill: #ebece8"/>
    <path d="M366.15,219a3.08,3.08,0,0,0-3-2.18c-1.39,0-2.39.56-2.39,1.86,0,2.88,8.64,2.28,8.64,7.71,0,3.44-2.16,5.16-5.88,5.16a6.65,6.65,0,0,1-6.27-4l2.65-1.16c.77,1.58,1.77,2.62,3.65,2.62,1.6,0,2.83-.6,2.83-2.23,0-3.3-8.64-2.65-8.64-7.8,0-3,2.51-4.69,5.41-4.69a6.11,6.11,0,0,1,5.92,3.79Z" style="fill: #ebece8"/>
    <path d="M168.88,197.19h1.46v3h5v-3h1.46v7.5h-1.46v-3.23h-5v3.23h-1.46Z" style="fill: #ebece8"/>
    <path d="M185.64,197.19h1.67l3.64,7.5H189.4l-.78-1.72H184.3l-.79,1.72H182Zm2.4,4.52-1.57-3.34-1.57,3.34Z" style="fill: #ebece8"/>
    <path d="M196.05,197.19h1.55l5,5.42v-5.42H204v7.5h-1.34l-5.22-5.61v5.61H196Z" style="fill: #ebece8"/>
    <path d="M209.93,197.19h3.61c2.37,0,4.27,1,4.27,3.7s-1.73,3.8-4.21,3.8h-3.67Zm2.95,6.24c2.5,0,3.47-.76,3.47-2.52s-1-2.47-3.47-2.47h-1.49v5Z" style="fill: #ebece8"/>
    <path d="M239,202c-.14.84-.74,2.86-4.19,2.86-2.37,0-4.24-1.32-4.24-4.05,0-2.19,1.37-3.82,4.35-3.82,3.35,0,3.85,2.18,4,2.58h-1.46a2.37,2.37,0,0,0-2.41-1.32c-2.07,0-2.94,1.17-2.94,2.72a2.57,2.57,0,0,0,2.49,2.65l.37,0a2.5,2.5,0,0,0,2.61-1.6Z" style="fill: #ebece8"/>
    <path d="M244.39,197.19h4.51c1.77,0,3.05.4,3.05,2.24a2.12,2.12,0,0,1-2,2.21h-.06l2.3,3.05h-1.81l-2.18-3h-2.32v3h-1.46Zm4.29,3.33c1.2,0,1.81-.18,1.81-1.06s-.61-1.05-1.81-1.05h-2.83v2.11Z" style="fill: #ebece8"/>
    <path d="M260.58,197.19h1.67l3.64,7.5h-1.55l-.78-1.72h-4.32l-.79,1.72h-1.56Zm2.4,4.52-1.57-3.34-1.57,3.34Z" style="fill: #ebece8"/>
    <path d="M271,197.19h6.9v1.26h-5.44v1.74h4.67v1.26h-4.67v3.24H271Z" style="fill: #ebece8"/>
    <path d="M285.83,198.45h-3.35v-1.26h8.17v1.26H287.3v6.24h-1.46Z" style="fill: #ebece8"/>
    <path d="M295.87,197.19h6.73v1.26h-5.26v1.74h4.53v1.26h-4.53v2h5.38v1.26h-6.85Z" style="fill: #ebece8"/>
    <path d="M308,197.19h3.61c2.37,0,4.27,1,4.27,3.7s-1.73,3.8-4.21,3.8H308Zm3,6.24c2.5,0,3.47-.76,3.47-2.52s-1-2.47-3.47-2.47h-1.5v5Z" style="fill: #ebece8"/>
    <path d="M329.28,197.19h1.46v7.5h-1.46Z" style="fill: #ebece8"/>
    <path d="M336.74,197.19h1.55l5,5.42v-5.42h1.4v7.5h-1.34l-5.22-5.61v5.61h-1.4Z" style="fill: #ebece8"/>
    <path d="M361.14,198.45h-3.35v-1.26H366v1.26h-3.35v6.24h-1.46Z" style="fill: #ebece8"/>
    <path d="M371.19,197.19h1.46v3h5v-3h1.46v7.5h-1.46v-3.23h-5v3.23h-1.46Z" style="fill: #ebece8"/>
    <path d="M385.06,197.19h6.73v1.26h-5.26v1.74h4.53v1.26h-4.53v2h5.38v1.26h-6.85Z" style="fill: #ebece8"/>
  </g>
  <g id="Established_2016" data-name="Established 2016">
    <g>
      <g>
        <path d="M42.5,228.22H27.79v-2.46A15.5,15.5,0,0,1,29.9,224a21.56,21.56,0,0,1,2.33-1.43q1.26-.67,2.12-1.19a5.62,5.62,0,0,0,1.35-1.09,3.2,3.2,0,0,0,.7-1.15,4.36,4.36,0,0,0,.21-1.4,3.36,3.36,0,0,0-.82-2.51,3,3,0,0,0-2.16-.79,5,5,0,0,0-.8.06,3.79,3.79,0,0,0-.78.22q.2.61.39,1.26a5.17,5.17,0,0,1,.19,1.45,1.88,1.88,0,0,1-.69,1.53,2.68,2.68,0,0,1-1.76.57,2.08,2.08,0,0,1-1.62-.67,2.31,2.31,0,0,1-.6-1.61,3.42,3.42,0,0,1,1.93-2.86,8.67,8.67,0,0,1,4.7-1.21,10.61,10.61,0,0,1,5.18,1.1,3.75,3.75,0,0,1,2,3.54,3.58,3.58,0,0,1-.52,2,4.52,4.52,0,0,1-1.54,1.36,9.55,9.55,0,0,1-2,.87q-1.11.34-2.37.65a21.34,21.34,0,0,0-2.34.72,8.48,8.48,0,0,0-1.77.91v.15H42.5Z" style="fill: #ebece8"/>
        <path d="M61.44,215.57A7,7,0,0,1,63,218a8.54,8.54,0,0,1,.5,2.88,8,8,0,0,1-.62,3.21,7,7,0,0,1-1.69,2.42,7.76,7.76,0,0,1-2.62,1.57,10,10,0,0,1-3.43.54,9.55,9.55,0,0,1-3.62-.64,7.79,7.79,0,0,1-2.61-1.68,6.88,6.88,0,0,1-1.57-2.43,8.72,8.72,0,0,1,0-5.94,7.13,7.13,0,0,1,1.57-2.46,7.48,7.48,0,0,1,2.62-1.72,10.7,10.7,0,0,1,7.37,0A7.56,7.56,0,0,1,61.44,215.57Zm-3.83,10.11a8.16,8.16,0,0,0,.56-2,18.58,18.58,0,0,0,.17-2.72,19.56,19.56,0,0,0-.16-2.59,8.38,8.38,0,0,0-.52-2,3.48,3.48,0,0,0-1-1.43,2.37,2.37,0,0,0-1.53-.5,2.41,2.41,0,0,0-1.55.5,3.55,3.55,0,0,0-1,1.4,7.94,7.94,0,0,0-.52,2,22.28,22.28,0,0,0,0,5.2,8.84,8.84,0,0,0,.52,2,3.46,3.46,0,0,0,1,1.42,2.35,2.35,0,0,0,1.57.54,2.41,2.41,0,0,0,1.51-.49,3.28,3.28,0,0,0,1-1.33Z" style="fill: #ebece8"/>
        <path d="M79.37,228.22H68.17v-1a9.4,9.4,0,0,0,1.3-.14,7.3,7.3,0,0,0,1.21-.22,1.24,1.24,0,0,0,.64-.46,1.53,1.53,0,0,0,.23-.9v-8.6H68.12v-1.29h.75a7.17,7.17,0,0,0,2-.26,5.65,5.65,0,0,0,1.43-.62,5,5,0,0,0,1-.79,7.21,7.21,0,0,0,.59-.72h2.39q0,.88-.08,2.06a14,14,0,0,0,0,2.12v8a1.65,1.65,0,0,0,.21.85,1.37,1.37,0,0,0,.6.55,5,5,0,0,0,1.18.3,11.85,11.85,0,0,0,1.22.16Z" style="fill: #ebece8"/>
        <path d="M98.68,221.94a6.21,6.21,0,0,1-2.16,4.82A8,8,0,0,1,91,228.7a7.49,7.49,0,0,1-5.65-2.21,8.16,8.16,0,0,1-2.13-5.92,10.94,10.94,0,0,1,3.35-8.21,15.23,15.23,0,0,1,9.11-3.92l.31,1.34-1.44.24a8.71,8.71,0,0,0-2.75,1.23A7.63,7.63,0,0,0,90,213a7.87,7.87,0,0,0-1.09,2.18,17.36,17.36,0,0,0-.6,2.4,6.51,6.51,0,0,1,2.34-1.42,8.21,8.21,0,0,1,2.49-.37,5.24,5.24,0,0,1,3.95,1.7A6.16,6.16,0,0,1,98.68,221.94Zm-5,.37a6.63,6.63,0,0,0-.75-3.41,2.27,2.27,0,0,0-2-1.26,3.46,3.46,0,0,0-1.46.28,3.34,3.34,0,0,0-1.24,1.19v1.67a12.35,12.35,0,0,0,.79,5q.79,1.73,2,1.73A2.2,2.2,0,0,0,93,226.15a8.14,8.14,0,0,0,.69-3.85Z" style="fill: #ebece8"/>
      </g>
      <g>
        <path d="M27.18,197.2h6.73v1.26H28.65v1.74h4.53v1.26H28.65v2H34v1.26H27.18Z" style="fill: #ebece8"/>
        <path d="M45.18,199.47c-.24-.67-.85-1.25-2.63-1.25-1,0-2,.25-2,.94,0,.32.19.66,1.68.85l1.77.27c1.68.26,2.67.91,2.67,2.17,0,1.77-1.69,2.43-3.69,2.43-3.22,0-4-1.59-4.18-2.16l1.41-.44c.27.55.83,1.34,2.81,1.34,1.2,0,2.19-.39,2.19-1s-.56-.8-1.63-.94l-1.79-.25c-1.73-.24-2.7-1-2.7-2.14,0-2.25,2.92-2.25,3.5-2.25,3.23,0,3.79,1.5,4,2Z" style="fill: #ebece8"/>
        <path d="M54.74,198.45H51.39V197.2h8.17v1.26H56.2v6.24H54.74Z" style="fill: #ebece8"/>
        <path d="M65.07,203.23h1.37v1.46H65.07Z" style="fill: #ebece8"/>
      </g>
    </g>
  </g>
  <g id="Traditional_Inventive_Craft_Cider._Made_in_East_Austin_Texas" data-name="Traditional &amp; Inventive Craft Cider. Made in East Austin, Texas">
    <g>
      <path d="M44.53,41.5V45H38.76V63.57H34.55V45H28.78V41.5Z" style="fill: #ebece8"/>
      <path d="M49.36,63.57v-22h8.79c5,0,7,2.9,7.05,6.53a5.46,5.46,0,0,1-4,5.68L66,63.57H61.36l-4.15-9H53.57v9Zm4.21-12.4h3.11c3.3,0,4.31-1,4.31-3.11s-1.25-3.11-3.57-3.11H53.57Z" style="fill: #ebece8"/>
      <path d="M75.92,41.5h5.25l6.26,22.08H83.25L82,58.81H75l-1.31,4.76H69.57ZM76,55.33h5.13l-2.47-9.59H78.6Z" style="fill: #ebece8"/>
      <path d="M92,41.53h7.3c5.83,0,9.86,3.24,9.89,11s-4.06,11-9.89,11H92ZM96.25,60h2.81c4.82,0,6-3.54,6-7.48s-1.13-7.48-6-7.48H96.25Z" style="fill: #ebece8"/>
      <path d="M114.82,63.57v-22H119v22Z" style="fill: #ebece8"/>
      <path d="M140.22,41.5V45h-5.77V63.57h-4.21V45h-5.77V41.5Z" style="fill: #ebece8"/>
      <path d="M145.63,63.57v-22h4.21v22Z" style="fill: #ebece8"/>
      <path d="M164.83,63.88c-6,0-9.25-4.12-9.25-11.33s3.24-11.33,9.25-11.33,9.25,4.12,9.25,11.33S170.85,63.88,164.83,63.88Zm0-19.11c-3.45,0-5,2.63-5,7.79s1.56,7.79,5,7.79,5-2.63,5-7.79-1.55-7.8-5-7.8Z" style="fill: #ebece8"/>
      <path d="M179.33,63.57v-22h4.4l8.67,15h.06v-15h4v22H192.4l-9-15.69h-.06V63.57Z" style="fill: #ebece8"/>
      <path d="M207.48,41.5h5.25L219,63.57h-4.18l-1.22-4.76h-7l-1.31,4.76h-4.18Zm.06,13.83h5.13l-2.47-9.59h-.06Z" style="fill: #ebece8"/>
      <path d="M223.6,63.57v-22h4.21V60h9.59v3.54Z" style="fill: #ebece8"/>
      <path d="M270.11,53.44a23.51,23.51,0,0,1-2.69,5.4,5.06,5.06,0,0,0,3.11,1.5v3.54c-2.11,0-3-.31-5.5-2.32a7.51,7.51,0,0,1-5.59,2.32c-4.12,0-7.05-2-7.05-6.41,0-2.72,1.53-4.37,3.66-5.8a8.47,8.47,0,0,1-1.86-5.31c0-3.11,2.35-5.13,5.59-5.13A5.05,5.05,0,0,1,265,46.11v0c0,2.87-2.2,4.55-4.24,6.17a28.44,28.44,0,0,0,3.88,4.37,17.62,17.62,0,0,0,2.08-4.15Zm-10.5,6.9a4.17,4.17,0,0,0,2.93-1.22,20.13,20.13,0,0,1-4.4-4.73c-1,.85-1.77,1.47-1.77,2.9a3.25,3.25,0,0,0,3.23,3Zm-.7-10.69c1.28-1,2.6-2.23,2.6-3.66,0-1.22-.64-2.26-1.89-2.26a2.14,2.14,0,0,0-1.86,2.35,6.55,6.55,0,0,0,1.14,3.57Z" style="fill: #ebece8"/>
      <path d="M287.48,63.57v-22h4.21v22Z" style="fill: #ebece8"/>
      <path d="M299,63.57v-22h4.4l8.67,15h.06v-15h4v22H312l-9-15.69h0V63.57Z" style="fill: #ebece8"/>
      <path d="M320.7,41.53h4.15l3.91,16.24h.06l4.09-16.24h4.15l-5.83,22h-4.7Z" style="fill: #ebece8"/>
      <path d="M341.77,63.57v-22h14.59v3.54H346v5.25h7.54V53.9H346V60h10.7v3.54Z" style="fill: #ebece8"/>
      <path d="M362.16,63.57v-22h4.4l8.67,15h.06v-15h4v22H375.2l-9-15.69h-.06V63.57Z" style="fill: #ebece8"/>
      <path d="M399.93,41.5V45h-5.77V63.57H390V45h-5.77V41.5Z" style="fill: #ebece8"/>
      <path d="M405.33,63.57v-22h4.21v22Z" style="fill: #ebece8"/>
      <path d="M414.68,41.53h4.15l3.91,16.24h.06l4.09-16.24H431l-5.83,22h-4.7Z" style="fill: #ebece8"/>
      <path d="M435.74,63.57v-22h14.59v3.54H440v5.25h7.54V53.9H440V60h10.72v3.54Z" style="fill: #ebece8"/>
    </g>
    <g>
      <path d="M56.14,98.06c-.49,2.84-2.53,9.73-14.25,9.73-8.08,0-14.43-4.49-14.43-13.8,0-7.44,4.67-13,14.82-13,11.41,0,13.1,7.41,13.48,8.78h-5c-.28-.88-2.25-4.49-8.22-4.49-7.06,0-10,4-10,9.27,0,5.86,4.25,9,9.73,9,5.83,0,8.39-3.48,8.88-5.44Z" style="fill: #ebece8"/>
      <path d="M74.56,81.63H89.91c6,0,10.39,1.37,10.39,7.62a7.23,7.23,0,0,1-6.94,7.51h-.19L101,107.15H94.86l-7.41-10h-7.9v10h-5ZM89.17,93c4.07,0,6.14-.6,6.14-3.62s-2.07-3.58-6.14-3.58H79.55V93Z" style="fill: #ebece8"/>
      <path d="M129.65,81.63h5.69l12.39,25.53h-5.27l-2.67-5.86H125.08l-2.7,5.86h-5.3ZM137.83,97l-5.34-11.38L127.15,97Z" style="fill: #ebece8"/>
      <path d="M165.07,81.63h23.49v4.28h-18.5v5.93H186v4.28H170.1v11h-5Z" style="fill: #ebece8"/>
      <path d="M215.52,85.91H204.11V81.63h27.81v4.28H220.5v21.24h-5Z" style="fill: #ebece8"/>
      <path d="M295.49,98.06c-.49,2.84-2.53,9.73-14.25,9.73-8.08,0-14.43-4.49-14.43-13.8,0-7.44,4.67-13,14.82-13,11.41,0,13.1,7.41,13.48,8.78h-5c-.28-.88-2.25-4.49-8.22-4.49-7.06,0-10,4-10,9.27,0,5.86,4.25,9,9.73,9,5.83,0,8.39-3.48,8.88-5.44Z" style="fill: #ebece8"/>
      <path d="M314.23,81.63h5v25.53h-5Z" style="fill: #ebece8"/>
      <path d="M339.61,81.63H351.9c8.08,0,14.54,3.41,14.54,12.6,0,8.71-5.9,12.92-14.32,12.92h-12.5Zm10,21.24c8.5,0,11.8-2.6,11.8-8.57,0-6.25-3.44-8.39-11.8-8.39h-5v17Z" style="fill: #ebece8"/>
      <path d="M384.86,81.63h22.89v4.28h-17.9v5.93h15.41v4.28H389.85v6.74h18.33v4.28H384.86Z" style="fill: #ebece8"/>
      <path d="M426.22,81.63h15.34c6,0,10.39,1.37,10.39,7.62A7.23,7.23,0,0,1,445,96.76h-.19l7.83,10.39h-6.14l-7.41-10h-7.9v10h-5ZM440.83,93c4.07,0,6.14-.6,6.14-3.62s-2.07-3.58-6.14-3.58h-9.62V93Z" style="fill: #ebece8"/>
    </g>
    <g>
      <path d="M31.82,128.19h0v8.07H30V125.61h2.8l3.33,7.9,3.38-7.9H42.2v10.65H40.35v-8.07h0l-3.41,8.07H35.25Z" style="fill: #ebece8"/>
      <path d="M54.62,125.61H57l5.17,10.65H60l-1.11-2.45H52.72l-1.13,2.45H49.38ZM58,132l-2.23-4.75L53.58,132Z" style="fill: #ebece8"/>
      <path d="M69.41,125.61h5.13c3.37,0,6.06,1.42,6.06,5.26,0,3.63-2.46,5.39-6,5.39H69.41Zm4.19,8.86c3.54,0,4.92-1.08,4.92-3.57s-1.44-3.5-4.92-3.5H71.49v7.08Z" style="fill: #ebece8"/>
      <path d="M88.3,125.61h9.55v1.79H90.38v2.48h6.43v1.79H90.38v2.81H98v1.79H88.3Z" style="fill: #ebece8"/>
      <path d="M116.85,125.61h2.08v10.65h-2.08Z" style="fill: #ebece8"/>
      <path d="M127.45,125.61h2.2l7.12,7.69v-7.69h2v10.65h-1.9l-7.41-8v8h-2Z" style="fill: #ebece8"/>
      <path d="M158.29,125.61h9.55v1.79h-7.47v2.48h6.43v1.79h-6.43v2.81H168v1.79h-9.73Z" style="fill: #ebece8"/>
      <path d="M179.66,125.61H182l5.17,10.65H185l-1.11-2.45h-6.14l-1.13,2.45h-2.21Zm3.41,6.42-2.23-4.75L178.62,132Z" style="fill: #ebece8"/>
      <path d="M202.74,128.85c-.34-1-1.2-1.77-3.74-1.77-1.41,0-2.83.35-2.83,1.33,0,.45.26.94,2.39,1.2l2.52.38c2.39.37,3.79,1.29,3.79,3.08,0,2.52-2.4,3.46-5.24,3.46-4.57,0-5.68-2.26-5.93-3.06l2-.63c.38.78,1.17,1.9,4,1.9,1.7,0,3.11-.56,3.11-1.48,0-.69-.79-1.14-2.31-1.33l-2.55-.35c-2.46-.34-3.84-1.41-3.84-3,0-3.19,4.15-3.19,5-3.19,4.58,0,5.38,2.12,5.64,2.86Z" style="fill: #ebece8"/>
      <path d="M216.31,127.4h-4.76v-1.79h11.6v1.79h-4.76v8.86h-2.08Z" style="fill: #ebece8"/>
      <path d="M245.83,125.61h2.37l5.17,10.65h-2.2l-1.11-2.45h-6.14l-1.13,2.45h-2.21Zm3.41,6.42L247,127.28,244.79,132Z" style="fill: #ebece8"/>
      <path d="M271.92,131.69c0,3.43-2.18,4.83-5.65,4.83s-5.65-1.41-5.65-4.83v-6.08h2.08v5.93c0,1.76.63,3.19,3.57,3.19s3.57-1.44,3.57-3.19v-5.93h2.08Z" style="fill: #ebece8"/>
      <path d="M288.6,128.85c-.34-1-1.2-1.77-3.74-1.77-1.41,0-2.83.35-2.83,1.33,0,.45.26.94,2.39,1.2l2.52.38c2.39.37,3.79,1.29,3.79,3.08,0,2.52-2.4,3.46-5.24,3.46-4.57,0-5.68-2.26-5.93-3.06l2-.63c.38.78,1.17,1.9,4,1.9,1.7,0,3.11-.56,3.11-1.48,0-.69-.79-1.14-2.31-1.33l-2.55-.35c-2.46-.34-3.84-1.41-3.84-3,0-3.19,4.15-3.19,5-3.19,4.58,0,5.38,2.12,5.64,2.86Z" style="fill: #ebece8"/>
      <path d="M302.18,127.4h-4.76v-1.79H309v1.79h-4.76v8.86h-2.08Z" style="fill: #ebece8"/>
      <path d="M316.57,125.61h2.08v10.65h-2.08Z" style="fill: #ebece8"/>
      <path d="M327.16,125.61h2.2l7.12,7.69v-7.69h2v10.65h-1.9l-7.41-8v8h-2Z" style="fill: #ebece8"/>
      <path d="M347.27,134.18h2v2.15l-.92,2.18h-1l.79-2.26h-.85Z" style="fill: #ebece8"/>
      <path d="M373,127.4h-4.8v-1.79h11.6v1.79H375v8.86h-2Z" style="fill: #ebece8"/>
      <path d="M387.22,125.61h9.55v1.79H389.3v2.48h6.43v1.79H389.3v2.81h7.65v1.79h-9.73Z" style="fill: #ebece8"/>
      <path d="M409.36,132.25l-3.4,4h-2.71l4.82-5.51-4.45-5.14h2.65l3.09,3.65,3.08-3.65h2.64l-4.47,5.14,4.79,5.51h-2.67Z" style="fill: #ebece8"/>
      <path d="M426.65,125.61H429l5.17,10.65H432l-1.11-2.45h-6.14l-1.13,2.45h-2.21Zm3.41,6.42-2.23-4.75L425.61,132Z" style="fill: #ebece8"/>
      <path d="M449.73,128.85c-.34-1-1.2-1.77-3.74-1.77-1.41,0-2.83.35-2.83,1.33,0,.45.26.94,2.39,1.2l2.52.38c2.39.37,3.79,1.29,3.79,3.08,0,2.52-2.4,3.46-5.24,3.46-4.57,0-5.68-2.26-5.93-3.06l2-.63c.38.78,1.17,1.9,4,1.9,1.7,0,3.11-.56,3.11-1.48,0-.69-.79-1.14-2.31-1.33l-2.55-.35c-2.46-.34-3.84-1.41-3.84-3,0-3.19,4.15-3.19,5-3.19,4.58,0,5.38,2.12,5.64,2.86Z" style="fill: #ebece8"/>
    </g>
  </g>
  <g id="Grid">
    <line x1="144.46" y1="171.85" x2="144.46" y2="255.9" style="fill: none;stroke: #e3e5e0;stroke-miterlimit: 10;stroke-width: 3.7802700996398926px"/>
    <line x1="473.11" y1="171.85" x2="1.19" y2="171.85" style="fill: none;stroke: #e3e5e0;stroke-miterlimit: 10;stroke-width: 3.7802700996398926px"/>
    <path d="M471.08,3.92V252H3.92V3.92H471.08M475,0H0V255.9H475Z" style="fill: #e3e5e0"/>
  </g>
</svg>
